M48
;DRILL file {KiCad 4.0.6} date 07/28/17 17:58:24
;FORMAT={-:-/ absolute / inch / decimal}
FMAT,2
INCH,TZ
T1C0.016
T2C0.020
T3C0.028
T4C0.031
T5C0.040
T6C0.126
%
G90
G05
M72
T1
X4.34Y-4.36
X4.65Y-4.65
X5.332Y-4.504
X5.44Y-4.135
T2
X3.615Y-4.41
X3.63Y-2.88
X3.705Y-4.66
X3.74Y-3.7
X3.74Y-4.88
X3.76Y-3.805
X3.78Y-4.86
X3.78Y-4.98
X3.795Y-3.095
X3.81Y-2.75
X3.81Y-4.95
X3.815Y-4.82
X3.845Y-4.92
X3.85Y-4.33
X3.85Y-4.55
X3.87Y-4.15
X3.88Y-3.58
X3.91Y-4.7175
X4.03Y-2.81
X4.03Y-5.17
X4.0525Y-4.04
X4.085Y-4.795
X4.0925Y-5.7175
X4.1Y-4.34
X4.1Y-4.6525
X4.11Y-2.98
X4.1491Y-3.6891
X4.1525Y-4.0025
X4.2Y-5.22
X4.215Y-3.405
X4.23Y-4.74
X4.24Y-3.75
X4.24Y-4.14
X4.24Y-5.35
X4.245Y-4.63
X4.25Y-4.43
X4.2725Y-5.635
X4.3Y-4.14
X4.31Y-2.425
X4.33Y-5.39
X4.33Y-5.62
X4.34Y-4.72
X4.36Y-5.355
X4.395Y-4.51
X4.41Y-5.22
X4.44Y-3.37
X4.45Y-5.03
X4.45Y-5.1
X4.45Y-5.38
X4.48Y-4.19
X4.52Y-5.4
X4.54Y-3.145
X4.56Y-5.39
X4.59Y-2.82
X4.59Y-3.73
X4.6Y-5.34
X4.61Y-3.385
X4.695Y-3.71
X4.735Y-5.01
X4.75Y-4.905
X4.77Y-3.5
X4.805Y-3.42
X4.81Y-3.12
X4.83Y-3.05
X4.83Y-4.92
X4.87Y-3.35
X4.87Y-5.24
X4.89Y-2.9425
X4.91Y-3.715
X4.95Y-3.79
X4.97Y-4.56
X4.98Y-2.42
X5.08Y-2.97
X5.085Y-3.625
X5.15Y-4.3
X5.1575Y-3.63
X5.18Y-5.1
X5.22Y-5.1
X5.2225Y-2.9725
X5.29Y-3.71
X5.34Y-4.98
X5.36Y-2.99
X5.37Y-4.86
X5.375Y-3.73
X5.39Y-2.9225
X5.39Y-3.445
X5.39Y-4.98
X5.405Y-3.34
X5.41Y-4.89
X5.43Y-5.015
X5.4342Y-3.2892
X5.44Y-4.28
X5.44Y-4.83
X5.45Y-4.88
X5.4775Y-2.8125
X5.51Y-5.63
X5.55Y-2.9225
X5.55Y-2.965
X5.55Y-4.22
X5.55Y-5.09
X5.5521Y-3.4916
X5.5854Y-3.4628
X5.59Y-4.35
X5.605Y-3.98
X5.62Y-3.945
X5.6325Y-3.445
X5.65Y-3.916
X5.66Y-2.44
X5.66Y-4.
X5.66Y-4.85
X5.67Y-3.73
X5.67Y-4.11
X5.67Y-4.15
X5.67Y-4.97
X5.678Y-3.888
X5.685Y-3.565
X5.72Y-4.59
X5.73Y-4.85
X5.77Y-5.62
X5.792Y-4.778
X5.81Y-4.034
X5.816Y-3.99
X5.84Y-3.25
X5.87Y-3.926
X5.89Y-5.005
X5.894Y-3.958
X5.91Y-3.3475
X5.9298Y-3.9878
X5.93Y-3.988
X5.93Y-4.205
X5.955Y-5.37
X6.Y-3.02
X6.Y-4.44
X6.008Y-3.6364
X6.05Y-3.785
X6.06Y-4.505
X6.065Y-4.8
X6.065Y-5.065
X6.125Y-5.2
X6.13Y-2.83
X6.23Y-3.9
X6.23Y-5.28
X6.26Y-2.73
X6.27Y-4.125
X6.285Y-4.89
X6.295Y-4.335
X6.3Y-2.97
X6.305Y-5.52
X6.31Y-3.08
X6.31Y-3.53
X6.31Y-3.65
X6.31Y-4.85
X6.33Y-3.94
X6.33Y-3.985
X6.335Y-4.32
X6.34Y-4.365
X6.35Y-2.98
X6.39Y-2.79
X6.395Y-4.945
X6.4Y-4.69
X6.41Y-5.42
X6.48Y-4.535
X6.48Y-4.92
X6.5Y-3.6
X6.515Y-4.49
X6.52Y-5.055
X6.53Y-4.875
X6.5566Y-4.4234
X6.57Y-4.35
X6.585Y-4.77
X6.615Y-2.935
X6.6225Y-5.2425
X6.63Y-4.65
X6.63Y-5.045
X6.635Y-4.845
X6.64Y-4.28
X6.64Y-5.335
X6.65Y-3.45
X6.6575Y-3.7625
X6.695Y-2.955
X6.72Y-4.71
X6.72Y-5.07
X6.76Y-4.45
X6.76Y-4.53
X6.78Y-4.19
X6.78Y-4.325
X6.8Y-4.11
X6.815Y-5.1275
T3
X5.63Y-2.87
X5.66Y-3.01
T4
X4.11Y-2.54
X4.11Y-2.64
X4.11Y-2.74
X4.41Y-2.54
X4.41Y-2.64
X4.41Y-2.74
X4.7Y-5.4
X4.7Y-5.5
X4.7Y-5.6
X4.725Y-2.54
X4.725Y-2.64
X4.725Y-2.74
X5.Y-5.4
X5.Y-5.5
X5.Y-5.6
X5.025Y-2.54
X5.025Y-2.64
X5.025Y-2.74
X5.29Y-5.18
X5.29Y-5.48
X5.345Y-2.55
X5.345Y-2.65
X5.345Y-2.75
X5.39Y-5.18
X5.39Y-5.48
X5.49Y-5.18
X5.49Y-5.48
X5.59Y-5.18
X5.59Y-5.48
X5.645Y-2.55
X5.645Y-2.65
X5.645Y-2.75
X5.69Y-5.18
X5.69Y-5.48
X5.79Y-5.18
X5.79Y-5.48
X5.89Y-5.18
X5.89Y-5.48
X5.99Y-5.18
X5.99Y-5.48
T5
X3.45Y-3.05
X3.45Y-3.15
X3.45Y-3.25
X3.45Y-3.35
X3.45Y-3.45
X3.45Y-3.55
X3.45Y-3.65
X3.45Y-3.75
X3.45Y-3.85
X3.45Y-3.95
X3.45Y-4.05
X3.45Y-4.15
X3.45Y-4.25
X3.45Y-4.35
X3.45Y-4.45
X3.45Y-4.55
X3.45Y-4.65
X3.45Y-4.75
X3.45Y-4.85
X3.45Y-4.95
X3.55Y-3.05
X3.55Y-3.15
X3.55Y-3.25
X3.55Y-3.35
X3.55Y-3.45
X3.55Y-3.55
X3.55Y-3.65
X3.55Y-3.75
X3.55Y-3.85
X3.55Y-3.95
X3.55Y-4.05
X3.55Y-4.15
X3.55Y-4.25
X3.55Y-4.35
X3.55Y-4.45
X3.55Y-4.55
X3.55Y-4.65
X3.55Y-4.75
X3.55Y-4.85
X3.55Y-4.95
X6.45Y-3.0508
X6.45Y-3.1508
X6.45Y-3.2508
X6.45Y-3.3508
X6.45Y-3.4508
X6.45Y-3.5508
X6.45Y-3.6508
X6.45Y-3.7508
X6.45Y-3.8508
X6.45Y-3.9508
X6.45Y-4.0508
X6.45Y-4.1508
X6.55Y-3.0508
X6.55Y-3.1508
X6.55Y-3.2508
X6.55Y-3.3508
X6.55Y-3.4508
X6.55Y-3.5508
X6.55Y-3.6508
X6.55Y-3.7508
X6.55Y-3.8508
X6.55Y-3.9508
X6.55Y-4.0508
X6.55Y-4.1508
T6
X3.875Y-2.3125
X3.875Y-5.6875
X6.125Y-2.3125
X6.125Y-5.6875
T0
M30
