%FSLAX45Y45*%
G04 Gerber Fmt 4.5, Leading zero omitted, Abs format (unit mm)*
G04 Created by KiCad (PCBNEW 4.0.6) date 07/28/17 17:58:25*
%MOMM*%
%LPD*%
G01*
G04 APERTURE LIST*
%ADD10C,0.127000*%
%ADD11C,0.200000*%
%ADD12C,0.300000*%
G04 APERTURE END LIST*
D10*
D11*
X13970030Y-5460820D02*
X15716280Y-5460820D01*
X13970030Y-14858820D02*
X15716280Y-14858820D01*
X8001030Y-7143570D02*
X8001030Y-13176070D01*
X9683780Y-14858820D02*
X11430030Y-14858820D01*
X13970030Y-14604820D02*
X13970030Y-14858820D01*
X11430030Y-14604820D02*
X11430030Y-14858820D01*
X13970030Y-5460820D02*
X13970030Y-5714820D01*
X11430030Y-5460820D02*
X11430030Y-5714820D01*
X11430030Y-14604820D02*
X13970030Y-14604820D01*
X11430030Y-5714820D02*
X13970030Y-5714820D01*
X15716280Y-14858820D02*
X17399030Y-13176070D01*
X8001030Y-13176070D02*
X9683780Y-14858820D01*
X17399030Y-7143570D02*
X17399030Y-13176070D01*
X15716280Y-5460820D02*
X17399030Y-7143570D01*
X8001030Y-7143570D02*
X9683780Y-5460820D01*
X9683780Y-5460820D02*
X11430030Y-5460820D01*
D11*
X11003600Y-11054400D02*
X11043600Y-11094400D01*
X11043600Y-11054400D02*
X11003600Y-11094400D01*
X11791000Y-11791000D02*
X11831000Y-11831000D01*
X11831000Y-11791000D02*
X11791000Y-11831000D01*
X13523280Y-11420160D02*
X13563280Y-11460160D01*
X13563280Y-11420160D02*
X13523280Y-11460160D01*
X13797600Y-10482900D02*
X13837600Y-10522900D01*
X13837600Y-10482900D02*
X13797600Y-10522900D01*
X9207500Y-11201400D02*
G75*
G03X9207500Y-11201400I-25400J0D01*
G01*
X9245600Y-7315200D02*
G75*
G03X9245600Y-7315200I-25400J0D01*
G01*
X9436100Y-11836400D02*
G75*
G03X9436100Y-11836400I-25400J0D01*
G01*
X9525000Y-9398000D02*
G75*
G03X9525000Y-9398000I-25400J0D01*
G01*
X9525000Y-12395200D02*
G75*
G03X9525000Y-12395200I-25400J0D01*
G01*
X9575800Y-9664700D02*
G75*
G03X9575800Y-9664700I-25400J0D01*
G01*
X9626600Y-12344400D02*
G75*
G03X9626600Y-12344400I-25400J0D01*
G01*
X9626600Y-12649200D02*
G75*
G03X9626600Y-12649200I-25400J0D01*
G01*
X9664700Y-7861300D02*
G75*
G03X9664700Y-7861300I-25400J0D01*
G01*
X9702800Y-6985000D02*
G75*
G03X9702800Y-6985000I-25400J0D01*
G01*
X9702800Y-12573000D02*
G75*
G03X9702800Y-12573000I-25400J0D01*
G01*
X9715500Y-12242800D02*
G75*
G03X9715500Y-12242800I-25400J0D01*
G01*
X9791700Y-12496800D02*
G75*
G03X9791700Y-12496800I-25400J0D01*
G01*
X9804400Y-10998200D02*
G75*
G03X9804400Y-10998200I-25400J0D01*
G01*
X9804400Y-11557000D02*
G75*
G03X9804400Y-11557000I-25400J0D01*
G01*
X9855200Y-10541000D02*
G75*
G03X9855200Y-10541000I-25400J0D01*
G01*
X9880600Y-9093200D02*
G75*
G03X9880600Y-9093200I-25400J0D01*
G01*
X9956800Y-11982450D02*
G75*
G03X9956800Y-11982450I-25400J0D01*
G01*
X10261600Y-7137400D02*
G75*
G03X10261600Y-7137400I-25400J0D01*
G01*
X10261600Y-13131800D02*
G75*
G03X10261600Y-13131800I-25400J0D01*
G01*
X10318750Y-10261600D02*
G75*
G03X10318750Y-10261600I-25400J0D01*
G01*
X10401300Y-12179300D02*
G75*
G03X10401300Y-12179300I-25400J0D01*
G01*
X10420350Y-14522450D02*
G75*
G03X10420350Y-14522450I-25400J0D01*
G01*
X10439400Y-11023600D02*
G75*
G03X10439400Y-11023600I-25400J0D01*
G01*
X10439400Y-11817350D02*
G75*
G03X10439400Y-11817350I-25400J0D01*
G01*
X10464800Y-7569200D02*
G75*
G03X10464800Y-7569200I-25400J0D01*
G01*
X10564178Y-9370378D02*
G75*
G03X10564178Y-9370378I-25400J0D01*
G01*
X10572750Y-10166350D02*
G75*
G03X10572750Y-10166350I-25400J0D01*
G01*
X10693400Y-13258800D02*
G75*
G03X10693400Y-13258800I-25400J0D01*
G01*
X10731500Y-8648700D02*
G75*
G03X10731500Y-8648700I-25400J0D01*
G01*
X10769600Y-12039600D02*
G75*
G03X10769600Y-12039600I-25400J0D01*
G01*
X10795000Y-9525000D02*
G75*
G03X10795000Y-9525000I-25400J0D01*
G01*
X10795000Y-10515600D02*
G75*
G03X10795000Y-10515600I-25400J0D01*
G01*
X10795000Y-13589000D02*
G75*
G03X10795000Y-13589000I-25400J0D01*
G01*
X10807700Y-11760200D02*
G75*
G03X10807700Y-11760200I-25400J0D01*
G01*
X10820400Y-11252200D02*
G75*
G03X10820400Y-11252200I-25400J0D01*
G01*
X10877550Y-14312900D02*
G75*
G03X10877550Y-14312900I-25400J0D01*
G01*
X10947400Y-10515600D02*
G75*
G03X10947400Y-10515600I-25400J0D01*
G01*
X10972800Y-6159500D02*
G75*
G03X10972800Y-6159500I-25400J0D01*
G01*
X11023600Y-13690600D02*
G75*
G03X11023600Y-13690600I-25400J0D01*
G01*
X11023600Y-14274800D02*
G75*
G03X11023600Y-14274800I-25400J0D01*
G01*
X11049000Y-11988800D02*
G75*
G03X11049000Y-11988800I-25400J0D01*
G01*
X11099800Y-13601700D02*
G75*
G03X11099800Y-13601700I-25400J0D01*
G01*
X11188700Y-11455400D02*
G75*
G03X11188700Y-11455400I-25400J0D01*
G01*
X11226800Y-13258800D02*
G75*
G03X11226800Y-13258800I-25400J0D01*
G01*
X11303000Y-8559800D02*
G75*
G03X11303000Y-8559800I-25400J0D01*
G01*
X11328400Y-12776200D02*
G75*
G03X11328400Y-12776200I-25400J0D01*
G01*
X11328400Y-12954000D02*
G75*
G03X11328400Y-12954000I-25400J0D01*
G01*
X11328400Y-13665200D02*
G75*
G03X11328400Y-13665200I-25400J0D01*
G01*
X11404600Y-10642600D02*
G75*
G03X11404600Y-10642600I-25400J0D01*
G01*
X11506200Y-13716000D02*
G75*
G03X11506200Y-13716000I-25400J0D01*
G01*
X11557000Y-7988300D02*
G75*
G03X11557000Y-7988300I-25400J0D01*
G01*
X11607800Y-13690600D02*
G75*
G03X11607800Y-13690600I-25400J0D01*
G01*
X11684000Y-7162800D02*
G75*
G03X11684000Y-7162800I-25400J0D01*
G01*
X11684000Y-9474200D02*
G75*
G03X11684000Y-9474200I-25400J0D01*
G01*
X11709400Y-13563600D02*
G75*
G03X11709400Y-13563600I-25400J0D01*
G01*
X11734800Y-8597900D02*
G75*
G03X11734800Y-8597900I-25400J0D01*
G01*
X11950700Y-9423400D02*
G75*
G03X11950700Y-9423400I-25400J0D01*
G01*
X12052300Y-12725400D02*
G75*
G03X12052300Y-12725400I-25400J0D01*
G01*
X12090400Y-12458700D02*
G75*
G03X12090400Y-12458700I-25400J0D01*
G01*
X12141200Y-8890000D02*
G75*
G03X12141200Y-8890000I-25400J0D01*
G01*
X12230100Y-8686800D02*
G75*
G03X12230100Y-8686800I-25400J0D01*
G01*
X12242800Y-7924800D02*
G75*
G03X12242800Y-7924800I-25400J0D01*
G01*
X12293600Y-7747000D02*
G75*
G03X12293600Y-7747000I-25400J0D01*
G01*
X12293600Y-12496800D02*
G75*
G03X12293600Y-12496800I-25400J0D01*
G01*
X12395200Y-8509000D02*
G75*
G03X12395200Y-8509000I-25400J0D01*
G01*
X12395200Y-13309600D02*
G75*
G03X12395200Y-13309600I-25400J0D01*
G01*
X12446000Y-7473950D02*
G75*
G03X12446000Y-7473950I-25400J0D01*
G01*
X12496800Y-9436100D02*
G75*
G03X12496800Y-9436100I-25400J0D01*
G01*
X12598400Y-9626600D02*
G75*
G03X12598400Y-9626600I-25400J0D01*
G01*
X12649200Y-11582400D02*
G75*
G03X12649200Y-11582400I-25400J0D01*
G01*
X12674600Y-6146800D02*
G75*
G03X12674600Y-6146800I-25400J0D01*
G01*
X12928600Y-7543800D02*
G75*
G03X12928600Y-7543800I-25400J0D01*
G01*
X12941300Y-9207500D02*
G75*
G03X12941300Y-9207500I-25400J0D01*
G01*
X13106400Y-10922000D02*
G75*
G03X13106400Y-10922000I-25400J0D01*
G01*
X13125450Y-9220200D02*
G75*
G03X13125450Y-9220200I-25400J0D01*
G01*
X13182600Y-12954000D02*
G75*
G03X13182600Y-12954000I-25400J0D01*
G01*
X13284200Y-12954000D02*
G75*
G03X13284200Y-12954000I-25400J0D01*
G01*
X13290550Y-7550150D02*
G75*
G03X13290550Y-7550150I-25400J0D01*
G01*
X13462000Y-9423400D02*
G75*
G03X13462000Y-9423400I-25400J0D01*
G01*
X13589000Y-12649200D02*
G75*
G03X13589000Y-12649200I-25400J0D01*
G01*
X13639800Y-7594600D02*
G75*
G03X13639800Y-7594600I-25400J0D01*
G01*
X13665200Y-12344400D02*
G75*
G03X13665200Y-12344400I-25400J0D01*
G01*
X13677900Y-9474200D02*
G75*
G03X13677900Y-9474200I-25400J0D01*
G01*
X13716000Y-7423150D02*
G75*
G03X13716000Y-7423150I-25400J0D01*
G01*
X13716000Y-8750300D02*
G75*
G03X13716000Y-8750300I-25400J0D01*
G01*
X13716000Y-12649200D02*
G75*
G03X13716000Y-12649200I-25400J0D01*
G01*
X13754100Y-8483600D02*
G75*
G03X13754100Y-8483600I-25400J0D01*
G01*
X13766800Y-12420600D02*
G75*
G03X13766800Y-12420600I-25400J0D01*
G01*
X13817600Y-12738100D02*
G75*
G03X13817600Y-12738100I-25400J0D01*
G01*
X13828300Y-8354600D02*
G75*
G03X13828300Y-8354600I-25400J0D01*
G01*
X13843000Y-10871200D02*
G75*
G03X13843000Y-10871200I-25400J0D01*
G01*
X13843000Y-12268200D02*
G75*
G03X13843000Y-12268200I-25400J0D01*
G01*
X13868400Y-12395200D02*
G75*
G03X13868400Y-12395200I-25400J0D01*
G01*
X13938250Y-7143750D02*
G75*
G03X13938250Y-7143750I-25400J0D01*
G01*
X14020800Y-14300200D02*
G75*
G03X14020800Y-14300200I-25400J0D01*
G01*
X14122400Y-7423150D02*
G75*
G03X14122400Y-7423150I-25400J0D01*
G01*
X14122400Y-7531100D02*
G75*
G03X14122400Y-7531100I-25400J0D01*
G01*
X14122400Y-10718800D02*
G75*
G03X14122400Y-10718800I-25400J0D01*
G01*
X14122400Y-12928600D02*
G75*
G03X14122400Y-12928600I-25400J0D01*
G01*
X14127734Y-8868664D02*
G75*
G03X14127734Y-8868664I-25400J0D01*
G01*
X14212316Y-8795512D02*
G75*
G03X14212316Y-8795512I-25400J0D01*
G01*
X14224000Y-11049000D02*
G75*
G03X14224000Y-11049000I-25400J0D01*
G01*
X14262100Y-10109200D02*
G75*
G03X14262100Y-10109200I-25400J0D01*
G01*
X14300200Y-10020300D02*
G75*
G03X14300200Y-10020300I-25400J0D01*
G01*
X14331950Y-8750300D02*
G75*
G03X14331950Y-8750300I-25400J0D01*
G01*
X14376400Y-9946640D02*
G75*
G03X14376400Y-9946640I-25400J0D01*
G01*
X14401800Y-6197600D02*
G75*
G03X14401800Y-6197600I-25400J0D01*
G01*
X14401800Y-10160000D02*
G75*
G03X14401800Y-10160000I-25400J0D01*
G01*
X14401800Y-12319000D02*
G75*
G03X14401800Y-12319000I-25400J0D01*
G01*
X14427200Y-9474200D02*
G75*
G03X14427200Y-9474200I-25400J0D01*
G01*
X14427200Y-10439400D02*
G75*
G03X14427200Y-10439400I-25400J0D01*
G01*
X14427200Y-10541000D02*
G75*
G03X14427200Y-10541000I-25400J0D01*
G01*
X14427200Y-12623800D02*
G75*
G03X14427200Y-12623800I-25400J0D01*
G01*
X14447520Y-9875520D02*
G75*
G03X14447520Y-9875520I-25400J0D01*
G01*
X14465300Y-9055100D02*
G75*
G03X14465300Y-9055100I-25400J0D01*
G01*
X14554200Y-11658600D02*
G75*
G03X14554200Y-11658600I-25400J0D01*
G01*
X14579600Y-12319000D02*
G75*
G03X14579600Y-12319000I-25400J0D01*
G01*
X14681200Y-14274800D02*
G75*
G03X14681200Y-14274800I-25400J0D01*
G01*
X14737080Y-12136120D02*
G75*
G03X14737080Y-12136120I-25400J0D01*
G01*
X14782800Y-10246360D02*
G75*
G03X14782800Y-10246360I-25400J0D01*
G01*
X14798040Y-10134600D02*
G75*
G03X14798040Y-10134600I-25400J0D01*
G01*
X14859000Y-8255000D02*
G75*
G03X14859000Y-8255000I-25400J0D01*
G01*
X14935200Y-9972040D02*
G75*
G03X14935200Y-9972040I-25400J0D01*
G01*
X14986000Y-12712700D02*
G75*
G03X14986000Y-12712700I-25400J0D01*
G01*
X14996160Y-10053320D02*
G75*
G03X14996160Y-10053320I-25400J0D01*
G01*
X15036800Y-8502650D02*
G75*
G03X15036800Y-8502650I-25400J0D01*
G01*
X15086965Y-10128885D02*
G75*
G03X15086965Y-10128885I-25400J0D01*
G01*
X15087600Y-10129520D02*
G75*
G03X15087600Y-10129520I-25400J0D01*
G01*
X15087600Y-10680700D02*
G75*
G03X15087600Y-10680700I-25400J0D01*
G01*
X15151100Y-13639800D02*
G75*
G03X15151100Y-13639800I-25400J0D01*
G01*
X15265400Y-7670800D02*
G75*
G03X15265400Y-7670800I-25400J0D01*
G01*
X15265400Y-11277600D02*
G75*
G03X15265400Y-11277600I-25400J0D01*
G01*
X15285813Y-9236499D02*
G75*
G03X15285813Y-9236499I-25400J0D01*
G01*
X15392400Y-9613900D02*
G75*
G03X15392400Y-9613900I-25400J0D01*
G01*
X15417800Y-11442700D02*
G75*
G03X15417800Y-11442700I-25400J0D01*
G01*
X15430500Y-12192000D02*
G75*
G03X15430500Y-12192000I-25400J0D01*
G01*
X15430500Y-12865100D02*
G75*
G03X15430500Y-12865100I-25400J0D01*
G01*
X15582900Y-13208000D02*
G75*
G03X15582900Y-13208000I-25400J0D01*
G01*
X15595600Y-7188200D02*
G75*
G03X15595600Y-7188200I-25400J0D01*
G01*
X15849600Y-9906000D02*
G75*
G03X15849600Y-9906000I-25400J0D01*
G01*
X15849600Y-13411200D02*
G75*
G03X15849600Y-13411200I-25400J0D01*
G01*
X15925800Y-6934200D02*
G75*
G03X15925800Y-6934200I-25400J0D01*
G01*
X15951200Y-10477500D02*
G75*
G03X15951200Y-10477500I-25400J0D01*
G01*
X15989300Y-12420600D02*
G75*
G03X15989300Y-12420600I-25400J0D01*
G01*
X16014700Y-11010900D02*
G75*
G03X16014700Y-11010900I-25400J0D01*
G01*
X16027400Y-7543800D02*
G75*
G03X16027400Y-7543800I-25400J0D01*
G01*
X16040100Y-14020800D02*
G75*
G03X16040100Y-14020800I-25400J0D01*
G01*
X16052800Y-7823200D02*
G75*
G03X16052800Y-7823200I-25400J0D01*
G01*
X16052800Y-8966200D02*
G75*
G03X16052800Y-8966200I-25400J0D01*
G01*
X16052800Y-9271000D02*
G75*
G03X16052800Y-9271000I-25400J0D01*
G01*
X16052800Y-12319000D02*
G75*
G03X16052800Y-12319000I-25400J0D01*
G01*
X16103600Y-10007600D02*
G75*
G03X16103600Y-10007600I-25400J0D01*
G01*
X16103600Y-10121900D02*
G75*
G03X16103600Y-10121900I-25400J0D01*
G01*
X16116300Y-10972800D02*
G75*
G03X16116300Y-10972800I-25400J0D01*
G01*
X16129000Y-11087100D02*
G75*
G03X16129000Y-11087100I-25400J0D01*
G01*
X16154400Y-7569200D02*
G75*
G03X16154400Y-7569200I-25400J0D01*
G01*
X16256000Y-7086600D02*
G75*
G03X16256000Y-7086600I-25400J0D01*
G01*
X16268700Y-12560300D02*
G75*
G03X16268700Y-12560300I-25400J0D01*
G01*
X16281400Y-11912600D02*
G75*
G03X16281400Y-11912600I-25400J0D01*
G01*
X16306800Y-13766800D02*
G75*
G03X16306800Y-13766800I-25400J0D01*
G01*
X16484600Y-11518900D02*
G75*
G03X16484600Y-11518900I-25400J0D01*
G01*
X16484600Y-12496800D02*
G75*
G03X16484600Y-12496800I-25400J0D01*
G01*
X16535400Y-9144000D02*
G75*
G03X16535400Y-9144000I-25400J0D01*
G01*
X16573500Y-11404600D02*
G75*
G03X16573500Y-11404600I-25400J0D01*
G01*
X16586200Y-12839700D02*
G75*
G03X16586200Y-12839700I-25400J0D01*
G01*
X16611600Y-12382500D02*
G75*
G03X16611600Y-12382500I-25400J0D01*
G01*
X16679200Y-11235400D02*
G75*
G03X16679200Y-11235400I-25400J0D01*
G01*
X16713200Y-11049000D02*
G75*
G03X16713200Y-11049000I-25400J0D01*
G01*
X16751300Y-12115800D02*
G75*
G03X16751300Y-12115800I-25400J0D01*
G01*
X16827500Y-7454900D02*
G75*
G03X16827500Y-7454900I-25400J0D01*
G01*
X16846550Y-13315950D02*
G75*
G03X16846550Y-13315950I-25400J0D01*
G01*
X16865600Y-11811000D02*
G75*
G03X16865600Y-11811000I-25400J0D01*
G01*
X16865600Y-12814300D02*
G75*
G03X16865600Y-12814300I-25400J0D01*
G01*
X16878300Y-12306300D02*
G75*
G03X16878300Y-12306300I-25400J0D01*
G01*
X16891000Y-10871200D02*
G75*
G03X16891000Y-10871200I-25400J0D01*
G01*
X16891000Y-13550900D02*
G75*
G03X16891000Y-13550900I-25400J0D01*
G01*
X16916400Y-8763000D02*
G75*
G03X16916400Y-8763000I-25400J0D01*
G01*
X16935450Y-9556750D02*
G75*
G03X16935450Y-9556750I-25400J0D01*
G01*
X17030700Y-7505700D02*
G75*
G03X17030700Y-7505700I-25400J0D01*
G01*
X17094200Y-11963400D02*
G75*
G03X17094200Y-11963400I-25400J0D01*
G01*
X17094200Y-12877800D02*
G75*
G03X17094200Y-12877800I-25400J0D01*
G01*
X17195800Y-11303000D02*
G75*
G03X17195800Y-11303000I-25400J0D01*
G01*
X17195800Y-11506200D02*
G75*
G03X17195800Y-11506200I-25400J0D01*
G01*
X17246600Y-10642600D02*
G75*
G03X17246600Y-10642600I-25400J0D01*
G01*
X17246600Y-10985500D02*
G75*
G03X17246600Y-10985500I-25400J0D01*
G01*
X17297400Y-10439400D02*
G75*
G03X17297400Y-10439400I-25400J0D01*
G01*
X17335500Y-13023850D02*
G75*
G03X17335500Y-13023850I-25400J0D01*
G01*
X14300200Y-7254240D02*
X14300200Y-7325360D01*
X14264640Y-7289800D02*
X14335760Y-7289800D01*
X14376400Y-7609840D02*
X14376400Y-7680960D01*
X14340840Y-7645400D02*
X14411960Y-7645400D01*
X10467685Y-6479884D02*
X10467685Y-6423315D01*
X10411116Y-6423315D01*
X10411116Y-6479884D01*
X10467685Y-6479884D01*
X10467685Y-6733884D02*
X10467685Y-6677315D01*
X10411116Y-6677315D01*
X10411116Y-6733884D01*
X10467685Y-6733884D01*
X10467685Y-6987884D02*
X10467685Y-6931315D01*
X10411116Y-6931315D01*
X10411116Y-6987884D01*
X10467685Y-6987884D01*
X11229684Y-6479884D02*
X11229684Y-6423315D01*
X11173116Y-6423315D01*
X11173116Y-6479884D01*
X11229684Y-6479884D01*
X11229684Y-6733884D02*
X11229684Y-6677315D01*
X11173116Y-6677315D01*
X11173116Y-6733884D01*
X11229684Y-6733884D01*
X11229684Y-6987884D02*
X11229684Y-6931315D01*
X11173116Y-6931315D01*
X11173116Y-6987884D01*
X11229684Y-6987884D01*
X11966284Y-13744284D02*
X11966284Y-13687715D01*
X11909715Y-13687715D01*
X11909715Y-13744284D01*
X11966284Y-13744284D01*
X11966284Y-13998284D02*
X11966284Y-13941715D01*
X11909715Y-13941715D01*
X11909715Y-13998284D01*
X11966284Y-13998284D01*
X11966284Y-14252284D02*
X11966284Y-14195715D01*
X11909715Y-14195715D01*
X11909715Y-14252284D01*
X11966284Y-14252284D01*
X12029784Y-6479884D02*
X12029784Y-6423315D01*
X11973215Y-6423315D01*
X11973215Y-6479884D01*
X12029784Y-6479884D01*
X12029784Y-6733884D02*
X12029784Y-6677315D01*
X11973215Y-6677315D01*
X11973215Y-6733884D01*
X12029784Y-6733884D01*
X12029784Y-6987884D02*
X12029784Y-6931315D01*
X11973215Y-6931315D01*
X11973215Y-6987884D01*
X12029784Y-6987884D01*
X12728284Y-13744284D02*
X12728284Y-13687715D01*
X12671715Y-13687715D01*
X12671715Y-13744284D01*
X12728284Y-13744284D01*
X12728284Y-13998284D02*
X12728284Y-13941715D01*
X12671715Y-13941715D01*
X12671715Y-13998284D01*
X12728284Y-13998284D01*
X12728284Y-14252284D02*
X12728284Y-14195715D01*
X12671715Y-14195715D01*
X12671715Y-14252284D01*
X12728284Y-14252284D01*
X12791784Y-6479884D02*
X12791784Y-6423315D01*
X12735215Y-6423315D01*
X12735215Y-6479884D01*
X12791784Y-6479884D01*
X12791784Y-6733884D02*
X12791784Y-6677315D01*
X12735215Y-6677315D01*
X12735215Y-6733884D01*
X12791784Y-6733884D01*
X12791784Y-6987884D02*
X12791784Y-6931315D01*
X12735215Y-6931315D01*
X12735215Y-6987884D01*
X12791784Y-6987884D01*
X13464884Y-13185484D02*
X13464884Y-13128915D01*
X13408315Y-13128915D01*
X13408315Y-13185484D01*
X13464884Y-13185484D01*
X13464884Y-13947484D02*
X13464884Y-13890915D01*
X13408315Y-13890915D01*
X13408315Y-13947484D01*
X13464884Y-13947484D01*
X13604584Y-6505284D02*
X13604584Y-6448715D01*
X13548015Y-6448715D01*
X13548015Y-6505284D01*
X13604584Y-6505284D01*
X13604584Y-6759284D02*
X13604584Y-6702715D01*
X13548015Y-6702715D01*
X13548015Y-6759284D01*
X13604584Y-6759284D01*
X13604584Y-7013284D02*
X13604584Y-6956715D01*
X13548015Y-6956715D01*
X13548015Y-7013284D01*
X13604584Y-7013284D01*
X13718884Y-13185484D02*
X13718884Y-13128915D01*
X13662315Y-13128915D01*
X13662315Y-13185484D01*
X13718884Y-13185484D01*
X13718884Y-13947484D02*
X13718884Y-13890915D01*
X13662315Y-13890915D01*
X13662315Y-13947484D01*
X13718884Y-13947484D01*
X13972884Y-13185484D02*
X13972884Y-13128915D01*
X13916315Y-13128915D01*
X13916315Y-13185484D01*
X13972884Y-13185484D01*
X13972884Y-13947484D02*
X13972884Y-13890915D01*
X13916315Y-13890915D01*
X13916315Y-13947484D01*
X13972884Y-13947484D01*
X14226884Y-13185484D02*
X14226884Y-13128915D01*
X14170315Y-13128915D01*
X14170315Y-13185484D01*
X14226884Y-13185484D01*
X14226884Y-13947484D02*
X14226884Y-13890915D01*
X14170315Y-13890915D01*
X14170315Y-13947484D01*
X14226884Y-13947484D01*
X14366584Y-6505284D02*
X14366584Y-6448715D01*
X14310015Y-6448715D01*
X14310015Y-6505284D01*
X14366584Y-6505284D01*
X14366584Y-6759284D02*
X14366584Y-6702715D01*
X14310015Y-6702715D01*
X14310015Y-6759284D01*
X14366584Y-6759284D01*
X14366584Y-7013284D02*
X14366584Y-6956715D01*
X14310015Y-6956715D01*
X14310015Y-7013284D01*
X14366584Y-7013284D01*
X14480884Y-13185484D02*
X14480884Y-13128915D01*
X14424315Y-13128915D01*
X14424315Y-13185484D01*
X14480884Y-13185484D01*
X14480884Y-13947484D02*
X14480884Y-13890915D01*
X14424315Y-13890915D01*
X14424315Y-13947484D01*
X14480884Y-13947484D01*
X14734884Y-13185484D02*
X14734884Y-13128915D01*
X14678315Y-13128915D01*
X14678315Y-13185484D01*
X14734884Y-13185484D01*
X14734884Y-13947484D02*
X14734884Y-13890915D01*
X14678315Y-13890915D01*
X14678315Y-13947484D01*
X14734884Y-13947484D01*
X14988884Y-13185484D02*
X14988884Y-13128915D01*
X14932315Y-13128915D01*
X14932315Y-13185484D01*
X14988884Y-13185484D01*
X14988884Y-13947484D02*
X14988884Y-13890915D01*
X14932315Y-13890915D01*
X14932315Y-13947484D01*
X14988884Y-13947484D01*
X15242884Y-13185484D02*
X15242884Y-13128915D01*
X15186315Y-13128915D01*
X15186315Y-13185484D01*
X15242884Y-13185484D01*
X15242884Y-13947484D02*
X15242884Y-13890915D01*
X15186315Y-13890915D01*
X15186315Y-13947484D01*
X15242884Y-13947484D01*
X8763000Y-7797500D02*
X8813500Y-7747000D01*
X8763000Y-7696500D01*
X8712500Y-7747000D01*
X8763000Y-7797500D01*
X8763000Y-8051500D02*
X8813500Y-8001000D01*
X8763000Y-7950500D01*
X8712500Y-8001000D01*
X8763000Y-8051500D01*
X8763000Y-8305500D02*
X8813500Y-8255000D01*
X8763000Y-8204500D01*
X8712500Y-8255000D01*
X8763000Y-8305500D01*
X8763000Y-8559500D02*
X8813500Y-8509000D01*
X8763000Y-8458500D01*
X8712500Y-8509000D01*
X8763000Y-8559500D01*
X8763000Y-8813500D02*
X8813500Y-8763000D01*
X8763000Y-8712500D01*
X8712500Y-8763000D01*
X8763000Y-8813500D01*
X8763000Y-9067500D02*
X8813500Y-9017000D01*
X8763000Y-8966500D01*
X8712500Y-9017000D01*
X8763000Y-9067500D01*
X8763000Y-9321500D02*
X8813500Y-9271000D01*
X8763000Y-9220500D01*
X8712500Y-9271000D01*
X8763000Y-9321500D01*
X8763000Y-9575500D02*
X8813500Y-9525000D01*
X8763000Y-9474500D01*
X8712500Y-9525000D01*
X8763000Y-9575500D01*
X8763000Y-9829500D02*
X8813500Y-9779000D01*
X8763000Y-9728500D01*
X8712500Y-9779000D01*
X8763000Y-9829500D01*
X8763000Y-10083500D02*
X8813500Y-10033000D01*
X8763000Y-9982500D01*
X8712500Y-10033000D01*
X8763000Y-10083500D01*
X8763000Y-10337500D02*
X8813500Y-10287000D01*
X8763000Y-10236500D01*
X8712500Y-10287000D01*
X8763000Y-10337500D01*
X8763000Y-10591500D02*
X8813500Y-10541000D01*
X8763000Y-10490500D01*
X8712500Y-10541000D01*
X8763000Y-10591500D01*
X8763000Y-10845500D02*
X8813500Y-10795000D01*
X8763000Y-10744500D01*
X8712500Y-10795000D01*
X8763000Y-10845500D01*
X8763000Y-11099500D02*
X8813500Y-11049000D01*
X8763000Y-10998500D01*
X8712500Y-11049000D01*
X8763000Y-11099500D01*
X8763000Y-11353500D02*
X8813500Y-11303000D01*
X8763000Y-11252500D01*
X8712500Y-11303000D01*
X8763000Y-11353500D01*
X8763000Y-11607500D02*
X8813500Y-11557000D01*
X8763000Y-11506500D01*
X8712500Y-11557000D01*
X8763000Y-11607500D01*
X8763000Y-11861500D02*
X8813500Y-11811000D01*
X8763000Y-11760500D01*
X8712500Y-11811000D01*
X8763000Y-11861500D01*
X8763000Y-12115500D02*
X8813500Y-12065000D01*
X8763000Y-12014500D01*
X8712500Y-12065000D01*
X8763000Y-12115500D01*
X8763000Y-12369500D02*
X8813500Y-12319000D01*
X8763000Y-12268500D01*
X8712500Y-12319000D01*
X8763000Y-12369500D01*
X8763000Y-12623500D02*
X8813500Y-12573000D01*
X8763000Y-12522500D01*
X8712500Y-12573000D01*
X8763000Y-12623500D01*
X9017000Y-7797500D02*
X9067500Y-7747000D01*
X9017000Y-7696500D01*
X8966500Y-7747000D01*
X9017000Y-7797500D01*
X9017000Y-8051500D02*
X9067500Y-8001000D01*
X9017000Y-7950500D01*
X8966500Y-8001000D01*
X9017000Y-8051500D01*
X9017000Y-8305500D02*
X9067500Y-8255000D01*
X9017000Y-8204500D01*
X8966500Y-8255000D01*
X9017000Y-8305500D01*
X9017000Y-8559500D02*
X9067500Y-8509000D01*
X9017000Y-8458500D01*
X8966500Y-8509000D01*
X9017000Y-8559500D01*
X9017000Y-8813500D02*
X9067500Y-8763000D01*
X9017000Y-8712500D01*
X8966500Y-8763000D01*
X9017000Y-8813500D01*
X9017000Y-9067500D02*
X9067500Y-9017000D01*
X9017000Y-8966500D01*
X8966500Y-9017000D01*
X9017000Y-9067500D01*
X9017000Y-9321500D02*
X9067500Y-9271000D01*
X9017000Y-9220500D01*
X8966500Y-9271000D01*
X9017000Y-9321500D01*
X9017000Y-9575500D02*
X9067500Y-9525000D01*
X9017000Y-9474500D01*
X8966500Y-9525000D01*
X9017000Y-9575500D01*
X9017000Y-9829500D02*
X9067500Y-9779000D01*
X9017000Y-9728500D01*
X8966500Y-9779000D01*
X9017000Y-9829500D01*
X9017000Y-10083500D02*
X9067500Y-10033000D01*
X9017000Y-9982500D01*
X8966500Y-10033000D01*
X9017000Y-10083500D01*
X9017000Y-10337500D02*
X9067500Y-10287000D01*
X9017000Y-10236500D01*
X8966500Y-10287000D01*
X9017000Y-10337500D01*
X9017000Y-10591500D02*
X9067500Y-10541000D01*
X9017000Y-10490500D01*
X8966500Y-10541000D01*
X9017000Y-10591500D01*
X9017000Y-10845500D02*
X9067500Y-10795000D01*
X9017000Y-10744500D01*
X8966500Y-10795000D01*
X9017000Y-10845500D01*
X9017000Y-11099500D02*
X9067500Y-11049000D01*
X9017000Y-10998500D01*
X8966500Y-11049000D01*
X9017000Y-11099500D01*
X9017000Y-11353500D02*
X9067500Y-11303000D01*
X9017000Y-11252500D01*
X8966500Y-11303000D01*
X9017000Y-11353500D01*
X9017000Y-11607500D02*
X9067500Y-11557000D01*
X9017000Y-11506500D01*
X8966500Y-11557000D01*
X9017000Y-11607500D01*
X9017000Y-11861500D02*
X9067500Y-11811000D01*
X9017000Y-11760500D01*
X8966500Y-11811000D01*
X9017000Y-11861500D01*
X9017000Y-12115500D02*
X9067500Y-12065000D01*
X9017000Y-12014500D01*
X8966500Y-12065000D01*
X9017000Y-12115500D01*
X9017000Y-12369500D02*
X9067500Y-12319000D01*
X9017000Y-12268500D01*
X8966500Y-12319000D01*
X9017000Y-12369500D01*
X9017000Y-12623500D02*
X9067500Y-12573000D01*
X9017000Y-12522500D01*
X8966500Y-12573000D01*
X9017000Y-12623500D01*
X16383000Y-7799500D02*
X16433500Y-7749000D01*
X16383000Y-7698500D01*
X16332500Y-7749000D01*
X16383000Y-7799500D01*
X16383000Y-8053500D02*
X16433500Y-8003000D01*
X16383000Y-7952500D01*
X16332500Y-8003000D01*
X16383000Y-8053500D01*
X16383000Y-8307500D02*
X16433500Y-8257000D01*
X16383000Y-8206500D01*
X16332500Y-8257000D01*
X16383000Y-8307500D01*
X16383000Y-8561500D02*
X16433500Y-8511000D01*
X16383000Y-8460500D01*
X16332500Y-8511000D01*
X16383000Y-8561500D01*
X16383000Y-8815500D02*
X16433500Y-8765000D01*
X16383000Y-8714500D01*
X16332500Y-8765000D01*
X16383000Y-8815500D01*
X16383000Y-9069500D02*
X16433500Y-9019000D01*
X16383000Y-8968500D01*
X16332500Y-9019000D01*
X16383000Y-9069500D01*
X16383000Y-9323500D02*
X16433500Y-9273000D01*
X16383000Y-9222500D01*
X16332500Y-9273000D01*
X16383000Y-9323500D01*
X16383000Y-9577500D02*
X16433500Y-9527000D01*
X16383000Y-9476500D01*
X16332500Y-9527000D01*
X16383000Y-9577500D01*
X16383000Y-9831500D02*
X16433500Y-9781000D01*
X16383000Y-9730500D01*
X16332500Y-9781000D01*
X16383000Y-9831500D01*
X16383000Y-10085500D02*
X16433500Y-10035000D01*
X16383000Y-9984500D01*
X16332500Y-10035000D01*
X16383000Y-10085500D01*
X16383000Y-10339500D02*
X16433500Y-10289000D01*
X16383000Y-10238500D01*
X16332500Y-10289000D01*
X16383000Y-10339500D01*
X16383000Y-10593500D02*
X16433500Y-10543000D01*
X16383000Y-10492500D01*
X16332500Y-10543000D01*
X16383000Y-10593500D01*
X16637000Y-7799500D02*
X16687500Y-7749000D01*
X16637000Y-7698500D01*
X16586500Y-7749000D01*
X16637000Y-7799500D01*
X16637000Y-8053500D02*
X16687500Y-8003000D01*
X16637000Y-7952500D01*
X16586500Y-8003000D01*
X16637000Y-8053500D01*
X16637000Y-8307500D02*
X16687500Y-8257000D01*
X16637000Y-8206500D01*
X16586500Y-8257000D01*
X16637000Y-8307500D01*
X16637000Y-8561500D02*
X16687500Y-8511000D01*
X16637000Y-8460500D01*
X16586500Y-8511000D01*
X16637000Y-8561500D01*
X16637000Y-8815500D02*
X16687500Y-8765000D01*
X16637000Y-8714500D01*
X16586500Y-8765000D01*
X16637000Y-8815500D01*
X16637000Y-9069500D02*
X16687500Y-9019000D01*
X16637000Y-8968500D01*
X16586500Y-9019000D01*
X16637000Y-9069500D01*
X16637000Y-9323500D02*
X16687500Y-9273000D01*
X16637000Y-9222500D01*
X16586500Y-9273000D01*
X16637000Y-9323500D01*
X16637000Y-9577500D02*
X16687500Y-9527000D01*
X16637000Y-9476500D01*
X16586500Y-9527000D01*
X16637000Y-9577500D01*
X16637000Y-9831500D02*
X16687500Y-9781000D01*
X16637000Y-9730500D01*
X16586500Y-9781000D01*
X16637000Y-9831500D01*
X16637000Y-10085500D02*
X16687500Y-10035000D01*
X16637000Y-9984500D01*
X16586500Y-10035000D01*
X16637000Y-10085500D01*
X16637000Y-10339500D02*
X16687500Y-10289000D01*
X16637000Y-10238500D01*
X16586500Y-10289000D01*
X16637000Y-10339500D01*
X16637000Y-10593500D02*
X16687500Y-10543000D01*
X16637000Y-10492500D01*
X16586500Y-10543000D01*
X16637000Y-10593500D01*
X9682500Y-5713750D02*
X10002500Y-6033750D01*
X10002500Y-5713750D02*
X9682500Y-6033750D01*
X10002500Y-5873750D02*
G75*
G03X10002500Y-5873750I-160000J0D01*
G01*
X9682500Y-14286250D02*
X10002500Y-14606250D01*
X10002500Y-14286250D02*
X9682500Y-14606250D01*
X10002500Y-14446250D02*
G75*
G03X10002500Y-14446250I-160000J0D01*
G01*
X15397500Y-5713750D02*
X15717500Y-6033750D01*
X15717500Y-5713750D02*
X15397500Y-6033750D01*
X15717500Y-5873750D02*
G75*
G03X15717500Y-5873750I-160000J0D01*
G01*
X15397500Y-14286250D02*
X15717500Y-14606250D01*
X15717500Y-14286250D02*
X15397500Y-14606250D01*
X15717500Y-14446250D02*
G75*
G03X15717500Y-14446250I-160000J0D01*
G01*
D12*
X8262458Y-15334534D02*
X8262458Y-15034534D01*
X8333887Y-15034534D01*
X8376744Y-15048820D01*
X8405316Y-15077391D01*
X8419601Y-15105963D01*
X8433887Y-15163106D01*
X8433887Y-15205963D01*
X8419601Y-15263106D01*
X8405316Y-15291677D01*
X8376744Y-15320249D01*
X8333887Y-15334534D01*
X8262458Y-15334534D01*
X8562459Y-15334534D02*
X8562459Y-15134534D01*
X8562459Y-15191677D02*
X8576744Y-15163106D01*
X8591030Y-15148820D01*
X8619601Y-15134534D01*
X8648173Y-15134534D01*
X8748173Y-15334534D02*
X8748173Y-15134534D01*
X8748173Y-15034534D02*
X8733887Y-15048820D01*
X8748173Y-15063106D01*
X8762459Y-15048820D01*
X8748173Y-15034534D01*
X8748173Y-15063106D01*
X8933887Y-15334534D02*
X8905316Y-15320249D01*
X8891030Y-15291677D01*
X8891030Y-15034534D01*
X9091030Y-15334534D02*
X9062459Y-15320249D01*
X9048173Y-15291677D01*
X9048173Y-15034534D01*
X9433887Y-15334534D02*
X9433887Y-15034534D01*
X9533887Y-15248820D01*
X9633887Y-15034534D01*
X9633887Y-15334534D01*
X9905316Y-15334534D02*
X9905316Y-15177391D01*
X9891030Y-15148820D01*
X9862459Y-15134534D01*
X9805316Y-15134534D01*
X9776744Y-15148820D01*
X9905316Y-15320249D02*
X9876744Y-15334534D01*
X9805316Y-15334534D01*
X9776744Y-15320249D01*
X9762459Y-15291677D01*
X9762459Y-15263106D01*
X9776744Y-15234534D01*
X9805316Y-15220249D01*
X9876744Y-15220249D01*
X9905316Y-15205963D01*
X10048173Y-15134534D02*
X10048173Y-15434534D01*
X10048173Y-15148820D02*
X10076744Y-15134534D01*
X10133887Y-15134534D01*
X10162459Y-15148820D01*
X10176744Y-15163106D01*
X10191030Y-15191677D01*
X10191030Y-15277391D01*
X10176744Y-15305963D01*
X10162459Y-15320249D01*
X10133887Y-15334534D01*
X10076744Y-15334534D01*
X10048173Y-15320249D01*
X10319601Y-15305963D02*
X10333887Y-15320249D01*
X10319601Y-15334534D01*
X10305316Y-15320249D01*
X10319601Y-15305963D01*
X10319601Y-15334534D01*
X10319601Y-15148820D02*
X10333887Y-15163106D01*
X10319601Y-15177391D01*
X10305316Y-15163106D01*
X10319601Y-15148820D01*
X10319601Y-15177391D01*
X7951030Y-15808820D02*
X7991030Y-15848820D01*
X7991030Y-15808820D02*
X7951030Y-15848820D01*
X8319601Y-15664534D02*
X8348173Y-15664534D01*
X8376744Y-15678820D01*
X8391030Y-15693106D01*
X8405316Y-15721677D01*
X8419601Y-15778820D01*
X8419601Y-15850249D01*
X8405316Y-15907391D01*
X8391030Y-15935963D01*
X8376744Y-15950249D01*
X8348173Y-15964534D01*
X8319601Y-15964534D01*
X8291030Y-15950249D01*
X8276744Y-15935963D01*
X8262458Y-15907391D01*
X8248173Y-15850249D01*
X8248173Y-15778820D01*
X8262458Y-15721677D01*
X8276744Y-15693106D01*
X8291030Y-15678820D01*
X8319601Y-15664534D01*
X8548173Y-15935963D02*
X8562459Y-15950249D01*
X8548173Y-15964534D01*
X8533887Y-15950249D01*
X8548173Y-15935963D01*
X8548173Y-15964534D01*
X8819601Y-15764534D02*
X8819601Y-15964534D01*
X8748173Y-15650249D02*
X8676744Y-15864534D01*
X8862458Y-15864534D01*
X9033887Y-15664534D02*
X9062459Y-15664534D01*
X9091030Y-15678820D01*
X9105316Y-15693106D01*
X9119601Y-15721677D01*
X9133887Y-15778820D01*
X9133887Y-15850249D01*
X9119601Y-15907391D01*
X9105316Y-15935963D01*
X9091030Y-15950249D01*
X9062459Y-15964534D01*
X9033887Y-15964534D01*
X9005316Y-15950249D01*
X8991030Y-15935963D01*
X8976744Y-15907391D01*
X8962459Y-15850249D01*
X8962459Y-15778820D01*
X8976744Y-15721677D01*
X8991030Y-15693106D01*
X9005316Y-15678820D01*
X9033887Y-15664534D01*
X9262459Y-15964534D02*
X9262459Y-15764534D01*
X9262459Y-15793106D02*
X9276744Y-15778820D01*
X9305316Y-15764534D01*
X9348173Y-15764534D01*
X9376744Y-15778820D01*
X9391030Y-15807391D01*
X9391030Y-15964534D01*
X9391030Y-15807391D02*
X9405316Y-15778820D01*
X9433887Y-15764534D01*
X9476744Y-15764534D01*
X9505316Y-15778820D01*
X9519601Y-15807391D01*
X9519601Y-15964534D01*
X9662459Y-15964534D02*
X9662459Y-15764534D01*
X9662459Y-15793106D02*
X9676744Y-15778820D01*
X9705316Y-15764534D01*
X9748173Y-15764534D01*
X9776744Y-15778820D01*
X9791030Y-15807391D01*
X9791030Y-15964534D01*
X9791030Y-15807391D02*
X9805316Y-15778820D01*
X9833887Y-15764534D01*
X9876744Y-15764534D01*
X9905316Y-15778820D01*
X9919601Y-15807391D01*
X9919601Y-15964534D01*
X10505316Y-15650249D02*
X10248173Y-16035963D01*
X10891030Y-15664534D02*
X10919601Y-15664534D01*
X10948173Y-15678820D01*
X10962458Y-15693106D01*
X10976744Y-15721677D01*
X10991030Y-15778820D01*
X10991030Y-15850249D01*
X10976744Y-15907391D01*
X10962458Y-15935963D01*
X10948173Y-15950249D01*
X10919601Y-15964534D01*
X10891030Y-15964534D01*
X10862458Y-15950249D01*
X10848173Y-15935963D01*
X10833887Y-15907391D01*
X10819601Y-15850249D01*
X10819601Y-15778820D01*
X10833887Y-15721677D01*
X10848173Y-15693106D01*
X10862458Y-15678820D01*
X10891030Y-15664534D01*
X11119601Y-15935963D02*
X11133887Y-15950249D01*
X11119601Y-15964534D01*
X11105316Y-15950249D01*
X11119601Y-15935963D01*
X11119601Y-15964534D01*
X11319601Y-15664534D02*
X11348173Y-15664534D01*
X11376744Y-15678820D01*
X11391030Y-15693106D01*
X11405315Y-15721677D01*
X11419601Y-15778820D01*
X11419601Y-15850249D01*
X11405315Y-15907391D01*
X11391030Y-15935963D01*
X11376744Y-15950249D01*
X11348173Y-15964534D01*
X11319601Y-15964534D01*
X11291030Y-15950249D01*
X11276744Y-15935963D01*
X11262458Y-15907391D01*
X11248173Y-15850249D01*
X11248173Y-15778820D01*
X11262458Y-15721677D01*
X11276744Y-15693106D01*
X11291030Y-15678820D01*
X11319601Y-15664534D01*
X11705315Y-15964534D02*
X11533887Y-15964534D01*
X11619601Y-15964534D02*
X11619601Y-15664534D01*
X11591030Y-15707391D01*
X11562458Y-15735963D01*
X11533887Y-15750249D01*
X11962458Y-15664534D02*
X11905315Y-15664534D01*
X11876744Y-15678820D01*
X11862458Y-15693106D01*
X11833887Y-15735963D01*
X11819601Y-15793106D01*
X11819601Y-15907391D01*
X11833887Y-15935963D01*
X11848173Y-15950249D01*
X11876744Y-15964534D01*
X11933887Y-15964534D01*
X11962458Y-15950249D01*
X11976744Y-15935963D01*
X11991030Y-15907391D01*
X11991030Y-15835963D01*
X11976744Y-15807391D01*
X11962458Y-15793106D01*
X11933887Y-15778820D01*
X11876744Y-15778820D01*
X11848173Y-15793106D01*
X11833887Y-15807391D01*
X11819601Y-15835963D01*
X12105316Y-15664534D02*
X12105316Y-15721677D01*
X12219601Y-15664534D02*
X12219601Y-15721677D01*
X12662458Y-16078820D02*
X12648173Y-16064534D01*
X12619601Y-16021677D01*
X12605315Y-15993106D01*
X12591030Y-15950249D01*
X12576744Y-15878820D01*
X12576744Y-15821677D01*
X12591030Y-15750249D01*
X12605315Y-15707391D01*
X12619601Y-15678820D01*
X12648173Y-15635963D01*
X12662458Y-15621677D01*
X12905315Y-15764534D02*
X12905315Y-15964534D01*
X12833887Y-15650249D02*
X12762458Y-15864534D01*
X12948173Y-15864534D01*
X13291030Y-15964534D02*
X13291030Y-15664534D01*
X13419601Y-15964534D02*
X13419601Y-15807391D01*
X13405315Y-15778820D01*
X13376744Y-15764534D01*
X13333887Y-15764534D01*
X13305315Y-15778820D01*
X13291030Y-15793106D01*
X13605315Y-15964534D02*
X13576744Y-15950249D01*
X13562458Y-15935963D01*
X13548173Y-15907391D01*
X13548173Y-15821677D01*
X13562458Y-15793106D01*
X13576744Y-15778820D01*
X13605315Y-15764534D01*
X13648173Y-15764534D01*
X13676744Y-15778820D01*
X13691030Y-15793106D01*
X13705315Y-15821677D01*
X13705315Y-15907391D01*
X13691030Y-15935963D01*
X13676744Y-15950249D01*
X13648173Y-15964534D01*
X13605315Y-15964534D01*
X13876744Y-15964534D02*
X13848173Y-15950249D01*
X13833887Y-15921677D01*
X13833887Y-15664534D01*
X14105316Y-15950249D02*
X14076744Y-15964534D01*
X14019601Y-15964534D01*
X13991030Y-15950249D01*
X13976744Y-15921677D01*
X13976744Y-15807391D01*
X13991030Y-15778820D01*
X14019601Y-15764534D01*
X14076744Y-15764534D01*
X14105316Y-15778820D01*
X14119601Y-15807391D01*
X14119601Y-15835963D01*
X13976744Y-15864534D01*
X14233887Y-15950249D02*
X14262458Y-15964534D01*
X14319601Y-15964534D01*
X14348173Y-15950249D01*
X14362458Y-15921677D01*
X14362458Y-15907391D01*
X14348173Y-15878820D01*
X14319601Y-15864534D01*
X14276744Y-15864534D01*
X14248173Y-15850249D01*
X14233887Y-15821677D01*
X14233887Y-15807391D01*
X14248173Y-15778820D01*
X14276744Y-15764534D01*
X14319601Y-15764534D01*
X14348173Y-15778820D01*
X14462458Y-16078820D02*
X14476744Y-16064534D01*
X14505316Y-16021677D01*
X14519601Y-15993106D01*
X14533887Y-15950249D01*
X14548173Y-15878820D01*
X14548173Y-15821677D01*
X14533887Y-15750249D01*
X14519601Y-15707391D01*
X14505316Y-15678820D01*
X14476744Y-15635963D01*
X14462458Y-15621677D01*
X7991030Y-16224820D02*
G75*
G03X7991030Y-16224820I-25400J0D01*
G01*
X8319601Y-16060534D02*
X8348173Y-16060534D01*
X8376744Y-16074820D01*
X8391030Y-16089106D01*
X8405316Y-16117677D01*
X8419601Y-16174820D01*
X8419601Y-16246249D01*
X8405316Y-16303391D01*
X8391030Y-16331963D01*
X8376744Y-16346249D01*
X8348173Y-16360534D01*
X8319601Y-16360534D01*
X8291030Y-16346249D01*
X8276744Y-16331963D01*
X8262458Y-16303391D01*
X8248173Y-16246249D01*
X8248173Y-16174820D01*
X8262458Y-16117677D01*
X8276744Y-16089106D01*
X8291030Y-16074820D01*
X8319601Y-16060534D01*
X8548173Y-16331963D02*
X8562459Y-16346249D01*
X8548173Y-16360534D01*
X8533887Y-16346249D01*
X8548173Y-16331963D01*
X8548173Y-16360534D01*
X8833887Y-16060534D02*
X8691030Y-16060534D01*
X8676744Y-16203391D01*
X8691030Y-16189106D01*
X8719601Y-16174820D01*
X8791030Y-16174820D01*
X8819601Y-16189106D01*
X8833887Y-16203391D01*
X8848173Y-16231963D01*
X8848173Y-16303391D01*
X8833887Y-16331963D01*
X8819601Y-16346249D01*
X8791030Y-16360534D01*
X8719601Y-16360534D01*
X8691030Y-16346249D01*
X8676744Y-16331963D01*
X9133887Y-16360534D02*
X8962459Y-16360534D01*
X9048173Y-16360534D02*
X9048173Y-16060534D01*
X9019601Y-16103391D01*
X8991030Y-16131963D01*
X8962459Y-16146249D01*
X9262459Y-16360534D02*
X9262459Y-16160534D01*
X9262459Y-16189106D02*
X9276744Y-16174820D01*
X9305316Y-16160534D01*
X9348173Y-16160534D01*
X9376744Y-16174820D01*
X9391030Y-16203391D01*
X9391030Y-16360534D01*
X9391030Y-16203391D02*
X9405316Y-16174820D01*
X9433887Y-16160534D01*
X9476744Y-16160534D01*
X9505316Y-16174820D01*
X9519601Y-16203391D01*
X9519601Y-16360534D01*
X9662459Y-16360534D02*
X9662459Y-16160534D01*
X9662459Y-16189106D02*
X9676744Y-16174820D01*
X9705316Y-16160534D01*
X9748173Y-16160534D01*
X9776744Y-16174820D01*
X9791030Y-16203391D01*
X9791030Y-16360534D01*
X9791030Y-16203391D02*
X9805316Y-16174820D01*
X9833887Y-16160534D01*
X9876744Y-16160534D01*
X9905316Y-16174820D01*
X9919601Y-16203391D01*
X9919601Y-16360534D01*
X10505316Y-16046249D02*
X10248173Y-16431963D01*
X10891030Y-16060534D02*
X10919601Y-16060534D01*
X10948173Y-16074820D01*
X10962458Y-16089106D01*
X10976744Y-16117677D01*
X10991030Y-16174820D01*
X10991030Y-16246249D01*
X10976744Y-16303391D01*
X10962458Y-16331963D01*
X10948173Y-16346249D01*
X10919601Y-16360534D01*
X10891030Y-16360534D01*
X10862458Y-16346249D01*
X10848173Y-16331963D01*
X10833887Y-16303391D01*
X10819601Y-16246249D01*
X10819601Y-16174820D01*
X10833887Y-16117677D01*
X10848173Y-16089106D01*
X10862458Y-16074820D01*
X10891030Y-16060534D01*
X11119601Y-16331963D02*
X11133887Y-16346249D01*
X11119601Y-16360534D01*
X11105316Y-16346249D01*
X11119601Y-16331963D01*
X11119601Y-16360534D01*
X11319601Y-16060534D02*
X11348173Y-16060534D01*
X11376744Y-16074820D01*
X11391030Y-16089106D01*
X11405315Y-16117677D01*
X11419601Y-16174820D01*
X11419601Y-16246249D01*
X11405315Y-16303391D01*
X11391030Y-16331963D01*
X11376744Y-16346249D01*
X11348173Y-16360534D01*
X11319601Y-16360534D01*
X11291030Y-16346249D01*
X11276744Y-16331963D01*
X11262458Y-16303391D01*
X11248173Y-16246249D01*
X11248173Y-16174820D01*
X11262458Y-16117677D01*
X11276744Y-16089106D01*
X11291030Y-16074820D01*
X11319601Y-16060534D01*
X11533887Y-16089106D02*
X11548173Y-16074820D01*
X11576744Y-16060534D01*
X11648173Y-16060534D01*
X11676744Y-16074820D01*
X11691030Y-16089106D01*
X11705315Y-16117677D01*
X11705315Y-16146249D01*
X11691030Y-16189106D01*
X11519601Y-16360534D01*
X11705315Y-16360534D01*
X11891030Y-16060534D02*
X11919601Y-16060534D01*
X11948173Y-16074820D01*
X11962458Y-16089106D01*
X11976744Y-16117677D01*
X11991030Y-16174820D01*
X11991030Y-16246249D01*
X11976744Y-16303391D01*
X11962458Y-16331963D01*
X11948173Y-16346249D01*
X11919601Y-16360534D01*
X11891030Y-16360534D01*
X11862458Y-16346249D01*
X11848173Y-16331963D01*
X11833887Y-16303391D01*
X11819601Y-16246249D01*
X11819601Y-16174820D01*
X11833887Y-16117677D01*
X11848173Y-16089106D01*
X11862458Y-16074820D01*
X11891030Y-16060534D01*
X12105316Y-16060534D02*
X12105316Y-16117677D01*
X12219601Y-16060534D02*
X12219601Y-16117677D01*
X12662458Y-16474820D02*
X12648173Y-16460534D01*
X12619601Y-16417677D01*
X12605315Y-16389106D01*
X12591030Y-16346249D01*
X12576744Y-16274820D01*
X12576744Y-16217677D01*
X12591030Y-16146249D01*
X12605315Y-16103391D01*
X12619601Y-16074820D01*
X12648173Y-16031963D01*
X12662458Y-16017677D01*
X12933887Y-16360534D02*
X12762458Y-16360534D01*
X12848173Y-16360534D02*
X12848173Y-16060534D01*
X12819601Y-16103391D01*
X12791030Y-16131963D01*
X12762458Y-16146249D01*
X13105315Y-16189106D02*
X13076744Y-16174820D01*
X13062458Y-16160534D01*
X13048173Y-16131963D01*
X13048173Y-16117677D01*
X13062458Y-16089106D01*
X13076744Y-16074820D01*
X13105315Y-16060534D01*
X13162458Y-16060534D01*
X13191030Y-16074820D01*
X13205315Y-16089106D01*
X13219601Y-16117677D01*
X13219601Y-16131963D01*
X13205315Y-16160534D01*
X13191030Y-16174820D01*
X13162458Y-16189106D01*
X13105315Y-16189106D01*
X13076744Y-16203391D01*
X13062458Y-16217677D01*
X13048173Y-16246249D01*
X13048173Y-16303391D01*
X13062458Y-16331963D01*
X13076744Y-16346249D01*
X13105315Y-16360534D01*
X13162458Y-16360534D01*
X13191030Y-16346249D01*
X13205315Y-16331963D01*
X13219601Y-16303391D01*
X13219601Y-16246249D01*
X13205315Y-16217677D01*
X13191030Y-16203391D01*
X13162458Y-16189106D01*
X13391030Y-16189106D02*
X13362458Y-16174820D01*
X13348173Y-16160534D01*
X13333887Y-16131963D01*
X13333887Y-16117677D01*
X13348173Y-16089106D01*
X13362458Y-16074820D01*
X13391030Y-16060534D01*
X13448173Y-16060534D01*
X13476744Y-16074820D01*
X13491030Y-16089106D01*
X13505315Y-16117677D01*
X13505315Y-16131963D01*
X13491030Y-16160534D01*
X13476744Y-16174820D01*
X13448173Y-16189106D01*
X13391030Y-16189106D01*
X13362458Y-16203391D01*
X13348173Y-16217677D01*
X13333887Y-16246249D01*
X13333887Y-16303391D01*
X13348173Y-16331963D01*
X13362458Y-16346249D01*
X13391030Y-16360534D01*
X13448173Y-16360534D01*
X13476744Y-16346249D01*
X13491030Y-16331963D01*
X13505315Y-16303391D01*
X13505315Y-16246249D01*
X13491030Y-16217677D01*
X13476744Y-16203391D01*
X13448173Y-16189106D01*
X13862458Y-16360534D02*
X13862458Y-16060534D01*
X13991030Y-16360534D02*
X13991030Y-16203391D01*
X13976744Y-16174820D01*
X13948173Y-16160534D01*
X13905315Y-16160534D01*
X13876744Y-16174820D01*
X13862458Y-16189106D01*
X14176744Y-16360534D02*
X14148173Y-16346249D01*
X14133887Y-16331963D01*
X14119601Y-16303391D01*
X14119601Y-16217677D01*
X14133887Y-16189106D01*
X14148173Y-16174820D01*
X14176744Y-16160534D01*
X14219601Y-16160534D01*
X14248173Y-16174820D01*
X14262458Y-16189106D01*
X14276744Y-16217677D01*
X14276744Y-16303391D01*
X14262458Y-16331963D01*
X14248173Y-16346249D01*
X14219601Y-16360534D01*
X14176744Y-16360534D01*
X14448173Y-16360534D02*
X14419601Y-16346249D01*
X14405316Y-16317677D01*
X14405316Y-16060534D01*
X14676744Y-16346249D02*
X14648173Y-16360534D01*
X14591030Y-16360534D01*
X14562458Y-16346249D01*
X14548173Y-16317677D01*
X14548173Y-16203391D01*
X14562458Y-16174820D01*
X14591030Y-16160534D01*
X14648173Y-16160534D01*
X14676744Y-16174820D01*
X14691030Y-16203391D01*
X14691030Y-16231963D01*
X14548173Y-16260534D01*
X14805316Y-16346249D02*
X14833887Y-16360534D01*
X14891030Y-16360534D01*
X14919601Y-16346249D01*
X14933887Y-16317677D01*
X14933887Y-16303391D01*
X14919601Y-16274820D01*
X14891030Y-16260534D01*
X14848173Y-16260534D01*
X14819601Y-16246249D01*
X14805316Y-16217677D01*
X14805316Y-16203391D01*
X14819601Y-16174820D01*
X14848173Y-16160534D01*
X14891030Y-16160534D01*
X14919601Y-16174820D01*
X15033887Y-16474820D02*
X15048173Y-16460534D01*
X15076744Y-16417677D01*
X15091030Y-16389106D01*
X15105316Y-16346249D01*
X15119601Y-16274820D01*
X15119601Y-16217677D01*
X15105316Y-16146249D01*
X15091030Y-16103391D01*
X15076744Y-16074820D01*
X15048173Y-16031963D01*
X15033887Y-16017677D01*
X7955470Y-16585260D02*
X7955470Y-16656380D01*
X7919910Y-16620820D02*
X7991030Y-16620820D01*
X8319601Y-16456534D02*
X8348173Y-16456534D01*
X8376744Y-16470820D01*
X8391030Y-16485106D01*
X8405316Y-16513677D01*
X8419601Y-16570820D01*
X8419601Y-16642249D01*
X8405316Y-16699391D01*
X8391030Y-16727963D01*
X8376744Y-16742249D01*
X8348173Y-16756534D01*
X8319601Y-16756534D01*
X8291030Y-16742249D01*
X8276744Y-16727963D01*
X8262458Y-16699391D01*
X8248173Y-16642249D01*
X8248173Y-16570820D01*
X8262458Y-16513677D01*
X8276744Y-16485106D01*
X8291030Y-16470820D01*
X8319601Y-16456534D01*
X8548173Y-16727963D02*
X8562459Y-16742249D01*
X8548173Y-16756534D01*
X8533887Y-16742249D01*
X8548173Y-16727963D01*
X8548173Y-16756534D01*
X8662458Y-16456534D02*
X8862458Y-16456534D01*
X8733887Y-16756534D01*
X9133887Y-16756534D02*
X8962459Y-16756534D01*
X9048173Y-16756534D02*
X9048173Y-16456534D01*
X9019601Y-16499391D01*
X8991030Y-16527963D01*
X8962459Y-16542249D01*
X9262459Y-16756534D02*
X9262459Y-16556534D01*
X9262459Y-16585106D02*
X9276744Y-16570820D01*
X9305316Y-16556534D01*
X9348173Y-16556534D01*
X9376744Y-16570820D01*
X9391030Y-16599391D01*
X9391030Y-16756534D01*
X9391030Y-16599391D02*
X9405316Y-16570820D01*
X9433887Y-16556534D01*
X9476744Y-16556534D01*
X9505316Y-16570820D01*
X9519601Y-16599391D01*
X9519601Y-16756534D01*
X9662459Y-16756534D02*
X9662459Y-16556534D01*
X9662459Y-16585106D02*
X9676744Y-16570820D01*
X9705316Y-16556534D01*
X9748173Y-16556534D01*
X9776744Y-16570820D01*
X9791030Y-16599391D01*
X9791030Y-16756534D01*
X9791030Y-16599391D02*
X9805316Y-16570820D01*
X9833887Y-16556534D01*
X9876744Y-16556534D01*
X9905316Y-16570820D01*
X9919601Y-16599391D01*
X9919601Y-16756534D01*
X10505316Y-16442249D02*
X10248173Y-16827963D01*
X10891030Y-16456534D02*
X10919601Y-16456534D01*
X10948173Y-16470820D01*
X10962458Y-16485106D01*
X10976744Y-16513677D01*
X10991030Y-16570820D01*
X10991030Y-16642249D01*
X10976744Y-16699391D01*
X10962458Y-16727963D01*
X10948173Y-16742249D01*
X10919601Y-16756534D01*
X10891030Y-16756534D01*
X10862458Y-16742249D01*
X10848173Y-16727963D01*
X10833887Y-16699391D01*
X10819601Y-16642249D01*
X10819601Y-16570820D01*
X10833887Y-16513677D01*
X10848173Y-16485106D01*
X10862458Y-16470820D01*
X10891030Y-16456534D01*
X11119601Y-16727963D02*
X11133887Y-16742249D01*
X11119601Y-16756534D01*
X11105316Y-16742249D01*
X11119601Y-16727963D01*
X11119601Y-16756534D01*
X11319601Y-16456534D02*
X11348173Y-16456534D01*
X11376744Y-16470820D01*
X11391030Y-16485106D01*
X11405315Y-16513677D01*
X11419601Y-16570820D01*
X11419601Y-16642249D01*
X11405315Y-16699391D01*
X11391030Y-16727963D01*
X11376744Y-16742249D01*
X11348173Y-16756534D01*
X11319601Y-16756534D01*
X11291030Y-16742249D01*
X11276744Y-16727963D01*
X11262458Y-16699391D01*
X11248173Y-16642249D01*
X11248173Y-16570820D01*
X11262458Y-16513677D01*
X11276744Y-16485106D01*
X11291030Y-16470820D01*
X11319601Y-16456534D01*
X11533887Y-16485106D02*
X11548173Y-16470820D01*
X11576744Y-16456534D01*
X11648173Y-16456534D01*
X11676744Y-16470820D01*
X11691030Y-16485106D01*
X11705315Y-16513677D01*
X11705315Y-16542249D01*
X11691030Y-16585106D01*
X11519601Y-16756534D01*
X11705315Y-16756534D01*
X11876744Y-16585106D02*
X11848173Y-16570820D01*
X11833887Y-16556534D01*
X11819601Y-16527963D01*
X11819601Y-16513677D01*
X11833887Y-16485106D01*
X11848173Y-16470820D01*
X11876744Y-16456534D01*
X11933887Y-16456534D01*
X11962458Y-16470820D01*
X11976744Y-16485106D01*
X11991030Y-16513677D01*
X11991030Y-16527963D01*
X11976744Y-16556534D01*
X11962458Y-16570820D01*
X11933887Y-16585106D01*
X11876744Y-16585106D01*
X11848173Y-16599391D01*
X11833887Y-16613677D01*
X11819601Y-16642249D01*
X11819601Y-16699391D01*
X11833887Y-16727963D01*
X11848173Y-16742249D01*
X11876744Y-16756534D01*
X11933887Y-16756534D01*
X11962458Y-16742249D01*
X11976744Y-16727963D01*
X11991030Y-16699391D01*
X11991030Y-16642249D01*
X11976744Y-16613677D01*
X11962458Y-16599391D01*
X11933887Y-16585106D01*
X12105316Y-16456534D02*
X12105316Y-16513677D01*
X12219601Y-16456534D02*
X12219601Y-16513677D01*
X12662458Y-16870820D02*
X12648173Y-16856534D01*
X12619601Y-16813677D01*
X12605315Y-16785106D01*
X12591030Y-16742249D01*
X12576744Y-16670820D01*
X12576744Y-16613677D01*
X12591030Y-16542249D01*
X12605315Y-16499391D01*
X12619601Y-16470820D01*
X12648173Y-16427963D01*
X12662458Y-16413677D01*
X12762458Y-16485106D02*
X12776744Y-16470820D01*
X12805315Y-16456534D01*
X12876744Y-16456534D01*
X12905315Y-16470820D01*
X12919601Y-16485106D01*
X12933887Y-16513677D01*
X12933887Y-16542249D01*
X12919601Y-16585106D01*
X12748173Y-16756534D01*
X12933887Y-16756534D01*
X13291030Y-16756534D02*
X13291030Y-16456534D01*
X13419601Y-16756534D02*
X13419601Y-16599391D01*
X13405315Y-16570820D01*
X13376744Y-16556534D01*
X13333887Y-16556534D01*
X13305315Y-16570820D01*
X13291030Y-16585106D01*
X13605315Y-16756534D02*
X13576744Y-16742249D01*
X13562458Y-16727963D01*
X13548173Y-16699391D01*
X13548173Y-16613677D01*
X13562458Y-16585106D01*
X13576744Y-16570820D01*
X13605315Y-16556534D01*
X13648173Y-16556534D01*
X13676744Y-16570820D01*
X13691030Y-16585106D01*
X13705315Y-16613677D01*
X13705315Y-16699391D01*
X13691030Y-16727963D01*
X13676744Y-16742249D01*
X13648173Y-16756534D01*
X13605315Y-16756534D01*
X13876744Y-16756534D02*
X13848173Y-16742249D01*
X13833887Y-16713677D01*
X13833887Y-16456534D01*
X14105316Y-16742249D02*
X14076744Y-16756534D01*
X14019601Y-16756534D01*
X13991030Y-16742249D01*
X13976744Y-16713677D01*
X13976744Y-16599391D01*
X13991030Y-16570820D01*
X14019601Y-16556534D01*
X14076744Y-16556534D01*
X14105316Y-16570820D01*
X14119601Y-16599391D01*
X14119601Y-16627963D01*
X13976744Y-16656534D01*
X14233887Y-16742249D02*
X14262458Y-16756534D01*
X14319601Y-16756534D01*
X14348173Y-16742249D01*
X14362458Y-16713677D01*
X14362458Y-16699391D01*
X14348173Y-16670820D01*
X14319601Y-16656534D01*
X14276744Y-16656534D01*
X14248173Y-16642249D01*
X14233887Y-16613677D01*
X14233887Y-16599391D01*
X14248173Y-16570820D01*
X14276744Y-16556534D01*
X14319601Y-16556534D01*
X14348173Y-16570820D01*
X14462458Y-16870820D02*
X14476744Y-16856534D01*
X14505316Y-16813677D01*
X14519601Y-16785106D01*
X14533887Y-16742249D01*
X14548173Y-16670820D01*
X14548173Y-16613677D01*
X14533887Y-16542249D01*
X14519601Y-16499391D01*
X14505316Y-16470820D01*
X14476744Y-16427963D01*
X14462458Y-16413677D01*
X7979314Y-17045105D02*
X7979314Y-16988536D01*
X7922745Y-16988536D01*
X7922745Y-17045105D01*
X7979314Y-17045105D01*
X8319601Y-16852534D02*
X8348173Y-16852534D01*
X8376744Y-16866820D01*
X8391030Y-16881106D01*
X8405316Y-16909677D01*
X8419601Y-16966820D01*
X8419601Y-17038249D01*
X8405316Y-17095392D01*
X8391030Y-17123963D01*
X8376744Y-17138249D01*
X8348173Y-17152534D01*
X8319601Y-17152534D01*
X8291030Y-17138249D01*
X8276744Y-17123963D01*
X8262458Y-17095392D01*
X8248173Y-17038249D01*
X8248173Y-16966820D01*
X8262458Y-16909677D01*
X8276744Y-16881106D01*
X8291030Y-16866820D01*
X8319601Y-16852534D01*
X8548173Y-17123963D02*
X8562459Y-17138249D01*
X8548173Y-17152534D01*
X8533887Y-17138249D01*
X8548173Y-17123963D01*
X8548173Y-17152534D01*
X8733887Y-16981106D02*
X8705316Y-16966820D01*
X8691030Y-16952534D01*
X8676744Y-16923963D01*
X8676744Y-16909677D01*
X8691030Y-16881106D01*
X8705316Y-16866820D01*
X8733887Y-16852534D01*
X8791030Y-16852534D01*
X8819601Y-16866820D01*
X8833887Y-16881106D01*
X8848173Y-16909677D01*
X8848173Y-16923963D01*
X8833887Y-16952534D01*
X8819601Y-16966820D01*
X8791030Y-16981106D01*
X8733887Y-16981106D01*
X8705316Y-16995392D01*
X8691030Y-17009677D01*
X8676744Y-17038249D01*
X8676744Y-17095392D01*
X8691030Y-17123963D01*
X8705316Y-17138249D01*
X8733887Y-17152534D01*
X8791030Y-17152534D01*
X8819601Y-17138249D01*
X8833887Y-17123963D01*
X8848173Y-17095392D01*
X8848173Y-17038249D01*
X8833887Y-17009677D01*
X8819601Y-16995392D01*
X8791030Y-16981106D01*
X9033887Y-16852534D02*
X9062459Y-16852534D01*
X9091030Y-16866820D01*
X9105316Y-16881106D01*
X9119601Y-16909677D01*
X9133887Y-16966820D01*
X9133887Y-17038249D01*
X9119601Y-17095392D01*
X9105316Y-17123963D01*
X9091030Y-17138249D01*
X9062459Y-17152534D01*
X9033887Y-17152534D01*
X9005316Y-17138249D01*
X8991030Y-17123963D01*
X8976744Y-17095392D01*
X8962459Y-17038249D01*
X8962459Y-16966820D01*
X8976744Y-16909677D01*
X8991030Y-16881106D01*
X9005316Y-16866820D01*
X9033887Y-16852534D01*
X9262459Y-17152534D02*
X9262459Y-16952534D01*
X9262459Y-16981106D02*
X9276744Y-16966820D01*
X9305316Y-16952534D01*
X9348173Y-16952534D01*
X9376744Y-16966820D01*
X9391030Y-16995392D01*
X9391030Y-17152534D01*
X9391030Y-16995392D02*
X9405316Y-16966820D01*
X9433887Y-16952534D01*
X9476744Y-16952534D01*
X9505316Y-16966820D01*
X9519601Y-16995392D01*
X9519601Y-17152534D01*
X9662459Y-17152534D02*
X9662459Y-16952534D01*
X9662459Y-16981106D02*
X9676744Y-16966820D01*
X9705316Y-16952534D01*
X9748173Y-16952534D01*
X9776744Y-16966820D01*
X9791030Y-16995392D01*
X9791030Y-17152534D01*
X9791030Y-16995392D02*
X9805316Y-16966820D01*
X9833887Y-16952534D01*
X9876744Y-16952534D01*
X9905316Y-16966820D01*
X9919601Y-16995392D01*
X9919601Y-17152534D01*
X10505316Y-16838249D02*
X10248173Y-17223963D01*
X10891030Y-16852534D02*
X10919601Y-16852534D01*
X10948173Y-16866820D01*
X10962458Y-16881106D01*
X10976744Y-16909677D01*
X10991030Y-16966820D01*
X10991030Y-17038249D01*
X10976744Y-17095392D01*
X10962458Y-17123963D01*
X10948173Y-17138249D01*
X10919601Y-17152534D01*
X10891030Y-17152534D01*
X10862458Y-17138249D01*
X10848173Y-17123963D01*
X10833887Y-17095392D01*
X10819601Y-17038249D01*
X10819601Y-16966820D01*
X10833887Y-16909677D01*
X10848173Y-16881106D01*
X10862458Y-16866820D01*
X10891030Y-16852534D01*
X11119601Y-17123963D02*
X11133887Y-17138249D01*
X11119601Y-17152534D01*
X11105316Y-17138249D01*
X11119601Y-17123963D01*
X11119601Y-17152534D01*
X11319601Y-16852534D02*
X11348173Y-16852534D01*
X11376744Y-16866820D01*
X11391030Y-16881106D01*
X11405315Y-16909677D01*
X11419601Y-16966820D01*
X11419601Y-17038249D01*
X11405315Y-17095392D01*
X11391030Y-17123963D01*
X11376744Y-17138249D01*
X11348173Y-17152534D01*
X11319601Y-17152534D01*
X11291030Y-17138249D01*
X11276744Y-17123963D01*
X11262458Y-17095392D01*
X11248173Y-17038249D01*
X11248173Y-16966820D01*
X11262458Y-16909677D01*
X11276744Y-16881106D01*
X11291030Y-16866820D01*
X11319601Y-16852534D01*
X11519601Y-16852534D02*
X11705315Y-16852534D01*
X11605315Y-16966820D01*
X11648173Y-16966820D01*
X11676744Y-16981106D01*
X11691030Y-16995392D01*
X11705315Y-17023963D01*
X11705315Y-17095392D01*
X11691030Y-17123963D01*
X11676744Y-17138249D01*
X11648173Y-17152534D01*
X11562458Y-17152534D01*
X11533887Y-17138249D01*
X11519601Y-17123963D01*
X11991030Y-17152534D02*
X11819601Y-17152534D01*
X11905315Y-17152534D02*
X11905315Y-16852534D01*
X11876744Y-16895392D01*
X11848173Y-16923963D01*
X11819601Y-16938249D01*
X12105316Y-16852534D02*
X12105316Y-16909677D01*
X12219601Y-16852534D02*
X12219601Y-16909677D01*
X12662458Y-17266820D02*
X12648173Y-17252534D01*
X12619601Y-17209677D01*
X12605315Y-17181106D01*
X12591030Y-17138249D01*
X12576744Y-17066820D01*
X12576744Y-17009677D01*
X12591030Y-16938249D01*
X12605315Y-16895392D01*
X12619601Y-16866820D01*
X12648173Y-16823963D01*
X12662458Y-16809677D01*
X12905315Y-16952534D02*
X12905315Y-17152534D01*
X12833887Y-16838249D02*
X12762458Y-17052534D01*
X12948173Y-17052534D01*
X13119601Y-16852534D02*
X13148173Y-16852534D01*
X13176744Y-16866820D01*
X13191030Y-16881106D01*
X13205315Y-16909677D01*
X13219601Y-16966820D01*
X13219601Y-17038249D01*
X13205315Y-17095392D01*
X13191030Y-17123963D01*
X13176744Y-17138249D01*
X13148173Y-17152534D01*
X13119601Y-17152534D01*
X13091030Y-17138249D01*
X13076744Y-17123963D01*
X13062458Y-17095392D01*
X13048173Y-17038249D01*
X13048173Y-16966820D01*
X13062458Y-16909677D01*
X13076744Y-16881106D01*
X13091030Y-16866820D01*
X13119601Y-16852534D01*
X13576744Y-17152534D02*
X13576744Y-16852534D01*
X13705315Y-17152534D02*
X13705315Y-16995392D01*
X13691030Y-16966820D01*
X13662458Y-16952534D01*
X13619601Y-16952534D01*
X13591030Y-16966820D01*
X13576744Y-16981106D01*
X13891030Y-17152534D02*
X13862458Y-17138249D01*
X13848173Y-17123963D01*
X13833887Y-17095392D01*
X13833887Y-17009677D01*
X13848173Y-16981106D01*
X13862458Y-16966820D01*
X13891030Y-16952534D01*
X13933887Y-16952534D01*
X13962458Y-16966820D01*
X13976744Y-16981106D01*
X13991030Y-17009677D01*
X13991030Y-17095392D01*
X13976744Y-17123963D01*
X13962458Y-17138249D01*
X13933887Y-17152534D01*
X13891030Y-17152534D01*
X14162458Y-17152534D02*
X14133887Y-17138249D01*
X14119601Y-17109677D01*
X14119601Y-16852534D01*
X14391030Y-17138249D02*
X14362458Y-17152534D01*
X14305316Y-17152534D01*
X14276744Y-17138249D01*
X14262458Y-17109677D01*
X14262458Y-16995392D01*
X14276744Y-16966820D01*
X14305316Y-16952534D01*
X14362458Y-16952534D01*
X14391030Y-16966820D01*
X14405316Y-16995392D01*
X14405316Y-17023963D01*
X14262458Y-17052534D01*
X14519601Y-17138249D02*
X14548173Y-17152534D01*
X14605316Y-17152534D01*
X14633887Y-17138249D01*
X14648173Y-17109677D01*
X14648173Y-17095392D01*
X14633887Y-17066820D01*
X14605316Y-17052534D01*
X14562458Y-17052534D01*
X14533887Y-17038249D01*
X14519601Y-17009677D01*
X14519601Y-16995392D01*
X14533887Y-16966820D01*
X14562458Y-16952534D01*
X14605316Y-16952534D01*
X14633887Y-16966820D01*
X14748173Y-17266820D02*
X14762458Y-17252534D01*
X14791030Y-17209677D01*
X14805316Y-17181106D01*
X14819601Y-17138249D01*
X14833887Y-17066820D01*
X14833887Y-17009677D01*
X14819601Y-16938249D01*
X14805316Y-16895392D01*
X14791030Y-16866820D01*
X14762458Y-16823963D01*
X14748173Y-16809677D01*
X7940530Y-17463320D02*
X7991030Y-17412820D01*
X7940530Y-17362320D01*
X7890030Y-17412820D01*
X7940530Y-17463320D01*
X8419601Y-17548534D02*
X8248173Y-17548534D01*
X8333887Y-17548534D02*
X8333887Y-17248534D01*
X8305316Y-17291392D01*
X8276744Y-17319963D01*
X8248173Y-17334249D01*
X8548173Y-17519963D02*
X8562459Y-17534249D01*
X8548173Y-17548534D01*
X8533887Y-17534249D01*
X8548173Y-17519963D01*
X8548173Y-17548534D01*
X8748173Y-17248534D02*
X8776744Y-17248534D01*
X8805316Y-17262820D01*
X8819601Y-17277106D01*
X8833887Y-17305677D01*
X8848173Y-17362820D01*
X8848173Y-17434249D01*
X8833887Y-17491392D01*
X8819601Y-17519963D01*
X8805316Y-17534249D01*
X8776744Y-17548534D01*
X8748173Y-17548534D01*
X8719601Y-17534249D01*
X8705316Y-17519963D01*
X8691030Y-17491392D01*
X8676744Y-17434249D01*
X8676744Y-17362820D01*
X8691030Y-17305677D01*
X8705316Y-17277106D01*
X8719601Y-17262820D01*
X8748173Y-17248534D01*
X9133887Y-17548534D02*
X8962459Y-17548534D01*
X9048173Y-17548534D02*
X9048173Y-17248534D01*
X9019601Y-17291392D01*
X8991030Y-17319963D01*
X8962459Y-17334249D01*
X9262459Y-17548534D02*
X9262459Y-17348534D01*
X9262459Y-17377106D02*
X9276744Y-17362820D01*
X9305316Y-17348534D01*
X9348173Y-17348534D01*
X9376744Y-17362820D01*
X9391030Y-17391392D01*
X9391030Y-17548534D01*
X9391030Y-17391392D02*
X9405316Y-17362820D01*
X9433887Y-17348534D01*
X9476744Y-17348534D01*
X9505316Y-17362820D01*
X9519601Y-17391392D01*
X9519601Y-17548534D01*
X9662459Y-17548534D02*
X9662459Y-17348534D01*
X9662459Y-17377106D02*
X9676744Y-17362820D01*
X9705316Y-17348534D01*
X9748173Y-17348534D01*
X9776744Y-17362820D01*
X9791030Y-17391392D01*
X9791030Y-17548534D01*
X9791030Y-17391392D02*
X9805316Y-17362820D01*
X9833887Y-17348534D01*
X9876744Y-17348534D01*
X9905316Y-17362820D01*
X9919601Y-17391392D01*
X9919601Y-17548534D01*
X10505316Y-17234249D02*
X10248173Y-17619963D01*
X10891030Y-17248534D02*
X10919601Y-17248534D01*
X10948173Y-17262820D01*
X10962458Y-17277106D01*
X10976744Y-17305677D01*
X10991030Y-17362820D01*
X10991030Y-17434249D01*
X10976744Y-17491392D01*
X10962458Y-17519963D01*
X10948173Y-17534249D01*
X10919601Y-17548534D01*
X10891030Y-17548534D01*
X10862458Y-17534249D01*
X10848173Y-17519963D01*
X10833887Y-17491392D01*
X10819601Y-17434249D01*
X10819601Y-17362820D01*
X10833887Y-17305677D01*
X10848173Y-17277106D01*
X10862458Y-17262820D01*
X10891030Y-17248534D01*
X11119601Y-17519963D02*
X11133887Y-17534249D01*
X11119601Y-17548534D01*
X11105316Y-17534249D01*
X11119601Y-17519963D01*
X11119601Y-17548534D01*
X11319601Y-17248534D02*
X11348173Y-17248534D01*
X11376744Y-17262820D01*
X11391030Y-17277106D01*
X11405315Y-17305677D01*
X11419601Y-17362820D01*
X11419601Y-17434249D01*
X11405315Y-17491392D01*
X11391030Y-17519963D01*
X11376744Y-17534249D01*
X11348173Y-17548534D01*
X11319601Y-17548534D01*
X11291030Y-17534249D01*
X11276744Y-17519963D01*
X11262458Y-17491392D01*
X11248173Y-17434249D01*
X11248173Y-17362820D01*
X11262458Y-17305677D01*
X11276744Y-17277106D01*
X11291030Y-17262820D01*
X11319601Y-17248534D01*
X11676744Y-17348534D02*
X11676744Y-17548534D01*
X11605315Y-17234249D02*
X11533887Y-17448534D01*
X11719601Y-17448534D01*
X11891030Y-17248534D02*
X11919601Y-17248534D01*
X11948173Y-17262820D01*
X11962458Y-17277106D01*
X11976744Y-17305677D01*
X11991030Y-17362820D01*
X11991030Y-17434249D01*
X11976744Y-17491392D01*
X11962458Y-17519963D01*
X11948173Y-17534249D01*
X11919601Y-17548534D01*
X11891030Y-17548534D01*
X11862458Y-17534249D01*
X11848173Y-17519963D01*
X11833887Y-17491392D01*
X11819601Y-17434249D01*
X11819601Y-17362820D01*
X11833887Y-17305677D01*
X11848173Y-17277106D01*
X11862458Y-17262820D01*
X11891030Y-17248534D01*
X12105316Y-17248534D02*
X12105316Y-17305677D01*
X12219601Y-17248534D02*
X12219601Y-17305677D01*
X12662458Y-17662820D02*
X12648173Y-17648534D01*
X12619601Y-17605677D01*
X12605315Y-17577106D01*
X12591030Y-17534249D01*
X12576744Y-17462820D01*
X12576744Y-17405677D01*
X12591030Y-17334249D01*
X12605315Y-17291392D01*
X12619601Y-17262820D01*
X12648173Y-17219963D01*
X12662458Y-17205677D01*
X12905315Y-17248534D02*
X12848173Y-17248534D01*
X12819601Y-17262820D01*
X12805315Y-17277106D01*
X12776744Y-17319963D01*
X12762458Y-17377106D01*
X12762458Y-17491392D01*
X12776744Y-17519963D01*
X12791030Y-17534249D01*
X12819601Y-17548534D01*
X12876744Y-17548534D01*
X12905315Y-17534249D01*
X12919601Y-17519963D01*
X12933887Y-17491392D01*
X12933887Y-17419963D01*
X12919601Y-17391392D01*
X12905315Y-17377106D01*
X12876744Y-17362820D01*
X12819601Y-17362820D01*
X12791030Y-17377106D01*
X12776744Y-17391392D01*
X12762458Y-17419963D01*
X13191030Y-17348534D02*
X13191030Y-17548534D01*
X13119601Y-17234249D02*
X13048173Y-17448534D01*
X13233887Y-17448534D01*
X13576744Y-17548534D02*
X13576744Y-17248534D01*
X13705315Y-17548534D02*
X13705315Y-17391392D01*
X13691030Y-17362820D01*
X13662458Y-17348534D01*
X13619601Y-17348534D01*
X13591030Y-17362820D01*
X13576744Y-17377106D01*
X13891030Y-17548534D02*
X13862458Y-17534249D01*
X13848173Y-17519963D01*
X13833887Y-17491392D01*
X13833887Y-17405677D01*
X13848173Y-17377106D01*
X13862458Y-17362820D01*
X13891030Y-17348534D01*
X13933887Y-17348534D01*
X13962458Y-17362820D01*
X13976744Y-17377106D01*
X13991030Y-17405677D01*
X13991030Y-17491392D01*
X13976744Y-17519963D01*
X13962458Y-17534249D01*
X13933887Y-17548534D01*
X13891030Y-17548534D01*
X14162458Y-17548534D02*
X14133887Y-17534249D01*
X14119601Y-17505677D01*
X14119601Y-17248534D01*
X14391030Y-17534249D02*
X14362458Y-17548534D01*
X14305316Y-17548534D01*
X14276744Y-17534249D01*
X14262458Y-17505677D01*
X14262458Y-17391392D01*
X14276744Y-17362820D01*
X14305316Y-17348534D01*
X14362458Y-17348534D01*
X14391030Y-17362820D01*
X14405316Y-17391392D01*
X14405316Y-17419963D01*
X14262458Y-17448534D01*
X14519601Y-17534249D02*
X14548173Y-17548534D01*
X14605316Y-17548534D01*
X14633887Y-17534249D01*
X14648173Y-17505677D01*
X14648173Y-17491392D01*
X14633887Y-17462820D01*
X14605316Y-17448534D01*
X14562458Y-17448534D01*
X14533887Y-17434249D01*
X14519601Y-17405677D01*
X14519601Y-17391392D01*
X14533887Y-17362820D01*
X14562458Y-17348534D01*
X14605316Y-17348534D01*
X14633887Y-17362820D01*
X14748173Y-17662820D02*
X14762458Y-17648534D01*
X14791030Y-17605677D01*
X14805316Y-17577106D01*
X14819601Y-17534249D01*
X14833887Y-17462820D01*
X14833887Y-17405677D01*
X14819601Y-17334249D01*
X14805316Y-17291392D01*
X14791030Y-17262820D01*
X14762458Y-17219963D01*
X14748173Y-17205677D01*
X7671030Y-17648820D02*
X7991030Y-17968820D01*
X7991030Y-17648820D02*
X7671030Y-17968820D01*
X7991030Y-17808820D02*
G75*
G03X7991030Y-17808820I-160000J0D01*
G01*
X8233887Y-17644534D02*
X8419601Y-17644534D01*
X8319601Y-17758820D01*
X8362458Y-17758820D01*
X8391030Y-17773106D01*
X8405316Y-17787392D01*
X8419601Y-17815963D01*
X8419601Y-17887392D01*
X8405316Y-17915963D01*
X8391030Y-17930249D01*
X8362458Y-17944534D01*
X8276744Y-17944534D01*
X8248173Y-17930249D01*
X8233887Y-17915963D01*
X8548173Y-17915963D02*
X8562459Y-17930249D01*
X8548173Y-17944534D01*
X8533887Y-17930249D01*
X8548173Y-17915963D01*
X8548173Y-17944534D01*
X8676744Y-17673106D02*
X8691030Y-17658820D01*
X8719601Y-17644534D01*
X8791030Y-17644534D01*
X8819601Y-17658820D01*
X8833887Y-17673106D01*
X8848173Y-17701677D01*
X8848173Y-17730249D01*
X8833887Y-17773106D01*
X8662458Y-17944534D01*
X8848173Y-17944534D01*
X9033887Y-17644534D02*
X9062459Y-17644534D01*
X9091030Y-17658820D01*
X9105316Y-17673106D01*
X9119601Y-17701677D01*
X9133887Y-17758820D01*
X9133887Y-17830249D01*
X9119601Y-17887392D01*
X9105316Y-17915963D01*
X9091030Y-17930249D01*
X9062459Y-17944534D01*
X9033887Y-17944534D01*
X9005316Y-17930249D01*
X8991030Y-17915963D01*
X8976744Y-17887392D01*
X8962459Y-17830249D01*
X8962459Y-17758820D01*
X8976744Y-17701677D01*
X8991030Y-17673106D01*
X9005316Y-17658820D01*
X9033887Y-17644534D01*
X9262459Y-17944534D02*
X9262459Y-17744534D01*
X9262459Y-17773106D02*
X9276744Y-17758820D01*
X9305316Y-17744534D01*
X9348173Y-17744534D01*
X9376744Y-17758820D01*
X9391030Y-17787392D01*
X9391030Y-17944534D01*
X9391030Y-17787392D02*
X9405316Y-17758820D01*
X9433887Y-17744534D01*
X9476744Y-17744534D01*
X9505316Y-17758820D01*
X9519601Y-17787392D01*
X9519601Y-17944534D01*
X9662459Y-17944534D02*
X9662459Y-17744534D01*
X9662459Y-17773106D02*
X9676744Y-17758820D01*
X9705316Y-17744534D01*
X9748173Y-17744534D01*
X9776744Y-17758820D01*
X9791030Y-17787392D01*
X9791030Y-17944534D01*
X9791030Y-17787392D02*
X9805316Y-17758820D01*
X9833887Y-17744534D01*
X9876744Y-17744534D01*
X9905316Y-17758820D01*
X9919601Y-17787392D01*
X9919601Y-17944534D01*
X10505316Y-17630249D02*
X10248173Y-18015963D01*
X10891030Y-17644534D02*
X10919601Y-17644534D01*
X10948173Y-17658820D01*
X10962458Y-17673106D01*
X10976744Y-17701677D01*
X10991030Y-17758820D01*
X10991030Y-17830249D01*
X10976744Y-17887392D01*
X10962458Y-17915963D01*
X10948173Y-17930249D01*
X10919601Y-17944534D01*
X10891030Y-17944534D01*
X10862458Y-17930249D01*
X10848173Y-17915963D01*
X10833887Y-17887392D01*
X10819601Y-17830249D01*
X10819601Y-17758820D01*
X10833887Y-17701677D01*
X10848173Y-17673106D01*
X10862458Y-17658820D01*
X10891030Y-17644534D01*
X11119601Y-17915963D02*
X11133887Y-17930249D01*
X11119601Y-17944534D01*
X11105316Y-17930249D01*
X11119601Y-17915963D01*
X11119601Y-17944534D01*
X11419601Y-17944534D02*
X11248173Y-17944534D01*
X11333887Y-17944534D02*
X11333887Y-17644534D01*
X11305315Y-17687392D01*
X11276744Y-17715963D01*
X11248173Y-17730249D01*
X11533887Y-17673106D02*
X11548173Y-17658820D01*
X11576744Y-17644534D01*
X11648173Y-17644534D01*
X11676744Y-17658820D01*
X11691030Y-17673106D01*
X11705315Y-17701677D01*
X11705315Y-17730249D01*
X11691030Y-17773106D01*
X11519601Y-17944534D01*
X11705315Y-17944534D01*
X11962458Y-17644534D02*
X11905315Y-17644534D01*
X11876744Y-17658820D01*
X11862458Y-17673106D01*
X11833887Y-17715963D01*
X11819601Y-17773106D01*
X11819601Y-17887392D01*
X11833887Y-17915963D01*
X11848173Y-17930249D01*
X11876744Y-17944534D01*
X11933887Y-17944534D01*
X11962458Y-17930249D01*
X11976744Y-17915963D01*
X11991030Y-17887392D01*
X11991030Y-17815963D01*
X11976744Y-17787392D01*
X11962458Y-17773106D01*
X11933887Y-17758820D01*
X11876744Y-17758820D01*
X11848173Y-17773106D01*
X11833887Y-17787392D01*
X11819601Y-17815963D01*
X12105316Y-17644534D02*
X12105316Y-17701677D01*
X12219601Y-17644534D02*
X12219601Y-17701677D01*
X12662458Y-18058820D02*
X12648173Y-18044534D01*
X12619601Y-18001677D01*
X12605315Y-17973106D01*
X12591030Y-17930249D01*
X12576744Y-17858820D01*
X12576744Y-17801677D01*
X12591030Y-17730249D01*
X12605315Y-17687392D01*
X12619601Y-17658820D01*
X12648173Y-17615963D01*
X12662458Y-17601677D01*
X12905315Y-17744534D02*
X12905315Y-17944534D01*
X12833887Y-17630249D02*
X12762458Y-17844534D01*
X12948173Y-17844534D01*
X13291030Y-17944534D02*
X13291030Y-17644534D01*
X13419601Y-17944534D02*
X13419601Y-17787392D01*
X13405315Y-17758820D01*
X13376744Y-17744534D01*
X13333887Y-17744534D01*
X13305315Y-17758820D01*
X13291030Y-17773106D01*
X13605315Y-17944534D02*
X13576744Y-17930249D01*
X13562458Y-17915963D01*
X13548173Y-17887392D01*
X13548173Y-17801677D01*
X13562458Y-17773106D01*
X13576744Y-17758820D01*
X13605315Y-17744534D01*
X13648173Y-17744534D01*
X13676744Y-17758820D01*
X13691030Y-17773106D01*
X13705315Y-17801677D01*
X13705315Y-17887392D01*
X13691030Y-17915963D01*
X13676744Y-17930249D01*
X13648173Y-17944534D01*
X13605315Y-17944534D01*
X13876744Y-17944534D02*
X13848173Y-17930249D01*
X13833887Y-17901677D01*
X13833887Y-17644534D01*
X14105316Y-17930249D02*
X14076744Y-17944534D01*
X14019601Y-17944534D01*
X13991030Y-17930249D01*
X13976744Y-17901677D01*
X13976744Y-17787392D01*
X13991030Y-17758820D01*
X14019601Y-17744534D01*
X14076744Y-17744534D01*
X14105316Y-17758820D01*
X14119601Y-17787392D01*
X14119601Y-17815963D01*
X13976744Y-17844534D01*
X14233887Y-17930249D02*
X14262458Y-17944534D01*
X14319601Y-17944534D01*
X14348173Y-17930249D01*
X14362458Y-17901677D01*
X14362458Y-17887392D01*
X14348173Y-17858820D01*
X14319601Y-17844534D01*
X14276744Y-17844534D01*
X14248173Y-17830249D01*
X14233887Y-17801677D01*
X14233887Y-17787392D01*
X14248173Y-17758820D01*
X14276744Y-17744534D01*
X14319601Y-17744534D01*
X14348173Y-17758820D01*
X14462458Y-18058820D02*
X14476744Y-18044534D01*
X14505316Y-18001677D01*
X14519601Y-17973106D01*
X14533887Y-17930249D01*
X14548173Y-17858820D01*
X14548173Y-17801677D01*
X14533887Y-17730249D01*
X14519601Y-17687392D01*
X14505316Y-17658820D01*
X14476744Y-17615963D01*
X14462458Y-17601677D01*
M02*
