%FSLAX45Y45*%
G04 Gerber Fmt 4.5, Leading zero omitted, Abs format (unit mm)*
G04 Created by KiCad (PCBNEW 4.0.6) date 12/07/17 21:07:52*
%MOMM*%
%LPD*%
G01*
G04 APERTURE LIST*
%ADD10C,0.127000*%
%ADD11C,0.200000*%
%ADD12C,0.300000*%
G04 APERTURE END LIST*
D10*
D11*
X13970030Y-5460820D02*
X15716280Y-5460820D01*
X13970030Y-14858820D02*
X15716280Y-14858820D01*
X8001030Y-7143570D02*
X8001030Y-13176070D01*
X9683780Y-14858820D02*
X11430030Y-14858820D01*
X13970030Y-14604820D02*
X13970030Y-14858820D01*
X11430030Y-14604820D02*
X11430030Y-14858820D01*
X13970030Y-5460820D02*
X13970030Y-5714820D01*
X11430030Y-5460820D02*
X11430030Y-5714820D01*
X11430030Y-14604820D02*
X13970030Y-14604820D01*
X11430030Y-5714820D02*
X13970030Y-5714820D01*
X15716280Y-14858820D02*
X17399030Y-13176070D01*
X8001030Y-13176070D02*
X9683780Y-14858820D01*
X17399030Y-7143570D02*
X17399030Y-13176070D01*
X15716280Y-5460820D02*
X17399030Y-7143570D01*
X8001030Y-7143570D02*
X9683780Y-5460820D01*
X9683780Y-5460820D02*
X11430030Y-5460820D01*
D11*
X8539480Y-9235440D02*
X8590280Y-9286240D01*
X8590280Y-9235440D02*
X8539480Y-9286240D01*
X9182100Y-13785850D02*
X9232900Y-13836650D01*
X9232900Y-13785850D02*
X9182100Y-13836650D01*
X9372600Y-10957560D02*
X9423400Y-11008360D01*
X9423400Y-10957560D02*
X9372600Y-11008360D01*
X9494520Y-11963400D02*
X9545320Y-12014200D01*
X9545320Y-11963400D02*
X9494520Y-12014200D01*
X9540240Y-10271760D02*
X9591040Y-10322560D01*
X9591040Y-10271760D02*
X9540240Y-10322560D01*
X9564878Y-10007092D02*
X9615678Y-10057892D01*
X9615678Y-10007092D02*
X9564878Y-10057892D01*
X9874250Y-12553950D02*
X9925050Y-12604750D01*
X9925050Y-12553950D02*
X9874250Y-12604750D01*
X9874250Y-13817600D02*
X9925050Y-13868400D01*
X9925050Y-13817600D02*
X9874250Y-13868400D01*
X9880600Y-6939900D02*
X9931400Y-6990700D01*
X9931400Y-6939900D02*
X9880600Y-6990700D01*
X9893300Y-7440930D02*
X9944100Y-7491730D01*
X9944100Y-7440930D02*
X9893300Y-7491730D01*
X9982200Y-12954000D02*
X10033000Y-13004800D01*
X10033000Y-12954000D02*
X9982200Y-13004800D01*
X10210800Y-13106400D02*
X10261600Y-13157200D01*
X10261600Y-13106400D02*
X10210800Y-13157200D01*
X10236200Y-12084051D02*
X10287000Y-12134851D01*
X10287000Y-12084051D02*
X10236200Y-12134851D01*
X10358628Y-8284972D02*
X10409428Y-8335772D01*
X10409428Y-8284972D02*
X10358628Y-8335772D01*
X10539476Y-8536432D02*
X10590276Y-8587232D01*
X10590276Y-8536432D02*
X10539476Y-8587232D01*
X10555986Y-12515342D02*
X10606786Y-12566142D01*
X10606786Y-12515342D02*
X10555986Y-12566142D01*
X10566400Y-7975600D02*
X10617200Y-8026400D01*
X10617200Y-7975600D02*
X10566400Y-8026400D01*
X10642600Y-13233400D02*
X10693400Y-13284200D01*
X10693400Y-13233400D02*
X10642600Y-13284200D01*
X10697640Y-8352451D02*
X10748440Y-8403251D01*
X10748440Y-8352451D02*
X10697640Y-8403251D01*
X10718800Y-14147800D02*
X10769600Y-14198600D01*
X10769600Y-14147800D02*
X10718800Y-14198600D01*
X10720000Y-14019600D02*
X10770800Y-14070400D01*
X10770800Y-14019600D02*
X10720000Y-14070400D01*
X10731500Y-7139800D02*
X10782300Y-7190600D01*
X10782300Y-7139800D02*
X10731500Y-7190600D01*
X10744200Y-13563600D02*
X10795000Y-13614400D01*
X10795000Y-13563600D02*
X10744200Y-13614400D01*
X10763250Y-10902950D02*
X10814050Y-10953750D01*
X10814050Y-10902950D02*
X10763250Y-10953750D01*
X10769600Y-10344150D02*
X10820400Y-10394950D01*
X10820400Y-10344150D02*
X10769600Y-10394950D01*
X10807700Y-8229600D02*
X10858500Y-8280400D01*
X10858500Y-8229600D02*
X10807700Y-8280400D01*
X10807700Y-8229600D02*
X10858500Y-8280400D01*
X10858500Y-8229600D02*
X10807700Y-8280400D01*
X10810240Y-14203680D02*
X10861040Y-14254480D01*
X10861040Y-14203680D02*
X10810240Y-14254480D01*
X10867891Y-7839228D02*
X10918691Y-7890028D01*
X10918691Y-7839228D02*
X10867891Y-7890028D01*
X10927080Y-6522720D02*
X10977880Y-6573520D01*
X10977880Y-6522720D02*
X10927080Y-6573520D01*
X11004804Y-8055864D02*
X11055604Y-8106664D01*
X11055604Y-8055864D02*
X11004804Y-8106664D01*
X11150600Y-13589000D02*
X11201400Y-13639800D01*
X11201400Y-13589000D02*
X11150600Y-13639800D01*
X11221668Y-13512852D02*
X11272468Y-13563652D01*
X11272468Y-13512852D02*
X11221668Y-13563652D01*
X11233150Y-6273800D02*
X11283950Y-6324600D01*
X11283950Y-6273800D02*
X11233150Y-6324600D01*
X11344910Y-12801600D02*
X11395710Y-12852400D01*
X11395710Y-12801600D02*
X11344910Y-12852400D01*
X11353800Y-13538200D02*
X11404600Y-13589000D01*
X11404600Y-13538200D02*
X11353800Y-13589000D01*
X11369040Y-13431520D02*
X11419840Y-13482320D01*
X11419840Y-13431520D02*
X11369040Y-13482320D01*
X11379200Y-9078100D02*
X11430000Y-9128900D01*
X11430000Y-9078100D02*
X11379200Y-9128900D01*
X11442700Y-6952600D02*
X11493500Y-7003400D01*
X11493500Y-6952600D02*
X11442700Y-7003400D01*
X11457940Y-11813540D02*
X11508740Y-11864340D01*
X11508740Y-11813540D02*
X11457940Y-11864340D01*
X11504929Y-13025120D02*
X11555729Y-13075920D01*
X11555729Y-13025120D02*
X11504929Y-13075920D01*
X11511280Y-13462000D02*
X11562080Y-13512800D01*
X11562080Y-13462000D02*
X11511280Y-13512800D01*
X11521440Y-13350240D02*
X11572240Y-13401040D01*
X11572240Y-13350240D02*
X11521440Y-13401040D01*
X11532871Y-12085320D02*
X11583671Y-12136120D01*
X11583671Y-12085320D02*
X11532871Y-12136120D01*
X11535410Y-12421870D02*
X11586210Y-12472670D01*
X11586210Y-12421870D02*
X11535410Y-12472670D01*
X11588322Y-12506936D02*
X11639122Y-12557736D01*
X11639122Y-12506936D02*
X11588322Y-12557736D01*
X11601450Y-6292850D02*
X11652250Y-6343650D01*
X11652250Y-6292850D02*
X11601450Y-6343650D01*
X11653520Y-13370560D02*
X11704320Y-13421360D01*
X11704320Y-13370560D02*
X11653520Y-13421360D01*
X11684000Y-12611100D02*
X11734800Y-12661900D01*
X11734800Y-12611100D02*
X11684000Y-12661900D01*
X11694160Y-13274040D02*
X11744960Y-13324840D01*
X11744960Y-13274040D02*
X11694160Y-13324840D01*
X11912600Y-8470900D02*
X11963400Y-8521700D01*
X11963400Y-8470900D02*
X11912600Y-8521700D01*
X12014200Y-9078100D02*
X12065000Y-9128900D01*
X12065000Y-9078100D02*
X12014200Y-9128900D01*
X12054840Y-9276588D02*
X12105640Y-9327388D01*
X12105640Y-9276588D02*
X12054840Y-9327388D01*
X12060900Y-13417550D02*
X12111700Y-13468350D01*
X12111700Y-13417550D02*
X12060900Y-13468350D01*
X12113006Y-12206986D02*
X12163806Y-12257786D01*
X12163806Y-12206986D02*
X12113006Y-12257786D01*
X12221210Y-11422380D02*
X12272010Y-11473180D01*
X12272010Y-11422380D02*
X12221210Y-11473180D01*
X12274550Y-12763500D02*
X12325350Y-12814300D01*
X12325350Y-12763500D02*
X12274550Y-12814300D01*
X12319000Y-9707550D02*
X12369800Y-9758350D01*
X12369800Y-9707550D02*
X12319000Y-9758350D01*
X12420600Y-10896600D02*
X12471400Y-10947400D01*
X12471400Y-10896600D02*
X12420600Y-10947400D01*
X12486640Y-6573520D02*
X12537440Y-6624320D01*
X12537440Y-6573520D02*
X12486640Y-6624320D01*
X12821920Y-7655560D02*
X12872720Y-7706360D01*
X12872720Y-7655560D02*
X12821920Y-7706360D01*
X12866370Y-9091930D02*
X12917170Y-9142730D01*
X12917170Y-9091930D02*
X12866370Y-9142730D01*
X12867640Y-8334760D02*
X12918440Y-8385560D01*
X12918440Y-8334760D02*
X12867640Y-8385560D01*
X12892546Y-10860546D02*
X12943346Y-10911346D01*
X12943346Y-10860546D02*
X12892546Y-10911346D01*
X12992100Y-12158980D02*
X13042900Y-12209780D01*
X13042900Y-12158980D02*
X12992100Y-12209780D01*
X12996326Y-12258020D02*
X13047126Y-12308820D01*
X13047126Y-12258020D02*
X12996326Y-12308820D01*
X13004800Y-6952600D02*
X13055600Y-7003400D01*
X13055600Y-6952600D02*
X13004800Y-7003400D01*
X13106400Y-9728200D02*
X13157200Y-9779000D01*
X13157200Y-9728200D02*
X13106400Y-9779000D01*
X13124180Y-9448800D02*
X13174980Y-9499600D01*
X13174980Y-9448800D02*
X13124180Y-9499600D01*
X13211400Y-7810500D02*
X13262200Y-7861300D01*
X13262200Y-7810500D02*
X13211400Y-7861300D01*
X13218200Y-7351900D02*
X13269000Y-7402700D01*
X13269000Y-7351900D02*
X13218200Y-7402700D01*
X13218200Y-8736200D02*
X13269000Y-8787000D01*
X13269000Y-8736200D02*
X13218200Y-8787000D01*
X13218200Y-9196200D02*
X13269000Y-9247000D01*
X13269000Y-9196200D02*
X13218200Y-9247000D01*
X13232753Y-12151133D02*
X13283553Y-12201933D01*
X13283553Y-12151133D02*
X13232753Y-12201933D01*
X13258800Y-8089900D02*
X13309600Y-8140700D01*
X13309600Y-8089900D02*
X13258800Y-8140700D01*
X13258800Y-12679680D02*
X13309600Y-12730480D01*
X13309600Y-12679680D02*
X13258800Y-12730480D01*
X13270230Y-9551670D02*
X13321030Y-9602470D01*
X13321030Y-9551670D02*
X13270230Y-9602470D01*
X13273953Y-11139083D02*
X13324753Y-11189883D01*
X13324753Y-11139083D02*
X13273953Y-11189883D01*
X13362490Y-8182663D02*
X13413290Y-8233463D01*
X13413290Y-8182663D02*
X13362490Y-8233463D01*
X13392150Y-11595100D02*
X13442950Y-11645900D01*
X13442950Y-11595100D02*
X13392150Y-11645900D01*
X13411200Y-12484100D02*
X13462000Y-12534900D01*
X13462000Y-12484100D02*
X13411200Y-12534900D01*
X13436600Y-9036300D02*
X13487400Y-9087100D01*
X13487400Y-9036300D02*
X13436600Y-9087100D01*
X13460592Y-11377792D02*
X13511392Y-11428592D01*
X13511392Y-11377792D02*
X13460592Y-11428592D01*
X13460592Y-11377792D02*
X13511392Y-11428592D01*
X13511392Y-11377792D02*
X13460592Y-11428592D01*
X13462000Y-7677400D02*
X13512800Y-7728200D01*
X13512800Y-7677400D02*
X13462000Y-7728200D01*
X13766800Y-9715500D02*
X13817600Y-9766300D01*
X13817600Y-9715500D02*
X13766800Y-9766300D01*
X13954760Y-8691880D02*
X14005560Y-8742680D01*
X14005560Y-8691880D02*
X13954760Y-8742680D01*
X13970250Y-12109450D02*
X14021050Y-12160250D01*
X14021050Y-12109450D02*
X13970250Y-12160250D01*
X13971600Y-11226800D02*
X14022400Y-11277600D01*
X14022400Y-11226800D02*
X13971600Y-11277600D01*
X13971600Y-12369800D02*
X14022400Y-12420600D01*
X14022400Y-12369800D02*
X13971600Y-12420600D01*
X13976600Y-10957560D02*
X14027400Y-11008360D01*
X14027400Y-10957560D02*
X13976600Y-11008360D01*
X14157960Y-9347200D02*
X14208760Y-9398000D01*
X14208760Y-9347200D02*
X14157960Y-9398000D01*
X14239240Y-8067040D02*
X14290040Y-8117840D01*
X14290040Y-8067040D02*
X14239240Y-8117840D01*
X14269018Y-6181076D02*
X14319818Y-6231876D01*
X14319818Y-6181076D02*
X14269018Y-6231876D01*
X14295120Y-12085320D02*
X14345920Y-12136120D01*
X14345920Y-12085320D02*
X14295120Y-12136120D01*
X14315440Y-7289800D02*
X14366240Y-7340600D01*
X14366240Y-7289800D02*
X14315440Y-7340600D01*
X14340840Y-11029954D02*
X14391640Y-11080754D01*
X14391640Y-11029954D02*
X14340840Y-11080754D01*
X14351000Y-6132580D02*
X14401800Y-6183380D01*
X14401800Y-6132580D02*
X14351000Y-6183380D01*
X14545310Y-12094210D02*
X14596110Y-12145010D01*
X14596110Y-12094210D02*
X14545310Y-12145010D01*
X14682725Y-9672815D02*
X14733525Y-9723615D01*
X14733525Y-9672815D02*
X14682725Y-9723615D01*
X14682725Y-9787204D02*
X14733525Y-9838004D01*
X14733525Y-9787204D02*
X14682725Y-9838004D01*
X14725780Y-9571676D02*
X14776580Y-9622476D01*
X14776580Y-9571676D02*
X14725780Y-9622476D01*
X14732000Y-11303000D02*
X14782800Y-11353800D01*
X14782800Y-11303000D02*
X14732000Y-11353800D01*
X14747240Y-12339320D02*
X14798040Y-12390120D01*
X14798040Y-12339320D02*
X14747240Y-12390120D01*
X14847570Y-14097000D02*
X14898370Y-14147800D01*
X14898370Y-14097000D02*
X14847570Y-14147800D01*
X14871700Y-10058401D02*
X14922500Y-10109201D01*
X14922500Y-10058401D02*
X14871700Y-10109201D01*
X14914880Y-9817100D02*
X14965680Y-9867900D01*
X14965680Y-9817100D02*
X14914880Y-9867900D01*
X15035276Y-9951720D02*
X15086076Y-10002520D01*
X15086076Y-9951720D02*
X15035276Y-10002520D01*
X15100300Y-13614400D02*
X15151100Y-13665200D01*
X15151100Y-13614400D02*
X15100300Y-13665200D01*
X15201900Y-8201800D02*
X15252700Y-8252600D01*
X15252700Y-8201800D02*
X15201900Y-8252600D01*
X15214600Y-7645400D02*
X15265400Y-7696200D01*
X15265400Y-7645400D02*
X15214600Y-7696200D01*
X15214600Y-13284200D02*
X15265400Y-13335000D01*
X15265400Y-13284200D02*
X15214600Y-13335000D01*
X15240000Y-12979400D02*
X15290800Y-13030200D01*
X15290800Y-12979400D02*
X15240000Y-13030200D01*
X15271750Y-11239500D02*
X15322550Y-11290300D01*
X15322550Y-11239500D02*
X15271750Y-11290300D01*
X15291816Y-9614916D02*
X15342616Y-9665716D01*
X15342616Y-9614916D02*
X15291816Y-9665716D01*
X15316200Y-11791950D02*
X15367000Y-11842750D01*
X15367000Y-11791950D02*
X15316200Y-11842750D01*
X15373100Y-10922000D02*
X15423900Y-10972800D01*
X15423900Y-10922000D02*
X15373100Y-10972800D01*
X15373350Y-9080500D02*
X15424150Y-9131300D01*
X15424150Y-9080500D02*
X15373350Y-9131300D01*
X15402560Y-11170920D02*
X15453360Y-11221720D01*
X15453360Y-11170920D02*
X15402560Y-11221720D01*
X15417800Y-13169900D02*
X15468600Y-13220700D01*
X15468600Y-13169900D02*
X15417800Y-13220700D01*
X15449550Y-8382000D02*
X15500350Y-8432800D01*
X15500350Y-8382000D02*
X15449550Y-8432800D01*
X15532100Y-13182600D02*
X15582900Y-13233400D01*
X15582900Y-13182600D02*
X15532100Y-13233400D01*
X15551400Y-12700000D02*
X15602200Y-12750800D01*
X15602200Y-12700000D02*
X15551400Y-12750800D01*
X15636240Y-9709145D02*
X15687040Y-9759945D01*
X15687040Y-9709145D02*
X15636240Y-9759945D01*
X15709900Y-10217150D02*
X15760700Y-10267950D01*
X15760700Y-10217150D02*
X15709900Y-10267950D01*
X15728700Y-11036300D02*
X15779500Y-11087100D01*
X15779500Y-11036300D02*
X15728700Y-11087100D01*
X15741400Y-12509500D02*
X15792200Y-12560300D01*
X15792200Y-12509500D02*
X15741400Y-12560300D01*
X15754100Y-7899400D02*
X15804900Y-7950200D01*
X15804900Y-7899400D02*
X15754100Y-7950200D01*
X15754100Y-9359900D02*
X15804900Y-9410700D01*
X15804900Y-9359900D02*
X15754100Y-9410700D01*
X15779750Y-12077700D02*
X15830550Y-12128500D01*
X15830550Y-12077700D02*
X15779750Y-12128500D01*
X15798800Y-13385800D02*
X15849600Y-13436600D01*
X15849600Y-13385800D02*
X15798800Y-13436600D01*
X15801340Y-11889740D02*
X15852140Y-11940540D01*
X15852140Y-11889740D02*
X15801340Y-11940540D01*
X15868650Y-13729209D02*
X15919450Y-13780009D01*
X15919450Y-13729209D02*
X15868650Y-13780009D01*
X15923260Y-10807700D02*
X15974060Y-10858500D01*
X15974060Y-10807700D02*
X15923260Y-10858500D01*
X15930880Y-10213340D02*
X15981680Y-10264140D01*
X15981680Y-10213340D02*
X15930880Y-10264140D01*
X16167100Y-6483350D02*
X16217900Y-6534150D01*
X16217900Y-6483350D02*
X16167100Y-6534150D01*
X16210280Y-11521440D02*
X16261080Y-11572240D01*
X16261080Y-11521440D02*
X16210280Y-11572240D01*
X16372840Y-13411200D02*
X16423640Y-13462000D01*
X16423640Y-13411200D02*
X16372840Y-13462000D01*
X16433800Y-11493500D02*
X16484600Y-11544300D01*
X16484600Y-11493500D02*
X16433800Y-11544300D01*
X16433800Y-12471400D02*
X16484600Y-12522200D01*
X16484600Y-12471400D02*
X16433800Y-12522200D01*
X16512540Y-13655802D02*
X16563340Y-13706602D01*
X16563340Y-13655802D02*
X16512540Y-13706602D01*
X16522700Y-11379200D02*
X16573500Y-11430000D01*
X16573500Y-11379200D02*
X16522700Y-11430000D01*
X16535400Y-12814300D02*
X16586200Y-12865100D01*
X16586200Y-12814300D02*
X16535400Y-12865100D01*
X16560800Y-12357100D02*
X16611600Y-12407900D01*
X16611600Y-12357100D02*
X16560800Y-12407900D01*
X16628400Y-11210000D02*
X16679200Y-11260800D01*
X16679200Y-11210000D02*
X16628400Y-11260800D01*
X16662400Y-11023600D02*
X16713200Y-11074400D01*
X16713200Y-11023600D02*
X16662400Y-11074400D01*
X16700500Y-12090400D02*
X16751300Y-12141200D01*
X16751300Y-12090400D02*
X16700500Y-12141200D01*
X16728440Y-10833100D02*
X16779240Y-10883900D01*
X16779240Y-10833100D02*
X16728440Y-10883900D01*
X16814800Y-11785600D02*
X16865600Y-11836400D01*
X16865600Y-11785600D02*
X16814800Y-11836400D01*
X16827500Y-12280900D02*
X16878300Y-12331700D01*
X16878300Y-12280900D02*
X16827500Y-12331700D01*
X16845282Y-9531350D02*
X16896082Y-9582150D01*
X16896082Y-9531350D02*
X16845282Y-9582150D01*
X17041369Y-10211054D02*
X17092169Y-10261854D01*
X17092169Y-10211054D02*
X17041369Y-10261854D01*
X17043400Y-11938000D02*
X17094200Y-11988800D01*
X17094200Y-11938000D02*
X17043400Y-11988800D01*
X17048480Y-12721840D02*
X17099280Y-12772640D01*
X17099280Y-12721840D02*
X17048480Y-12772640D01*
X17068545Y-11284710D02*
X17119345Y-11335510D01*
X17119345Y-11284710D02*
X17068545Y-11335510D01*
X17068545Y-11482379D02*
X17119345Y-11533179D01*
X17119345Y-11482379D02*
X17068545Y-11533179D01*
X17111220Y-10484898D02*
X17162020Y-10535698D01*
X17162020Y-10484898D02*
X17111220Y-10535698D01*
X17195800Y-9654540D02*
X17246600Y-9705340D01*
X17246600Y-9654540D02*
X17195800Y-9705340D01*
X10064445Y-9260000D02*
G75*
G03X10064445Y-9260000I-38100J0D01*
G01*
X10064445Y-9460000D02*
G75*
G03X10064445Y-9460000I-38100J0D01*
G01*
X10064445Y-9660000D02*
G75*
G03X10064445Y-9660000I-38100J0D01*
G01*
X10064445Y-9860000D02*
G75*
G03X10064445Y-9860000I-38100J0D01*
G01*
X10064445Y-10060000D02*
G75*
G03X10064445Y-10060000I-38100J0D01*
G01*
X10064445Y-10260000D02*
G75*
G03X10064445Y-10260000I-38100J0D01*
G01*
X10064445Y-10460000D02*
G75*
G03X10064445Y-10460000I-38100J0D01*
G01*
X10064445Y-10660000D02*
G75*
G03X10064445Y-10660000I-38100J0D01*
G01*
X10064445Y-10860000D02*
G75*
G03X10064445Y-10860000I-38100J0D01*
G01*
X10064445Y-11060000D02*
G75*
G03X10064445Y-11060000I-38100J0D01*
G01*
X10264445Y-9260000D02*
G75*
G03X10264445Y-9260000I-38100J0D01*
G01*
X10264445Y-9460000D02*
G75*
G03X10264445Y-9460000I-38100J0D01*
G01*
X10264445Y-9660000D02*
G75*
G03X10264445Y-9660000I-38100J0D01*
G01*
X10264445Y-9860000D02*
G75*
G03X10264445Y-9860000I-38100J0D01*
G01*
X10264445Y-10060000D02*
G75*
G03X10264445Y-10060000I-38100J0D01*
G01*
X10264445Y-10260000D02*
G75*
G03X10264445Y-10260000I-38100J0D01*
G01*
X10264445Y-10460000D02*
G75*
G03X10264445Y-10460000I-38100J0D01*
G01*
X10264445Y-10660000D02*
G75*
G03X10264445Y-10660000I-38100J0D01*
G01*
X10264445Y-10860000D02*
G75*
G03X10264445Y-10860000I-38100J0D01*
G01*
X10264445Y-11060000D02*
G75*
G03X10264445Y-11060000I-38100J0D01*
G01*
X10439400Y-6411600D02*
X10439400Y-6491600D01*
X10399400Y-6451600D02*
X10479400Y-6451600D01*
X10439400Y-6665600D02*
X10439400Y-6745600D01*
X10399400Y-6705600D02*
X10479400Y-6705600D01*
X10439400Y-6919600D02*
X10439400Y-6999600D01*
X10399400Y-6959600D02*
X10479400Y-6959600D01*
X11201400Y-6411600D02*
X11201400Y-6491600D01*
X11161400Y-6451600D02*
X11241400Y-6451600D01*
X11201400Y-6665600D02*
X11201400Y-6745600D01*
X11161400Y-6705600D02*
X11241400Y-6705600D01*
X11201400Y-6919600D02*
X11201400Y-6999600D01*
X11161400Y-6959600D02*
X11241400Y-6959600D01*
X11938000Y-13676000D02*
X11938000Y-13756000D01*
X11898000Y-13716000D02*
X11978000Y-13716000D01*
X11938000Y-13930000D02*
X11938000Y-14010000D01*
X11898000Y-13970000D02*
X11978000Y-13970000D01*
X11938000Y-14184000D02*
X11938000Y-14264000D01*
X11898000Y-14224000D02*
X11978000Y-14224000D01*
X12001500Y-6411600D02*
X12001500Y-6491600D01*
X11961500Y-6451600D02*
X12041500Y-6451600D01*
X12001500Y-6665600D02*
X12001500Y-6745600D01*
X11961500Y-6705600D02*
X12041500Y-6705600D01*
X12001500Y-6919600D02*
X12001500Y-6999600D01*
X11961500Y-6959600D02*
X12041500Y-6959600D01*
X12700000Y-13676000D02*
X12700000Y-13756000D01*
X12660000Y-13716000D02*
X12740000Y-13716000D01*
X12700000Y-13930000D02*
X12700000Y-14010000D01*
X12660000Y-13970000D02*
X12740000Y-13970000D01*
X12700000Y-14184000D02*
X12700000Y-14264000D01*
X12660000Y-14224000D02*
X12740000Y-14224000D01*
X12763500Y-6411600D02*
X12763500Y-6491600D01*
X12723500Y-6451600D02*
X12803500Y-6451600D01*
X12763500Y-6665600D02*
X12763500Y-6745600D01*
X12723500Y-6705600D02*
X12803500Y-6705600D01*
X12763500Y-6919600D02*
X12763500Y-6999600D01*
X12723500Y-6959600D02*
X12803500Y-6959600D01*
X13436600Y-13117200D02*
X13436600Y-13197200D01*
X13396600Y-13157200D02*
X13476600Y-13157200D01*
X13436600Y-13879200D02*
X13436600Y-13959200D01*
X13396600Y-13919200D02*
X13476600Y-13919200D01*
X13576300Y-6437000D02*
X13576300Y-6517000D01*
X13536300Y-6477000D02*
X13616300Y-6477000D01*
X13576300Y-6691000D02*
X13576300Y-6771000D01*
X13536300Y-6731000D02*
X13616300Y-6731000D01*
X13576300Y-6945000D02*
X13576300Y-7025000D01*
X13536300Y-6985000D02*
X13616300Y-6985000D01*
X13690600Y-13117200D02*
X13690600Y-13197200D01*
X13650600Y-13157200D02*
X13730600Y-13157200D01*
X13690600Y-13879200D02*
X13690600Y-13959200D01*
X13650600Y-13919200D02*
X13730600Y-13919200D01*
X13944600Y-13117200D02*
X13944600Y-13197200D01*
X13904600Y-13157200D02*
X13984600Y-13157200D01*
X13944600Y-13879200D02*
X13944600Y-13959200D01*
X13904600Y-13919200D02*
X13984600Y-13919200D01*
X14198600Y-13117200D02*
X14198600Y-13197200D01*
X14158600Y-13157200D02*
X14238600Y-13157200D01*
X14198600Y-13879200D02*
X14198600Y-13959200D01*
X14158600Y-13919200D02*
X14238600Y-13919200D01*
X14338300Y-6437000D02*
X14338300Y-6517000D01*
X14298300Y-6477000D02*
X14378300Y-6477000D01*
X14338300Y-6691000D02*
X14338300Y-6771000D01*
X14298300Y-6731000D02*
X14378300Y-6731000D01*
X14338300Y-6945000D02*
X14338300Y-7025000D01*
X14298300Y-6985000D02*
X14378300Y-6985000D01*
X14452600Y-13117200D02*
X14452600Y-13197200D01*
X14412600Y-13157200D02*
X14492600Y-13157200D01*
X14452600Y-13879200D02*
X14452600Y-13959200D01*
X14412600Y-13919200D02*
X14492600Y-13919200D01*
X14706600Y-13117200D02*
X14706600Y-13197200D01*
X14666600Y-13157200D02*
X14746600Y-13157200D01*
X14706600Y-13879200D02*
X14706600Y-13959200D01*
X14666600Y-13919200D02*
X14746600Y-13919200D01*
X14960600Y-13117200D02*
X14960600Y-13197200D01*
X14920600Y-13157200D02*
X15000600Y-13157200D01*
X14960600Y-13879200D02*
X14960600Y-13959200D01*
X14920600Y-13919200D02*
X15000600Y-13919200D01*
X15214600Y-13117200D02*
X15214600Y-13197200D01*
X15174600Y-13157200D02*
X15254600Y-13157200D01*
X15214600Y-13879200D02*
X15214600Y-13959200D01*
X15174600Y-13919200D02*
X15254600Y-13919200D01*
X8798709Y-7782709D02*
X8798709Y-7711291D01*
X8727291Y-7711291D01*
X8727291Y-7782709D01*
X8798709Y-7782709D01*
X8798709Y-8036709D02*
X8798709Y-7965291D01*
X8727291Y-7965291D01*
X8727291Y-8036709D01*
X8798709Y-8036709D01*
X8798709Y-8290709D02*
X8798709Y-8219291D01*
X8727291Y-8219291D01*
X8727291Y-8290709D01*
X8798709Y-8290709D01*
X8798709Y-8544709D02*
X8798709Y-8473291D01*
X8727291Y-8473291D01*
X8727291Y-8544709D01*
X8798709Y-8544709D01*
X8798709Y-8798709D02*
X8798709Y-8727291D01*
X8727291Y-8727291D01*
X8727291Y-8798709D01*
X8798709Y-8798709D01*
X8798709Y-9052709D02*
X8798709Y-8981291D01*
X8727291Y-8981291D01*
X8727291Y-9052709D01*
X8798709Y-9052709D01*
X8798709Y-9306709D02*
X8798709Y-9235291D01*
X8727291Y-9235291D01*
X8727291Y-9306709D01*
X8798709Y-9306709D01*
X8798709Y-9560709D02*
X8798709Y-9489291D01*
X8727291Y-9489291D01*
X8727291Y-9560709D01*
X8798709Y-9560709D01*
X8798709Y-9814709D02*
X8798709Y-9743291D01*
X8727291Y-9743291D01*
X8727291Y-9814709D01*
X8798709Y-9814709D01*
X8798709Y-10068709D02*
X8798709Y-9997291D01*
X8727291Y-9997291D01*
X8727291Y-10068709D01*
X8798709Y-10068709D01*
X8798709Y-10322709D02*
X8798709Y-10251291D01*
X8727291Y-10251291D01*
X8727291Y-10322709D01*
X8798709Y-10322709D01*
X8798709Y-10576709D02*
X8798709Y-10505291D01*
X8727291Y-10505291D01*
X8727291Y-10576709D01*
X8798709Y-10576709D01*
X8798709Y-10830709D02*
X8798709Y-10759291D01*
X8727291Y-10759291D01*
X8727291Y-10830709D01*
X8798709Y-10830709D01*
X8798709Y-11084709D02*
X8798709Y-11013291D01*
X8727291Y-11013291D01*
X8727291Y-11084709D01*
X8798709Y-11084709D01*
X8798709Y-11338709D02*
X8798709Y-11267291D01*
X8727291Y-11267291D01*
X8727291Y-11338709D01*
X8798709Y-11338709D01*
X8798709Y-11592709D02*
X8798709Y-11521291D01*
X8727291Y-11521291D01*
X8727291Y-11592709D01*
X8798709Y-11592709D01*
X8798709Y-11846709D02*
X8798709Y-11775291D01*
X8727291Y-11775291D01*
X8727291Y-11846709D01*
X8798709Y-11846709D01*
X8798709Y-12100709D02*
X8798709Y-12029291D01*
X8727291Y-12029291D01*
X8727291Y-12100709D01*
X8798709Y-12100709D01*
X8798709Y-12354709D02*
X8798709Y-12283291D01*
X8727291Y-12283291D01*
X8727291Y-12354709D01*
X8798709Y-12354709D01*
X8798709Y-12608709D02*
X8798709Y-12537291D01*
X8727291Y-12537291D01*
X8727291Y-12608709D01*
X8798709Y-12608709D01*
X9052709Y-7782709D02*
X9052709Y-7711291D01*
X8981291Y-7711291D01*
X8981291Y-7782709D01*
X9052709Y-7782709D01*
X9052709Y-8036709D02*
X9052709Y-7965291D01*
X8981291Y-7965291D01*
X8981291Y-8036709D01*
X9052709Y-8036709D01*
X9052709Y-8290709D02*
X9052709Y-8219291D01*
X8981291Y-8219291D01*
X8981291Y-8290709D01*
X9052709Y-8290709D01*
X9052709Y-8544709D02*
X9052709Y-8473291D01*
X8981291Y-8473291D01*
X8981291Y-8544709D01*
X9052709Y-8544709D01*
X9052709Y-8798709D02*
X9052709Y-8727291D01*
X8981291Y-8727291D01*
X8981291Y-8798709D01*
X9052709Y-8798709D01*
X9052709Y-9052709D02*
X9052709Y-8981291D01*
X8981291Y-8981291D01*
X8981291Y-9052709D01*
X9052709Y-9052709D01*
X9052709Y-9306709D02*
X9052709Y-9235291D01*
X8981291Y-9235291D01*
X8981291Y-9306709D01*
X9052709Y-9306709D01*
X9052709Y-9560709D02*
X9052709Y-9489291D01*
X8981291Y-9489291D01*
X8981291Y-9560709D01*
X9052709Y-9560709D01*
X9052709Y-9814709D02*
X9052709Y-9743291D01*
X8981291Y-9743291D01*
X8981291Y-9814709D01*
X9052709Y-9814709D01*
X9052709Y-10068709D02*
X9052709Y-9997291D01*
X8981291Y-9997291D01*
X8981291Y-10068709D01*
X9052709Y-10068709D01*
X9052709Y-10322709D02*
X9052709Y-10251291D01*
X8981291Y-10251291D01*
X8981291Y-10322709D01*
X9052709Y-10322709D01*
X9052709Y-10576709D02*
X9052709Y-10505291D01*
X8981291Y-10505291D01*
X8981291Y-10576709D01*
X9052709Y-10576709D01*
X9052709Y-10830709D02*
X9052709Y-10759291D01*
X8981291Y-10759291D01*
X8981291Y-10830709D01*
X9052709Y-10830709D01*
X9052709Y-11084709D02*
X9052709Y-11013291D01*
X8981291Y-11013291D01*
X8981291Y-11084709D01*
X9052709Y-11084709D01*
X9052709Y-11338709D02*
X9052709Y-11267291D01*
X8981291Y-11267291D01*
X8981291Y-11338709D01*
X9052709Y-11338709D01*
X9052709Y-11592709D02*
X9052709Y-11521291D01*
X8981291Y-11521291D01*
X8981291Y-11592709D01*
X9052709Y-11592709D01*
X9052709Y-11846709D02*
X9052709Y-11775291D01*
X8981291Y-11775291D01*
X8981291Y-11846709D01*
X9052709Y-11846709D01*
X9052709Y-12100709D02*
X9052709Y-12029291D01*
X8981291Y-12029291D01*
X8981291Y-12100709D01*
X9052709Y-12100709D01*
X9052709Y-12354709D02*
X9052709Y-12283291D01*
X8981291Y-12283291D01*
X8981291Y-12354709D01*
X9052709Y-12354709D01*
X9052709Y-12608709D02*
X9052709Y-12537291D01*
X8981291Y-12537291D01*
X8981291Y-12608709D01*
X9052709Y-12608709D01*
X16418709Y-7784709D02*
X16418709Y-7713291D01*
X16347291Y-7713291D01*
X16347291Y-7784709D01*
X16418709Y-7784709D01*
X16418709Y-8038709D02*
X16418709Y-7967291D01*
X16347291Y-7967291D01*
X16347291Y-8038709D01*
X16418709Y-8038709D01*
X16418709Y-8292709D02*
X16418709Y-8221291D01*
X16347291Y-8221291D01*
X16347291Y-8292709D01*
X16418709Y-8292709D01*
X16418709Y-8546709D02*
X16418709Y-8475291D01*
X16347291Y-8475291D01*
X16347291Y-8546709D01*
X16418709Y-8546709D01*
X16418709Y-8800709D02*
X16418709Y-8729291D01*
X16347291Y-8729291D01*
X16347291Y-8800709D01*
X16418709Y-8800709D01*
X16418709Y-9054709D02*
X16418709Y-8983291D01*
X16347291Y-8983291D01*
X16347291Y-9054709D01*
X16418709Y-9054709D01*
X16418709Y-9308709D02*
X16418709Y-9237291D01*
X16347291Y-9237291D01*
X16347291Y-9308709D01*
X16418709Y-9308709D01*
X16418709Y-9562709D02*
X16418709Y-9491291D01*
X16347291Y-9491291D01*
X16347291Y-9562709D01*
X16418709Y-9562709D01*
X16418709Y-9816709D02*
X16418709Y-9745291D01*
X16347291Y-9745291D01*
X16347291Y-9816709D01*
X16418709Y-9816709D01*
X16418709Y-10070709D02*
X16418709Y-9999291D01*
X16347291Y-9999291D01*
X16347291Y-10070709D01*
X16418709Y-10070709D01*
X16418709Y-10324709D02*
X16418709Y-10253291D01*
X16347291Y-10253291D01*
X16347291Y-10324709D01*
X16418709Y-10324709D01*
X16418709Y-10578709D02*
X16418709Y-10507291D01*
X16347291Y-10507291D01*
X16347291Y-10578709D01*
X16418709Y-10578709D01*
X16672709Y-7784709D02*
X16672709Y-7713291D01*
X16601291Y-7713291D01*
X16601291Y-7784709D01*
X16672709Y-7784709D01*
X16672709Y-8038709D02*
X16672709Y-7967291D01*
X16601291Y-7967291D01*
X16601291Y-8038709D01*
X16672709Y-8038709D01*
X16672709Y-8292709D02*
X16672709Y-8221291D01*
X16601291Y-8221291D01*
X16601291Y-8292709D01*
X16672709Y-8292709D01*
X16672709Y-8546709D02*
X16672709Y-8475291D01*
X16601291Y-8475291D01*
X16601291Y-8546709D01*
X16672709Y-8546709D01*
X16672709Y-8800709D02*
X16672709Y-8729291D01*
X16601291Y-8729291D01*
X16601291Y-8800709D01*
X16672709Y-8800709D01*
X16672709Y-9054709D02*
X16672709Y-8983291D01*
X16601291Y-8983291D01*
X16601291Y-9054709D01*
X16672709Y-9054709D01*
X16672709Y-9308709D02*
X16672709Y-9237291D01*
X16601291Y-9237291D01*
X16601291Y-9308709D01*
X16672709Y-9308709D01*
X16672709Y-9562709D02*
X16672709Y-9491291D01*
X16601291Y-9491291D01*
X16601291Y-9562709D01*
X16672709Y-9562709D01*
X16672709Y-9816709D02*
X16672709Y-9745291D01*
X16601291Y-9745291D01*
X16601291Y-9816709D01*
X16672709Y-9816709D01*
X16672709Y-10070709D02*
X16672709Y-9999291D01*
X16601291Y-9999291D01*
X16601291Y-10070709D01*
X16672709Y-10070709D01*
X16672709Y-10324709D02*
X16672709Y-10253291D01*
X16601291Y-10253291D01*
X16601291Y-10324709D01*
X16672709Y-10324709D01*
X16672709Y-10578709D02*
X16672709Y-10507291D01*
X16601291Y-10507291D01*
X16601291Y-10578709D01*
X16672709Y-10578709D01*
X9842500Y-6033750D02*
X10002500Y-5873750D01*
X9842500Y-5713750D01*
X9682500Y-5873750D01*
X9842500Y-6033750D01*
X9842500Y-14606250D02*
X10002500Y-14446250D01*
X9842500Y-14286250D01*
X9682500Y-14446250D01*
X9842500Y-14606250D01*
X15557500Y-6033750D02*
X15717500Y-5873750D01*
X15557500Y-5713750D01*
X15397500Y-5873750D01*
X15557500Y-6033750D01*
X15557500Y-14606250D02*
X15717500Y-14446250D01*
X15557500Y-14286250D01*
X15397500Y-14446250D01*
X15557500Y-14606250D01*
D12*
X8262458Y-15334534D02*
X8262458Y-15034534D01*
X8333887Y-15034534D01*
X8376744Y-15048820D01*
X8405316Y-15077391D01*
X8419601Y-15105963D01*
X8433887Y-15163106D01*
X8433887Y-15205963D01*
X8419601Y-15263106D01*
X8405316Y-15291677D01*
X8376744Y-15320249D01*
X8333887Y-15334534D01*
X8262458Y-15334534D01*
X8562459Y-15334534D02*
X8562459Y-15134534D01*
X8562459Y-15191677D02*
X8576744Y-15163106D01*
X8591030Y-15148820D01*
X8619601Y-15134534D01*
X8648173Y-15134534D01*
X8748173Y-15334534D02*
X8748173Y-15134534D01*
X8748173Y-15034534D02*
X8733887Y-15048820D01*
X8748173Y-15063106D01*
X8762459Y-15048820D01*
X8748173Y-15034534D01*
X8748173Y-15063106D01*
X8933887Y-15334534D02*
X8905316Y-15320249D01*
X8891030Y-15291677D01*
X8891030Y-15034534D01*
X9091030Y-15334534D02*
X9062459Y-15320249D01*
X9048173Y-15291677D01*
X9048173Y-15034534D01*
X9433887Y-15334534D02*
X9433887Y-15034534D01*
X9533887Y-15248820D01*
X9633887Y-15034534D01*
X9633887Y-15334534D01*
X9905316Y-15334534D02*
X9905316Y-15177391D01*
X9891030Y-15148820D01*
X9862459Y-15134534D01*
X9805316Y-15134534D01*
X9776744Y-15148820D01*
X9905316Y-15320249D02*
X9876744Y-15334534D01*
X9805316Y-15334534D01*
X9776744Y-15320249D01*
X9762459Y-15291677D01*
X9762459Y-15263106D01*
X9776744Y-15234534D01*
X9805316Y-15220249D01*
X9876744Y-15220249D01*
X9905316Y-15205963D01*
X10048173Y-15134534D02*
X10048173Y-15434534D01*
X10048173Y-15148820D02*
X10076744Y-15134534D01*
X10133887Y-15134534D01*
X10162459Y-15148820D01*
X10176744Y-15163106D01*
X10191030Y-15191677D01*
X10191030Y-15277391D01*
X10176744Y-15305963D01*
X10162459Y-15320249D01*
X10133887Y-15334534D01*
X10076744Y-15334534D01*
X10048173Y-15320249D01*
X10319601Y-15305963D02*
X10333887Y-15320249D01*
X10319601Y-15334534D01*
X10305316Y-15320249D01*
X10319601Y-15305963D01*
X10319601Y-15334534D01*
X10319601Y-15148820D02*
X10333887Y-15163106D01*
X10319601Y-15177391D01*
X10305316Y-15163106D01*
X10319601Y-15148820D01*
X10319601Y-15177391D01*
X7940230Y-15803420D02*
X7991030Y-15854220D01*
X7991030Y-15803420D02*
X7940230Y-15854220D01*
X8319601Y-15664534D02*
X8348173Y-15664534D01*
X8376744Y-15678820D01*
X8391030Y-15693106D01*
X8405316Y-15721677D01*
X8419601Y-15778820D01*
X8419601Y-15850249D01*
X8405316Y-15907391D01*
X8391030Y-15935963D01*
X8376744Y-15950249D01*
X8348173Y-15964534D01*
X8319601Y-15964534D01*
X8291030Y-15950249D01*
X8276744Y-15935963D01*
X8262458Y-15907391D01*
X8248173Y-15850249D01*
X8248173Y-15778820D01*
X8262458Y-15721677D01*
X8276744Y-15693106D01*
X8291030Y-15678820D01*
X8319601Y-15664534D01*
X8548173Y-15935963D02*
X8562459Y-15950249D01*
X8548173Y-15964534D01*
X8533887Y-15950249D01*
X8548173Y-15935963D01*
X8548173Y-15964534D01*
X8833887Y-15664534D02*
X8691030Y-15664534D01*
X8676744Y-15807391D01*
X8691030Y-15793106D01*
X8719601Y-15778820D01*
X8791030Y-15778820D01*
X8819601Y-15793106D01*
X8833887Y-15807391D01*
X8848173Y-15835963D01*
X8848173Y-15907391D01*
X8833887Y-15935963D01*
X8819601Y-15950249D01*
X8791030Y-15964534D01*
X8719601Y-15964534D01*
X8691030Y-15950249D01*
X8676744Y-15935963D01*
X9133887Y-15964534D02*
X8962459Y-15964534D01*
X9048173Y-15964534D02*
X9048173Y-15664534D01*
X9019601Y-15707391D01*
X8991030Y-15735963D01*
X8962459Y-15750249D01*
X9262459Y-15964534D02*
X9262459Y-15764534D01*
X9262459Y-15793106D02*
X9276744Y-15778820D01*
X9305316Y-15764534D01*
X9348173Y-15764534D01*
X9376744Y-15778820D01*
X9391030Y-15807391D01*
X9391030Y-15964534D01*
X9391030Y-15807391D02*
X9405316Y-15778820D01*
X9433887Y-15764534D01*
X9476744Y-15764534D01*
X9505316Y-15778820D01*
X9519601Y-15807391D01*
X9519601Y-15964534D01*
X9662459Y-15964534D02*
X9662459Y-15764534D01*
X9662459Y-15793106D02*
X9676744Y-15778820D01*
X9705316Y-15764534D01*
X9748173Y-15764534D01*
X9776744Y-15778820D01*
X9791030Y-15807391D01*
X9791030Y-15964534D01*
X9791030Y-15807391D02*
X9805316Y-15778820D01*
X9833887Y-15764534D01*
X9876744Y-15764534D01*
X9905316Y-15778820D01*
X9919601Y-15807391D01*
X9919601Y-15964534D01*
X10505316Y-15650249D02*
X10248173Y-16035963D01*
X10891030Y-15664534D02*
X10919601Y-15664534D01*
X10948173Y-15678820D01*
X10962458Y-15693106D01*
X10976744Y-15721677D01*
X10991030Y-15778820D01*
X10991030Y-15850249D01*
X10976744Y-15907391D01*
X10962458Y-15935963D01*
X10948173Y-15950249D01*
X10919601Y-15964534D01*
X10891030Y-15964534D01*
X10862458Y-15950249D01*
X10848173Y-15935963D01*
X10833887Y-15907391D01*
X10819601Y-15850249D01*
X10819601Y-15778820D01*
X10833887Y-15721677D01*
X10848173Y-15693106D01*
X10862458Y-15678820D01*
X10891030Y-15664534D01*
X11119601Y-15935963D02*
X11133887Y-15950249D01*
X11119601Y-15964534D01*
X11105316Y-15950249D01*
X11119601Y-15935963D01*
X11119601Y-15964534D01*
X11319601Y-15664534D02*
X11348173Y-15664534D01*
X11376744Y-15678820D01*
X11391030Y-15693106D01*
X11405315Y-15721677D01*
X11419601Y-15778820D01*
X11419601Y-15850249D01*
X11405315Y-15907391D01*
X11391030Y-15935963D01*
X11376744Y-15950249D01*
X11348173Y-15964534D01*
X11319601Y-15964534D01*
X11291030Y-15950249D01*
X11276744Y-15935963D01*
X11262458Y-15907391D01*
X11248173Y-15850249D01*
X11248173Y-15778820D01*
X11262458Y-15721677D01*
X11276744Y-15693106D01*
X11291030Y-15678820D01*
X11319601Y-15664534D01*
X11533887Y-15693106D02*
X11548173Y-15678820D01*
X11576744Y-15664534D01*
X11648173Y-15664534D01*
X11676744Y-15678820D01*
X11691030Y-15693106D01*
X11705315Y-15721677D01*
X11705315Y-15750249D01*
X11691030Y-15793106D01*
X11519601Y-15964534D01*
X11705315Y-15964534D01*
X11891030Y-15664534D02*
X11919601Y-15664534D01*
X11948173Y-15678820D01*
X11962458Y-15693106D01*
X11976744Y-15721677D01*
X11991030Y-15778820D01*
X11991030Y-15850249D01*
X11976744Y-15907391D01*
X11962458Y-15935963D01*
X11948173Y-15950249D01*
X11919601Y-15964534D01*
X11891030Y-15964534D01*
X11862458Y-15950249D01*
X11848173Y-15935963D01*
X11833887Y-15907391D01*
X11819601Y-15850249D01*
X11819601Y-15778820D01*
X11833887Y-15721677D01*
X11848173Y-15693106D01*
X11862458Y-15678820D01*
X11891030Y-15664534D01*
X12105316Y-15664534D02*
X12105316Y-15721677D01*
X12219601Y-15664534D02*
X12219601Y-15721677D01*
X12662458Y-16078820D02*
X12648173Y-16064534D01*
X12619601Y-16021677D01*
X12605315Y-15993106D01*
X12591030Y-15950249D01*
X12576744Y-15878820D01*
X12576744Y-15821677D01*
X12591030Y-15750249D01*
X12605315Y-15707391D01*
X12619601Y-15678820D01*
X12648173Y-15635963D01*
X12662458Y-15621677D01*
X12933887Y-15964534D02*
X12762458Y-15964534D01*
X12848173Y-15964534D02*
X12848173Y-15664534D01*
X12819601Y-15707391D01*
X12791030Y-15735963D01*
X12762458Y-15750249D01*
X13205315Y-15664534D02*
X13062458Y-15664534D01*
X13048173Y-15807391D01*
X13062458Y-15793106D01*
X13091030Y-15778820D01*
X13162458Y-15778820D01*
X13191030Y-15793106D01*
X13205315Y-15807391D01*
X13219601Y-15835963D01*
X13219601Y-15907391D01*
X13205315Y-15935963D01*
X13191030Y-15950249D01*
X13162458Y-15964534D01*
X13091030Y-15964534D01*
X13062458Y-15950249D01*
X13048173Y-15935963D01*
X13391030Y-15793106D02*
X13362458Y-15778820D01*
X13348173Y-15764534D01*
X13333887Y-15735963D01*
X13333887Y-15721677D01*
X13348173Y-15693106D01*
X13362458Y-15678820D01*
X13391030Y-15664534D01*
X13448173Y-15664534D01*
X13476744Y-15678820D01*
X13491030Y-15693106D01*
X13505315Y-15721677D01*
X13505315Y-15735963D01*
X13491030Y-15764534D01*
X13476744Y-15778820D01*
X13448173Y-15793106D01*
X13391030Y-15793106D01*
X13362458Y-15807391D01*
X13348173Y-15821677D01*
X13333887Y-15850249D01*
X13333887Y-15907391D01*
X13348173Y-15935963D01*
X13362458Y-15950249D01*
X13391030Y-15964534D01*
X13448173Y-15964534D01*
X13476744Y-15950249D01*
X13491030Y-15935963D01*
X13505315Y-15907391D01*
X13505315Y-15850249D01*
X13491030Y-15821677D01*
X13476744Y-15807391D01*
X13448173Y-15793106D01*
X13862458Y-15964534D02*
X13862458Y-15664534D01*
X13991030Y-15964534D02*
X13991030Y-15807391D01*
X13976744Y-15778820D01*
X13948173Y-15764534D01*
X13905315Y-15764534D01*
X13876744Y-15778820D01*
X13862458Y-15793106D01*
X14176744Y-15964534D02*
X14148173Y-15950249D01*
X14133887Y-15935963D01*
X14119601Y-15907391D01*
X14119601Y-15821677D01*
X14133887Y-15793106D01*
X14148173Y-15778820D01*
X14176744Y-15764534D01*
X14219601Y-15764534D01*
X14248173Y-15778820D01*
X14262458Y-15793106D01*
X14276744Y-15821677D01*
X14276744Y-15907391D01*
X14262458Y-15935963D01*
X14248173Y-15950249D01*
X14219601Y-15964534D01*
X14176744Y-15964534D01*
X14448173Y-15964534D02*
X14419601Y-15950249D01*
X14405316Y-15921677D01*
X14405316Y-15664534D01*
X14676744Y-15950249D02*
X14648173Y-15964534D01*
X14591030Y-15964534D01*
X14562458Y-15950249D01*
X14548173Y-15921677D01*
X14548173Y-15807391D01*
X14562458Y-15778820D01*
X14591030Y-15764534D01*
X14648173Y-15764534D01*
X14676744Y-15778820D01*
X14691030Y-15807391D01*
X14691030Y-15835963D01*
X14548173Y-15864534D01*
X14805316Y-15950249D02*
X14833887Y-15964534D01*
X14891030Y-15964534D01*
X14919601Y-15950249D01*
X14933887Y-15921677D01*
X14933887Y-15907391D01*
X14919601Y-15878820D01*
X14891030Y-15864534D01*
X14848173Y-15864534D01*
X14819601Y-15850249D01*
X14805316Y-15821677D01*
X14805316Y-15807391D01*
X14819601Y-15778820D01*
X14848173Y-15764534D01*
X14891030Y-15764534D01*
X14919601Y-15778820D01*
X15033887Y-16078820D02*
X15048173Y-16064534D01*
X15076744Y-16021677D01*
X15091030Y-15993106D01*
X15105316Y-15950249D01*
X15119601Y-15878820D01*
X15119601Y-15821677D01*
X15105316Y-15750249D01*
X15091030Y-15707391D01*
X15076744Y-15678820D01*
X15048173Y-15635963D01*
X15033887Y-15621677D01*
X7991030Y-16224820D02*
G75*
G03X7991030Y-16224820I-38100J0D01*
G01*
X8319601Y-16060534D02*
X8348173Y-16060534D01*
X8376744Y-16074820D01*
X8391030Y-16089106D01*
X8405316Y-16117677D01*
X8419601Y-16174820D01*
X8419601Y-16246249D01*
X8405316Y-16303391D01*
X8391030Y-16331963D01*
X8376744Y-16346249D01*
X8348173Y-16360534D01*
X8319601Y-16360534D01*
X8291030Y-16346249D01*
X8276744Y-16331963D01*
X8262458Y-16303391D01*
X8248173Y-16246249D01*
X8248173Y-16174820D01*
X8262458Y-16117677D01*
X8276744Y-16089106D01*
X8291030Y-16074820D01*
X8319601Y-16060534D01*
X8548173Y-16331963D02*
X8562459Y-16346249D01*
X8548173Y-16360534D01*
X8533887Y-16346249D01*
X8548173Y-16331963D01*
X8548173Y-16360534D01*
X8662458Y-16060534D02*
X8862458Y-16060534D01*
X8733887Y-16360534D01*
X9105316Y-16060534D02*
X9048173Y-16060534D01*
X9019601Y-16074820D01*
X9005316Y-16089106D01*
X8976744Y-16131963D01*
X8962459Y-16189106D01*
X8962459Y-16303391D01*
X8976744Y-16331963D01*
X8991030Y-16346249D01*
X9019601Y-16360534D01*
X9076744Y-16360534D01*
X9105316Y-16346249D01*
X9119601Y-16331963D01*
X9133887Y-16303391D01*
X9133887Y-16231963D01*
X9119601Y-16203391D01*
X9105316Y-16189106D01*
X9076744Y-16174820D01*
X9019601Y-16174820D01*
X8991030Y-16189106D01*
X8976744Y-16203391D01*
X8962459Y-16231963D01*
X9262459Y-16360534D02*
X9262459Y-16160534D01*
X9262459Y-16189106D02*
X9276744Y-16174820D01*
X9305316Y-16160534D01*
X9348173Y-16160534D01*
X9376744Y-16174820D01*
X9391030Y-16203391D01*
X9391030Y-16360534D01*
X9391030Y-16203391D02*
X9405316Y-16174820D01*
X9433887Y-16160534D01*
X9476744Y-16160534D01*
X9505316Y-16174820D01*
X9519601Y-16203391D01*
X9519601Y-16360534D01*
X9662459Y-16360534D02*
X9662459Y-16160534D01*
X9662459Y-16189106D02*
X9676744Y-16174820D01*
X9705316Y-16160534D01*
X9748173Y-16160534D01*
X9776744Y-16174820D01*
X9791030Y-16203391D01*
X9791030Y-16360534D01*
X9791030Y-16203391D02*
X9805316Y-16174820D01*
X9833887Y-16160534D01*
X9876744Y-16160534D01*
X9905316Y-16174820D01*
X9919601Y-16203391D01*
X9919601Y-16360534D01*
X10505316Y-16046249D02*
X10248173Y-16431963D01*
X10891030Y-16060534D02*
X10919601Y-16060534D01*
X10948173Y-16074820D01*
X10962458Y-16089106D01*
X10976744Y-16117677D01*
X10991030Y-16174820D01*
X10991030Y-16246249D01*
X10976744Y-16303391D01*
X10962458Y-16331963D01*
X10948173Y-16346249D01*
X10919601Y-16360534D01*
X10891030Y-16360534D01*
X10862458Y-16346249D01*
X10848173Y-16331963D01*
X10833887Y-16303391D01*
X10819601Y-16246249D01*
X10819601Y-16174820D01*
X10833887Y-16117677D01*
X10848173Y-16089106D01*
X10862458Y-16074820D01*
X10891030Y-16060534D01*
X11119601Y-16331963D02*
X11133887Y-16346249D01*
X11119601Y-16360534D01*
X11105316Y-16346249D01*
X11119601Y-16331963D01*
X11119601Y-16360534D01*
X11319601Y-16060534D02*
X11348173Y-16060534D01*
X11376744Y-16074820D01*
X11391030Y-16089106D01*
X11405315Y-16117677D01*
X11419601Y-16174820D01*
X11419601Y-16246249D01*
X11405315Y-16303391D01*
X11391030Y-16331963D01*
X11376744Y-16346249D01*
X11348173Y-16360534D01*
X11319601Y-16360534D01*
X11291030Y-16346249D01*
X11276744Y-16331963D01*
X11262458Y-16303391D01*
X11248173Y-16246249D01*
X11248173Y-16174820D01*
X11262458Y-16117677D01*
X11276744Y-16089106D01*
X11291030Y-16074820D01*
X11319601Y-16060534D01*
X11519601Y-16060534D02*
X11705315Y-16060534D01*
X11605315Y-16174820D01*
X11648173Y-16174820D01*
X11676744Y-16189106D01*
X11691030Y-16203391D01*
X11705315Y-16231963D01*
X11705315Y-16303391D01*
X11691030Y-16331963D01*
X11676744Y-16346249D01*
X11648173Y-16360534D01*
X11562458Y-16360534D01*
X11533887Y-16346249D01*
X11519601Y-16331963D01*
X11891030Y-16060534D02*
X11919601Y-16060534D01*
X11948173Y-16074820D01*
X11962458Y-16089106D01*
X11976744Y-16117677D01*
X11991030Y-16174820D01*
X11991030Y-16246249D01*
X11976744Y-16303391D01*
X11962458Y-16331963D01*
X11948173Y-16346249D01*
X11919601Y-16360534D01*
X11891030Y-16360534D01*
X11862458Y-16346249D01*
X11848173Y-16331963D01*
X11833887Y-16303391D01*
X11819601Y-16246249D01*
X11819601Y-16174820D01*
X11833887Y-16117677D01*
X11848173Y-16089106D01*
X11862458Y-16074820D01*
X11891030Y-16060534D01*
X12105316Y-16060534D02*
X12105316Y-16117677D01*
X12219601Y-16060534D02*
X12219601Y-16117677D01*
X12662458Y-16474820D02*
X12648173Y-16460534D01*
X12619601Y-16417677D01*
X12605315Y-16389106D01*
X12591030Y-16346249D01*
X12576744Y-16274820D01*
X12576744Y-16217677D01*
X12591030Y-16146249D01*
X12605315Y-16103391D01*
X12619601Y-16074820D01*
X12648173Y-16031963D01*
X12662458Y-16017677D01*
X12762458Y-16089106D02*
X12776744Y-16074820D01*
X12805315Y-16060534D01*
X12876744Y-16060534D01*
X12905315Y-16074820D01*
X12919601Y-16089106D01*
X12933887Y-16117677D01*
X12933887Y-16146249D01*
X12919601Y-16189106D01*
X12748173Y-16360534D01*
X12933887Y-16360534D01*
X13119601Y-16060534D02*
X13148173Y-16060534D01*
X13176744Y-16074820D01*
X13191030Y-16089106D01*
X13205315Y-16117677D01*
X13219601Y-16174820D01*
X13219601Y-16246249D01*
X13205315Y-16303391D01*
X13191030Y-16331963D01*
X13176744Y-16346249D01*
X13148173Y-16360534D01*
X13119601Y-16360534D01*
X13091030Y-16346249D01*
X13076744Y-16331963D01*
X13062458Y-16303391D01*
X13048173Y-16246249D01*
X13048173Y-16174820D01*
X13062458Y-16117677D01*
X13076744Y-16089106D01*
X13091030Y-16074820D01*
X13119601Y-16060534D01*
X13576744Y-16360534D02*
X13576744Y-16060534D01*
X13705315Y-16360534D02*
X13705315Y-16203391D01*
X13691030Y-16174820D01*
X13662458Y-16160534D01*
X13619601Y-16160534D01*
X13591030Y-16174820D01*
X13576744Y-16189106D01*
X13891030Y-16360534D02*
X13862458Y-16346249D01*
X13848173Y-16331963D01*
X13833887Y-16303391D01*
X13833887Y-16217677D01*
X13848173Y-16189106D01*
X13862458Y-16174820D01*
X13891030Y-16160534D01*
X13933887Y-16160534D01*
X13962458Y-16174820D01*
X13976744Y-16189106D01*
X13991030Y-16217677D01*
X13991030Y-16303391D01*
X13976744Y-16331963D01*
X13962458Y-16346249D01*
X13933887Y-16360534D01*
X13891030Y-16360534D01*
X14162458Y-16360534D02*
X14133887Y-16346249D01*
X14119601Y-16317677D01*
X14119601Y-16060534D01*
X14391030Y-16346249D02*
X14362458Y-16360534D01*
X14305316Y-16360534D01*
X14276744Y-16346249D01*
X14262458Y-16317677D01*
X14262458Y-16203391D01*
X14276744Y-16174820D01*
X14305316Y-16160534D01*
X14362458Y-16160534D01*
X14391030Y-16174820D01*
X14405316Y-16203391D01*
X14405316Y-16231963D01*
X14262458Y-16260534D01*
X14519601Y-16346249D02*
X14548173Y-16360534D01*
X14605316Y-16360534D01*
X14633887Y-16346249D01*
X14648173Y-16317677D01*
X14648173Y-16303391D01*
X14633887Y-16274820D01*
X14605316Y-16260534D01*
X14562458Y-16260534D01*
X14533887Y-16246249D01*
X14519601Y-16217677D01*
X14519601Y-16203391D01*
X14533887Y-16174820D01*
X14562458Y-16160534D01*
X14605316Y-16160534D01*
X14633887Y-16174820D01*
X14748173Y-16474820D02*
X14762458Y-16460534D01*
X14791030Y-16417677D01*
X14805316Y-16389106D01*
X14819601Y-16346249D01*
X14833887Y-16274820D01*
X14833887Y-16217677D01*
X14819601Y-16146249D01*
X14805316Y-16103391D01*
X14791030Y-16074820D01*
X14762458Y-16031963D01*
X14748173Y-16017677D01*
X7951030Y-16580820D02*
X7951030Y-16660820D01*
X7911030Y-16620820D02*
X7991030Y-16620820D01*
X8319601Y-16456534D02*
X8348173Y-16456534D01*
X8376744Y-16470820D01*
X8391030Y-16485106D01*
X8405316Y-16513677D01*
X8419601Y-16570820D01*
X8419601Y-16642249D01*
X8405316Y-16699391D01*
X8391030Y-16727963D01*
X8376744Y-16742249D01*
X8348173Y-16756534D01*
X8319601Y-16756534D01*
X8291030Y-16742249D01*
X8276744Y-16727963D01*
X8262458Y-16699391D01*
X8248173Y-16642249D01*
X8248173Y-16570820D01*
X8262458Y-16513677D01*
X8276744Y-16485106D01*
X8291030Y-16470820D01*
X8319601Y-16456534D01*
X8548173Y-16727963D02*
X8562459Y-16742249D01*
X8548173Y-16756534D01*
X8533887Y-16742249D01*
X8548173Y-16727963D01*
X8548173Y-16756534D01*
X8733887Y-16585106D02*
X8705316Y-16570820D01*
X8691030Y-16556534D01*
X8676744Y-16527963D01*
X8676744Y-16513677D01*
X8691030Y-16485106D01*
X8705316Y-16470820D01*
X8733887Y-16456534D01*
X8791030Y-16456534D01*
X8819601Y-16470820D01*
X8833887Y-16485106D01*
X8848173Y-16513677D01*
X8848173Y-16527963D01*
X8833887Y-16556534D01*
X8819601Y-16570820D01*
X8791030Y-16585106D01*
X8733887Y-16585106D01*
X8705316Y-16599391D01*
X8691030Y-16613677D01*
X8676744Y-16642249D01*
X8676744Y-16699391D01*
X8691030Y-16727963D01*
X8705316Y-16742249D01*
X8733887Y-16756534D01*
X8791030Y-16756534D01*
X8819601Y-16742249D01*
X8833887Y-16727963D01*
X8848173Y-16699391D01*
X8848173Y-16642249D01*
X8833887Y-16613677D01*
X8819601Y-16599391D01*
X8791030Y-16585106D01*
X9033887Y-16456534D02*
X9062459Y-16456534D01*
X9091030Y-16470820D01*
X9105316Y-16485106D01*
X9119601Y-16513677D01*
X9133887Y-16570820D01*
X9133887Y-16642249D01*
X9119601Y-16699391D01*
X9105316Y-16727963D01*
X9091030Y-16742249D01*
X9062459Y-16756534D01*
X9033887Y-16756534D01*
X9005316Y-16742249D01*
X8991030Y-16727963D01*
X8976744Y-16699391D01*
X8962459Y-16642249D01*
X8962459Y-16570820D01*
X8976744Y-16513677D01*
X8991030Y-16485106D01*
X9005316Y-16470820D01*
X9033887Y-16456534D01*
X9262459Y-16756534D02*
X9262459Y-16556534D01*
X9262459Y-16585106D02*
X9276744Y-16570820D01*
X9305316Y-16556534D01*
X9348173Y-16556534D01*
X9376744Y-16570820D01*
X9391030Y-16599391D01*
X9391030Y-16756534D01*
X9391030Y-16599391D02*
X9405316Y-16570820D01*
X9433887Y-16556534D01*
X9476744Y-16556534D01*
X9505316Y-16570820D01*
X9519601Y-16599391D01*
X9519601Y-16756534D01*
X9662459Y-16756534D02*
X9662459Y-16556534D01*
X9662459Y-16585106D02*
X9676744Y-16570820D01*
X9705316Y-16556534D01*
X9748173Y-16556534D01*
X9776744Y-16570820D01*
X9791030Y-16599391D01*
X9791030Y-16756534D01*
X9791030Y-16599391D02*
X9805316Y-16570820D01*
X9833887Y-16556534D01*
X9876744Y-16556534D01*
X9905316Y-16570820D01*
X9919601Y-16599391D01*
X9919601Y-16756534D01*
X10505316Y-16442249D02*
X10248173Y-16827963D01*
X10891030Y-16456534D02*
X10919601Y-16456534D01*
X10948173Y-16470820D01*
X10962458Y-16485106D01*
X10976744Y-16513677D01*
X10991030Y-16570820D01*
X10991030Y-16642249D01*
X10976744Y-16699391D01*
X10962458Y-16727963D01*
X10948173Y-16742249D01*
X10919601Y-16756534D01*
X10891030Y-16756534D01*
X10862458Y-16742249D01*
X10848173Y-16727963D01*
X10833887Y-16699391D01*
X10819601Y-16642249D01*
X10819601Y-16570820D01*
X10833887Y-16513677D01*
X10848173Y-16485106D01*
X10862458Y-16470820D01*
X10891030Y-16456534D01*
X11119601Y-16727963D02*
X11133887Y-16742249D01*
X11119601Y-16756534D01*
X11105316Y-16742249D01*
X11119601Y-16727963D01*
X11119601Y-16756534D01*
X11319601Y-16456534D02*
X11348173Y-16456534D01*
X11376744Y-16470820D01*
X11391030Y-16485106D01*
X11405315Y-16513677D01*
X11419601Y-16570820D01*
X11419601Y-16642249D01*
X11405315Y-16699391D01*
X11391030Y-16727963D01*
X11376744Y-16742249D01*
X11348173Y-16756534D01*
X11319601Y-16756534D01*
X11291030Y-16742249D01*
X11276744Y-16727963D01*
X11262458Y-16699391D01*
X11248173Y-16642249D01*
X11248173Y-16570820D01*
X11262458Y-16513677D01*
X11276744Y-16485106D01*
X11291030Y-16470820D01*
X11319601Y-16456534D01*
X11519601Y-16456534D02*
X11705315Y-16456534D01*
X11605315Y-16570820D01*
X11648173Y-16570820D01*
X11676744Y-16585106D01*
X11691030Y-16599391D01*
X11705315Y-16627963D01*
X11705315Y-16699391D01*
X11691030Y-16727963D01*
X11676744Y-16742249D01*
X11648173Y-16756534D01*
X11562458Y-16756534D01*
X11533887Y-16742249D01*
X11519601Y-16727963D01*
X11991030Y-16756534D02*
X11819601Y-16756534D01*
X11905315Y-16756534D02*
X11905315Y-16456534D01*
X11876744Y-16499391D01*
X11848173Y-16527963D01*
X11819601Y-16542249D01*
X12105316Y-16456534D02*
X12105316Y-16513677D01*
X12219601Y-16456534D02*
X12219601Y-16513677D01*
X12662458Y-16870820D02*
X12648173Y-16856534D01*
X12619601Y-16813677D01*
X12605315Y-16785106D01*
X12591030Y-16742249D01*
X12576744Y-16670820D01*
X12576744Y-16613677D01*
X12591030Y-16542249D01*
X12605315Y-16499391D01*
X12619601Y-16470820D01*
X12648173Y-16427963D01*
X12662458Y-16413677D01*
X12905315Y-16556534D02*
X12905315Y-16756534D01*
X12833887Y-16442249D02*
X12762458Y-16656534D01*
X12948173Y-16656534D01*
X13119601Y-16456534D02*
X13148173Y-16456534D01*
X13176744Y-16470820D01*
X13191030Y-16485106D01*
X13205315Y-16513677D01*
X13219601Y-16570820D01*
X13219601Y-16642249D01*
X13205315Y-16699391D01*
X13191030Y-16727963D01*
X13176744Y-16742249D01*
X13148173Y-16756534D01*
X13119601Y-16756534D01*
X13091030Y-16742249D01*
X13076744Y-16727963D01*
X13062458Y-16699391D01*
X13048173Y-16642249D01*
X13048173Y-16570820D01*
X13062458Y-16513677D01*
X13076744Y-16485106D01*
X13091030Y-16470820D01*
X13119601Y-16456534D01*
X13576744Y-16756534D02*
X13576744Y-16456534D01*
X13705315Y-16756534D02*
X13705315Y-16599391D01*
X13691030Y-16570820D01*
X13662458Y-16556534D01*
X13619601Y-16556534D01*
X13591030Y-16570820D01*
X13576744Y-16585106D01*
X13891030Y-16756534D02*
X13862458Y-16742249D01*
X13848173Y-16727963D01*
X13833887Y-16699391D01*
X13833887Y-16613677D01*
X13848173Y-16585106D01*
X13862458Y-16570820D01*
X13891030Y-16556534D01*
X13933887Y-16556534D01*
X13962458Y-16570820D01*
X13976744Y-16585106D01*
X13991030Y-16613677D01*
X13991030Y-16699391D01*
X13976744Y-16727963D01*
X13962458Y-16742249D01*
X13933887Y-16756534D01*
X13891030Y-16756534D01*
X14162458Y-16756534D02*
X14133887Y-16742249D01*
X14119601Y-16713677D01*
X14119601Y-16456534D01*
X14391030Y-16742249D02*
X14362458Y-16756534D01*
X14305316Y-16756534D01*
X14276744Y-16742249D01*
X14262458Y-16713677D01*
X14262458Y-16599391D01*
X14276744Y-16570820D01*
X14305316Y-16556534D01*
X14362458Y-16556534D01*
X14391030Y-16570820D01*
X14405316Y-16599391D01*
X14405316Y-16627963D01*
X14262458Y-16656534D01*
X14519601Y-16742249D02*
X14548173Y-16756534D01*
X14605316Y-16756534D01*
X14633887Y-16742249D01*
X14648173Y-16713677D01*
X14648173Y-16699391D01*
X14633887Y-16670820D01*
X14605316Y-16656534D01*
X14562458Y-16656534D01*
X14533887Y-16642249D01*
X14519601Y-16613677D01*
X14519601Y-16599391D01*
X14533887Y-16570820D01*
X14562458Y-16556534D01*
X14605316Y-16556534D01*
X14633887Y-16570820D01*
X14748173Y-16870820D02*
X14762458Y-16856534D01*
X14791030Y-16813677D01*
X14805316Y-16785106D01*
X14819601Y-16742249D01*
X14833887Y-16670820D01*
X14833887Y-16613677D01*
X14819601Y-16542249D01*
X14805316Y-16499391D01*
X14791030Y-16470820D01*
X14762458Y-16427963D01*
X14748173Y-16413677D01*
X7976239Y-17052529D02*
X7976239Y-16981111D01*
X7904821Y-16981111D01*
X7904821Y-17052529D01*
X7976239Y-17052529D01*
X8419601Y-17152534D02*
X8248173Y-17152534D01*
X8333887Y-17152534D02*
X8333887Y-16852534D01*
X8305316Y-16895392D01*
X8276744Y-16923963D01*
X8248173Y-16938249D01*
X8548173Y-17123963D02*
X8562459Y-17138249D01*
X8548173Y-17152534D01*
X8533887Y-17138249D01*
X8548173Y-17123963D01*
X8548173Y-17152534D01*
X8748173Y-16852534D02*
X8776744Y-16852534D01*
X8805316Y-16866820D01*
X8819601Y-16881106D01*
X8833887Y-16909677D01*
X8848173Y-16966820D01*
X8848173Y-17038249D01*
X8833887Y-17095392D01*
X8819601Y-17123963D01*
X8805316Y-17138249D01*
X8776744Y-17152534D01*
X8748173Y-17152534D01*
X8719601Y-17138249D01*
X8705316Y-17123963D01*
X8691030Y-17095392D01*
X8676744Y-17038249D01*
X8676744Y-16966820D01*
X8691030Y-16909677D01*
X8705316Y-16881106D01*
X8719601Y-16866820D01*
X8748173Y-16852534D01*
X9133887Y-17152534D02*
X8962459Y-17152534D01*
X9048173Y-17152534D02*
X9048173Y-16852534D01*
X9019601Y-16895392D01*
X8991030Y-16923963D01*
X8962459Y-16938249D01*
X9262459Y-17152534D02*
X9262459Y-16952534D01*
X9262459Y-16981106D02*
X9276744Y-16966820D01*
X9305316Y-16952534D01*
X9348173Y-16952534D01*
X9376744Y-16966820D01*
X9391030Y-16995392D01*
X9391030Y-17152534D01*
X9391030Y-16995392D02*
X9405316Y-16966820D01*
X9433887Y-16952534D01*
X9476744Y-16952534D01*
X9505316Y-16966820D01*
X9519601Y-16995392D01*
X9519601Y-17152534D01*
X9662459Y-17152534D02*
X9662459Y-16952534D01*
X9662459Y-16981106D02*
X9676744Y-16966820D01*
X9705316Y-16952534D01*
X9748173Y-16952534D01*
X9776744Y-16966820D01*
X9791030Y-16995392D01*
X9791030Y-17152534D01*
X9791030Y-16995392D02*
X9805316Y-16966820D01*
X9833887Y-16952534D01*
X9876744Y-16952534D01*
X9905316Y-16966820D01*
X9919601Y-16995392D01*
X9919601Y-17152534D01*
X10505316Y-16838249D02*
X10248173Y-17223963D01*
X10891030Y-16852534D02*
X10919601Y-16852534D01*
X10948173Y-16866820D01*
X10962458Y-16881106D01*
X10976744Y-16909677D01*
X10991030Y-16966820D01*
X10991030Y-17038249D01*
X10976744Y-17095392D01*
X10962458Y-17123963D01*
X10948173Y-17138249D01*
X10919601Y-17152534D01*
X10891030Y-17152534D01*
X10862458Y-17138249D01*
X10848173Y-17123963D01*
X10833887Y-17095392D01*
X10819601Y-17038249D01*
X10819601Y-16966820D01*
X10833887Y-16909677D01*
X10848173Y-16881106D01*
X10862458Y-16866820D01*
X10891030Y-16852534D01*
X11119601Y-17123963D02*
X11133887Y-17138249D01*
X11119601Y-17152534D01*
X11105316Y-17138249D01*
X11119601Y-17123963D01*
X11119601Y-17152534D01*
X11319601Y-16852534D02*
X11348173Y-16852534D01*
X11376744Y-16866820D01*
X11391030Y-16881106D01*
X11405315Y-16909677D01*
X11419601Y-16966820D01*
X11419601Y-17038249D01*
X11405315Y-17095392D01*
X11391030Y-17123963D01*
X11376744Y-17138249D01*
X11348173Y-17152534D01*
X11319601Y-17152534D01*
X11291030Y-17138249D01*
X11276744Y-17123963D01*
X11262458Y-17095392D01*
X11248173Y-17038249D01*
X11248173Y-16966820D01*
X11262458Y-16909677D01*
X11276744Y-16881106D01*
X11291030Y-16866820D01*
X11319601Y-16852534D01*
X11676744Y-16952534D02*
X11676744Y-17152534D01*
X11605315Y-16838249D02*
X11533887Y-17052534D01*
X11719601Y-17052534D01*
X11891030Y-16852534D02*
X11919601Y-16852534D01*
X11948173Y-16866820D01*
X11962458Y-16881106D01*
X11976744Y-16909677D01*
X11991030Y-16966820D01*
X11991030Y-17038249D01*
X11976744Y-17095392D01*
X11962458Y-17123963D01*
X11948173Y-17138249D01*
X11919601Y-17152534D01*
X11891030Y-17152534D01*
X11862458Y-17138249D01*
X11848173Y-17123963D01*
X11833887Y-17095392D01*
X11819601Y-17038249D01*
X11819601Y-16966820D01*
X11833887Y-16909677D01*
X11848173Y-16881106D01*
X11862458Y-16866820D01*
X11891030Y-16852534D01*
X12105316Y-16852534D02*
X12105316Y-16909677D01*
X12219601Y-16852534D02*
X12219601Y-16909677D01*
X12662458Y-17266820D02*
X12648173Y-17252534D01*
X12619601Y-17209677D01*
X12605315Y-17181106D01*
X12591030Y-17138249D01*
X12576744Y-17066820D01*
X12576744Y-17009677D01*
X12591030Y-16938249D01*
X12605315Y-16895392D01*
X12619601Y-16866820D01*
X12648173Y-16823963D01*
X12662458Y-16809677D01*
X12905315Y-16852534D02*
X12848173Y-16852534D01*
X12819601Y-16866820D01*
X12805315Y-16881106D01*
X12776744Y-16923963D01*
X12762458Y-16981106D01*
X12762458Y-17095392D01*
X12776744Y-17123963D01*
X12791030Y-17138249D01*
X12819601Y-17152534D01*
X12876744Y-17152534D01*
X12905315Y-17138249D01*
X12919601Y-17123963D01*
X12933887Y-17095392D01*
X12933887Y-17023963D01*
X12919601Y-16995392D01*
X12905315Y-16981106D01*
X12876744Y-16966820D01*
X12819601Y-16966820D01*
X12791030Y-16981106D01*
X12776744Y-16995392D01*
X12762458Y-17023963D01*
X13191030Y-16952534D02*
X13191030Y-17152534D01*
X13119601Y-16838249D02*
X13048173Y-17052534D01*
X13233887Y-17052534D01*
X13576744Y-17152534D02*
X13576744Y-16852534D01*
X13705315Y-17152534D02*
X13705315Y-16995392D01*
X13691030Y-16966820D01*
X13662458Y-16952534D01*
X13619601Y-16952534D01*
X13591030Y-16966820D01*
X13576744Y-16981106D01*
X13891030Y-17152534D02*
X13862458Y-17138249D01*
X13848173Y-17123963D01*
X13833887Y-17095392D01*
X13833887Y-17009677D01*
X13848173Y-16981106D01*
X13862458Y-16966820D01*
X13891030Y-16952534D01*
X13933887Y-16952534D01*
X13962458Y-16966820D01*
X13976744Y-16981106D01*
X13991030Y-17009677D01*
X13991030Y-17095392D01*
X13976744Y-17123963D01*
X13962458Y-17138249D01*
X13933887Y-17152534D01*
X13891030Y-17152534D01*
X14162458Y-17152534D02*
X14133887Y-17138249D01*
X14119601Y-17109677D01*
X14119601Y-16852534D01*
X14391030Y-17138249D02*
X14362458Y-17152534D01*
X14305316Y-17152534D01*
X14276744Y-17138249D01*
X14262458Y-17109677D01*
X14262458Y-16995392D01*
X14276744Y-16966820D01*
X14305316Y-16952534D01*
X14362458Y-16952534D01*
X14391030Y-16966820D01*
X14405316Y-16995392D01*
X14405316Y-17023963D01*
X14262458Y-17052534D01*
X14519601Y-17138249D02*
X14548173Y-17152534D01*
X14605316Y-17152534D01*
X14633887Y-17138249D01*
X14648173Y-17109677D01*
X14648173Y-17095392D01*
X14633887Y-17066820D01*
X14605316Y-17052534D01*
X14562458Y-17052534D01*
X14533887Y-17038249D01*
X14519601Y-17009677D01*
X14519601Y-16995392D01*
X14533887Y-16966820D01*
X14562458Y-16952534D01*
X14605316Y-16952534D01*
X14633887Y-16966820D01*
X14748173Y-17266820D02*
X14762458Y-17252534D01*
X14791030Y-17209677D01*
X14805316Y-17181106D01*
X14819601Y-17138249D01*
X14833887Y-17066820D01*
X14833887Y-17009677D01*
X14819601Y-16938249D01*
X14805316Y-16895392D01*
X14791030Y-16866820D01*
X14762458Y-16823963D01*
X14748173Y-16809677D01*
X7831030Y-17572820D02*
X7991030Y-17412820D01*
X7831030Y-17252820D01*
X7671030Y-17412820D01*
X7831030Y-17572820D01*
X8233887Y-17248534D02*
X8419601Y-17248534D01*
X8319601Y-17362820D01*
X8362458Y-17362820D01*
X8391030Y-17377106D01*
X8405316Y-17391392D01*
X8419601Y-17419963D01*
X8419601Y-17491392D01*
X8405316Y-17519963D01*
X8391030Y-17534249D01*
X8362458Y-17548534D01*
X8276744Y-17548534D01*
X8248173Y-17534249D01*
X8233887Y-17519963D01*
X8548173Y-17519963D02*
X8562459Y-17534249D01*
X8548173Y-17548534D01*
X8533887Y-17534249D01*
X8548173Y-17519963D01*
X8548173Y-17548534D01*
X8676744Y-17277106D02*
X8691030Y-17262820D01*
X8719601Y-17248534D01*
X8791030Y-17248534D01*
X8819601Y-17262820D01*
X8833887Y-17277106D01*
X8848173Y-17305677D01*
X8848173Y-17334249D01*
X8833887Y-17377106D01*
X8662458Y-17548534D01*
X8848173Y-17548534D01*
X9033887Y-17248534D02*
X9062459Y-17248534D01*
X9091030Y-17262820D01*
X9105316Y-17277106D01*
X9119601Y-17305677D01*
X9133887Y-17362820D01*
X9133887Y-17434249D01*
X9119601Y-17491392D01*
X9105316Y-17519963D01*
X9091030Y-17534249D01*
X9062459Y-17548534D01*
X9033887Y-17548534D01*
X9005316Y-17534249D01*
X8991030Y-17519963D01*
X8976744Y-17491392D01*
X8962459Y-17434249D01*
X8962459Y-17362820D01*
X8976744Y-17305677D01*
X8991030Y-17277106D01*
X9005316Y-17262820D01*
X9033887Y-17248534D01*
X9262459Y-17548534D02*
X9262459Y-17348534D01*
X9262459Y-17377106D02*
X9276744Y-17362820D01*
X9305316Y-17348534D01*
X9348173Y-17348534D01*
X9376744Y-17362820D01*
X9391030Y-17391392D01*
X9391030Y-17548534D01*
X9391030Y-17391392D02*
X9405316Y-17362820D01*
X9433887Y-17348534D01*
X9476744Y-17348534D01*
X9505316Y-17362820D01*
X9519601Y-17391392D01*
X9519601Y-17548534D01*
X9662459Y-17548534D02*
X9662459Y-17348534D01*
X9662459Y-17377106D02*
X9676744Y-17362820D01*
X9705316Y-17348534D01*
X9748173Y-17348534D01*
X9776744Y-17362820D01*
X9791030Y-17391392D01*
X9791030Y-17548534D01*
X9791030Y-17391392D02*
X9805316Y-17362820D01*
X9833887Y-17348534D01*
X9876744Y-17348534D01*
X9905316Y-17362820D01*
X9919601Y-17391392D01*
X9919601Y-17548534D01*
X10505316Y-17234249D02*
X10248173Y-17619963D01*
X10891030Y-17248534D02*
X10919601Y-17248534D01*
X10948173Y-17262820D01*
X10962458Y-17277106D01*
X10976744Y-17305677D01*
X10991030Y-17362820D01*
X10991030Y-17434249D01*
X10976744Y-17491392D01*
X10962458Y-17519963D01*
X10948173Y-17534249D01*
X10919601Y-17548534D01*
X10891030Y-17548534D01*
X10862458Y-17534249D01*
X10848173Y-17519963D01*
X10833887Y-17491392D01*
X10819601Y-17434249D01*
X10819601Y-17362820D01*
X10833887Y-17305677D01*
X10848173Y-17277106D01*
X10862458Y-17262820D01*
X10891030Y-17248534D01*
X11119601Y-17519963D02*
X11133887Y-17534249D01*
X11119601Y-17548534D01*
X11105316Y-17534249D01*
X11119601Y-17519963D01*
X11119601Y-17548534D01*
X11419601Y-17548534D02*
X11248173Y-17548534D01*
X11333887Y-17548534D02*
X11333887Y-17248534D01*
X11305315Y-17291392D01*
X11276744Y-17319963D01*
X11248173Y-17334249D01*
X11533887Y-17277106D02*
X11548173Y-17262820D01*
X11576744Y-17248534D01*
X11648173Y-17248534D01*
X11676744Y-17262820D01*
X11691030Y-17277106D01*
X11705315Y-17305677D01*
X11705315Y-17334249D01*
X11691030Y-17377106D01*
X11519601Y-17548534D01*
X11705315Y-17548534D01*
X11962458Y-17248534D02*
X11905315Y-17248534D01*
X11876744Y-17262820D01*
X11862458Y-17277106D01*
X11833887Y-17319963D01*
X11819601Y-17377106D01*
X11819601Y-17491392D01*
X11833887Y-17519963D01*
X11848173Y-17534249D01*
X11876744Y-17548534D01*
X11933887Y-17548534D01*
X11962458Y-17534249D01*
X11976744Y-17519963D01*
X11991030Y-17491392D01*
X11991030Y-17419963D01*
X11976744Y-17391392D01*
X11962458Y-17377106D01*
X11933887Y-17362820D01*
X11876744Y-17362820D01*
X11848173Y-17377106D01*
X11833887Y-17391392D01*
X11819601Y-17419963D01*
X12105316Y-17248534D02*
X12105316Y-17305677D01*
X12219601Y-17248534D02*
X12219601Y-17305677D01*
X12662458Y-17662820D02*
X12648173Y-17648534D01*
X12619601Y-17605677D01*
X12605315Y-17577106D01*
X12591030Y-17534249D01*
X12576744Y-17462820D01*
X12576744Y-17405677D01*
X12591030Y-17334249D01*
X12605315Y-17291392D01*
X12619601Y-17262820D01*
X12648173Y-17219963D01*
X12662458Y-17205677D01*
X12905315Y-17348534D02*
X12905315Y-17548534D01*
X12833887Y-17234249D02*
X12762458Y-17448534D01*
X12948173Y-17448534D01*
X13291030Y-17548534D02*
X13291030Y-17248534D01*
X13419601Y-17548534D02*
X13419601Y-17391392D01*
X13405315Y-17362820D01*
X13376744Y-17348534D01*
X13333887Y-17348534D01*
X13305315Y-17362820D01*
X13291030Y-17377106D01*
X13605315Y-17548534D02*
X13576744Y-17534249D01*
X13562458Y-17519963D01*
X13548173Y-17491392D01*
X13548173Y-17405677D01*
X13562458Y-17377106D01*
X13576744Y-17362820D01*
X13605315Y-17348534D01*
X13648173Y-17348534D01*
X13676744Y-17362820D01*
X13691030Y-17377106D01*
X13705315Y-17405677D01*
X13705315Y-17491392D01*
X13691030Y-17519963D01*
X13676744Y-17534249D01*
X13648173Y-17548534D01*
X13605315Y-17548534D01*
X13876744Y-17548534D02*
X13848173Y-17534249D01*
X13833887Y-17505677D01*
X13833887Y-17248534D01*
X14105316Y-17534249D02*
X14076744Y-17548534D01*
X14019601Y-17548534D01*
X13991030Y-17534249D01*
X13976744Y-17505677D01*
X13976744Y-17391392D01*
X13991030Y-17362820D01*
X14019601Y-17348534D01*
X14076744Y-17348534D01*
X14105316Y-17362820D01*
X14119601Y-17391392D01*
X14119601Y-17419963D01*
X13976744Y-17448534D01*
X14233887Y-17534249D02*
X14262458Y-17548534D01*
X14319601Y-17548534D01*
X14348173Y-17534249D01*
X14362458Y-17505677D01*
X14362458Y-17491392D01*
X14348173Y-17462820D01*
X14319601Y-17448534D01*
X14276744Y-17448534D01*
X14248173Y-17434249D01*
X14233887Y-17405677D01*
X14233887Y-17391392D01*
X14248173Y-17362820D01*
X14276744Y-17348534D01*
X14319601Y-17348534D01*
X14348173Y-17362820D01*
X14462458Y-17662820D02*
X14476744Y-17648534D01*
X14505316Y-17605677D01*
X14519601Y-17577106D01*
X14533887Y-17534249D01*
X14548173Y-17462820D01*
X14548173Y-17405677D01*
X14533887Y-17334249D01*
X14519601Y-17291392D01*
X14505316Y-17262820D01*
X14476744Y-17219963D01*
X14462458Y-17205677D01*
M02*
