M48
;DRILL file {KiCad 4.0.6} date 12/07/17 21:07:51
;FORMAT={-:-/ absolute / inch / decimal}
FMAT,2
INCH,TZ
T1C0.020
T2C0.030
T3C0.031
T4C0.040
T5C0.126
%
G90
G05
M72
T1
X3.372Y-3.646
X3.625Y-5.4375
X3.7Y-4.324
X3.748Y-4.72
X3.766Y-4.054
X3.7757Y-3.9498
X3.8975Y-4.9525
X3.8975Y-5.45
X3.9Y-2.7422
X3.905Y-2.9395
X3.94Y-5.11
X4.03Y-5.17
X4.04Y-4.7675
X4.0882Y-3.2718
X4.1594Y-3.3708
X4.1659Y-4.9373
X4.17Y-3.15
X4.2Y-5.22
X4.2217Y-3.2984
X4.23Y-5.58
X4.2305Y-5.5295
X4.235Y-2.8209
X4.24Y-5.35
X4.2475Y-4.3025
X4.25Y-4.0825
X4.265Y-3.25
X4.265Y-3.25
X4.266Y-5.602
X4.2887Y-3.0963
X4.312Y-2.578
X4.3426Y-3.1816
X4.4Y-5.36
X4.428Y-5.33
X4.4325Y-2.48
X4.4765Y-5.05
X4.48Y-5.34
X4.486Y-5.298
X4.49Y-3.5841
X4.515Y-2.7472
X4.521Y-4.661
X4.5395Y-5.138
X4.542Y-5.31
X4.546Y-5.266
X4.5505Y-4.768
X4.5515Y-4.9005
X4.5723Y-4.934
X4.5775Y-2.4875
X4.598Y-5.274
X4.61Y-4.975
X4.614Y-5.236
X4.7Y-3.345
X4.74Y-3.5841
X4.756Y-3.6622
X4.7584Y-5.2925
X4.7789Y-4.8159
X4.8215Y-4.507
X4.8425Y-5.035
X4.86Y-3.8319
X4.9Y-4.3
X4.926Y-2.598
X5.058Y-3.024
X5.0755Y-3.5895
X5.076Y-3.2914
X5.0858Y-4.2858
X5.125Y-4.797
X5.1267Y-4.836
X5.13Y-2.7472
X5.17Y-3.84
X5.177Y-3.73
X5.2113Y-3.085
X5.214Y-2.9044
X5.214Y-3.4494
X5.214Y-3.6306
X5.2197Y-4.7939
X5.23Y-3.195
X5.23Y-5.002
X5.2345Y-3.7705
X5.236Y-4.3955
X5.2708Y-3.2315
X5.2825Y-4.575
X5.29Y-4.925
X5.3Y-3.5676
X5.3094Y-4.4894
X5.3094Y-4.4894
X5.31Y-3.0326
X5.43Y-3.835
X5.504Y-3.432
X5.5101Y-4.7775
X5.5106Y-4.43
X5.5106Y-4.88
X5.5126Y-4.324
X5.584Y-3.69
X5.616Y-3.186
X5.6277Y-2.4435
X5.638Y-4.768
X5.646Y-2.88
X5.656Y-4.3525
X5.66Y-2.4244
X5.7365Y-4.7715
X5.7906Y-3.8182
X5.7906Y-3.8632
X5.8076Y-3.7784
X5.81Y-4.46
X5.816Y-4.868
X5.8555Y-5.56
X5.865Y-3.97
X5.882Y-3.875
X5.9294Y-3.928
X5.955Y-5.37
X5.995Y-3.2391
X6.Y-3.02
X6.Y-5.24
X6.01Y-5.12
X6.0225Y-4.435
X6.0304Y-3.7954
X6.04Y-4.6525
X6.0624Y-4.31
X6.0625Y-3.585
X6.074Y-4.408
X6.08Y-5.195
X6.0925Y-3.31
X6.125Y-5.2
X6.1326Y-5.01
X6.166Y-3.8325
X6.195Y-4.0325
X6.2024Y-4.355
X6.2074Y-4.935
X6.2124Y-3.12
X6.2124Y-3.695
X6.2225Y-4.765
X6.23Y-5.28
X6.231Y-4.691
X6.2575Y-5.4152
X6.279Y-4.265
X6.282Y-4.031
X6.375Y-2.5625
X6.392Y-4.546
X6.456Y-5.29
X6.48Y-4.535
X6.48Y-4.92
X6.511Y-5.3863
X6.515Y-4.49
X6.52Y-5.055
X6.53Y-4.875
X6.5566Y-4.4234
X6.57Y-4.35
X6.585Y-4.77
X6.596Y-4.275
X6.63Y-4.65
X6.635Y-4.845
X6.642Y-3.7625
X6.7192Y-4.0301
X6.72Y-4.71
X6.722Y-5.0186
X6.7299Y-4.4528
X6.7299Y-4.5306
X6.7467Y-4.1379
X6.78Y-3.811
T2
X3.9474Y-3.6457
X3.9474Y-3.7244
X3.9474Y-3.8031
X3.9474Y-3.8819
X3.9474Y-3.9606
X3.9474Y-4.0394
X3.9474Y-4.1181
X3.9474Y-4.1969
X3.9474Y-4.2756
X3.9474Y-4.3543
X4.0261Y-3.6457
X4.0261Y-3.7244
X4.0261Y-3.8031
X4.0261Y-3.8819
X4.0261Y-3.9606
X4.0261Y-4.0394
X4.0261Y-4.1181
X4.0261Y-4.1969
X4.0261Y-4.2756
X4.0261Y-4.3543
T3
X4.11Y-2.54
X4.11Y-2.64
X4.11Y-2.74
X4.41Y-2.54
X4.41Y-2.64
X4.41Y-2.74
X4.7Y-5.4
X4.7Y-5.5
X4.7Y-5.6
X4.725Y-2.54
X4.725Y-2.64
X4.725Y-2.74
X5.Y-5.4
X5.Y-5.5
X5.Y-5.6
X5.025Y-2.54
X5.025Y-2.64
X5.025Y-2.74
X5.29Y-5.18
X5.29Y-5.48
X5.345Y-2.55
X5.345Y-2.65
X5.345Y-2.75
X5.39Y-5.18
X5.39Y-5.48
X5.49Y-5.18
X5.49Y-5.48
X5.59Y-5.18
X5.59Y-5.48
X5.645Y-2.55
X5.645Y-2.65
X5.645Y-2.75
X5.69Y-5.18
X5.69Y-5.48
X5.79Y-5.18
X5.79Y-5.48
X5.89Y-5.18
X5.89Y-5.48
X5.99Y-5.18
X5.99Y-5.48
T4
X3.45Y-3.05
X3.45Y-3.15
X3.45Y-3.25
X3.45Y-3.35
X3.45Y-3.45
X3.45Y-3.55
X3.45Y-3.65
X3.45Y-3.75
X3.45Y-3.85
X3.45Y-3.95
X3.45Y-4.05
X3.45Y-4.15
X3.45Y-4.25
X3.45Y-4.35
X3.45Y-4.45
X3.45Y-4.55
X3.45Y-4.65
X3.45Y-4.75
X3.45Y-4.85
X3.45Y-4.95
X3.55Y-3.05
X3.55Y-3.15
X3.55Y-3.25
X3.55Y-3.35
X3.55Y-3.45
X3.55Y-3.55
X3.55Y-3.65
X3.55Y-3.75
X3.55Y-3.85
X3.55Y-3.95
X3.55Y-4.05
X3.55Y-4.15
X3.55Y-4.25
X3.55Y-4.35
X3.55Y-4.45
X3.55Y-4.55
X3.55Y-4.65
X3.55Y-4.75
X3.55Y-4.85
X3.55Y-4.95
X6.45Y-3.0508
X6.45Y-3.1508
X6.45Y-3.2508
X6.45Y-3.3508
X6.45Y-3.4508
X6.45Y-3.5508
X6.45Y-3.6508
X6.45Y-3.7508
X6.45Y-3.8508
X6.45Y-3.9508
X6.45Y-4.0508
X6.45Y-4.1508
X6.55Y-3.0508
X6.55Y-3.1508
X6.55Y-3.2508
X6.55Y-3.3508
X6.55Y-3.4508
X6.55Y-3.5508
X6.55Y-3.6508
X6.55Y-3.7508
X6.55Y-3.8508
X6.55Y-3.9508
X6.55Y-4.0508
X6.55Y-4.1508
T5
X3.875Y-2.3125
X3.875Y-5.6875
X6.125Y-2.3125
X6.125Y-5.6875
T0
M30
