G04 #@! TF.FileFunction,Paste,Bot*
%FSLAX46Y46*%
G04 Gerber Fmt 4.6, Leading zero omitted, Abs format (unit mm)*
G04 Created by KiCad (PCBNEW 4.0.6) date 12/07/17 21:07:41*
%MOMM*%
%LPD*%
G01*
G04 APERTURE LIST*
%ADD10C,0.100000*%
%ADD11R,2.000000X3.800000*%
%ADD12R,2.000000X1.500000*%
%ADD13R,1.000000X1.250000*%
%ADD14R,1.300000X0.700000*%
%ADD15R,0.317500X0.317500*%
%ADD16R,1.270000X1.270000*%
%ADD17R,0.400000X1.500000*%
%ADD18R,3.850000X5.500000*%
%ADD19R,2.700000X2.200000*%
%ADD20R,1.500000X0.308000*%
%ADD21R,1.500000X0.450000*%
%ADD22R,2.410000X3.290000*%
%ADD23R,1.200000X0.270000*%
%ADD24R,2.500000X1.000000*%
%ADD25R,1.250000X1.000000*%
%ADD26R,0.700000X1.300000*%
%ADD27R,1.400000X2.100000*%
%ADD28R,0.900000X0.800000*%
%ADD29R,0.800000X0.900000*%
%ADD30R,2.100000X1.400000*%
%ADD31R,2.030000X1.140000*%
%ADD32R,1.140000X2.030000*%
%ADD33R,0.970000X1.270000*%
G04 APERTURE END LIST*
D10*
D11*
X95148000Y-81534000D03*
D12*
X101448000Y-81534000D03*
X101448000Y-83834000D03*
X101448000Y-79234000D03*
D11*
X126136000Y-76073000D03*
D12*
X132436000Y-76073000D03*
X132436000Y-78373000D03*
X132436000Y-73773000D03*
D11*
X126136000Y-89916000D03*
D12*
X132436000Y-89916000D03*
X132436000Y-92216000D03*
X132436000Y-87616000D03*
D13*
X130572000Y-83566000D03*
X132572000Y-83566000D03*
D14*
X150418800Y-107203200D03*
X150418800Y-109103200D03*
D15*
X99791520Y-132872480D03*
D16*
X98996500Y-133350000D03*
D10*
G36*
X100203000Y-133667451D02*
X99885549Y-133350000D01*
X100203000Y-133032549D01*
X100520451Y-133350000D01*
X100203000Y-133667451D01*
X100203000Y-133667451D01*
G37*
D16*
X103378000Y-133350000D03*
X100838000Y-133350000D03*
D10*
G36*
X99631500Y-133984951D02*
X99314049Y-133667500D01*
X99631500Y-133350049D01*
X99948951Y-133667500D01*
X99631500Y-133984951D01*
X99631500Y-133984951D01*
G37*
G36*
X99631500Y-133349951D02*
X99314049Y-133032500D01*
X99631500Y-132715049D01*
X99948951Y-133032500D01*
X99631500Y-133349951D01*
X99631500Y-133349951D01*
G37*
D15*
X99791520Y-133827520D03*
X99791520Y-135412480D03*
D16*
X98996500Y-135890000D03*
D10*
G36*
X100203000Y-136207451D02*
X99885549Y-135890000D01*
X100203000Y-135572549D01*
X100520451Y-135890000D01*
X100203000Y-136207451D01*
X100203000Y-136207451D01*
G37*
D16*
X103378000Y-135890000D03*
X100838000Y-135890000D03*
D10*
G36*
X99631500Y-136524951D02*
X99314049Y-136207500D01*
X99631500Y-135890049D01*
X99948951Y-136207500D01*
X99631500Y-136524951D01*
X99631500Y-136524951D01*
G37*
G36*
X99631500Y-135889951D02*
X99314049Y-135572500D01*
X99631500Y-135255049D01*
X99948951Y-135572500D01*
X99631500Y-135889951D01*
X99631500Y-135889951D01*
G37*
D15*
X99791520Y-136367520D03*
X99791520Y-137952480D03*
D16*
X98996500Y-138430000D03*
D10*
G36*
X100203000Y-138747451D02*
X99885549Y-138430000D01*
X100203000Y-138112549D01*
X100520451Y-138430000D01*
X100203000Y-138747451D01*
X100203000Y-138747451D01*
G37*
D16*
X103378000Y-138430000D03*
X100838000Y-138430000D03*
D10*
G36*
X99631500Y-139064951D02*
X99314049Y-138747500D01*
X99631500Y-138430049D01*
X99948951Y-138747500D01*
X99631500Y-139064951D01*
X99631500Y-139064951D01*
G37*
G36*
X99631500Y-138429951D02*
X99314049Y-138112500D01*
X99631500Y-137795049D01*
X99948951Y-138112500D01*
X99631500Y-138429951D01*
X99631500Y-138429951D01*
G37*
D15*
X99791520Y-138907520D03*
D17*
X168036000Y-126552000D03*
X167386000Y-126552000D03*
X166736000Y-126552000D03*
X166736000Y-123892000D03*
X167386000Y-123892000D03*
X168036000Y-123892000D03*
X168036000Y-116392000D03*
X167386000Y-116392000D03*
X166736000Y-116392000D03*
X166736000Y-113732000D03*
X167386000Y-113732000D03*
X168036000Y-113732000D03*
D18*
X148383000Y-91948000D03*
X138383000Y-91948000D03*
X148446500Y-77978000D03*
X138446500Y-77978000D03*
D19*
X137170000Y-114300000D03*
X132070000Y-114300000D03*
X137170000Y-124206000D03*
X132070000Y-124206000D03*
D20*
X112980000Y-137950000D03*
X112980000Y-138450000D03*
X112980000Y-138950000D03*
X112980000Y-139450000D03*
X112980000Y-139950000D03*
X112980000Y-140450000D03*
X112980000Y-140950000D03*
X112980000Y-141450000D03*
X109270000Y-141450000D03*
X109270000Y-140950000D03*
X109270000Y-140450000D03*
X109270000Y-139950000D03*
X109270000Y-139450000D03*
X109270000Y-138950000D03*
X109270000Y-138450000D03*
X109270000Y-137950000D03*
D21*
X144774920Y-124785120D03*
X144774920Y-124134880D03*
X144774920Y-123484640D03*
X144774920Y-122834400D03*
X150368000Y-126725680D03*
X144774920Y-126735840D03*
X144774920Y-126085600D03*
X144774920Y-125435360D03*
X150373080Y-122184160D03*
X150373080Y-122834400D03*
X150373080Y-123484640D03*
X150373080Y-124134880D03*
X150373080Y-124785120D03*
X150373080Y-125435360D03*
X144774920Y-122184160D03*
X150368000Y-126085600D03*
D22*
X147574000Y-124460000D03*
D21*
X144774920Y-113609120D03*
X144774920Y-112958880D03*
X144774920Y-112308640D03*
X144774920Y-111658400D03*
X150368000Y-115549680D03*
X144774920Y-115559840D03*
X144774920Y-114909600D03*
X144774920Y-114259360D03*
X150373080Y-111008160D03*
X150373080Y-111658400D03*
X150373080Y-112308640D03*
X150373080Y-112958880D03*
X150373080Y-113609120D03*
X150373080Y-114259360D03*
X144774920Y-111008160D03*
X150368000Y-114909600D03*
D22*
X147574000Y-113284000D03*
D23*
X129839500Y-93742000D03*
X129839500Y-94242000D03*
X129839500Y-94742000D03*
X129839500Y-95242000D03*
X129839500Y-95742000D03*
X133989500Y-93742000D03*
X133989500Y-94242000D03*
X133989500Y-94742000D03*
X133989500Y-95242000D03*
X133989500Y-95742000D03*
X130792000Y-80089500D03*
X130792000Y-80589500D03*
X130792000Y-81089500D03*
X130792000Y-81589500D03*
X130792000Y-82089500D03*
X134942000Y-80089500D03*
X134942000Y-80589500D03*
X134942000Y-81089500D03*
X134942000Y-81589500D03*
X134942000Y-82089500D03*
D24*
X126873000Y-116610000D03*
X126873000Y-119610000D03*
X123698000Y-116610000D03*
X123698000Y-119610000D03*
X120523000Y-116610000D03*
X120523000Y-119610000D03*
X120650000Y-129389000D03*
X120650000Y-126389000D03*
X123825000Y-129389000D03*
X123825000Y-126389000D03*
X127000000Y-129389000D03*
X127000000Y-126389000D03*
X104521000Y-88035000D03*
X104521000Y-91035000D03*
X110871000Y-88035000D03*
X110871000Y-91035000D03*
X117221000Y-88035000D03*
X117221000Y-91035000D03*
X107696000Y-88035000D03*
X107696000Y-91035000D03*
X114046000Y-88035000D03*
X114046000Y-91035000D03*
X120396000Y-88035000D03*
X120396000Y-91035000D03*
X152082500Y-94575500D03*
X152082500Y-97575500D03*
X155257500Y-94512000D03*
X155257500Y-97512000D03*
X158369000Y-94512000D03*
X158369000Y-97512000D03*
X104394000Y-74652000D03*
X104394000Y-71652000D03*
X110744000Y-74652000D03*
X110744000Y-71652000D03*
X117094000Y-74652000D03*
X117094000Y-71652000D03*
X107569000Y-74652000D03*
X107569000Y-71652000D03*
X113919000Y-74652000D03*
X113919000Y-71652000D03*
X120269000Y-74652000D03*
X120269000Y-71652000D03*
X152273000Y-79272000D03*
X152273000Y-82272000D03*
X155448000Y-79272000D03*
X155448000Y-82272000D03*
X158623000Y-79272000D03*
X158623000Y-82272000D03*
D13*
X107458000Y-134112000D03*
X109458000Y-134112000D03*
X136128000Y-83566000D03*
X134128000Y-83566000D03*
D25*
X101854000Y-74660000D03*
X101854000Y-72660000D03*
X127000000Y-80991200D03*
X127000000Y-82991200D03*
X125120400Y-82788000D03*
X125120400Y-80788000D03*
D13*
X135048500Y-97218500D03*
X133048500Y-97218500D03*
D25*
X101981000Y-88027000D03*
X101981000Y-90027000D03*
D13*
X129714500Y-97028000D03*
X127714500Y-97028000D03*
D25*
X123444000Y-95329500D03*
X123444000Y-97329500D03*
X121602500Y-97329500D03*
X121602500Y-95329500D03*
X152146000Y-125238000D03*
X152146000Y-127238000D03*
X153924000Y-125238000D03*
X153924000Y-127238000D03*
D13*
X139970000Y-128016000D03*
X141970000Y-128016000D03*
D25*
X147129500Y-120761000D03*
X147129500Y-118761000D03*
D13*
X152416000Y-122936000D03*
X154416000Y-122936000D03*
X141970000Y-125984000D03*
X139970000Y-125984000D03*
X141970000Y-123952000D03*
X139970000Y-123952000D03*
D25*
X152146000Y-113998500D03*
X152146000Y-115998500D03*
X153987500Y-113998500D03*
X153987500Y-115998500D03*
D13*
X139970000Y-116332000D03*
X141970000Y-116332000D03*
D25*
X148488400Y-107254800D03*
X148488400Y-109254800D03*
D13*
X152098500Y-111315500D03*
X154098500Y-111315500D03*
X141970000Y-114427000D03*
X139970000Y-114427000D03*
X141970000Y-112522000D03*
X139970000Y-112522000D03*
X136636000Y-129286000D03*
X134636000Y-129286000D03*
X152091900Y-140944600D03*
X150091900Y-140944600D03*
X106664000Y-61849000D03*
X104664000Y-61849000D03*
X122158000Y-61976000D03*
X120158000Y-61976000D03*
X137906000Y-61976000D03*
X135906000Y-61976000D03*
D14*
X134874000Y-77028000D03*
X134874000Y-78928000D03*
D26*
X121325600Y-77749400D03*
X123225600Y-77749400D03*
D14*
X128930400Y-81701600D03*
X128930400Y-83601600D03*
X123215400Y-81219000D03*
X123215400Y-83119000D03*
D26*
X123238300Y-79667100D03*
X121338300Y-79667100D03*
D14*
X134620000Y-90617000D03*
X134620000Y-92517000D03*
D26*
X116398000Y-92710000D03*
X118298000Y-92710000D03*
D14*
X125666500Y-95570000D03*
X125666500Y-97470000D03*
X119722900Y-95468400D03*
X119722900Y-97368400D03*
D26*
X118285300Y-94665800D03*
X116385300Y-94665800D03*
X109921000Y-76835000D03*
X111821000Y-76835000D03*
X110048000Y-84582000D03*
X111948000Y-84582000D03*
D14*
X149034500Y-120711000D03*
X149034500Y-118811000D03*
X151066500Y-120711000D03*
X151066500Y-118811000D03*
D26*
X141856500Y-121348500D03*
X139956500Y-121348500D03*
X152085000Y-109474000D03*
X153985000Y-109474000D03*
X141920000Y-109829600D03*
X140020000Y-109829600D03*
X111445000Y-126174500D03*
X113345000Y-126174500D03*
X111381500Y-118999000D03*
X113281500Y-118999000D03*
D14*
X109474000Y-69022000D03*
X109474000Y-67122000D03*
X125095000Y-69149000D03*
X125095000Y-67249000D03*
X140970000Y-69276000D03*
X140970000Y-67376000D03*
X169799000Y-124272000D03*
X169799000Y-126172000D03*
X171704000Y-126172000D03*
X171704000Y-124272000D03*
X169672000Y-114112000D03*
X169672000Y-116012000D03*
X171704000Y-116012000D03*
X171704000Y-114112000D03*
D26*
X169230000Y-121412000D03*
X171130000Y-121412000D03*
X169230000Y-111252000D03*
X171130000Y-111252000D03*
X166558000Y-129286000D03*
X164658000Y-129286000D03*
X166558000Y-119126000D03*
X164658000Y-119126000D03*
X160970000Y-138938000D03*
X159070000Y-138938000D03*
X160543200Y-132588000D03*
X162443200Y-132588000D03*
D27*
X111909500Y-128778000D03*
X116309500Y-128778000D03*
X111528500Y-116459000D03*
X115928500Y-116459000D03*
D28*
X118237000Y-127347000D03*
X118237000Y-129447000D03*
X117919500Y-116552000D03*
X117919500Y-118652000D03*
D29*
X169384000Y-92456000D03*
X171484000Y-92456000D03*
X169384000Y-90424000D03*
X171484000Y-90424000D03*
X169384000Y-94234000D03*
X171484000Y-94234000D03*
D30*
X123317000Y-76025100D03*
X123317000Y-71625100D03*
X123474480Y-88018260D03*
X123474480Y-92418260D03*
D27*
X107610000Y-76962000D03*
X103210000Y-76962000D03*
X107991000Y-85725000D03*
X103591000Y-85725000D03*
X120863000Y-134429500D03*
X125263000Y-134429500D03*
D30*
X123698000Y-137500000D03*
X123698000Y-141900000D03*
D27*
X154092000Y-136906000D03*
X149692000Y-136906000D03*
X130642000Y-136906000D03*
X135042000Y-136906000D03*
X130642000Y-133858000D03*
X135042000Y-133858000D03*
X154092000Y-133858000D03*
X149692000Y-133858000D03*
X147742000Y-136906000D03*
X143342000Y-136906000D03*
X136992000Y-136906000D03*
X141392000Y-136906000D03*
X136992000Y-133858000D03*
X141392000Y-133858000D03*
X147742000Y-133858000D03*
X143342000Y-133858000D03*
D30*
X101727000Y-65110000D03*
X101727000Y-69510000D03*
X106807000Y-69764000D03*
X106807000Y-65364000D03*
X117475000Y-65364000D03*
X117475000Y-69764000D03*
X122555000Y-69891000D03*
X122555000Y-65491000D03*
X133096000Y-65364000D03*
X133096000Y-69764000D03*
X138303000Y-70018000D03*
X138303000Y-65618000D03*
X164592000Y-126914000D03*
X164592000Y-122514000D03*
X164592000Y-116754000D03*
X164592000Y-112354000D03*
X157480000Y-132420000D03*
X157480000Y-136820000D03*
D31*
X113919000Y-78924000D03*
X113919000Y-76524000D03*
X113919000Y-82239000D03*
X113919000Y-84639000D03*
D32*
X110814000Y-123825000D03*
X113214000Y-123825000D03*
X110814000Y-121285000D03*
X113214000Y-121285000D03*
D31*
X99060000Y-69653000D03*
X99060000Y-67253000D03*
X114681000Y-69780000D03*
X114681000Y-67380000D03*
X130302000Y-69780000D03*
X130302000Y-67380000D03*
D17*
X107838000Y-82610000D03*
X107188000Y-82610000D03*
X106538000Y-82610000D03*
X106538000Y-79950000D03*
X107188000Y-79950000D03*
X107838000Y-79950000D03*
D28*
X160290000Y-136200000D03*
X160290000Y-134300000D03*
X162290000Y-135250000D03*
D14*
X103875840Y-81661040D03*
X103875840Y-79761040D03*
D33*
X110358000Y-82550000D03*
X111638000Y-82550000D03*
X111638000Y-78994000D03*
X110358000Y-78994000D03*
X109301200Y-124053600D03*
X108021200Y-124053600D03*
X109301200Y-121666000D03*
X108021200Y-121666000D03*
M02*
