G04 #@! TF.FileFunction,Soldermask,Top*
%FSLAX46Y46*%
G04 Gerber Fmt 4.6, Leading zero omitted, Abs format (unit mm)*
G04 Created by KiCad (PCBNEW 4.0.6) date 12/07/17 21:07:41*
%MOMM*%
%LPD*%
G01*
G04 APERTURE LIST*
%ADD10C,0.100000*%
%ADD11C,0.200000*%
%ADD12R,0.800000X0.900000*%
%ADD13C,4.699000*%
%ADD14R,1.524000X1.524000*%
%ADD15C,1.524000*%
%ADD16R,1.600000X1.600000*%
%ADD17O,1.600000X1.600000*%
%ADD18R,1.500000X0.400000*%
%ADD19R,0.700000X1.300000*%
%ADD20R,1.300000X0.700000*%
%ADD21R,1.400000X2.100000*%
%ADD22C,1.000000*%
%ADD23C,0.762000*%
G04 APERTURE END LIST*
D10*
D11*
X-102870000Y-207010000D02*
X-161290000Y-207010000D01*
X-170180000Y-177800000D02*
X-93980000Y-177800000D01*
X-93980000Y-190500000D02*
X-170180000Y-190500000D01*
X-93980000Y-177800000D02*
X-93980000Y-190500000D01*
D12*
X130268000Y-73787000D03*
X132368000Y-73787000D03*
D13*
X98425000Y-58737500D03*
X155575000Y-58737500D03*
X98425000Y-144462500D03*
X155575000Y-144462500D03*
D14*
X166370000Y-77490000D03*
D15*
X163830000Y-77490000D03*
X166370000Y-80030000D03*
X163830000Y-80030000D03*
X166370000Y-82570000D03*
X163830000Y-82570000D03*
X166370000Y-85110000D03*
X163830000Y-85110000D03*
X166370000Y-87650000D03*
X163830000Y-87650000D03*
X166370000Y-90190000D03*
X163830000Y-90190000D03*
X166370000Y-92730000D03*
X163830000Y-92730000D03*
X166370000Y-95270000D03*
X163830000Y-95270000D03*
X166370000Y-97810000D03*
X163830000Y-97810000D03*
X166370000Y-100350000D03*
X163830000Y-100350000D03*
X166370000Y-102890000D03*
X163830000Y-102890000D03*
X166370000Y-105430000D03*
X163830000Y-105430000D03*
D16*
X134366000Y-139192000D03*
D17*
X152146000Y-131572000D03*
X136906000Y-139192000D03*
X149606000Y-131572000D03*
X139446000Y-139192000D03*
X147066000Y-131572000D03*
X141986000Y-139192000D03*
X144526000Y-131572000D03*
X144526000Y-139192000D03*
X141986000Y-131572000D03*
X147066000Y-139192000D03*
X139446000Y-131572000D03*
X149606000Y-139192000D03*
X136906000Y-131572000D03*
X152146000Y-139192000D03*
X134366000Y-131572000D03*
D16*
X119380000Y-137160000D03*
D17*
X127000000Y-142240000D03*
X119380000Y-139700000D03*
X127000000Y-139700000D03*
X119380000Y-142240000D03*
X127000000Y-137160000D03*
D18*
X148276000Y-124191000D03*
X148276000Y-124841000D03*
X148276000Y-125491000D03*
X150936000Y-125491000D03*
X150936000Y-124841000D03*
X150936000Y-124191000D03*
X149292000Y-107681000D03*
X149292000Y-108331000D03*
X149292000Y-108981000D03*
X151952000Y-108981000D03*
X151952000Y-108331000D03*
X151952000Y-107681000D03*
X148911000Y-78090000D03*
X148911000Y-78740000D03*
X148911000Y-79390000D03*
X151571000Y-79390000D03*
X151571000Y-78740000D03*
X151571000Y-78090000D03*
X148911000Y-93076000D03*
X148911000Y-93726000D03*
X148911000Y-94376000D03*
X151571000Y-94376000D03*
X151571000Y-93726000D03*
X151571000Y-93076000D03*
D16*
X112014000Y-69596000D03*
D17*
X104394000Y-64516000D03*
X112014000Y-67056000D03*
X104394000Y-67056000D03*
X112014000Y-64516000D03*
X104394000Y-69596000D03*
D16*
X127635000Y-69596000D03*
D17*
X120015000Y-64516000D03*
X127635000Y-67056000D03*
X120015000Y-67056000D03*
X127635000Y-64516000D03*
X120015000Y-69596000D03*
D16*
X143383000Y-69850000D03*
D17*
X135763000Y-64770000D03*
X143383000Y-67310000D03*
X135763000Y-67310000D03*
X143383000Y-64770000D03*
X135763000Y-69850000D03*
D19*
X157541000Y-103886000D03*
X155641000Y-103886000D03*
X155641000Y-105664000D03*
X157541000Y-105664000D03*
X155641000Y-107569000D03*
X157541000Y-107569000D03*
X155641000Y-110617000D03*
X157541000Y-110617000D03*
X157541000Y-112522000D03*
X155641000Y-112522000D03*
X157541000Y-114427000D03*
X155641000Y-114427000D03*
X157795000Y-73533000D03*
X155895000Y-73533000D03*
X157795000Y-88138000D03*
X155895000Y-88138000D03*
X155895000Y-75438000D03*
X157795000Y-75438000D03*
X155895000Y-90043000D03*
X157795000Y-90043000D03*
X155895000Y-77343000D03*
X157795000Y-77343000D03*
X155895000Y-91948000D03*
X157795000Y-91948000D03*
X155895000Y-79248000D03*
X157795000Y-79248000D03*
X157795000Y-81280000D03*
X155895000Y-81280000D03*
X157795000Y-93853000D03*
X155895000Y-93853000D03*
D20*
X156362400Y-95468400D03*
X156362400Y-97368400D03*
D19*
X157795000Y-83312000D03*
X155895000Y-83312000D03*
D20*
X154432000Y-95468400D03*
X154432000Y-97368400D03*
X117094000Y-140274000D03*
X117094000Y-142174000D03*
D19*
X157668000Y-119126000D03*
X155768000Y-119126000D03*
X155768000Y-121031000D03*
X157668000Y-121031000D03*
X157668000Y-127254000D03*
X155768000Y-127254000D03*
X155768000Y-125349000D03*
X157668000Y-125349000D03*
X155768000Y-122936000D03*
X157668000Y-122936000D03*
X155768000Y-129222500D03*
X157668000Y-129222500D03*
D21*
X147873000Y-104267000D03*
X152273000Y-104267000D03*
X147787000Y-73787000D03*
X152187000Y-73787000D03*
X147660000Y-88900000D03*
X152060000Y-88900000D03*
D12*
X109186000Y-140716000D03*
X111286000Y-140716000D03*
X109186000Y-138938000D03*
X111286000Y-138938000D03*
X130268000Y-78359000D03*
X132368000Y-78359000D03*
X130395000Y-87503000D03*
X132495000Y-87503000D03*
X130268000Y-92075000D03*
X132368000Y-92075000D03*
D21*
X147660000Y-119634000D03*
X152060000Y-119634000D03*
D14*
X102263450Y-92600000D03*
D15*
X100263450Y-92600000D03*
X102263450Y-94600000D03*
X100263450Y-94600000D03*
X102263450Y-96600000D03*
X100263450Y-96600000D03*
X102263450Y-98600000D03*
X100263450Y-98600000D03*
X102263450Y-100600000D03*
X100263450Y-100600000D03*
X102263450Y-102600000D03*
X100263450Y-102600000D03*
X102263450Y-104600000D03*
X100263450Y-104600000D03*
X102263450Y-106600000D03*
X100263450Y-106600000D03*
X102263450Y-108600000D03*
X100263450Y-108600000D03*
X102263450Y-110600000D03*
X100263450Y-110600000D03*
D14*
X90170000Y-77470000D03*
D15*
X87630000Y-77470000D03*
X90170000Y-80010000D03*
X87630000Y-80010000D03*
X90170000Y-82550000D03*
X87630000Y-82550000D03*
X90170000Y-85090000D03*
X87630000Y-85090000D03*
X90170000Y-87630000D03*
X87630000Y-87630000D03*
X90170000Y-90170000D03*
X87630000Y-90170000D03*
X90170000Y-92710000D03*
X87630000Y-92710000D03*
X90170000Y-95250000D03*
X87630000Y-95250000D03*
X90170000Y-97790000D03*
X87630000Y-97790000D03*
X90170000Y-100330000D03*
X87630000Y-100330000D03*
X90170000Y-102870000D03*
X87630000Y-102870000D03*
X90170000Y-105410000D03*
X87630000Y-105410000D03*
X90170000Y-107950000D03*
X87630000Y-107950000D03*
X90170000Y-110490000D03*
X87630000Y-110490000D03*
X90170000Y-113030000D03*
X87630000Y-113030000D03*
X90170000Y-115570000D03*
X87630000Y-115570000D03*
X90170000Y-118110000D03*
X87630000Y-118110000D03*
X90170000Y-120650000D03*
X87630000Y-120650000D03*
X90170000Y-123190000D03*
X87630000Y-123190000D03*
X90170000Y-125730000D03*
X87630000Y-125730000D03*
D22*
X162560000Y-137160000D03*
X127000000Y-101600000D03*
X91440000Y-66040000D03*
D23*
X115582710Y-121107200D03*
X113703100Y-128270000D03*
X132581534Y-121765326D03*
X145707100Y-121196100D03*
X148729700Y-141224000D03*
X119380000Y-84963000D03*
X128917700Y-91173300D03*
X102616000Y-121094510D03*
X105813860Y-125407420D03*
X85648800Y-92608400D03*
X120802400Y-93019880D03*
X120396000Y-91035000D03*
X128473200Y-76809600D03*
X172212000Y-96799400D03*
X121384060Y-122323860D03*
X105648760Y-85618320D03*
X108331000Y-82550000D03*
X131495800Y-94742000D03*
X149402800Y-98425000D03*
X129179460Y-108859460D03*
X95656400Y-102971600D03*
X93980000Y-109829600D03*
X139801600Y-87172800D03*
X142646400Y-80924400D03*
X143408400Y-73152000D03*
X141833600Y-93726000D03*
X137922000Y-97409000D03*
X131318000Y-97536000D03*
X124460000Y-109220000D03*
X132993529Y-111644829D03*
X134859922Y-114031922D03*
X107569000Y-71652000D03*
X114046000Y-91035000D03*
X156616400Y-97345449D03*
X107886500Y-109283500D03*
X107950000Y-103695500D03*
X117094000Y-126365000D03*
X134859922Y-114031922D03*
X134620000Y-90617000D03*
X134874000Y-77028000D03*
X108331000Y-82550000D03*
X105918000Y-80010000D03*
X159486600Y-108331000D03*
X92075000Y-138112500D03*
X161925000Y-65087500D03*
X152654000Y-130048000D03*
X154432000Y-131953000D03*
X152400000Y-133096000D03*
X98996500Y-125793500D03*
X100076000Y-129794000D03*
X132842000Y-127050800D03*
X134366000Y-125095000D03*
X139970000Y-112522000D03*
X134175500Y-116205000D03*
X116268500Y-63182500D03*
X112585500Y-62992000D03*
X152273000Y-82272000D03*
X122999500Y-127889000D03*
X147726400Y-123647200D03*
X155768000Y-127254000D03*
X108356400Y-142290800D03*
X98996500Y-138430000D03*
X128930400Y-83601600D03*
X123444000Y-97329500D03*
X147574000Y-113284000D03*
X154279600Y-111963200D03*
X140020000Y-109829600D03*
X139956500Y-121348500D03*
X139970000Y-123952000D03*
X158051500Y-121031000D03*
X153987500Y-91059000D03*
X132842000Y-81153000D03*
X153985000Y-109474000D03*
X158242000Y-134112000D03*
X107696000Y-135890000D03*
X165862000Y-123825000D03*
X168402000Y-118110000D03*
X165481000Y-114046000D03*
X152400000Y-76708000D03*
X166878000Y-110490000D03*
X99187000Y-74663300D03*
X113792000Y-135636000D03*
X95902780Y-100324920D03*
X113944400Y-134569200D03*
X120863000Y-134429500D03*
X163982400Y-134366000D03*
X170738800Y-127472400D03*
X170688000Y-119634000D03*
X99060000Y-69653000D03*
X114681000Y-69780000D03*
X130302000Y-69780000D03*
X122466098Y-114477800D03*
X95199200Y-119888000D03*
X106680000Y-132588000D03*
X102362000Y-131318000D03*
X155575000Y-132080000D03*
X164592000Y-115189000D03*
X164592000Y-124968000D03*
X143764000Y-61579803D03*
X109524800Y-65481200D03*
X142944185Y-62064760D03*
X125120400Y-65989200D03*
X165379400Y-136812020D03*
X162356800Y-115468400D03*
X147511796Y-95970762D03*
X147081250Y-98126035D03*
X147081250Y-96982151D03*
X148971000Y-100838010D03*
X150606760Y-99771200D03*
X157353000Y-102425500D03*
X159562798Y-102387400D03*
X111760000Y-136144000D03*
X157668000Y-125349000D03*
X157795000Y-79248000D03*
X157795000Y-93853000D03*
X157541000Y-110617000D03*
X158267400Y-119151400D03*
X171366198Y-105102976D03*
X167538400Y-108585000D03*
X170667688Y-102364540D03*
X112470682Y-135382518D03*
X107454000Y-140450000D03*
X107442000Y-141732000D03*
X115303290Y-130505200D03*
X116789200Y-133959600D03*
X114833400Y-118389400D03*
X115366800Y-134874000D03*
X116137223Y-125323357D03*
X130217259Y-122834196D03*
X143205200Y-121107200D03*
X117195600Y-132994400D03*
X115608100Y-124472700D03*
X130174998Y-121843800D03*
X143662400Y-110553543D03*
X115468400Y-133756400D03*
X132436000Y-73773000D03*
X132368000Y-78359000D03*
X153416000Y-118173500D03*
X152971500Y-112649000D03*
X151257000Y-136398000D03*
X166538000Y-112354000D03*
X168706821Y-95567500D03*
X167259000Y-121158000D03*
X165608000Y-128397000D03*
X168529000Y-123063000D03*
X170939450Y-115077788D03*
X170939450Y-113101102D03*
X110302040Y-80812640D03*
X103840280Y-83103720D03*
X133878897Y-82080629D03*
X108932906Y-78646280D03*
X154749500Y-84074000D03*
X153172160Y-96403160D03*
X107230395Y-83778509D03*
X132956300Y-95770700D03*
X132436000Y-87616000D03*
X132436000Y-92216000D03*
X158940500Y-137546090D03*
M02*
