G04 #@! TF.GenerationSoftware,KiCad,Pcbnew,(5.0.2)-1*
G04 #@! TF.CreationDate,2019-04-29T17:38:23-04:00*
G04 #@! TF.ProjectId,QPACE-DevelopmentBoard,51504143-452d-4446-9576-656c6f706d65,rev?*
G04 #@! TF.SameCoordinates,Original*
G04 #@! TF.FileFunction,Paste,Top*
G04 #@! TF.FilePolarity,Positive*
%FSLAX46Y46*%
G04 Gerber Fmt 4.6, Leading zero omitted, Abs format (unit mm)*
G04 Created by KiCad (PCBNEW (5.0.2)-1) date 4/29/2019 5:38:23 PM*
%MOMM*%
%LPD*%
G01*
G04 APERTURE LIST*
%ADD10C,0.100000*%
%ADD11R,0.280000X1.500000*%
%ADD12R,1.500000X0.280000*%
%ADD13R,1.300000X0.700000*%
%ADD14R,0.900000X0.500000*%
%ADD15R,0.700000X1.300000*%
%ADD16R,0.675000X0.250000*%
%ADD17R,0.250000X0.675000*%
%ADD18R,1.400000X2.100000*%
%ADD19R,1.000000X1.250000*%
%ADD20R,0.800000X0.750000*%
%ADD21R,1.250000X1.000000*%
%ADD22R,1.500000X2.000000*%
%ADD23R,3.800000X2.000000*%
%ADD24R,0.882000X0.537000*%
%ADD25R,1.050000X0.450000*%
%ADD26R,0.800000X0.900000*%
G04 APERTURE END LIST*
D10*
X78546356Y-63817611D02*
X78546356Y-113817611D01*
X78546356Y-63817611D02*
G75*
G02X81546356Y-60817611I3000000J0D01*
G01*
X140546356Y-60817611D02*
X81546356Y-60817611D01*
X140546356Y-60817611D02*
G75*
G02X143546356Y-63817611I0J-3000000D01*
G01*
X143546356Y-113817611D02*
X143546356Y-63817611D01*
X81546356Y-116817611D02*
G75*
G02X78546356Y-113817611I0J3000000D01*
G01*
X81546356Y-116817611D02*
X140546356Y-116817611D01*
X143546351Y-113822847D02*
G75*
G02X140546356Y-116817611I-2999995J5236D01*
G01*
D11*
G04 #@! TO.C,U3*
X121000000Y-89890000D03*
X121500000Y-89890000D03*
X122000000Y-89890000D03*
X122500000Y-89890000D03*
X123000000Y-89890000D03*
X123500000Y-89890000D03*
X124000000Y-89890000D03*
X124500000Y-89890000D03*
X125000000Y-89890000D03*
X125500000Y-89890000D03*
X126000000Y-89890000D03*
X126500000Y-89890000D03*
X127000000Y-89890000D03*
X127500000Y-89890000D03*
X128000000Y-89890000D03*
X128500000Y-89890000D03*
X129000000Y-89890000D03*
X129500000Y-89890000D03*
X130000000Y-89890000D03*
X130500000Y-89890000D03*
X131000000Y-89890000D03*
X131500000Y-89890000D03*
X132000000Y-89890000D03*
X132500000Y-89890000D03*
X133000000Y-89890000D03*
D12*
X134900000Y-91790000D03*
X134900000Y-92290000D03*
X134900000Y-92790000D03*
X134900000Y-93290000D03*
X134900000Y-93790000D03*
X134900000Y-94290000D03*
X134900000Y-94790000D03*
X134900000Y-95290000D03*
X134900000Y-95790000D03*
X134900000Y-96290000D03*
X134900000Y-96790000D03*
X134900000Y-97290000D03*
X134900000Y-97790000D03*
X134900000Y-98290000D03*
X134900000Y-98790000D03*
X134900000Y-99290000D03*
X134900000Y-99790000D03*
X134900000Y-100290000D03*
X134900000Y-100790000D03*
X134900000Y-101290000D03*
X134900000Y-101790000D03*
X134900000Y-102290000D03*
X134900000Y-102790000D03*
X134900000Y-103290000D03*
X134900000Y-103790000D03*
D11*
X133000000Y-105690000D03*
X132500000Y-105690000D03*
X132000000Y-105690000D03*
X131500000Y-105690000D03*
X131000000Y-105690000D03*
X130500000Y-105690000D03*
X130000000Y-105690000D03*
X129500000Y-105690000D03*
X129000000Y-105690000D03*
X128500000Y-105690000D03*
X128000000Y-105690000D03*
X127500000Y-105690000D03*
X127000000Y-105690000D03*
X126500000Y-105690000D03*
X126000000Y-105690000D03*
X125500000Y-105690000D03*
X125000000Y-105690000D03*
X124500000Y-105690000D03*
X124000000Y-105690000D03*
X123500000Y-105690000D03*
X123000000Y-105690000D03*
X122500000Y-105690000D03*
X122000000Y-105690000D03*
X121500000Y-105690000D03*
X121000000Y-105690000D03*
D12*
X119100000Y-103790000D03*
X119100000Y-103290000D03*
X119100000Y-102790000D03*
X119100000Y-102290000D03*
X119100000Y-101790000D03*
X119100000Y-101290000D03*
X119100000Y-100790000D03*
X119100000Y-100290000D03*
X119100000Y-99790000D03*
X119100000Y-99290000D03*
X119100000Y-98790000D03*
X119100000Y-98290000D03*
X119100000Y-97790000D03*
X119100000Y-97290000D03*
X119100000Y-96790000D03*
X119100000Y-96290000D03*
X119100000Y-95790000D03*
X119100000Y-95290000D03*
X119100000Y-94790000D03*
X119100000Y-94290000D03*
X119100000Y-93790000D03*
X119100000Y-93290000D03*
X119100000Y-92790000D03*
X119100000Y-92290000D03*
X119100000Y-91790000D03*
G04 #@! TD*
D13*
G04 #@! TO.C,R3*
X86106000Y-75626000D03*
X86106000Y-73726000D03*
G04 #@! TD*
D14*
G04 #@! TO.C,L1*
X112014000Y-93714000D03*
X112014000Y-92214000D03*
G04 #@! TD*
D13*
G04 #@! TO.C,R4*
X91948000Y-75118000D03*
X91948000Y-73218000D03*
G04 #@! TD*
D15*
G04 #@! TO.C,R1*
X132019000Y-68580000D03*
X133919000Y-68580000D03*
G04 #@! TD*
G04 #@! TO.C,R2*
X132050000Y-71000000D03*
X133950000Y-71000000D03*
G04 #@! TD*
G04 #@! TO.C,R5*
X97978000Y-70612000D03*
X96078000Y-70612000D03*
G04 #@! TD*
G04 #@! TO.C,R10*
X126812000Y-107696000D03*
X128712000Y-107696000D03*
G04 #@! TD*
G04 #@! TO.C,R12*
X131760000Y-81915000D03*
X129860000Y-81915000D03*
G04 #@! TD*
D13*
G04 #@! TO.C,R14*
X133985000Y-82230000D03*
X133985000Y-80330000D03*
G04 #@! TD*
D16*
G04 #@! TO.C,U1*
X133392500Y-73575000D03*
X133392500Y-74075000D03*
X133392500Y-74575000D03*
X130867500Y-73575000D03*
X130867500Y-74075000D03*
X133392500Y-75575000D03*
X133392500Y-75075000D03*
X130867500Y-75575000D03*
X130867500Y-75075000D03*
X130867500Y-74575000D03*
D17*
X132130000Y-75837500D03*
X132130000Y-73312500D03*
G04 #@! TD*
D13*
G04 #@! TO.C,R13*
X133985000Y-84140000D03*
X133985000Y-86040000D03*
G04 #@! TD*
D18*
G04 #@! TO.C,D1*
X85258000Y-92202000D03*
X80858000Y-92202000D03*
G04 #@! TD*
D19*
G04 #@! TO.C,C10*
X113903000Y-97282000D03*
X111903000Y-97282000D03*
G04 #@! TD*
G04 #@! TO.C,C7*
X112030000Y-88646000D03*
X114030000Y-88646000D03*
G04 #@! TD*
G04 #@! TO.C,C9*
X111903000Y-95250000D03*
X113903000Y-95250000D03*
G04 #@! TD*
G04 #@! TO.C,C11*
X111903000Y-99314000D03*
X113903000Y-99314000D03*
G04 #@! TD*
D20*
G04 #@! TO.C,C12*
X112153000Y-100965000D03*
X113653000Y-100965000D03*
G04 #@! TD*
D21*
G04 #@! TO.C,C5*
X120650000Y-68850000D03*
X120650000Y-70850000D03*
G04 #@! TD*
G04 #@! TO.C,C6*
X115824000Y-97774000D03*
X115824000Y-95774000D03*
G04 #@! TD*
D19*
G04 #@! TO.C,C8*
X114030000Y-90678000D03*
X112030000Y-90678000D03*
G04 #@! TD*
D21*
G04 #@! TO.C,C1*
X128524000Y-75000000D03*
X128524000Y-77000000D03*
G04 #@! TD*
G04 #@! TO.C,C3*
X109630000Y-73390000D03*
X109630000Y-71390000D03*
G04 #@! TD*
D19*
G04 #@! TO.C,C2*
X131000000Y-78000000D03*
X133000000Y-78000000D03*
G04 #@! TD*
D21*
G04 #@! TO.C,C4*
X120650000Y-75930000D03*
X120650000Y-73930000D03*
G04 #@! TD*
D22*
G04 #@! TO.C,Q2*
X100421597Y-74905000D03*
X105021597Y-74905000D03*
X102721597Y-74905000D03*
D23*
X102721597Y-68605000D03*
G04 #@! TD*
D13*
G04 #@! TO.C,R6*
X116205000Y-79690000D03*
X116205000Y-77790000D03*
G04 #@! TD*
G04 #@! TO.C,R7*
X112395000Y-77790000D03*
X112395000Y-79690000D03*
G04 #@! TD*
D15*
G04 #@! TO.C,R8*
X115885000Y-69215000D03*
X113985000Y-69215000D03*
G04 #@! TD*
G04 #@! TO.C,R9*
X121605000Y-87630000D03*
X123505000Y-87630000D03*
G04 #@! TD*
G04 #@! TO.C,R11*
X129860000Y-85725000D03*
X131760000Y-85725000D03*
G04 #@! TD*
D24*
G04 #@! TO.C,U2*
X114200000Y-72952500D03*
X114200000Y-73847500D03*
X114200000Y-74742500D03*
X114200000Y-75637500D03*
X115670000Y-72952500D03*
X115670000Y-73847500D03*
X115670000Y-74742500D03*
X115670000Y-75637500D03*
D25*
X117710000Y-72020000D03*
X117710000Y-72670000D03*
X117710000Y-73320000D03*
X117710000Y-73970000D03*
X117710000Y-74620000D03*
X117710000Y-75270000D03*
X117710000Y-75920000D03*
X117710000Y-76570000D03*
X112160000Y-76570000D03*
X112160000Y-75920000D03*
X112160000Y-75270000D03*
X112160000Y-74620000D03*
X112160000Y-73970000D03*
X112160000Y-73320000D03*
X112160000Y-72670000D03*
X112160000Y-72020000D03*
G04 #@! TD*
D26*
G04 #@! TO.C,Q1*
X95885000Y-73295000D03*
X96835000Y-75295000D03*
X94935000Y-75295000D03*
G04 #@! TD*
M02*
