%FSLAX45Y45*%
G04 Gerber Fmt 4.5, Leading zero omitted, Abs format (unit mm)*
G04 Created by KiCad (PCBNEW (5.0.2)-1) date 4/29/2019 5:38:55 PM*
%MOMM*%
%LPD*%
G01*
G04 APERTURE LIST*
%ADD10C,0.100000*%
%ADD11C,0.200000*%
%ADD12C,0.300000*%
G04 APERTURE END LIST*
D10*
X7854636Y-6381761D02*
X7854636Y-11381761D01*
X7854636Y-6381761D02*
G75*
G02X8154636Y-6081761I300000J0D01*
G01*
X14054636Y-6081761D02*
X8154636Y-6081761D01*
X14054636Y-6081761D02*
G75*
G02X14354636Y-6381761I0J-300000D01*
G01*
X14354636Y-11381761D02*
X14354636Y-6381761D01*
X8154636Y-11681761D02*
G75*
G02X7854636Y-11381761I0J300000D01*
G01*
X8154636Y-11681761D02*
X14054636Y-11681761D01*
X14354635Y-11382285D02*
G75*
G02X14054636Y-11681761I-300000J524D01*
G01*
D11*
X8524400Y-6822600D02*
X8544400Y-6842600D01*
X8544400Y-6822600D02*
X8524400Y-6842600D01*
X9007000Y-7305200D02*
X9027000Y-7325200D01*
X9027000Y-7305200D02*
X9007000Y-7325200D01*
X9042500Y-7569300D02*
X9062500Y-7589300D01*
X9062500Y-7569300D02*
X9042500Y-7589300D01*
X9134000Y-7076600D02*
X9154000Y-7096600D01*
X9154000Y-7076600D02*
X9134000Y-7096600D01*
X9197500Y-8600600D02*
X9217500Y-8620600D01*
X9217500Y-8600600D02*
X9197500Y-8620600D01*
X9769000Y-7229000D02*
X9789000Y-7249000D01*
X9789000Y-7229000D02*
X9769000Y-7249000D01*
X9832500Y-9794400D02*
X9852500Y-9814400D01*
X9852500Y-9794400D02*
X9832500Y-9814400D01*
X10170560Y-8092600D02*
X10190560Y-8112600D01*
X10190560Y-8092600D02*
X10170560Y-8112600D01*
X10213500Y-8918100D02*
X10233500Y-8938100D01*
X10233500Y-8918100D02*
X10213500Y-8938100D01*
X10213500Y-8918100D02*
X10233500Y-8938100D01*
X10233500Y-8918100D02*
X10213500Y-8938100D01*
X10404000Y-7152800D02*
X10424000Y-7172800D01*
X10424000Y-7152800D02*
X10404000Y-7172800D01*
X10429400Y-7279800D02*
X10449400Y-7299800D01*
X10449400Y-7279800D02*
X10429400Y-7299800D01*
X10556400Y-6746400D02*
X10576400Y-6766400D01*
X10576400Y-6746400D02*
X10556400Y-6766400D01*
X10556400Y-6898800D02*
X10576400Y-6918800D01*
X10576400Y-6898800D02*
X10556400Y-6918800D01*
X10569100Y-10518300D02*
X10589100Y-10538300D01*
X10589100Y-10518300D02*
X10569100Y-10538300D01*
X10708800Y-7356000D02*
X10728800Y-7376000D01*
X10728800Y-7356000D02*
X10708800Y-7376000D01*
X10734200Y-7889404D02*
X10754200Y-7909404D01*
X10754200Y-7889404D02*
X10734200Y-7909404D01*
X10759600Y-8016400D02*
X10779600Y-8036400D01*
X10779600Y-8016400D02*
X10759600Y-8036400D01*
X10759600Y-8016400D02*
X10779600Y-8036400D01*
X10779600Y-8016400D02*
X10759600Y-8036400D01*
X10810400Y-8322901D02*
X10830400Y-8342901D01*
X10830400Y-8322901D02*
X10810400Y-8342901D01*
X10814767Y-7311380D02*
X10834767Y-7331380D01*
X10834767Y-7311380D02*
X10814767Y-7331380D01*
X11013600Y-7457600D02*
X11033600Y-7477600D01*
X11033600Y-7457600D02*
X11013600Y-7477600D01*
X11013600Y-7533800D02*
X11033600Y-7553800D01*
X11033600Y-7533800D02*
X11013600Y-7553800D01*
X11039000Y-6975000D02*
X11059000Y-6995000D01*
X11059000Y-6975000D02*
X11039000Y-6995000D01*
X11039000Y-6975000D02*
X11059000Y-6995000D01*
X11059000Y-6975000D02*
X11039000Y-6995000D01*
X11039000Y-6975000D02*
X11059000Y-6995000D01*
X11059000Y-6975000D02*
X11039000Y-6995000D01*
X11351500Y-10219000D02*
X11371500Y-10239000D01*
X11371500Y-10219000D02*
X11351500Y-10239000D01*
X11394600Y-7762400D02*
X11414600Y-7782400D01*
X11414600Y-7762400D02*
X11394600Y-7782400D01*
X11572400Y-7051200D02*
X11592400Y-7071200D01*
X11592400Y-7051200D02*
X11572400Y-7071200D01*
X11572400Y-8626000D02*
X11592400Y-8646000D01*
X11592400Y-8626000D02*
X11572400Y-8646000D01*
X11572400Y-8626000D02*
X11592400Y-8646000D01*
X11592400Y-8626000D02*
X11572400Y-8646000D01*
X11572400Y-9870600D02*
X11592400Y-9890600D01*
X11592400Y-9870600D02*
X11572400Y-9890600D01*
X11597800Y-9413400D02*
X11617800Y-9433400D01*
X11617800Y-9413400D02*
X11597800Y-9433400D01*
X11674000Y-6898800D02*
X11694000Y-6918800D01*
X11694000Y-6898800D02*
X11674000Y-6918800D01*
X11761000Y-7647000D02*
X11781000Y-7667000D01*
X11781000Y-7647000D02*
X11761000Y-7667000D01*
X11784640Y-9819800D02*
X11804640Y-9839800D01*
X11804640Y-9819800D02*
X11784640Y-9839800D01*
X11786776Y-10219088D02*
X11806776Y-10239088D01*
X11806776Y-10219088D02*
X11786776Y-10239088D01*
X11826400Y-7762400D02*
X11846400Y-7782400D01*
X11846400Y-7762400D02*
X11826400Y-7782400D01*
X11902600Y-7309501D02*
X11922600Y-7329501D01*
X11922600Y-7309501D02*
X11902600Y-7329501D01*
X11928000Y-10734200D02*
X11948000Y-10754200D01*
X11948000Y-10734200D02*
X11928000Y-10754200D01*
X12004200Y-8448200D02*
X12024200Y-8468200D01*
X12024200Y-8448200D02*
X12004200Y-8468200D01*
X12053594Y-10163002D02*
X12073594Y-10183002D01*
X12073594Y-10163002D02*
X12053594Y-10183002D01*
X12080400Y-8397400D02*
X12100400Y-8417400D01*
X12100400Y-8397400D02*
X12080400Y-8417400D01*
X12089392Y-10445032D02*
X12109392Y-10465032D01*
X12109392Y-10445032D02*
X12089392Y-10465032D01*
X12118500Y-9515000D02*
X12138500Y-9535000D01*
X12138500Y-9515000D02*
X12118500Y-9535000D01*
X12133994Y-10660465D02*
X12153994Y-10680465D01*
X12153994Y-10660465D02*
X12133994Y-10680465D01*
X12142924Y-10364923D02*
X12162924Y-10384923D01*
X12162924Y-10364923D02*
X12142924Y-10384923D01*
X12156600Y-9159400D02*
X12176600Y-9179400D01*
X12176600Y-9159400D02*
X12156600Y-9179400D01*
X12182000Y-7762400D02*
X12202000Y-7782400D01*
X12202000Y-7762400D02*
X12182000Y-7782400D01*
X12182000Y-7762400D02*
X12202000Y-7782400D01*
X12202000Y-7762400D02*
X12182000Y-7782400D01*
X12182000Y-7762400D02*
X12202000Y-7782400D01*
X12202000Y-7762400D02*
X12182000Y-7782400D01*
X12182000Y-8219600D02*
X12202000Y-8239600D01*
X12202000Y-8219600D02*
X12182000Y-8239600D01*
X12207400Y-10073800D02*
X12227400Y-10093800D01*
X12227400Y-10073800D02*
X12207400Y-10093800D01*
X12258200Y-8219600D02*
X12278200Y-8239600D01*
X12278200Y-8219600D02*
X12258200Y-8239600D01*
X12334400Y-10378600D02*
X12354400Y-10398600D01*
X12354400Y-10378600D02*
X12334400Y-10398600D01*
X12385200Y-9997600D02*
X12405200Y-10017600D01*
X12405200Y-9997600D02*
X12385200Y-10017600D01*
X12385200Y-9997600D02*
X12405200Y-10017600D01*
X12405200Y-9997600D02*
X12385200Y-10017600D01*
X12551276Y-9526724D02*
X12571276Y-9546724D01*
X12571276Y-9526724D02*
X12551276Y-9546724D01*
X12563000Y-7991000D02*
X12583000Y-8011000D01*
X12583000Y-7991000D02*
X12563000Y-8011000D01*
X12588400Y-8245000D02*
X12608400Y-8265000D01*
X12608400Y-8245000D02*
X12588400Y-8265000D01*
X12639200Y-9642000D02*
X12659200Y-9662000D01*
X12659200Y-9642000D02*
X12639200Y-9662000D01*
X12663765Y-9109435D02*
X12683765Y-9129435D01*
X12683765Y-9109435D02*
X12663765Y-9129435D01*
X12791600Y-8397400D02*
X12811600Y-8417400D01*
X12811600Y-8397400D02*
X12791600Y-8417400D01*
X12817000Y-7813200D02*
X12837000Y-7833200D01*
X12837000Y-7813200D02*
X12817000Y-7833200D01*
X12842400Y-7152800D02*
X12862400Y-7172800D01*
X12862400Y-7152800D02*
X12842400Y-7172800D01*
X12861200Y-10759600D02*
X12881200Y-10779600D01*
X12881200Y-10759600D02*
X12861200Y-10779600D01*
X12867800Y-7229000D02*
X12887800Y-7249000D01*
X12887800Y-7229000D02*
X12867800Y-7249000D01*
X12869500Y-7889400D02*
X12889500Y-7909400D01*
X12889500Y-7889400D02*
X12869500Y-7909400D01*
X12893200Y-7813200D02*
X12913200Y-7833200D01*
X12913200Y-7813200D02*
X12893200Y-7833200D01*
X12944000Y-10404000D02*
X12964000Y-10424000D01*
X12964000Y-10404000D02*
X12944000Y-10424000D01*
X12976000Y-8562500D02*
X12996000Y-8582500D01*
X12996000Y-8562500D02*
X12976000Y-8582500D01*
X12994800Y-7229000D02*
X13014800Y-7249000D01*
X13014800Y-7229000D02*
X12994800Y-7249000D01*
X12994800Y-7356000D02*
X13014800Y-7376000D01*
X13014800Y-7356000D02*
X12994800Y-7376000D01*
X13012874Y-10409374D02*
X13032874Y-10429374D01*
X13032874Y-10409374D02*
X13012874Y-10429374D01*
X13071000Y-7610000D02*
X13091000Y-7630000D01*
X13091000Y-7610000D02*
X13071000Y-7630000D01*
X13071000Y-8422800D02*
X13091000Y-8442800D01*
X13091000Y-8422800D02*
X13071000Y-8442800D01*
X13096400Y-6922500D02*
X13116400Y-6942500D01*
X13116400Y-6922500D02*
X13096400Y-6942500D01*
X13096400Y-7152800D02*
X13116400Y-7172800D01*
X13116400Y-7152800D02*
X13096400Y-7172800D01*
X13155955Y-9329899D02*
X13175955Y-9349899D01*
X13175955Y-9329899D02*
X13155955Y-9349899D01*
X13197999Y-9705500D02*
X13217999Y-9725500D01*
X13217999Y-9705500D02*
X13197999Y-9725500D01*
X13198000Y-7256100D02*
X13218000Y-7276100D01*
X13218000Y-7256100D02*
X13198000Y-7276100D01*
X13198000Y-9464201D02*
X13218000Y-9484201D01*
X13218000Y-9464201D02*
X13198000Y-9484201D01*
X13203000Y-7321250D02*
X13223000Y-7341250D01*
X13223000Y-7321250D02*
X13203000Y-7341250D01*
X13261497Y-9769000D02*
X13281497Y-9789000D01*
X13281497Y-9769000D02*
X13261497Y-9789000D01*
X13274199Y-9466499D02*
X13294199Y-9486499D01*
X13294199Y-9466499D02*
X13274199Y-9486499D01*
X13274200Y-7635400D02*
X13294200Y-7655400D01*
X13294200Y-7635400D02*
X13274200Y-7655400D01*
X13282841Y-8822028D02*
X13302841Y-8842028D01*
X13302841Y-8822028D02*
X13282841Y-8842028D01*
X13310847Y-9883799D02*
X13330847Y-9903799D01*
X13330847Y-9883799D02*
X13310847Y-9903799D01*
X13350400Y-9311800D02*
X13370400Y-9331800D01*
X13370400Y-9311800D02*
X13350400Y-9331800D01*
X13350400Y-10023000D02*
X13370400Y-10043000D01*
X13370400Y-10023000D02*
X13350400Y-10043000D01*
X13377500Y-9819800D02*
X13397500Y-9839800D01*
X13397500Y-9819800D02*
X13377500Y-9839800D01*
X13502800Y-9057800D02*
X13522800Y-9077800D01*
X13522800Y-9057800D02*
X13502800Y-9077800D01*
X13528200Y-7559200D02*
X13548200Y-7579200D01*
X13548200Y-7559200D02*
X13528200Y-7579200D01*
X13528200Y-7787800D02*
X13548200Y-7807800D01*
X13548200Y-7787800D02*
X13528200Y-7807800D01*
X13607001Y-11010999D02*
X13627001Y-11030999D01*
X13627001Y-11010999D02*
X13607001Y-11030999D01*
X13680600Y-10404000D02*
X13700600Y-10424000D01*
X13700600Y-10404000D02*
X13680600Y-10424000D01*
X13798399Y-9032400D02*
X13818399Y-9052400D01*
X13818399Y-9032400D02*
X13798399Y-9052400D01*
X13833000Y-7800500D02*
X13853000Y-7820500D01*
X13853000Y-7800500D02*
X13833000Y-7820500D01*
X13858400Y-7610000D02*
X13878400Y-7630000D01*
X13878400Y-7610000D02*
X13858400Y-7630000D01*
X13858401Y-9032400D02*
X13878401Y-9052400D01*
X13878401Y-9032400D02*
X13858401Y-9052400D01*
X13896500Y-8118000D02*
X13916500Y-8138000D01*
X13916500Y-8118000D02*
X13896500Y-8138000D01*
X12486000Y-7068500D02*
G75*
G03X12486000Y-7068500I-40000J0D01*
G01*
X12486000Y-7556500D02*
G75*
G03X12486000Y-7556500I-40000J0D01*
G01*
X8128000Y-8535200D02*
X8128000Y-8635200D01*
X8078000Y-8585200D02*
X8178000Y-8585200D01*
X8128000Y-8789200D02*
X8128000Y-8889200D01*
X8078000Y-8839200D02*
X8178000Y-8839200D01*
X8966200Y-7697000D02*
X8966200Y-7797000D01*
X8916200Y-7747000D02*
X9016200Y-7747000D01*
X8966200Y-9170200D02*
X8966200Y-9270200D01*
X8916200Y-9220200D02*
X9016200Y-9220200D01*
X8966200Y-9398800D02*
X8966200Y-9498800D01*
X8916200Y-9448800D02*
X9016200Y-9448800D01*
X8966200Y-10872000D02*
X8966200Y-10972000D01*
X8916200Y-10922000D02*
X9016200Y-10922000D01*
X10922000Y-7697000D02*
X10922000Y-7797000D01*
X10872000Y-7747000D02*
X10972000Y-7747000D01*
X10922000Y-9170200D02*
X10922000Y-9270200D01*
X10872000Y-9220200D02*
X10972000Y-9220200D01*
X11303000Y-11443500D02*
X11303000Y-11543500D01*
X11253000Y-11493500D02*
X11353000Y-11493500D01*
X11557000Y-11443500D02*
X11557000Y-11543500D01*
X11507000Y-11493500D02*
X11607000Y-11493500D01*
X11811000Y-11443500D02*
X11811000Y-11543500D01*
X11761000Y-11493500D02*
X11861000Y-11493500D01*
X12065000Y-11443500D02*
X12065000Y-11543500D01*
X12015000Y-11493500D02*
X12115000Y-11493500D01*
X10922000Y-9398800D02*
X10922000Y-9498800D01*
X10872000Y-9448800D02*
X10972000Y-9448800D01*
X10922000Y-10872000D02*
X10922000Y-10972000D01*
X10872000Y-10922000D02*
X10972000Y-10922000D01*
X8692000Y-6255000D02*
X8692000Y-6355000D01*
X8642000Y-6305000D02*
X8742000Y-6305000D01*
X8692000Y-6509000D02*
X8692000Y-6609000D01*
X8642000Y-6559000D02*
X8742000Y-6559000D01*
X8946000Y-6255000D02*
X8946000Y-6355000D01*
X8896000Y-6305000D02*
X8996000Y-6305000D01*
X8946000Y-6509000D02*
X8946000Y-6609000D01*
X8896000Y-6559000D02*
X8996000Y-6559000D01*
X9200000Y-6255000D02*
X9200000Y-6355000D01*
X9150000Y-6305000D02*
X9250000Y-6305000D01*
X9200000Y-6509000D02*
X9200000Y-6609000D01*
X9150000Y-6559000D02*
X9250000Y-6559000D01*
X9454000Y-6255000D02*
X9454000Y-6355000D01*
X9404000Y-6305000D02*
X9504000Y-6305000D01*
X9454000Y-6509000D02*
X9454000Y-6609000D01*
X9404000Y-6559000D02*
X9504000Y-6559000D01*
X9708000Y-6255000D02*
X9708000Y-6355000D01*
X9658000Y-6305000D02*
X9758000Y-6305000D01*
X9708000Y-6509000D02*
X9708000Y-6609000D01*
X9658000Y-6559000D02*
X9758000Y-6559000D01*
X9962000Y-6255000D02*
X9962000Y-6355000D01*
X9912000Y-6305000D02*
X10012000Y-6305000D01*
X9962000Y-6509000D02*
X9962000Y-6609000D01*
X9912000Y-6559000D02*
X10012000Y-6559000D01*
X10216000Y-6255000D02*
X10216000Y-6355000D01*
X10166000Y-6305000D02*
X10266000Y-6305000D01*
X10216000Y-6509000D02*
X10216000Y-6609000D01*
X10166000Y-6559000D02*
X10266000Y-6559000D01*
X10470000Y-6255000D02*
X10470000Y-6355000D01*
X10420000Y-6305000D02*
X10520000Y-6305000D01*
X10470000Y-6509000D02*
X10470000Y-6609000D01*
X10420000Y-6559000D02*
X10520000Y-6559000D01*
X10724000Y-6255000D02*
X10724000Y-6355000D01*
X10674000Y-6305000D02*
X10774000Y-6305000D01*
X10724000Y-6509000D02*
X10724000Y-6609000D01*
X10674000Y-6559000D02*
X10774000Y-6559000D01*
X10978000Y-6255000D02*
X10978000Y-6355000D01*
X10928000Y-6305000D02*
X11028000Y-6305000D01*
X10978000Y-6509000D02*
X10978000Y-6609000D01*
X10928000Y-6559000D02*
X11028000Y-6559000D01*
X11232000Y-6255000D02*
X11232000Y-6355000D01*
X11182000Y-6305000D02*
X11282000Y-6305000D01*
X11232000Y-6509000D02*
X11232000Y-6609000D01*
X11182000Y-6559000D02*
X11282000Y-6559000D01*
X11486000Y-6255000D02*
X11486000Y-6355000D01*
X11436000Y-6305000D02*
X11536000Y-6305000D01*
X11486000Y-6509000D02*
X11486000Y-6609000D01*
X11436000Y-6559000D02*
X11536000Y-6559000D01*
X11740000Y-6255000D02*
X11740000Y-6355000D01*
X11690000Y-6305000D02*
X11790000Y-6305000D01*
X11740000Y-6509000D02*
X11740000Y-6609000D01*
X11690000Y-6559000D02*
X11790000Y-6559000D01*
X11994000Y-6255000D02*
X11994000Y-6355000D01*
X11944000Y-6305000D02*
X12044000Y-6305000D01*
X11994000Y-6509000D02*
X11994000Y-6609000D01*
X11944000Y-6559000D02*
X12044000Y-6559000D01*
X12248000Y-6255000D02*
X12248000Y-6355000D01*
X12198000Y-6305000D02*
X12298000Y-6305000D01*
X12248000Y-6509000D02*
X12248000Y-6609000D01*
X12198000Y-6559000D02*
X12298000Y-6559000D01*
X12502000Y-6255000D02*
X12502000Y-6355000D01*
X12452000Y-6305000D02*
X12552000Y-6305000D01*
X12502000Y-6509000D02*
X12502000Y-6609000D01*
X12452000Y-6559000D02*
X12552000Y-6559000D01*
X12756000Y-6255000D02*
X12756000Y-6355000D01*
X12706000Y-6305000D02*
X12806000Y-6305000D01*
X12756000Y-6509000D02*
X12756000Y-6609000D01*
X12706000Y-6559000D02*
X12806000Y-6559000D01*
X13010000Y-6255000D02*
X13010000Y-6355000D01*
X12960000Y-6305000D02*
X13060000Y-6305000D01*
X13010000Y-6509000D02*
X13010000Y-6609000D01*
X12960000Y-6559000D02*
X13060000Y-6559000D01*
X13264000Y-6255000D02*
X13264000Y-6355000D01*
X13214000Y-6305000D02*
X13314000Y-6305000D01*
X13264000Y-6509000D02*
X13264000Y-6609000D01*
X13214000Y-6559000D02*
X13314000Y-6559000D01*
X13518000Y-6255000D02*
X13518000Y-6355000D01*
X13468000Y-6305000D02*
X13568000Y-6305000D01*
X13518000Y-6509000D02*
X13518000Y-6609000D01*
X13468000Y-6559000D02*
X13568000Y-6559000D01*
X11303000Y-11189500D02*
X11303000Y-11289500D01*
X11253000Y-11239500D02*
X11353000Y-11239500D01*
X11557000Y-11189500D02*
X11557000Y-11289500D01*
X11507000Y-11239500D02*
X11607000Y-11239500D01*
X11811000Y-11189500D02*
X11811000Y-11289500D01*
X11761000Y-11239500D02*
X11861000Y-11239500D01*
X12065000Y-11189500D02*
X12065000Y-11289500D01*
X12015000Y-11239500D02*
X12115000Y-11239500D01*
X13906500Y-9348000D02*
X13906500Y-9448000D01*
X13856500Y-9398000D02*
X13956500Y-9398000D01*
X13906500Y-9602000D02*
X13906500Y-9702000D01*
X13856500Y-9652000D02*
X13956500Y-9652000D01*
X13906500Y-9856000D02*
X13906500Y-9956000D01*
X13856500Y-9906000D02*
X13956500Y-9906000D01*
X13906500Y-10110000D02*
X13906500Y-10210000D01*
X13856500Y-10160000D02*
X13956500Y-10160000D01*
X13906500Y-10364000D02*
X13906500Y-10464000D01*
X13856500Y-10414000D02*
X13956500Y-10414000D01*
X13906500Y-10618000D02*
X13906500Y-10718000D01*
X13856500Y-10668000D02*
X13956500Y-10668000D01*
X12573000Y-11189500D02*
X12573000Y-11289500D01*
X12523000Y-11239500D02*
X12623000Y-11239500D01*
X12573000Y-11443500D02*
X12573000Y-11543500D01*
X12523000Y-11493500D02*
X12623000Y-11493500D01*
X12827000Y-11189500D02*
X12827000Y-11289500D01*
X12777000Y-11239500D02*
X12877000Y-11239500D01*
X12827000Y-11443500D02*
X12827000Y-11543500D01*
X12777000Y-11493500D02*
X12877000Y-11493500D01*
X13081000Y-11189500D02*
X13081000Y-11289500D01*
X13031000Y-11239500D02*
X13131000Y-11239500D01*
X13081000Y-11443500D02*
X13081000Y-11543500D01*
X13031000Y-11493500D02*
X13131000Y-11493500D01*
X14160500Y-9348000D02*
X14160500Y-9448000D01*
X14110500Y-9398000D02*
X14210500Y-9398000D01*
X14160500Y-9602000D02*
X14160500Y-9702000D01*
X14110500Y-9652000D02*
X14210500Y-9652000D01*
X14160500Y-9856000D02*
X14160500Y-9956000D01*
X14110500Y-9906000D02*
X14210500Y-9906000D01*
X14160500Y-10110000D02*
X14160500Y-10210000D01*
X14110500Y-10160000D02*
X14210500Y-10160000D01*
X14160500Y-10364000D02*
X14160500Y-10464000D01*
X14110500Y-10414000D02*
X14210500Y-10414000D01*
X14160500Y-10618000D02*
X14160500Y-10718000D01*
X14110500Y-10668000D02*
X14210500Y-10668000D01*
X14160500Y-8078000D02*
X14160500Y-8178000D01*
X14110500Y-8128000D02*
X14210500Y-8128000D01*
X14160500Y-8332000D02*
X14160500Y-8432000D01*
X14110500Y-8382000D02*
X14210500Y-8382000D01*
X14160500Y-8586000D02*
X14160500Y-8686000D01*
X14110500Y-8636000D02*
X14210500Y-8636000D01*
X14160500Y-8840000D02*
X14160500Y-8940000D01*
X14110500Y-8890000D02*
X14210500Y-8890000D01*
X14160500Y-7062000D02*
X14160500Y-7162000D01*
X14110500Y-7112000D02*
X14210500Y-7112000D01*
X14160500Y-7316000D02*
X14160500Y-7416000D01*
X14110500Y-7366000D02*
X14210500Y-7366000D01*
X14160500Y-7570000D02*
X14160500Y-7670000D01*
X14110500Y-7620000D02*
X14210500Y-7620000D01*
X8128000Y-7316000D02*
X8128000Y-7416000D01*
X8078000Y-7366000D02*
X8178000Y-7366000D01*
X8128000Y-7570000D02*
X8128000Y-7670000D01*
X8078000Y-7620000D02*
X8178000Y-7620000D01*
X8128000Y-7824000D02*
X8128000Y-7924000D01*
X8078000Y-7874000D02*
X8178000Y-7874000D01*
X8424427Y-10106427D02*
X8424427Y-10021573D01*
X8339573Y-10021573D01*
X8339573Y-10106427D01*
X8424427Y-10106427D01*
X8424427Y-10456427D02*
X8424427Y-10371573D01*
X8339573Y-10371573D01*
X8339573Y-10456427D01*
X8424427Y-10456427D01*
X8424427Y-10806427D02*
X8424427Y-10721573D01*
X8339573Y-10721573D01*
X8339573Y-10806427D01*
X8424427Y-10806427D01*
D12*
X8136064Y-12152475D02*
X8136064Y-11852475D01*
X8207493Y-11852475D01*
X8250350Y-11866761D01*
X8278921Y-11895333D01*
X8293207Y-11923904D01*
X8307493Y-11981047D01*
X8307493Y-12023904D01*
X8293207Y-12081047D01*
X8278921Y-12109618D01*
X8250350Y-12138190D01*
X8207493Y-12152475D01*
X8136064Y-12152475D01*
X8436064Y-12152475D02*
X8436064Y-11952475D01*
X8436064Y-12009618D02*
X8450350Y-11981047D01*
X8464636Y-11966761D01*
X8493207Y-11952475D01*
X8521778Y-11952475D01*
X8621778Y-12152475D02*
X8621778Y-11952475D01*
X8621778Y-11852475D02*
X8607493Y-11866761D01*
X8621778Y-11881047D01*
X8636064Y-11866761D01*
X8621778Y-11852475D01*
X8621778Y-11881047D01*
X8807493Y-12152475D02*
X8778921Y-12138190D01*
X8764636Y-12109618D01*
X8764636Y-11852475D01*
X8964636Y-12152475D02*
X8936064Y-12138190D01*
X8921778Y-12109618D01*
X8921778Y-11852475D01*
X9307493Y-12152475D02*
X9307493Y-11852475D01*
X9407493Y-12066761D01*
X9507493Y-11852475D01*
X9507493Y-12152475D01*
X9778921Y-12152475D02*
X9778921Y-11995333D01*
X9764636Y-11966761D01*
X9736064Y-11952475D01*
X9678921Y-11952475D01*
X9650350Y-11966761D01*
X9778921Y-12138190D02*
X9750350Y-12152475D01*
X9678921Y-12152475D01*
X9650350Y-12138190D01*
X9636064Y-12109618D01*
X9636064Y-12081047D01*
X9650350Y-12052475D01*
X9678921Y-12038190D01*
X9750350Y-12038190D01*
X9778921Y-12023904D01*
X9921778Y-11952475D02*
X9921778Y-12252475D01*
X9921778Y-11966761D02*
X9950350Y-11952475D01*
X10007493Y-11952475D01*
X10036064Y-11966761D01*
X10050350Y-11981047D01*
X10064636Y-12009618D01*
X10064636Y-12095333D01*
X10050350Y-12123904D01*
X10036064Y-12138190D01*
X10007493Y-12152475D01*
X9950350Y-12152475D01*
X9921778Y-12138190D01*
X10193207Y-12123904D02*
X10207493Y-12138190D01*
X10193207Y-12152475D01*
X10178921Y-12138190D01*
X10193207Y-12123904D01*
X10193207Y-12152475D01*
X10193207Y-11966761D02*
X10207493Y-11981047D01*
X10193207Y-11995333D01*
X10178921Y-11981047D01*
X10193207Y-11966761D01*
X10193207Y-11995333D01*
X7829635Y-12636761D02*
X7849635Y-12656761D01*
X7849635Y-12636761D02*
X7829635Y-12656761D01*
X8193207Y-12482475D02*
X8221778Y-12482475D01*
X8250350Y-12496761D01*
X8264635Y-12511047D01*
X8278921Y-12539618D01*
X8293207Y-12596761D01*
X8293207Y-12668190D01*
X8278921Y-12725333D01*
X8264635Y-12753904D01*
X8250350Y-12768190D01*
X8221778Y-12782475D01*
X8193207Y-12782475D01*
X8164635Y-12768190D01*
X8150350Y-12753904D01*
X8136064Y-12725333D01*
X8121778Y-12668190D01*
X8121778Y-12596761D01*
X8136064Y-12539618D01*
X8150350Y-12511047D01*
X8164635Y-12496761D01*
X8193207Y-12482475D01*
X8421778Y-12753904D02*
X8436064Y-12768190D01*
X8421778Y-12782475D01*
X8407493Y-12768190D01*
X8421778Y-12753904D01*
X8421778Y-12782475D01*
X8550350Y-12511047D02*
X8564636Y-12496761D01*
X8593207Y-12482475D01*
X8664636Y-12482475D01*
X8693207Y-12496761D01*
X8707493Y-12511047D01*
X8721778Y-12539618D01*
X8721778Y-12568190D01*
X8707493Y-12611047D01*
X8536064Y-12782475D01*
X8721778Y-12782475D01*
X8907493Y-12482475D02*
X8936064Y-12482475D01*
X8964636Y-12496761D01*
X8978921Y-12511047D01*
X8993207Y-12539618D01*
X9007493Y-12596761D01*
X9007493Y-12668190D01*
X8993207Y-12725333D01*
X8978921Y-12753904D01*
X8964636Y-12768190D01*
X8936064Y-12782475D01*
X8907493Y-12782475D01*
X8878921Y-12768190D01*
X8864636Y-12753904D01*
X8850350Y-12725333D01*
X8836064Y-12668190D01*
X8836064Y-12596761D01*
X8850350Y-12539618D01*
X8864636Y-12511047D01*
X8878921Y-12496761D01*
X8907493Y-12482475D01*
X9136064Y-12782475D02*
X9136064Y-12582475D01*
X9136064Y-12611047D02*
X9150350Y-12596761D01*
X9178921Y-12582475D01*
X9221778Y-12582475D01*
X9250350Y-12596761D01*
X9264636Y-12625333D01*
X9264636Y-12782475D01*
X9264636Y-12625333D02*
X9278921Y-12596761D01*
X9307493Y-12582475D01*
X9350350Y-12582475D01*
X9378921Y-12596761D01*
X9393207Y-12625333D01*
X9393207Y-12782475D01*
X9536064Y-12782475D02*
X9536064Y-12582475D01*
X9536064Y-12611047D02*
X9550350Y-12596761D01*
X9578921Y-12582475D01*
X9621778Y-12582475D01*
X9650350Y-12596761D01*
X9664636Y-12625333D01*
X9664636Y-12782475D01*
X9664636Y-12625333D02*
X9678921Y-12596761D01*
X9707493Y-12582475D01*
X9750350Y-12582475D01*
X9778921Y-12596761D01*
X9793207Y-12625333D01*
X9793207Y-12782475D01*
X10378921Y-12468190D02*
X10121778Y-12853904D01*
X10764636Y-12482475D02*
X10793207Y-12482475D01*
X10821778Y-12496761D01*
X10836064Y-12511047D01*
X10850350Y-12539618D01*
X10864636Y-12596761D01*
X10864636Y-12668190D01*
X10850350Y-12725333D01*
X10836064Y-12753904D01*
X10821778Y-12768190D01*
X10793207Y-12782475D01*
X10764636Y-12782475D01*
X10736064Y-12768190D01*
X10721778Y-12753904D01*
X10707493Y-12725333D01*
X10693207Y-12668190D01*
X10693207Y-12596761D01*
X10707493Y-12539618D01*
X10721778Y-12511047D01*
X10736064Y-12496761D01*
X10764636Y-12482475D01*
X10993207Y-12753904D02*
X11007493Y-12768190D01*
X10993207Y-12782475D01*
X10978921Y-12768190D01*
X10993207Y-12753904D01*
X10993207Y-12782475D01*
X11193207Y-12482475D02*
X11221778Y-12482475D01*
X11250350Y-12496761D01*
X11264635Y-12511047D01*
X11278921Y-12539618D01*
X11293207Y-12596761D01*
X11293207Y-12668190D01*
X11278921Y-12725333D01*
X11264635Y-12753904D01*
X11250350Y-12768190D01*
X11221778Y-12782475D01*
X11193207Y-12782475D01*
X11164636Y-12768190D01*
X11150350Y-12753904D01*
X11136064Y-12725333D01*
X11121778Y-12668190D01*
X11121778Y-12596761D01*
X11136064Y-12539618D01*
X11150350Y-12511047D01*
X11164636Y-12496761D01*
X11193207Y-12482475D01*
X11478921Y-12482475D02*
X11507493Y-12482475D01*
X11536064Y-12496761D01*
X11550350Y-12511047D01*
X11564635Y-12539618D01*
X11578921Y-12596761D01*
X11578921Y-12668190D01*
X11564635Y-12725333D01*
X11550350Y-12753904D01*
X11536064Y-12768190D01*
X11507493Y-12782475D01*
X11478921Y-12782475D01*
X11450350Y-12768190D01*
X11436064Y-12753904D01*
X11421778Y-12725333D01*
X11407493Y-12668190D01*
X11407493Y-12596761D01*
X11421778Y-12539618D01*
X11436064Y-12511047D01*
X11450350Y-12496761D01*
X11478921Y-12482475D01*
X11750350Y-12611047D02*
X11721778Y-12596761D01*
X11707493Y-12582475D01*
X11693207Y-12553904D01*
X11693207Y-12539618D01*
X11707493Y-12511047D01*
X11721778Y-12496761D01*
X11750350Y-12482475D01*
X11807493Y-12482475D01*
X11836064Y-12496761D01*
X11850350Y-12511047D01*
X11864635Y-12539618D01*
X11864635Y-12553904D01*
X11850350Y-12582475D01*
X11836064Y-12596761D01*
X11807493Y-12611047D01*
X11750350Y-12611047D01*
X11721778Y-12625333D01*
X11707493Y-12639618D01*
X11693207Y-12668190D01*
X11693207Y-12725333D01*
X11707493Y-12753904D01*
X11721778Y-12768190D01*
X11750350Y-12782475D01*
X11807493Y-12782475D01*
X11836064Y-12768190D01*
X11850350Y-12753904D01*
X11864635Y-12725333D01*
X11864635Y-12668190D01*
X11850350Y-12639618D01*
X11836064Y-12625333D01*
X11807493Y-12611047D01*
X11978921Y-12482475D02*
X11978921Y-12539618D01*
X12093207Y-12482475D02*
X12093207Y-12539618D01*
X12536064Y-12896761D02*
X12521778Y-12882475D01*
X12493207Y-12839618D01*
X12478921Y-12811047D01*
X12464635Y-12768190D01*
X12450350Y-12696761D01*
X12450350Y-12639618D01*
X12464635Y-12568190D01*
X12478921Y-12525333D01*
X12493207Y-12496761D01*
X12521778Y-12453904D01*
X12536064Y-12439618D01*
X12807493Y-12782475D02*
X12636064Y-12782475D01*
X12721778Y-12782475D02*
X12721778Y-12482475D01*
X12693207Y-12525333D01*
X12664635Y-12553904D01*
X12636064Y-12568190D01*
X12993207Y-12482475D02*
X13021778Y-12482475D01*
X13050350Y-12496761D01*
X13064635Y-12511047D01*
X13078921Y-12539618D01*
X13093207Y-12596761D01*
X13093207Y-12668190D01*
X13078921Y-12725333D01*
X13064635Y-12753904D01*
X13050350Y-12768190D01*
X13021778Y-12782475D01*
X12993207Y-12782475D01*
X12964635Y-12768190D01*
X12950350Y-12753904D01*
X12936064Y-12725333D01*
X12921778Y-12668190D01*
X12921778Y-12596761D01*
X12936064Y-12539618D01*
X12950350Y-12511047D01*
X12964635Y-12496761D01*
X12993207Y-12482475D01*
X13378921Y-12782475D02*
X13207493Y-12782475D01*
X13293207Y-12782475D02*
X13293207Y-12482475D01*
X13264635Y-12525333D01*
X13236064Y-12553904D01*
X13207493Y-12568190D01*
X13736064Y-12782475D02*
X13736064Y-12482475D01*
X13864635Y-12782475D02*
X13864635Y-12625333D01*
X13850350Y-12596761D01*
X13821778Y-12582475D01*
X13778921Y-12582475D01*
X13750350Y-12596761D01*
X13736064Y-12611047D01*
X14050350Y-12782475D02*
X14021778Y-12768190D01*
X14007493Y-12753904D01*
X13993207Y-12725333D01*
X13993207Y-12639618D01*
X14007493Y-12611047D01*
X14021778Y-12596761D01*
X14050350Y-12582475D01*
X14093207Y-12582475D01*
X14121778Y-12596761D01*
X14136064Y-12611047D01*
X14150350Y-12639618D01*
X14150350Y-12725333D01*
X14136064Y-12753904D01*
X14121778Y-12768190D01*
X14093207Y-12782475D01*
X14050350Y-12782475D01*
X14321778Y-12782475D02*
X14293207Y-12768190D01*
X14278921Y-12739618D01*
X14278921Y-12482475D01*
X14550350Y-12768190D02*
X14521778Y-12782475D01*
X14464635Y-12782475D01*
X14436064Y-12768190D01*
X14421778Y-12739618D01*
X14421778Y-12625333D01*
X14436064Y-12596761D01*
X14464635Y-12582475D01*
X14521778Y-12582475D01*
X14550350Y-12596761D01*
X14564635Y-12625333D01*
X14564635Y-12653904D01*
X14421778Y-12682475D01*
X14678921Y-12768190D02*
X14707493Y-12782475D01*
X14764635Y-12782475D01*
X14793207Y-12768190D01*
X14807493Y-12739618D01*
X14807493Y-12725333D01*
X14793207Y-12696761D01*
X14764635Y-12682475D01*
X14721778Y-12682475D01*
X14693207Y-12668190D01*
X14678921Y-12639618D01*
X14678921Y-12625333D01*
X14693207Y-12596761D01*
X14721778Y-12582475D01*
X14764635Y-12582475D01*
X14793207Y-12596761D01*
X14907493Y-12896761D02*
X14921778Y-12882475D01*
X14950350Y-12839618D01*
X14964635Y-12811047D01*
X14978921Y-12768190D01*
X14993207Y-12696761D01*
X14993207Y-12639618D01*
X14978921Y-12568190D01*
X14964635Y-12525333D01*
X14950350Y-12496761D01*
X14921778Y-12453904D01*
X14907493Y-12439618D01*
X7849635Y-13042761D02*
G75*
G03X7849635Y-13042761I-40000J0D01*
G01*
X8193207Y-12878475D02*
X8221778Y-12878475D01*
X8250350Y-12892761D01*
X8264635Y-12907047D01*
X8278921Y-12935618D01*
X8293207Y-12992761D01*
X8293207Y-13064190D01*
X8278921Y-13121333D01*
X8264635Y-13149904D01*
X8250350Y-13164190D01*
X8221778Y-13178475D01*
X8193207Y-13178475D01*
X8164635Y-13164190D01*
X8150350Y-13149904D01*
X8136064Y-13121333D01*
X8121778Y-13064190D01*
X8121778Y-12992761D01*
X8136064Y-12935618D01*
X8150350Y-12907047D01*
X8164635Y-12892761D01*
X8193207Y-12878475D01*
X8421778Y-13149904D02*
X8436064Y-13164190D01*
X8421778Y-13178475D01*
X8407493Y-13164190D01*
X8421778Y-13149904D01*
X8421778Y-13178475D01*
X8607493Y-13007047D02*
X8578921Y-12992761D01*
X8564636Y-12978475D01*
X8550350Y-12949904D01*
X8550350Y-12935618D01*
X8564636Y-12907047D01*
X8578921Y-12892761D01*
X8607493Y-12878475D01*
X8664636Y-12878475D01*
X8693207Y-12892761D01*
X8707493Y-12907047D01*
X8721778Y-12935618D01*
X8721778Y-12949904D01*
X8707493Y-12978475D01*
X8693207Y-12992761D01*
X8664636Y-13007047D01*
X8607493Y-13007047D01*
X8578921Y-13021333D01*
X8564636Y-13035618D01*
X8550350Y-13064190D01*
X8550350Y-13121333D01*
X8564636Y-13149904D01*
X8578921Y-13164190D01*
X8607493Y-13178475D01*
X8664636Y-13178475D01*
X8693207Y-13164190D01*
X8707493Y-13149904D01*
X8721778Y-13121333D01*
X8721778Y-13064190D01*
X8707493Y-13035618D01*
X8693207Y-13021333D01*
X8664636Y-13007047D01*
X8907493Y-12878475D02*
X8936064Y-12878475D01*
X8964636Y-12892761D01*
X8978921Y-12907047D01*
X8993207Y-12935618D01*
X9007493Y-12992761D01*
X9007493Y-13064190D01*
X8993207Y-13121333D01*
X8978921Y-13149904D01*
X8964636Y-13164190D01*
X8936064Y-13178475D01*
X8907493Y-13178475D01*
X8878921Y-13164190D01*
X8864636Y-13149904D01*
X8850350Y-13121333D01*
X8836064Y-13064190D01*
X8836064Y-12992761D01*
X8850350Y-12935618D01*
X8864636Y-12907047D01*
X8878921Y-12892761D01*
X8907493Y-12878475D01*
X9136064Y-13178475D02*
X9136064Y-12978475D01*
X9136064Y-13007047D02*
X9150350Y-12992761D01*
X9178921Y-12978475D01*
X9221778Y-12978475D01*
X9250350Y-12992761D01*
X9264636Y-13021333D01*
X9264636Y-13178475D01*
X9264636Y-13021333D02*
X9278921Y-12992761D01*
X9307493Y-12978475D01*
X9350350Y-12978475D01*
X9378921Y-12992761D01*
X9393207Y-13021333D01*
X9393207Y-13178475D01*
X9536064Y-13178475D02*
X9536064Y-12978475D01*
X9536064Y-13007047D02*
X9550350Y-12992761D01*
X9578921Y-12978475D01*
X9621778Y-12978475D01*
X9650350Y-12992761D01*
X9664636Y-13021333D01*
X9664636Y-13178475D01*
X9664636Y-13021333D02*
X9678921Y-12992761D01*
X9707493Y-12978475D01*
X9750350Y-12978475D01*
X9778921Y-12992761D01*
X9793207Y-13021333D01*
X9793207Y-13178475D01*
X10378921Y-12864190D02*
X10121778Y-13249904D01*
X10764636Y-12878475D02*
X10793207Y-12878475D01*
X10821778Y-12892761D01*
X10836064Y-12907047D01*
X10850350Y-12935618D01*
X10864636Y-12992761D01*
X10864636Y-13064190D01*
X10850350Y-13121333D01*
X10836064Y-13149904D01*
X10821778Y-13164190D01*
X10793207Y-13178475D01*
X10764636Y-13178475D01*
X10736064Y-13164190D01*
X10721778Y-13149904D01*
X10707493Y-13121333D01*
X10693207Y-13064190D01*
X10693207Y-12992761D01*
X10707493Y-12935618D01*
X10721778Y-12907047D01*
X10736064Y-12892761D01*
X10764636Y-12878475D01*
X10993207Y-13149904D02*
X11007493Y-13164190D01*
X10993207Y-13178475D01*
X10978921Y-13164190D01*
X10993207Y-13149904D01*
X10993207Y-13178475D01*
X11193207Y-12878475D02*
X11221778Y-12878475D01*
X11250350Y-12892761D01*
X11264635Y-12907047D01*
X11278921Y-12935618D01*
X11293207Y-12992761D01*
X11293207Y-13064190D01*
X11278921Y-13121333D01*
X11264635Y-13149904D01*
X11250350Y-13164190D01*
X11221778Y-13178475D01*
X11193207Y-13178475D01*
X11164636Y-13164190D01*
X11150350Y-13149904D01*
X11136064Y-13121333D01*
X11121778Y-13064190D01*
X11121778Y-12992761D01*
X11136064Y-12935618D01*
X11150350Y-12907047D01*
X11164636Y-12892761D01*
X11193207Y-12878475D01*
X11393207Y-12878475D02*
X11578921Y-12878475D01*
X11478921Y-12992761D01*
X11521778Y-12992761D01*
X11550350Y-13007047D01*
X11564635Y-13021333D01*
X11578921Y-13049904D01*
X11578921Y-13121333D01*
X11564635Y-13149904D01*
X11550350Y-13164190D01*
X11521778Y-13178475D01*
X11436064Y-13178475D01*
X11407493Y-13164190D01*
X11393207Y-13149904D01*
X11864635Y-13178475D02*
X11693207Y-13178475D01*
X11778921Y-13178475D02*
X11778921Y-12878475D01*
X11750350Y-12921333D01*
X11721778Y-12949904D01*
X11693207Y-12964190D01*
X11978921Y-12878475D02*
X11978921Y-12935618D01*
X12093207Y-12878475D02*
X12093207Y-12935618D01*
X12536064Y-13292761D02*
X12521778Y-13278475D01*
X12493207Y-13235618D01*
X12478921Y-13207047D01*
X12464635Y-13164190D01*
X12450350Y-13092761D01*
X12450350Y-13035618D01*
X12464635Y-12964190D01*
X12478921Y-12921333D01*
X12493207Y-12892761D01*
X12521778Y-12849904D01*
X12536064Y-12835618D01*
X12636064Y-12907047D02*
X12650350Y-12892761D01*
X12678921Y-12878475D01*
X12750350Y-12878475D01*
X12778921Y-12892761D01*
X12793207Y-12907047D01*
X12807493Y-12935618D01*
X12807493Y-12964190D01*
X12793207Y-13007047D01*
X12621778Y-13178475D01*
X12807493Y-13178475D01*
X13164635Y-13178475D02*
X13164635Y-12878475D01*
X13293207Y-13178475D02*
X13293207Y-13021333D01*
X13278921Y-12992761D01*
X13250350Y-12978475D01*
X13207493Y-12978475D01*
X13178921Y-12992761D01*
X13164635Y-13007047D01*
X13478921Y-13178475D02*
X13450350Y-13164190D01*
X13436064Y-13149904D01*
X13421778Y-13121333D01*
X13421778Y-13035618D01*
X13436064Y-13007047D01*
X13450350Y-12992761D01*
X13478921Y-12978475D01*
X13521778Y-12978475D01*
X13550350Y-12992761D01*
X13564635Y-13007047D01*
X13578921Y-13035618D01*
X13578921Y-13121333D01*
X13564635Y-13149904D01*
X13550350Y-13164190D01*
X13521778Y-13178475D01*
X13478921Y-13178475D01*
X13750350Y-13178475D02*
X13721778Y-13164190D01*
X13707493Y-13135618D01*
X13707493Y-12878475D01*
X13978921Y-13164190D02*
X13950350Y-13178475D01*
X13893207Y-13178475D01*
X13864635Y-13164190D01*
X13850350Y-13135618D01*
X13850350Y-13021333D01*
X13864635Y-12992761D01*
X13893207Y-12978475D01*
X13950350Y-12978475D01*
X13978921Y-12992761D01*
X13993207Y-13021333D01*
X13993207Y-13049904D01*
X13850350Y-13078475D01*
X14107493Y-13164190D02*
X14136064Y-13178475D01*
X14193207Y-13178475D01*
X14221778Y-13164190D01*
X14236064Y-13135618D01*
X14236064Y-13121333D01*
X14221778Y-13092761D01*
X14193207Y-13078475D01*
X14150350Y-13078475D01*
X14121778Y-13064190D01*
X14107493Y-13035618D01*
X14107493Y-13021333D01*
X14121778Y-12992761D01*
X14150350Y-12978475D01*
X14193207Y-12978475D01*
X14221778Y-12992761D01*
X14336064Y-13292761D02*
X14350350Y-13278475D01*
X14378921Y-13235618D01*
X14393207Y-13207047D01*
X14407493Y-13164190D01*
X14421778Y-13092761D01*
X14421778Y-13035618D01*
X14407493Y-12964190D01*
X14393207Y-12921333D01*
X14378921Y-12892761D01*
X14350350Y-12849904D01*
X14336064Y-12835618D01*
X7799635Y-13388761D02*
X7799635Y-13488761D01*
X7749635Y-13438761D02*
X7849635Y-13438761D01*
X8293207Y-13574475D02*
X8121778Y-13574475D01*
X8207493Y-13574475D02*
X8207493Y-13274475D01*
X8178921Y-13317333D01*
X8150350Y-13345904D01*
X8121778Y-13360190D01*
X8421778Y-13545904D02*
X8436064Y-13560190D01*
X8421778Y-13574475D01*
X8407493Y-13560190D01*
X8421778Y-13545904D01*
X8421778Y-13574475D01*
X8621778Y-13274475D02*
X8650350Y-13274475D01*
X8678921Y-13288761D01*
X8693207Y-13303047D01*
X8707493Y-13331618D01*
X8721778Y-13388761D01*
X8721778Y-13460190D01*
X8707493Y-13517333D01*
X8693207Y-13545904D01*
X8678921Y-13560190D01*
X8650350Y-13574475D01*
X8621778Y-13574475D01*
X8593207Y-13560190D01*
X8578921Y-13545904D01*
X8564636Y-13517333D01*
X8550350Y-13460190D01*
X8550350Y-13388761D01*
X8564636Y-13331618D01*
X8578921Y-13303047D01*
X8593207Y-13288761D01*
X8621778Y-13274475D01*
X8907493Y-13274475D02*
X8936064Y-13274475D01*
X8964636Y-13288761D01*
X8978921Y-13303047D01*
X8993207Y-13331618D01*
X9007493Y-13388761D01*
X9007493Y-13460190D01*
X8993207Y-13517333D01*
X8978921Y-13545904D01*
X8964636Y-13560190D01*
X8936064Y-13574475D01*
X8907493Y-13574475D01*
X8878921Y-13560190D01*
X8864636Y-13545904D01*
X8850350Y-13517333D01*
X8836064Y-13460190D01*
X8836064Y-13388761D01*
X8850350Y-13331618D01*
X8864636Y-13303047D01*
X8878921Y-13288761D01*
X8907493Y-13274475D01*
X9136064Y-13574475D02*
X9136064Y-13374475D01*
X9136064Y-13403047D02*
X9150350Y-13388761D01*
X9178921Y-13374475D01*
X9221778Y-13374475D01*
X9250350Y-13388761D01*
X9264636Y-13417333D01*
X9264636Y-13574475D01*
X9264636Y-13417333D02*
X9278921Y-13388761D01*
X9307493Y-13374475D01*
X9350350Y-13374475D01*
X9378921Y-13388761D01*
X9393207Y-13417333D01*
X9393207Y-13574475D01*
X9536064Y-13574475D02*
X9536064Y-13374475D01*
X9536064Y-13403047D02*
X9550350Y-13388761D01*
X9578921Y-13374475D01*
X9621778Y-13374475D01*
X9650350Y-13388761D01*
X9664636Y-13417333D01*
X9664636Y-13574475D01*
X9664636Y-13417333D02*
X9678921Y-13388761D01*
X9707493Y-13374475D01*
X9750350Y-13374475D01*
X9778921Y-13388761D01*
X9793207Y-13417333D01*
X9793207Y-13574475D01*
X10378921Y-13260190D02*
X10121778Y-13645904D01*
X10764636Y-13274475D02*
X10793207Y-13274475D01*
X10821778Y-13288761D01*
X10836064Y-13303047D01*
X10850350Y-13331618D01*
X10864636Y-13388761D01*
X10864636Y-13460190D01*
X10850350Y-13517333D01*
X10836064Y-13545904D01*
X10821778Y-13560190D01*
X10793207Y-13574475D01*
X10764636Y-13574475D01*
X10736064Y-13560190D01*
X10721778Y-13545904D01*
X10707493Y-13517333D01*
X10693207Y-13460190D01*
X10693207Y-13388761D01*
X10707493Y-13331618D01*
X10721778Y-13303047D01*
X10736064Y-13288761D01*
X10764636Y-13274475D01*
X10993207Y-13545904D02*
X11007493Y-13560190D01*
X10993207Y-13574475D01*
X10978921Y-13560190D01*
X10993207Y-13545904D01*
X10993207Y-13574475D01*
X11193207Y-13274475D02*
X11221778Y-13274475D01*
X11250350Y-13288761D01*
X11264635Y-13303047D01*
X11278921Y-13331618D01*
X11293207Y-13388761D01*
X11293207Y-13460190D01*
X11278921Y-13517333D01*
X11264635Y-13545904D01*
X11250350Y-13560190D01*
X11221778Y-13574475D01*
X11193207Y-13574475D01*
X11164636Y-13560190D01*
X11150350Y-13545904D01*
X11136064Y-13517333D01*
X11121778Y-13460190D01*
X11121778Y-13388761D01*
X11136064Y-13331618D01*
X11150350Y-13303047D01*
X11164636Y-13288761D01*
X11193207Y-13274475D01*
X11393207Y-13274475D02*
X11578921Y-13274475D01*
X11478921Y-13388761D01*
X11521778Y-13388761D01*
X11550350Y-13403047D01*
X11564635Y-13417333D01*
X11578921Y-13445904D01*
X11578921Y-13517333D01*
X11564635Y-13545904D01*
X11550350Y-13560190D01*
X11521778Y-13574475D01*
X11436064Y-13574475D01*
X11407493Y-13560190D01*
X11393207Y-13545904D01*
X11721778Y-13574475D02*
X11778921Y-13574475D01*
X11807493Y-13560190D01*
X11821778Y-13545904D01*
X11850350Y-13503047D01*
X11864635Y-13445904D01*
X11864635Y-13331618D01*
X11850350Y-13303047D01*
X11836064Y-13288761D01*
X11807493Y-13274475D01*
X11750350Y-13274475D01*
X11721778Y-13288761D01*
X11707493Y-13303047D01*
X11693207Y-13331618D01*
X11693207Y-13403047D01*
X11707493Y-13431618D01*
X11721778Y-13445904D01*
X11750350Y-13460190D01*
X11807493Y-13460190D01*
X11836064Y-13445904D01*
X11850350Y-13431618D01*
X11864635Y-13403047D01*
X11978921Y-13274475D02*
X11978921Y-13331618D01*
X12093207Y-13274475D02*
X12093207Y-13331618D01*
X12536064Y-13688761D02*
X12521778Y-13674475D01*
X12493207Y-13631618D01*
X12478921Y-13603047D01*
X12464635Y-13560190D01*
X12450350Y-13488761D01*
X12450350Y-13431618D01*
X12464635Y-13360190D01*
X12478921Y-13317333D01*
X12493207Y-13288761D01*
X12521778Y-13245904D01*
X12536064Y-13231618D01*
X12693207Y-13403047D02*
X12664635Y-13388761D01*
X12650350Y-13374475D01*
X12636064Y-13345904D01*
X12636064Y-13331618D01*
X12650350Y-13303047D01*
X12664635Y-13288761D01*
X12693207Y-13274475D01*
X12750350Y-13274475D01*
X12778921Y-13288761D01*
X12793207Y-13303047D01*
X12807493Y-13331618D01*
X12807493Y-13345904D01*
X12793207Y-13374475D01*
X12778921Y-13388761D01*
X12750350Y-13403047D01*
X12693207Y-13403047D01*
X12664635Y-13417333D01*
X12650350Y-13431618D01*
X12636064Y-13460190D01*
X12636064Y-13517333D01*
X12650350Y-13545904D01*
X12664635Y-13560190D01*
X12693207Y-13574475D01*
X12750350Y-13574475D01*
X12778921Y-13560190D01*
X12793207Y-13545904D01*
X12807493Y-13517333D01*
X12807493Y-13460190D01*
X12793207Y-13431618D01*
X12778921Y-13417333D01*
X12750350Y-13403047D01*
X13064635Y-13274475D02*
X13007493Y-13274475D01*
X12978921Y-13288761D01*
X12964635Y-13303047D01*
X12936064Y-13345904D01*
X12921778Y-13403047D01*
X12921778Y-13517333D01*
X12936064Y-13545904D01*
X12950350Y-13560190D01*
X12978921Y-13574475D01*
X13036064Y-13574475D01*
X13064635Y-13560190D01*
X13078921Y-13545904D01*
X13093207Y-13517333D01*
X13093207Y-13445904D01*
X13078921Y-13417333D01*
X13064635Y-13403047D01*
X13036064Y-13388761D01*
X12978921Y-13388761D01*
X12950350Y-13403047D01*
X12936064Y-13417333D01*
X12921778Y-13445904D01*
X13450350Y-13574475D02*
X13450350Y-13274475D01*
X13578921Y-13574475D02*
X13578921Y-13417333D01*
X13564635Y-13388761D01*
X13536064Y-13374475D01*
X13493207Y-13374475D01*
X13464635Y-13388761D01*
X13450350Y-13403047D01*
X13764635Y-13574475D02*
X13736064Y-13560190D01*
X13721778Y-13545904D01*
X13707493Y-13517333D01*
X13707493Y-13431618D01*
X13721778Y-13403047D01*
X13736064Y-13388761D01*
X13764635Y-13374475D01*
X13807493Y-13374475D01*
X13836064Y-13388761D01*
X13850350Y-13403047D01*
X13864635Y-13431618D01*
X13864635Y-13517333D01*
X13850350Y-13545904D01*
X13836064Y-13560190D01*
X13807493Y-13574475D01*
X13764635Y-13574475D01*
X14036064Y-13574475D02*
X14007493Y-13560190D01*
X13993207Y-13531618D01*
X13993207Y-13274475D01*
X14264635Y-13560190D02*
X14236064Y-13574475D01*
X14178921Y-13574475D01*
X14150350Y-13560190D01*
X14136064Y-13531618D01*
X14136064Y-13417333D01*
X14150350Y-13388761D01*
X14178921Y-13374475D01*
X14236064Y-13374475D01*
X14264635Y-13388761D01*
X14278921Y-13417333D01*
X14278921Y-13445904D01*
X14136064Y-13474475D01*
X14393207Y-13560190D02*
X14421778Y-13574475D01*
X14478921Y-13574475D01*
X14507493Y-13560190D01*
X14521778Y-13531618D01*
X14521778Y-13517333D01*
X14507493Y-13488761D01*
X14478921Y-13474475D01*
X14436064Y-13474475D01*
X14407493Y-13460190D01*
X14393207Y-13431618D01*
X14393207Y-13417333D01*
X14407493Y-13388761D01*
X14436064Y-13374475D01*
X14478921Y-13374475D01*
X14507493Y-13388761D01*
X14621778Y-13688761D02*
X14636064Y-13674475D01*
X14664635Y-13631618D01*
X14678921Y-13603047D01*
X14693207Y-13560190D01*
X14707493Y-13488761D01*
X14707493Y-13431618D01*
X14693207Y-13360190D01*
X14678921Y-13317333D01*
X14664635Y-13288761D01*
X14636064Y-13245904D01*
X14621778Y-13231618D01*
X7832062Y-13877188D02*
X7832062Y-13792334D01*
X7747209Y-13792334D01*
X7747209Y-13877188D01*
X7832062Y-13877188D01*
X8293207Y-13970475D02*
X8121778Y-13970475D01*
X8207493Y-13970475D02*
X8207493Y-13670475D01*
X8178921Y-13713333D01*
X8150350Y-13741904D01*
X8121778Y-13756190D01*
X8421778Y-13941904D02*
X8436064Y-13956190D01*
X8421778Y-13970475D01*
X8407493Y-13956190D01*
X8421778Y-13941904D01*
X8421778Y-13970475D01*
X8550350Y-13699047D02*
X8564636Y-13684761D01*
X8593207Y-13670475D01*
X8664636Y-13670475D01*
X8693207Y-13684761D01*
X8707493Y-13699047D01*
X8721778Y-13727618D01*
X8721778Y-13756190D01*
X8707493Y-13799047D01*
X8536064Y-13970475D01*
X8721778Y-13970475D01*
X8907493Y-13670475D02*
X8936064Y-13670475D01*
X8964636Y-13684761D01*
X8978921Y-13699047D01*
X8993207Y-13727618D01*
X9007493Y-13784761D01*
X9007493Y-13856190D01*
X8993207Y-13913333D01*
X8978921Y-13941904D01*
X8964636Y-13956190D01*
X8936064Y-13970475D01*
X8907493Y-13970475D01*
X8878921Y-13956190D01*
X8864636Y-13941904D01*
X8850350Y-13913333D01*
X8836064Y-13856190D01*
X8836064Y-13784761D01*
X8850350Y-13727618D01*
X8864636Y-13699047D01*
X8878921Y-13684761D01*
X8907493Y-13670475D01*
X9136064Y-13970475D02*
X9136064Y-13770475D01*
X9136064Y-13799047D02*
X9150350Y-13784761D01*
X9178921Y-13770475D01*
X9221778Y-13770475D01*
X9250350Y-13784761D01*
X9264636Y-13813333D01*
X9264636Y-13970475D01*
X9264636Y-13813333D02*
X9278921Y-13784761D01*
X9307493Y-13770475D01*
X9350350Y-13770475D01*
X9378921Y-13784761D01*
X9393207Y-13813333D01*
X9393207Y-13970475D01*
X9536064Y-13970475D02*
X9536064Y-13770475D01*
X9536064Y-13799047D02*
X9550350Y-13784761D01*
X9578921Y-13770475D01*
X9621778Y-13770475D01*
X9650350Y-13784761D01*
X9664636Y-13813333D01*
X9664636Y-13970475D01*
X9664636Y-13813333D02*
X9678921Y-13784761D01*
X9707493Y-13770475D01*
X9750350Y-13770475D01*
X9778921Y-13784761D01*
X9793207Y-13813333D01*
X9793207Y-13970475D01*
X10378921Y-13656190D02*
X10121778Y-14041904D01*
X10764636Y-13670475D02*
X10793207Y-13670475D01*
X10821778Y-13684761D01*
X10836064Y-13699047D01*
X10850350Y-13727618D01*
X10864636Y-13784761D01*
X10864636Y-13856190D01*
X10850350Y-13913333D01*
X10836064Y-13941904D01*
X10821778Y-13956190D01*
X10793207Y-13970475D01*
X10764636Y-13970475D01*
X10736064Y-13956190D01*
X10721778Y-13941904D01*
X10707493Y-13913333D01*
X10693207Y-13856190D01*
X10693207Y-13784761D01*
X10707493Y-13727618D01*
X10721778Y-13699047D01*
X10736064Y-13684761D01*
X10764636Y-13670475D01*
X10993207Y-13941904D02*
X11007493Y-13956190D01*
X10993207Y-13970475D01*
X10978921Y-13956190D01*
X10993207Y-13941904D01*
X10993207Y-13970475D01*
X11193207Y-13670475D02*
X11221778Y-13670475D01*
X11250350Y-13684761D01*
X11264635Y-13699047D01*
X11278921Y-13727618D01*
X11293207Y-13784761D01*
X11293207Y-13856190D01*
X11278921Y-13913333D01*
X11264635Y-13941904D01*
X11250350Y-13956190D01*
X11221778Y-13970475D01*
X11193207Y-13970475D01*
X11164636Y-13956190D01*
X11150350Y-13941904D01*
X11136064Y-13913333D01*
X11121778Y-13856190D01*
X11121778Y-13784761D01*
X11136064Y-13727618D01*
X11150350Y-13699047D01*
X11164636Y-13684761D01*
X11193207Y-13670475D01*
X11550350Y-13770475D02*
X11550350Y-13970475D01*
X11478921Y-13656190D02*
X11407493Y-13870475D01*
X11593207Y-13870475D01*
X11678921Y-13670475D02*
X11878921Y-13670475D01*
X11750350Y-13970475D01*
X11978921Y-13670475D02*
X11978921Y-13727618D01*
X12093207Y-13670475D02*
X12093207Y-13727618D01*
X12536064Y-14084761D02*
X12521778Y-14070475D01*
X12493207Y-14027618D01*
X12478921Y-13999047D01*
X12464635Y-13956190D01*
X12450350Y-13884761D01*
X12450350Y-13827618D01*
X12464635Y-13756190D01*
X12478921Y-13713333D01*
X12493207Y-13684761D01*
X12521778Y-13641904D01*
X12536064Y-13627618D01*
X12621778Y-13670475D02*
X12807493Y-13670475D01*
X12707493Y-13784761D01*
X12750350Y-13784761D01*
X12778921Y-13799047D01*
X12793207Y-13813333D01*
X12807493Y-13841904D01*
X12807493Y-13913333D01*
X12793207Y-13941904D01*
X12778921Y-13956190D01*
X12750350Y-13970475D01*
X12664635Y-13970475D01*
X12636064Y-13956190D01*
X12621778Y-13941904D01*
X13164635Y-13970475D02*
X13164635Y-13670475D01*
X13293207Y-13970475D02*
X13293207Y-13813333D01*
X13278921Y-13784761D01*
X13250350Y-13770475D01*
X13207493Y-13770475D01*
X13178921Y-13784761D01*
X13164635Y-13799047D01*
X13478921Y-13970475D02*
X13450350Y-13956190D01*
X13436064Y-13941904D01*
X13421778Y-13913333D01*
X13421778Y-13827618D01*
X13436064Y-13799047D01*
X13450350Y-13784761D01*
X13478921Y-13770475D01*
X13521778Y-13770475D01*
X13550350Y-13784761D01*
X13564635Y-13799047D01*
X13578921Y-13827618D01*
X13578921Y-13913333D01*
X13564635Y-13941904D01*
X13550350Y-13956190D01*
X13521778Y-13970475D01*
X13478921Y-13970475D01*
X13750350Y-13970475D02*
X13721778Y-13956190D01*
X13707493Y-13927618D01*
X13707493Y-13670475D01*
X13978921Y-13956190D02*
X13950350Y-13970475D01*
X13893207Y-13970475D01*
X13864635Y-13956190D01*
X13850350Y-13927618D01*
X13850350Y-13813333D01*
X13864635Y-13784761D01*
X13893207Y-13770475D01*
X13950350Y-13770475D01*
X13978921Y-13784761D01*
X13993207Y-13813333D01*
X13993207Y-13841904D01*
X13850350Y-13870475D01*
X14107493Y-13956190D02*
X14136064Y-13970475D01*
X14193207Y-13970475D01*
X14221778Y-13956190D01*
X14236064Y-13927618D01*
X14236064Y-13913333D01*
X14221778Y-13884761D01*
X14193207Y-13870475D01*
X14150350Y-13870475D01*
X14121778Y-13856190D01*
X14107493Y-13827618D01*
X14107493Y-13813333D01*
X14121778Y-13784761D01*
X14150350Y-13770475D01*
X14193207Y-13770475D01*
X14221778Y-13784761D01*
X14336064Y-14084761D02*
X14350350Y-14070475D01*
X14378921Y-14027618D01*
X14393207Y-13999047D01*
X14407493Y-13956190D01*
X14421778Y-13884761D01*
X14421778Y-13827618D01*
X14407493Y-13756190D01*
X14393207Y-13713333D01*
X14378921Y-13684761D01*
X14350350Y-13641904D01*
X14336064Y-13627618D01*
M02*
