G04 #@! TF.GenerationSoftware,KiCad,Pcbnew,(5.0.2)-1*
G04 #@! TF.CreationDate,2019-04-29T17:38:23-04:00*
G04 #@! TF.ProjectId,QPACE-DevelopmentBoard,51504143-452d-4446-9576-656c6f706d65,rev?*
G04 #@! TF.SameCoordinates,Original*
G04 #@! TF.FileFunction,Legend,Bot*
G04 #@! TF.FilePolarity,Positive*
%FSLAX46Y46*%
G04 Gerber Fmt 4.6, Leading zero omitted, Abs format (unit mm)*
G04 Created by KiCad (PCBNEW (5.0.2)-1) date 4/29/2019 5:38:23 PM*
%MOMM*%
%LPD*%
G01*
G04 APERTURE LIST*
%ADD10C,0.187500*%
%ADD11C,0.100000*%
%ADD12C,0.120000*%
%ADD13C,0.090000*%
G04 APERTURE END LIST*
D10*
X84535553Y-69902178D02*
X84285553Y-69902178D01*
X84178410Y-70295035D02*
X84535553Y-70295035D01*
X84535553Y-69545035D01*
X84178410Y-69545035D01*
X83856982Y-69795035D02*
X83856982Y-70295035D01*
X83856982Y-69866464D02*
X83821267Y-69830750D01*
X83749839Y-69795035D01*
X83642696Y-69795035D01*
X83571267Y-69830750D01*
X83535553Y-69902178D01*
X83535553Y-70295035D01*
X82856982Y-70295035D02*
X82856982Y-69902178D01*
X82892696Y-69830750D01*
X82964125Y-69795035D01*
X83106982Y-69795035D01*
X83178410Y-69830750D01*
X82856982Y-70259321D02*
X82928410Y-70295035D01*
X83106982Y-70295035D01*
X83178410Y-70259321D01*
X83214125Y-70187892D01*
X83214125Y-70116464D01*
X83178410Y-70045035D01*
X83106982Y-70009321D01*
X82928410Y-70009321D01*
X82856982Y-69973607D01*
X82499839Y-70295035D02*
X82499839Y-69545035D01*
X82499839Y-69830750D02*
X82428410Y-69795035D01*
X82285553Y-69795035D01*
X82214125Y-69830750D01*
X82178410Y-69866464D01*
X82142696Y-69937892D01*
X82142696Y-70152178D01*
X82178410Y-70223607D01*
X82214125Y-70259321D01*
X82285553Y-70295035D01*
X82428410Y-70295035D01*
X82499839Y-70259321D01*
X81714125Y-70295035D02*
X81785553Y-70259321D01*
X81821267Y-70187892D01*
X81821267Y-69545035D01*
X81142696Y-70259321D02*
X81214125Y-70295035D01*
X81356982Y-70295035D01*
X81428410Y-70259321D01*
X81464125Y-70187892D01*
X81464125Y-69902178D01*
X81428410Y-69830750D01*
X81356982Y-69795035D01*
X81214125Y-69795035D01*
X81142696Y-69830750D01*
X81106982Y-69902178D01*
X81106982Y-69973607D01*
X81464125Y-70045035D01*
X80214125Y-70295035D02*
X80214125Y-69545035D01*
X79928410Y-69545035D01*
X79856982Y-69580750D01*
X79821267Y-69616464D01*
X79785553Y-69687892D01*
X79785553Y-69795035D01*
X79821267Y-69866464D01*
X79856982Y-69902178D01*
X79928410Y-69937892D01*
X80214125Y-69937892D01*
X79464125Y-70295035D02*
X79464125Y-69795035D01*
X79464125Y-69545035D02*
X79499839Y-69580750D01*
X79464125Y-69616464D01*
X79428410Y-69580750D01*
X79464125Y-69545035D01*
X79464125Y-69616464D01*
X84392696Y-70857535D02*
X84249839Y-70857535D01*
X84178410Y-70893250D01*
X84106982Y-70964678D01*
X84071267Y-71107535D01*
X84071267Y-71357535D01*
X84106982Y-71500392D01*
X84178410Y-71571821D01*
X84249839Y-71607535D01*
X84392696Y-71607535D01*
X84464125Y-71571821D01*
X84535553Y-71500392D01*
X84571267Y-71357535D01*
X84571267Y-71107535D01*
X84535553Y-70964678D01*
X84464125Y-70893250D01*
X84392696Y-70857535D01*
X83821267Y-71107535D02*
X83642696Y-71607535D01*
X83464125Y-71107535D01*
X82892696Y-71571821D02*
X82964125Y-71607535D01*
X83106982Y-71607535D01*
X83178410Y-71571821D01*
X83214125Y-71500392D01*
X83214125Y-71214678D01*
X83178410Y-71143250D01*
X83106982Y-71107535D01*
X82964125Y-71107535D01*
X82892696Y-71143250D01*
X82856982Y-71214678D01*
X82856982Y-71286107D01*
X83214125Y-71357535D01*
X82535553Y-71607535D02*
X82535553Y-71107535D01*
X82535553Y-71250392D02*
X82499839Y-71178964D01*
X82464125Y-71143250D01*
X82392696Y-71107535D01*
X82321267Y-71107535D01*
X82071267Y-71607535D02*
X82071267Y-71107535D01*
X82071267Y-71250392D02*
X82035553Y-71178964D01*
X81999839Y-71143250D01*
X81928410Y-71107535D01*
X81856982Y-71107535D01*
X81606982Y-71607535D02*
X81606982Y-71107535D01*
X81606982Y-70857535D02*
X81642696Y-70893250D01*
X81606982Y-70928964D01*
X81571267Y-70893250D01*
X81606982Y-70857535D01*
X81606982Y-70928964D01*
X80928410Y-71607535D02*
X80928410Y-70857535D01*
X80928410Y-71571821D02*
X80999839Y-71607535D01*
X81142696Y-71607535D01*
X81214125Y-71571821D01*
X81249839Y-71536107D01*
X81285553Y-71464678D01*
X81285553Y-71250392D01*
X81249839Y-71178964D01*
X81214125Y-71143250D01*
X81142696Y-71107535D01*
X80999839Y-71107535D01*
X80928410Y-71143250D01*
X80285553Y-71571821D02*
X80356982Y-71607535D01*
X80499839Y-71607535D01*
X80571267Y-71571821D01*
X80606982Y-71500392D01*
X80606982Y-71214678D01*
X80571267Y-71143250D01*
X80499839Y-71107535D01*
X80356982Y-71107535D01*
X80285553Y-71143250D01*
X80249839Y-71214678D01*
X80249839Y-71286107D01*
X80606982Y-71357535D01*
X136895267Y-93584821D02*
X136788125Y-93620535D01*
X136609553Y-93620535D01*
X136538125Y-93584821D01*
X136502410Y-93549107D01*
X136466696Y-93477678D01*
X136466696Y-93406250D01*
X136502410Y-93334821D01*
X136538125Y-93299107D01*
X136609553Y-93263392D01*
X136752410Y-93227678D01*
X136823839Y-93191964D01*
X136859553Y-93156250D01*
X136895267Y-93084821D01*
X136895267Y-93013392D01*
X136859553Y-92941964D01*
X136823839Y-92906250D01*
X136752410Y-92870535D01*
X136573839Y-92870535D01*
X136466696Y-92906250D01*
X136252410Y-92870535D02*
X135823839Y-92870535D01*
X136038125Y-93620535D02*
X136038125Y-92870535D01*
X135573839Y-93620535D02*
X135573839Y-92870535D01*
X135323839Y-93406250D01*
X135073839Y-92870535D01*
X135073839Y-93620535D01*
X134788125Y-92870535D02*
X134323839Y-92870535D01*
X134573839Y-93156250D01*
X134466696Y-93156250D01*
X134395267Y-93191964D01*
X134359553Y-93227678D01*
X134323839Y-93299107D01*
X134323839Y-93477678D01*
X134359553Y-93549107D01*
X134395267Y-93584821D01*
X134466696Y-93620535D01*
X134680982Y-93620535D01*
X134752410Y-93584821D01*
X134788125Y-93549107D01*
X134038125Y-92941964D02*
X134002410Y-92906250D01*
X133930982Y-92870535D01*
X133752410Y-92870535D01*
X133680982Y-92906250D01*
X133645267Y-92941964D01*
X133609553Y-93013392D01*
X133609553Y-93084821D01*
X133645267Y-93191964D01*
X134073839Y-93620535D01*
X133609553Y-93620535D01*
X132752410Y-93584821D02*
X132645267Y-93620535D01*
X132466696Y-93620535D01*
X132395267Y-93584821D01*
X132359553Y-93549107D01*
X132323839Y-93477678D01*
X132323839Y-93406250D01*
X132359553Y-93334821D01*
X132395267Y-93299107D01*
X132466696Y-93263392D01*
X132609553Y-93227678D01*
X132680982Y-93191964D01*
X132716696Y-93156250D01*
X132752410Y-93084821D01*
X132752410Y-93013392D01*
X132716696Y-92941964D01*
X132680982Y-92906250D01*
X132609553Y-92870535D01*
X132430982Y-92870535D01*
X132323839Y-92906250D01*
X132073839Y-92870535D02*
X131895267Y-93620535D01*
X131752410Y-93084821D01*
X131609553Y-93620535D01*
X131430982Y-92870535D01*
X131145267Y-93620535D02*
X131145267Y-92870535D01*
X130966696Y-92870535D01*
X130859553Y-92906250D01*
X130788125Y-92977678D01*
X130752410Y-93049107D01*
X130716696Y-93191964D01*
X130716696Y-93299107D01*
X130752410Y-93441964D01*
X130788125Y-93513392D01*
X130859553Y-93584821D01*
X130966696Y-93620535D01*
X131145267Y-93620535D01*
X136252410Y-94933035D02*
X136288125Y-94933035D01*
X136359553Y-94897321D01*
X136466696Y-94790178D01*
X136645267Y-94575892D01*
X136716696Y-94468750D01*
X136752410Y-94361607D01*
X136752410Y-94290178D01*
X136716696Y-94218750D01*
X136645267Y-94183035D01*
X136609553Y-94183035D01*
X136538125Y-94218750D01*
X136502410Y-94290178D01*
X136502410Y-94325892D01*
X136538125Y-94397321D01*
X136573839Y-94433035D01*
X136788125Y-94575892D01*
X136823839Y-94611607D01*
X136859553Y-94683035D01*
X136859553Y-94790178D01*
X136823839Y-94861607D01*
X136788125Y-94897321D01*
X136716696Y-94933035D01*
X136609553Y-94933035D01*
X136538125Y-94897321D01*
X136502410Y-94861607D01*
X136395267Y-94718750D01*
X136359553Y-94611607D01*
X136359553Y-94540178D01*
X136466696Y-95531250D02*
X136538125Y-95495535D01*
X136645267Y-95495535D01*
X136752410Y-95531250D01*
X136823839Y-95602678D01*
X136859553Y-95674107D01*
X136895267Y-95816964D01*
X136895267Y-95924107D01*
X136859553Y-96066964D01*
X136823839Y-96138392D01*
X136752410Y-96209821D01*
X136645267Y-96245535D01*
X136573839Y-96245535D01*
X136466696Y-96209821D01*
X136430982Y-96174107D01*
X136430982Y-95924107D01*
X136573839Y-95924107D01*
X136109553Y-96245535D02*
X136109553Y-95495535D01*
X135823839Y-95495535D01*
X135752410Y-95531250D01*
X135716696Y-95566964D01*
X135680982Y-95638392D01*
X135680982Y-95745535D01*
X135716696Y-95816964D01*
X135752410Y-95852678D01*
X135823839Y-95888392D01*
X136109553Y-95888392D01*
X135395267Y-96209821D02*
X135288125Y-96245535D01*
X135109553Y-96245535D01*
X135038125Y-96209821D01*
X135002410Y-96174107D01*
X134966696Y-96102678D01*
X134966696Y-96031250D01*
X135002410Y-95959821D01*
X135038125Y-95924107D01*
X135109553Y-95888392D01*
X135252410Y-95852678D01*
X135323839Y-95816964D01*
X135359553Y-95781250D01*
X135395267Y-95709821D01*
X135395267Y-95638392D01*
X135359553Y-95566964D01*
X135323839Y-95531250D01*
X135252410Y-95495535D01*
X135073839Y-95495535D01*
X134966696Y-95531250D01*
X136645267Y-97843750D02*
X136680982Y-97808035D01*
X136752410Y-97700892D01*
X136788125Y-97629464D01*
X136823839Y-97522321D01*
X136859553Y-97343750D01*
X136859553Y-97200892D01*
X136823839Y-97022321D01*
X136788125Y-96915178D01*
X136752410Y-96843750D01*
X136680982Y-96736607D01*
X136645267Y-96700892D01*
X136395267Y-97522321D02*
X136288125Y-97558035D01*
X136109553Y-97558035D01*
X136038125Y-97522321D01*
X136002410Y-97486607D01*
X135966696Y-97415178D01*
X135966696Y-97343750D01*
X136002410Y-97272321D01*
X136038125Y-97236607D01*
X136109553Y-97200892D01*
X136252410Y-97165178D01*
X136323839Y-97129464D01*
X136359553Y-97093750D01*
X136395267Y-97022321D01*
X136395267Y-96950892D01*
X136359553Y-96879464D01*
X136323839Y-96843750D01*
X136252410Y-96808035D01*
X136073839Y-96808035D01*
X135966696Y-96843750D01*
X135359553Y-97522321D02*
X135430982Y-97558035D01*
X135573839Y-97558035D01*
X135645267Y-97522321D01*
X135680982Y-97450892D01*
X135680982Y-97165178D01*
X135645267Y-97093750D01*
X135573839Y-97058035D01*
X135430982Y-97058035D01*
X135359553Y-97093750D01*
X135323839Y-97165178D01*
X135323839Y-97236607D01*
X135680982Y-97308035D01*
X134680982Y-97522321D02*
X134752410Y-97558035D01*
X134895267Y-97558035D01*
X134966696Y-97522321D01*
X135002410Y-97486607D01*
X135038125Y-97415178D01*
X135038125Y-97200892D01*
X135002410Y-97129464D01*
X134966696Y-97093750D01*
X134895267Y-97058035D01*
X134752410Y-97058035D01*
X134680982Y-97093750D01*
X134252410Y-97558035D02*
X134323839Y-97522321D01*
X134359553Y-97486607D01*
X134395267Y-97415178D01*
X134395267Y-97200892D01*
X134359553Y-97129464D01*
X134323839Y-97093750D01*
X134252410Y-97058035D01*
X134145267Y-97058035D01*
X134073839Y-97093750D01*
X134038125Y-97129464D01*
X134002410Y-97200892D01*
X134002410Y-97415178D01*
X134038125Y-97486607D01*
X134073839Y-97522321D01*
X134145267Y-97558035D01*
X134252410Y-97558035D01*
X133680982Y-97058035D02*
X133680982Y-97558035D01*
X133680982Y-97129464D02*
X133645267Y-97093750D01*
X133573839Y-97058035D01*
X133466696Y-97058035D01*
X133395267Y-97093750D01*
X133359553Y-97165178D01*
X133359553Y-97558035D01*
X132680982Y-97558035D02*
X132680982Y-96808035D01*
X132680982Y-97522321D02*
X132752410Y-97558035D01*
X132895267Y-97558035D01*
X132966696Y-97522321D01*
X133002410Y-97486607D01*
X133038125Y-97415178D01*
X133038125Y-97200892D01*
X133002410Y-97129464D01*
X132966696Y-97093750D01*
X132895267Y-97058035D01*
X132752410Y-97058035D01*
X132680982Y-97093750D01*
X132002410Y-97558035D02*
X132002410Y-97165178D01*
X132038125Y-97093750D01*
X132109553Y-97058035D01*
X132252410Y-97058035D01*
X132323839Y-97093750D01*
X132002410Y-97522321D02*
X132073839Y-97558035D01*
X132252410Y-97558035D01*
X132323839Y-97522321D01*
X132359553Y-97450892D01*
X132359553Y-97379464D01*
X132323839Y-97308035D01*
X132252410Y-97272321D01*
X132073839Y-97272321D01*
X132002410Y-97236607D01*
X131645267Y-97558035D02*
X131645267Y-97058035D01*
X131645267Y-97200892D02*
X131609553Y-97129464D01*
X131573839Y-97093750D01*
X131502410Y-97058035D01*
X131430982Y-97058035D01*
X131252410Y-97058035D02*
X131073839Y-97558035D01*
X130895267Y-97058035D02*
X131073839Y-97558035D01*
X131145267Y-97736607D01*
X131180982Y-97772321D01*
X131252410Y-97808035D01*
X130038125Y-96808035D02*
X130038125Y-97415178D01*
X130002410Y-97486607D01*
X129966696Y-97522321D01*
X129895267Y-97558035D01*
X129752410Y-97558035D01*
X129680982Y-97522321D01*
X129645267Y-97486607D01*
X129609553Y-97415178D01*
X129609553Y-96808035D01*
X129288125Y-97343750D02*
X128930982Y-97343750D01*
X129359553Y-97558035D02*
X129109553Y-96808035D01*
X128859553Y-97558035D01*
X128180982Y-97558035D02*
X128430982Y-97200892D01*
X128609553Y-97558035D02*
X128609553Y-96808035D01*
X128323839Y-96808035D01*
X128252410Y-96843750D01*
X128216696Y-96879464D01*
X128180982Y-96950892D01*
X128180982Y-97058035D01*
X128216696Y-97129464D01*
X128252410Y-97165178D01*
X128323839Y-97200892D01*
X128609553Y-97200892D01*
X127966696Y-96808035D02*
X127538125Y-96808035D01*
X127752410Y-97558035D02*
X127752410Y-96808035D01*
X127359553Y-97843750D02*
X127323839Y-97808035D01*
X127252410Y-97700892D01*
X127216696Y-97629464D01*
X127180982Y-97522321D01*
X127145267Y-97343750D01*
X127145267Y-97200892D01*
X127180982Y-97022321D01*
X127216696Y-96915178D01*
X127252410Y-96843750D01*
X127323839Y-96736607D01*
X127359553Y-96700892D01*
X136938982Y-81619285D02*
X137188982Y-81262142D01*
X137367553Y-81619285D02*
X137367553Y-80869285D01*
X137081839Y-80869285D01*
X137010410Y-80905000D01*
X136974696Y-80940714D01*
X136938982Y-81012142D01*
X136938982Y-81119285D01*
X136974696Y-81190714D01*
X137010410Y-81226428D01*
X137081839Y-81262142D01*
X137367553Y-81262142D01*
X136617553Y-81619285D02*
X136617553Y-80869285D01*
X136331839Y-80869285D01*
X136260410Y-80905000D01*
X136224696Y-80940714D01*
X136188982Y-81012142D01*
X136188982Y-81119285D01*
X136224696Y-81190714D01*
X136260410Y-81226428D01*
X136331839Y-81262142D01*
X136617553Y-81262142D01*
X135867553Y-81619285D02*
X135867553Y-81119285D01*
X135867553Y-80869285D02*
X135903267Y-80905000D01*
X135867553Y-80940714D01*
X135831839Y-80905000D01*
X135867553Y-80869285D01*
X135867553Y-80940714D01*
X134510410Y-81547857D02*
X134546125Y-81583571D01*
X134653267Y-81619285D01*
X134724696Y-81619285D01*
X134831839Y-81583571D01*
X134903267Y-81512142D01*
X134938982Y-81440714D01*
X134974696Y-81297857D01*
X134974696Y-81190714D01*
X134938982Y-81047857D01*
X134903267Y-80976428D01*
X134831839Y-80905000D01*
X134724696Y-80869285D01*
X134653267Y-80869285D01*
X134546125Y-80905000D01*
X134510410Y-80940714D01*
X134046125Y-80869285D02*
X133903267Y-80869285D01*
X133831839Y-80905000D01*
X133760410Y-80976428D01*
X133724696Y-81119285D01*
X133724696Y-81369285D01*
X133760410Y-81512142D01*
X133831839Y-81583571D01*
X133903267Y-81619285D01*
X134046125Y-81619285D01*
X134117553Y-81583571D01*
X134188982Y-81512142D01*
X134224696Y-81369285D01*
X134224696Y-81119285D01*
X134188982Y-80976428D01*
X134117553Y-80905000D01*
X134046125Y-80869285D01*
X133403267Y-81619285D02*
X133403267Y-80869285D01*
X133153267Y-81405000D01*
X132903267Y-80869285D01*
X132903267Y-81619285D01*
X131974696Y-81619285D02*
X131974696Y-80869285D01*
X131688982Y-80869285D01*
X131617553Y-80905000D01*
X131581839Y-80940714D01*
X131546125Y-81012142D01*
X131546125Y-81119285D01*
X131581839Y-81190714D01*
X131617553Y-81226428D01*
X131688982Y-81262142D01*
X131974696Y-81262142D01*
X131117553Y-81619285D02*
X131188982Y-81583571D01*
X131224696Y-81547857D01*
X131260410Y-81476428D01*
X131260410Y-81262142D01*
X131224696Y-81190714D01*
X131188982Y-81155000D01*
X131117553Y-81119285D01*
X131010410Y-81119285D01*
X130938982Y-81155000D01*
X130903267Y-81190714D01*
X130867553Y-81262142D01*
X130867553Y-81476428D01*
X130903267Y-81547857D01*
X130938982Y-81583571D01*
X131010410Y-81619285D01*
X131117553Y-81619285D01*
X130546125Y-81619285D02*
X130546125Y-81119285D01*
X130546125Y-81262142D02*
X130510410Y-81190714D01*
X130474696Y-81155000D01*
X130403267Y-81119285D01*
X130331839Y-81119285D01*
X130188982Y-81119285D02*
X129903267Y-81119285D01*
X130081839Y-80869285D02*
X130081839Y-81512142D01*
X130046125Y-81583571D01*
X129974696Y-81619285D01*
X129903267Y-81619285D01*
X137438982Y-70709285D02*
X137260410Y-71459285D01*
X137117553Y-70923571D01*
X136974696Y-71459285D01*
X136796125Y-70709285D01*
X136617553Y-70709285D02*
X136188982Y-70709285D01*
X136403267Y-71459285D02*
X136403267Y-70709285D01*
X135510410Y-71387857D02*
X135546125Y-71423571D01*
X135653267Y-71459285D01*
X135724696Y-71459285D01*
X135831839Y-71423571D01*
X135903267Y-71352142D01*
X135938982Y-71280714D01*
X135974696Y-71137857D01*
X135974696Y-71030714D01*
X135938982Y-70887857D01*
X135903267Y-70816428D01*
X135831839Y-70745000D01*
X135724696Y-70709285D01*
X135653267Y-70709285D01*
X135546125Y-70745000D01*
X135510410Y-70780714D01*
X134617553Y-71459285D02*
X134617553Y-70709285D01*
X134296125Y-70780714D02*
X134260410Y-70745000D01*
X134188982Y-70709285D01*
X134010410Y-70709285D01*
X133938982Y-70745000D01*
X133903267Y-70780714D01*
X133867553Y-70852142D01*
X133867553Y-70923571D01*
X133903267Y-71030714D01*
X134331839Y-71459285D01*
X133867553Y-71459285D01*
X133117553Y-71387857D02*
X133153267Y-71423571D01*
X133260410Y-71459285D01*
X133331839Y-71459285D01*
X133438982Y-71423571D01*
X133510410Y-71352142D01*
X133546125Y-71280714D01*
X133581839Y-71137857D01*
X133581839Y-71030714D01*
X133546125Y-70887857D01*
X133510410Y-70816428D01*
X133438982Y-70745000D01*
X133331839Y-70709285D01*
X133260410Y-70709285D01*
X133153267Y-70745000D01*
X133117553Y-70780714D01*
X131974696Y-71066428D02*
X131867553Y-71102142D01*
X131831839Y-71137857D01*
X131796125Y-71209285D01*
X131796125Y-71316428D01*
X131831839Y-71387857D01*
X131867553Y-71423571D01*
X131938982Y-71459285D01*
X132224696Y-71459285D01*
X132224696Y-70709285D01*
X131974696Y-70709285D01*
X131903267Y-70745000D01*
X131867553Y-70780714D01*
X131831839Y-70852142D01*
X131831839Y-70923571D01*
X131867553Y-70995000D01*
X131903267Y-71030714D01*
X131974696Y-71066428D01*
X132224696Y-71066428D01*
X131153267Y-70959285D02*
X131153267Y-71459285D01*
X131474696Y-70959285D02*
X131474696Y-71352142D01*
X131438982Y-71423571D01*
X131367553Y-71459285D01*
X131260410Y-71459285D01*
X131188982Y-71423571D01*
X131153267Y-71387857D01*
X130831839Y-71423571D02*
X130760410Y-71459285D01*
X130617553Y-71459285D01*
X130546125Y-71423571D01*
X130510410Y-71352142D01*
X130510410Y-71316428D01*
X130546125Y-71245000D01*
X130617553Y-71209285D01*
X130724696Y-71209285D01*
X130796125Y-71173571D01*
X130831839Y-71102142D01*
X130831839Y-71066428D01*
X130796125Y-70995000D01*
X130724696Y-70959285D01*
X130617553Y-70959285D01*
X130546125Y-70995000D01*
X104720714Y-101939285D02*
X104720714Y-101189285D01*
X104542142Y-101189285D01*
X104435000Y-101225000D01*
X104363571Y-101296428D01*
X104327857Y-101367857D01*
X104292142Y-101510714D01*
X104292142Y-101617857D01*
X104327857Y-101760714D01*
X104363571Y-101832142D01*
X104435000Y-101903571D01*
X104542142Y-101939285D01*
X104720714Y-101939285D01*
X103542142Y-101867857D02*
X103577857Y-101903571D01*
X103685000Y-101939285D01*
X103756428Y-101939285D01*
X103863571Y-101903571D01*
X103935000Y-101832142D01*
X103970714Y-101760714D01*
X104006428Y-101617857D01*
X104006428Y-101510714D01*
X103970714Y-101367857D01*
X103935000Y-101296428D01*
X103863571Y-101225000D01*
X103756428Y-101189285D01*
X103685000Y-101189285D01*
X103577857Y-101225000D01*
X103542142Y-101260714D01*
X103220714Y-101653571D02*
X102649285Y-101653571D01*
X102292142Y-101939285D02*
X102292142Y-101189285D01*
X102113571Y-101189285D01*
X102006428Y-101225000D01*
X101935000Y-101296428D01*
X101899285Y-101367857D01*
X101863571Y-101510714D01*
X101863571Y-101617857D01*
X101899285Y-101760714D01*
X101935000Y-101832142D01*
X102006428Y-101903571D01*
X102113571Y-101939285D01*
X102292142Y-101939285D01*
X101113571Y-101867857D02*
X101149285Y-101903571D01*
X101256428Y-101939285D01*
X101327857Y-101939285D01*
X101435000Y-101903571D01*
X101506428Y-101832142D01*
X101542142Y-101760714D01*
X101577857Y-101617857D01*
X101577857Y-101510714D01*
X101542142Y-101367857D01*
X101506428Y-101296428D01*
X101435000Y-101225000D01*
X101327857Y-101189285D01*
X101256428Y-101189285D01*
X101149285Y-101225000D01*
X101113571Y-101260714D01*
X99863571Y-101189285D02*
X100220714Y-101189285D01*
X100256428Y-101546428D01*
X100220714Y-101510714D01*
X100149285Y-101475000D01*
X99970714Y-101475000D01*
X99899285Y-101510714D01*
X99863571Y-101546428D01*
X99827857Y-101617857D01*
X99827857Y-101796428D01*
X99863571Y-101867857D01*
X99899285Y-101903571D01*
X99970714Y-101939285D01*
X100149285Y-101939285D01*
X100220714Y-101903571D01*
X100256428Y-101867857D01*
X98970714Y-101153571D02*
X99613571Y-102117857D01*
X98756428Y-101260714D02*
X98720714Y-101225000D01*
X98649285Y-101189285D01*
X98470714Y-101189285D01*
X98399285Y-101225000D01*
X98363571Y-101260714D01*
X98327857Y-101332142D01*
X98327857Y-101403571D01*
X98363571Y-101510714D01*
X98792142Y-101939285D01*
X98327857Y-101939285D01*
X97863571Y-101189285D02*
X97792142Y-101189285D01*
X97720714Y-101225000D01*
X97685000Y-101260714D01*
X97649285Y-101332142D01*
X97613571Y-101475000D01*
X97613571Y-101653571D01*
X97649285Y-101796428D01*
X97685000Y-101867857D01*
X97720714Y-101903571D01*
X97792142Y-101939285D01*
X97863571Y-101939285D01*
X97935000Y-101903571D01*
X97970714Y-101867857D01*
X98006428Y-101796428D01*
X98042142Y-101653571D01*
X98042142Y-101475000D01*
X98006428Y-101332142D01*
X97970714Y-101260714D01*
X97935000Y-101225000D01*
X97863571Y-101189285D01*
X97399285Y-101189285D02*
X97149285Y-101939285D01*
X96899285Y-101189285D01*
X96185000Y-101439285D02*
X95899285Y-101439285D01*
X96077857Y-101189285D02*
X96077857Y-101832142D01*
X96042142Y-101903571D01*
X95970714Y-101939285D01*
X95899285Y-101939285D01*
X95542142Y-101939285D02*
X95613571Y-101903571D01*
X95649285Y-101867857D01*
X95685000Y-101796428D01*
X95685000Y-101582142D01*
X95649285Y-101510714D01*
X95613571Y-101475000D01*
X95542142Y-101439285D01*
X95435000Y-101439285D01*
X95363571Y-101475000D01*
X95327857Y-101510714D01*
X95292142Y-101582142D01*
X95292142Y-101796428D01*
X95327857Y-101867857D01*
X95363571Y-101903571D01*
X95435000Y-101939285D01*
X95542142Y-101939285D01*
X94042142Y-101189285D02*
X94399285Y-101189285D01*
X94435000Y-101546428D01*
X94399285Y-101510714D01*
X94327857Y-101475000D01*
X94149285Y-101475000D01*
X94077857Y-101510714D01*
X94042142Y-101546428D01*
X94006428Y-101617857D01*
X94006428Y-101796428D01*
X94042142Y-101867857D01*
X94077857Y-101903571D01*
X94149285Y-101939285D01*
X94327857Y-101939285D01*
X94399285Y-101903571D01*
X94435000Y-101867857D01*
X93792142Y-101189285D02*
X93542142Y-101939285D01*
X93292142Y-101189285D01*
X104149285Y-85429285D02*
X104149285Y-84679285D01*
X103970714Y-84679285D01*
X103863571Y-84715000D01*
X103792142Y-84786428D01*
X103756428Y-84857857D01*
X103720714Y-85000714D01*
X103720714Y-85107857D01*
X103756428Y-85250714D01*
X103792142Y-85322142D01*
X103863571Y-85393571D01*
X103970714Y-85429285D01*
X104149285Y-85429285D01*
X102970714Y-85357857D02*
X103006428Y-85393571D01*
X103113571Y-85429285D01*
X103185000Y-85429285D01*
X103292142Y-85393571D01*
X103363571Y-85322142D01*
X103399285Y-85250714D01*
X103435000Y-85107857D01*
X103435000Y-85000714D01*
X103399285Y-84857857D01*
X103363571Y-84786428D01*
X103292142Y-84715000D01*
X103185000Y-84679285D01*
X103113571Y-84679285D01*
X103006428Y-84715000D01*
X102970714Y-84750714D01*
X102649285Y-85143571D02*
X102077857Y-85143571D01*
X101720714Y-85429285D02*
X101720714Y-84679285D01*
X101542142Y-84679285D01*
X101435000Y-84715000D01*
X101363571Y-84786428D01*
X101327857Y-84857857D01*
X101292142Y-85000714D01*
X101292142Y-85107857D01*
X101327857Y-85250714D01*
X101363571Y-85322142D01*
X101435000Y-85393571D01*
X101542142Y-85429285D01*
X101720714Y-85429285D01*
X100542142Y-85357857D02*
X100577857Y-85393571D01*
X100685000Y-85429285D01*
X100756428Y-85429285D01*
X100863571Y-85393571D01*
X100935000Y-85322142D01*
X100970714Y-85250714D01*
X101006428Y-85107857D01*
X101006428Y-85000714D01*
X100970714Y-84857857D01*
X100935000Y-84786428D01*
X100863571Y-84715000D01*
X100756428Y-84679285D01*
X100685000Y-84679285D01*
X100577857Y-84715000D01*
X100542142Y-84750714D01*
X99292142Y-84679285D02*
X99649285Y-84679285D01*
X99685000Y-85036428D01*
X99649285Y-85000714D01*
X99577857Y-84965000D01*
X99399285Y-84965000D01*
X99327857Y-85000714D01*
X99292142Y-85036428D01*
X99256428Y-85107857D01*
X99256428Y-85286428D01*
X99292142Y-85357857D01*
X99327857Y-85393571D01*
X99399285Y-85429285D01*
X99577857Y-85429285D01*
X99649285Y-85393571D01*
X99685000Y-85357857D01*
X99042142Y-84679285D02*
X98792142Y-85429285D01*
X98542142Y-84679285D01*
X97827857Y-84929285D02*
X97542142Y-84929285D01*
X97720714Y-84679285D02*
X97720714Y-85322142D01*
X97685000Y-85393571D01*
X97613571Y-85429285D01*
X97542142Y-85429285D01*
X97185000Y-85429285D02*
X97256428Y-85393571D01*
X97292142Y-85357857D01*
X97327857Y-85286428D01*
X97327857Y-85072142D01*
X97292142Y-85000714D01*
X97256428Y-84965000D01*
X97185000Y-84929285D01*
X97077857Y-84929285D01*
X97006428Y-84965000D01*
X96970714Y-85000714D01*
X96935000Y-85072142D01*
X96935000Y-85286428D01*
X96970714Y-85357857D01*
X97006428Y-85393571D01*
X97077857Y-85429285D01*
X97185000Y-85429285D01*
X96113571Y-84679285D02*
X95649285Y-84679285D01*
X95899285Y-84965000D01*
X95792142Y-84965000D01*
X95720714Y-85000714D01*
X95685000Y-85036428D01*
X95649285Y-85107857D01*
X95649285Y-85286428D01*
X95685000Y-85357857D01*
X95720714Y-85393571D01*
X95792142Y-85429285D01*
X96006428Y-85429285D01*
X96077857Y-85393571D01*
X96113571Y-85357857D01*
X95327857Y-85357857D02*
X95292142Y-85393571D01*
X95327857Y-85429285D01*
X95363571Y-85393571D01*
X95327857Y-85357857D01*
X95327857Y-85429285D01*
X95042142Y-84679285D02*
X94577857Y-84679285D01*
X94827857Y-84965000D01*
X94720714Y-84965000D01*
X94649285Y-85000714D01*
X94613571Y-85036428D01*
X94577857Y-85107857D01*
X94577857Y-85286428D01*
X94613571Y-85357857D01*
X94649285Y-85393571D01*
X94720714Y-85429285D01*
X94935000Y-85429285D01*
X95006428Y-85393571D01*
X95042142Y-85357857D01*
X94363571Y-84679285D02*
X94113571Y-85429285D01*
X93863571Y-84679285D01*
X85246428Y-83155285D02*
X84996428Y-83905285D01*
X84746428Y-83155285D01*
X84175000Y-83405285D02*
X84175000Y-83905285D01*
X84496428Y-83405285D02*
X84496428Y-83798142D01*
X84460714Y-83869571D01*
X84389285Y-83905285D01*
X84282142Y-83905285D01*
X84210714Y-83869571D01*
X84175000Y-83833857D01*
X83853571Y-83869571D02*
X83782142Y-83905285D01*
X83639285Y-83905285D01*
X83567857Y-83869571D01*
X83532142Y-83798142D01*
X83532142Y-83762428D01*
X83567857Y-83691000D01*
X83639285Y-83655285D01*
X83746428Y-83655285D01*
X83817857Y-83619571D01*
X83853571Y-83548142D01*
X83853571Y-83512428D01*
X83817857Y-83441000D01*
X83746428Y-83405285D01*
X83639285Y-83405285D01*
X83567857Y-83441000D01*
X83210714Y-83905285D02*
X83210714Y-83155285D01*
X83210714Y-83441000D02*
X83139285Y-83405285D01*
X82996428Y-83405285D01*
X82925000Y-83441000D01*
X82889285Y-83476714D01*
X82853571Y-83548142D01*
X82853571Y-83762428D01*
X82889285Y-83833857D01*
X82925000Y-83869571D01*
X82996428Y-83905285D01*
X83139285Y-83905285D01*
X83210714Y-83869571D01*
X81746428Y-84191000D02*
X81782142Y-84155285D01*
X81853571Y-84048142D01*
X81889285Y-83976714D01*
X81925000Y-83869571D01*
X81960714Y-83691000D01*
X81960714Y-83548142D01*
X81925000Y-83369571D01*
X81889285Y-83262428D01*
X81853571Y-83191000D01*
X81782142Y-83083857D01*
X81746428Y-83048142D01*
X81103571Y-83155285D02*
X81460714Y-83155285D01*
X81496428Y-83512428D01*
X81460714Y-83476714D01*
X81389285Y-83441000D01*
X81210714Y-83441000D01*
X81139285Y-83476714D01*
X81103571Y-83512428D01*
X81067857Y-83583857D01*
X81067857Y-83762428D01*
X81103571Y-83833857D01*
X81139285Y-83869571D01*
X81210714Y-83905285D01*
X81389285Y-83905285D01*
X81460714Y-83869571D01*
X81496428Y-83833857D01*
X80853571Y-83155285D02*
X80603571Y-83905285D01*
X80353571Y-83155285D01*
X80175000Y-84191000D02*
X80139285Y-84155285D01*
X80067857Y-84048142D01*
X80032142Y-83976714D01*
X79996428Y-83869571D01*
X79960714Y-83691000D01*
X79960714Y-83548142D01*
X79996428Y-83369571D01*
X80032142Y-83262428D01*
X80067857Y-83191000D01*
X80139285Y-83083857D01*
X80175000Y-83048142D01*
X85960714Y-97379285D02*
X85710714Y-98129285D01*
X85460714Y-97379285D01*
X85210714Y-98129285D02*
X85210714Y-97629285D01*
X85210714Y-97379285D02*
X85246428Y-97415000D01*
X85210714Y-97450714D01*
X85175000Y-97415000D01*
X85210714Y-97379285D01*
X85210714Y-97450714D01*
X84853571Y-97629285D02*
X84853571Y-98129285D01*
X84853571Y-97700714D02*
X84817857Y-97665000D01*
X84746428Y-97629285D01*
X84639285Y-97629285D01*
X84567857Y-97665000D01*
X84532142Y-97736428D01*
X84532142Y-98129285D01*
X83389285Y-98415000D02*
X83425000Y-98379285D01*
X83496428Y-98272142D01*
X83532142Y-98200714D01*
X83567857Y-98093571D01*
X83603571Y-97915000D01*
X83603571Y-97772142D01*
X83567857Y-97593571D01*
X83532142Y-97486428D01*
X83496428Y-97415000D01*
X83425000Y-97307857D01*
X83389285Y-97272142D01*
X82746428Y-97379285D02*
X83103571Y-97379285D01*
X83139285Y-97736428D01*
X83103571Y-97700714D01*
X83032142Y-97665000D01*
X82853571Y-97665000D01*
X82782142Y-97700714D01*
X82746428Y-97736428D01*
X82710714Y-97807857D01*
X82710714Y-97986428D01*
X82746428Y-98057857D01*
X82782142Y-98093571D01*
X82853571Y-98129285D01*
X83032142Y-98129285D01*
X83103571Y-98093571D01*
X83139285Y-98057857D01*
X82389285Y-97843571D02*
X81817857Y-97843571D01*
X81496428Y-97450714D02*
X81460714Y-97415000D01*
X81389285Y-97379285D01*
X81210714Y-97379285D01*
X81139285Y-97415000D01*
X81103571Y-97450714D01*
X81067857Y-97522142D01*
X81067857Y-97593571D01*
X81103571Y-97700714D01*
X81532142Y-98129285D01*
X81067857Y-98129285D01*
X80603571Y-97379285D02*
X80532142Y-97379285D01*
X80460714Y-97415000D01*
X80425000Y-97450714D01*
X80389285Y-97522142D01*
X80353571Y-97665000D01*
X80353571Y-97843571D01*
X80389285Y-97986428D01*
X80425000Y-98057857D01*
X80460714Y-98093571D01*
X80532142Y-98129285D01*
X80603571Y-98129285D01*
X80675000Y-98093571D01*
X80710714Y-98057857D01*
X80746428Y-97986428D01*
X80782142Y-97843571D01*
X80782142Y-97665000D01*
X80746428Y-97522142D01*
X80710714Y-97450714D01*
X80675000Y-97415000D01*
X80603571Y-97379285D01*
X80139285Y-97379285D02*
X79889285Y-98129285D01*
X79639285Y-97379285D01*
X79460714Y-98415000D02*
X79425000Y-98379285D01*
X79353571Y-98272142D01*
X79317857Y-98200714D01*
X79282142Y-98093571D01*
X79246428Y-97915000D01*
X79246428Y-97772142D01*
X79282142Y-97593571D01*
X79317857Y-97486428D01*
X79353571Y-97415000D01*
X79425000Y-97307857D01*
X79460714Y-97272142D01*
D11*
X78546356Y-63817611D02*
X78546356Y-113817611D01*
X78546356Y-63817611D02*
G75*
G02X81546356Y-60817611I3000000J0D01*
G01*
X140546356Y-60817611D02*
X81546356Y-60817611D01*
X140546356Y-60817611D02*
G75*
G02X143546356Y-63817611I0J-3000000D01*
G01*
X143546356Y-113817611D02*
X143546356Y-63817611D01*
X81546356Y-116817611D02*
G75*
G02X78546356Y-113817611I0J3000000D01*
G01*
X81546356Y-116817611D02*
X140546356Y-116817611D01*
X143546351Y-113822847D02*
G75*
G02X140546356Y-116817611I-2999995J5236D01*
G01*
D12*
G04 #@! TO.C,J13*
X85590000Y-61720000D02*
X85590000Y-64320000D01*
X85590000Y-61720000D02*
X136510000Y-61720000D01*
X136510000Y-61720000D02*
X136510000Y-66920000D01*
X88190000Y-66920000D02*
X136510000Y-66920000D01*
X88190000Y-64320000D02*
X88190000Y-66920000D01*
X85590000Y-64320000D02*
X88190000Y-64320000D01*
X85590000Y-66920000D02*
X86920000Y-66920000D01*
X85590000Y-65590000D02*
X85590000Y-66920000D01*
G04 #@! TD*
G04 #@! TO.C,J13*
D13*
X83903571Y-63955714D02*
X84225000Y-63955714D01*
X84289285Y-63934285D01*
X84332142Y-63891428D01*
X84353571Y-63827142D01*
X84353571Y-63784285D01*
X84353571Y-64405714D02*
X84353571Y-64148571D01*
X84353571Y-64277142D02*
X83903571Y-64277142D01*
X83967857Y-64234285D01*
X84010714Y-64191428D01*
X84032142Y-64148571D01*
X83903571Y-64555714D02*
X83903571Y-64834285D01*
X84075000Y-64684285D01*
X84075000Y-64748571D01*
X84096428Y-64791428D01*
X84117857Y-64812857D01*
X84160714Y-64834285D01*
X84267857Y-64834285D01*
X84310714Y-64812857D01*
X84332142Y-64791428D01*
X84353571Y-64748571D01*
X84353571Y-64620000D01*
X84332142Y-64577142D01*
X84310714Y-64555714D01*
G04 #@! TD*
M02*
