G04 #@! TF.GenerationSoftware,KiCad,Pcbnew,(5.0.2)-1*
G04 #@! TF.CreationDate,2019-04-29T17:38:23-04:00*
G04 #@! TF.ProjectId,QPACE-DevelopmentBoard,51504143-452d-4446-9576-656c6f706d65,rev?*
G04 #@! TF.SameCoordinates,Original*
G04 #@! TF.FileFunction,Soldermask,Top*
G04 #@! TF.FilePolarity,Negative*
%FSLAX46Y46*%
G04 Gerber Fmt 4.6, Leading zero omitted, Abs format (unit mm)*
G04 Created by KiCad (PCBNEW (5.0.2)-1) date 4/29/2019 5:38:23 PM*
%MOMM*%
%LPD*%
G01*
G04 APERTURE LIST*
%ADD10C,0.100000*%
G04 APERTURE END LIST*
D10*
X78546356Y-63817611D02*
X78546356Y-113817611D01*
X78546356Y-63817611D02*
G75*
G02X81546356Y-60817611I3000000J0D01*
G01*
X140546356Y-60817611D02*
X81546356Y-60817611D01*
X140546356Y-60817611D02*
G75*
G02X143546356Y-63817611I0J-3000000D01*
G01*
X143546356Y-113817611D02*
X143546356Y-63817611D01*
X81546356Y-116817611D02*
G75*
G02X78546356Y-113817611I0J3000000D01*
G01*
X81546356Y-116817611D02*
X140546356Y-116817611D01*
X143546351Y-113822847D02*
G75*
G02X140546356Y-116817611I-2999995J5236D01*
G01*
G36*
X126680000Y-115885000D02*
X124780000Y-115885000D01*
X124780000Y-113985000D01*
X126680000Y-113985000D01*
X126680000Y-115885000D01*
X126680000Y-115885000D01*
G37*
G36*
X120766448Y-113991873D02*
X120836232Y-113998746D01*
X120925770Y-114025907D01*
X121015309Y-114053068D01*
X121180347Y-114141283D01*
X121325001Y-114259999D01*
X121443717Y-114404653D01*
X121531932Y-114569691D01*
X121531932Y-114569692D01*
X121586254Y-114748768D01*
X121604596Y-114935000D01*
X121596351Y-115018719D01*
X121586254Y-115121231D01*
X121531932Y-115300309D01*
X121443717Y-115465347D01*
X121325001Y-115610001D01*
X121180347Y-115728717D01*
X121015309Y-115816932D01*
X120925770Y-115844093D01*
X120836232Y-115871254D01*
X120696666Y-115885000D01*
X120603334Y-115885000D01*
X120463768Y-115871254D01*
X120374230Y-115844093D01*
X120284691Y-115816932D01*
X120119653Y-115728717D01*
X119974999Y-115610001D01*
X119856283Y-115465347D01*
X119768068Y-115300309D01*
X119713746Y-115121231D01*
X119703650Y-115018719D01*
X119695404Y-114935000D01*
X119713746Y-114748768D01*
X119768068Y-114569692D01*
X119768068Y-114569691D01*
X119856283Y-114404653D01*
X119974999Y-114259999D01*
X120119653Y-114141283D01*
X120284691Y-114053068D01*
X120374230Y-114025907D01*
X120463768Y-113998746D01*
X120533552Y-113991873D01*
X120603334Y-113985000D01*
X120696666Y-113985000D01*
X120766448Y-113991873D01*
X120766448Y-113991873D01*
G37*
G36*
X118226448Y-113991873D02*
X118296232Y-113998746D01*
X118385770Y-114025907D01*
X118475309Y-114053068D01*
X118640347Y-114141283D01*
X118785001Y-114259999D01*
X118903717Y-114404653D01*
X118991932Y-114569691D01*
X118991932Y-114569692D01*
X119046254Y-114748768D01*
X119064596Y-114935000D01*
X119056351Y-115018719D01*
X119046254Y-115121231D01*
X118991932Y-115300309D01*
X118903717Y-115465347D01*
X118785001Y-115610001D01*
X118640347Y-115728717D01*
X118475309Y-115816932D01*
X118385770Y-115844093D01*
X118296232Y-115871254D01*
X118156666Y-115885000D01*
X118063334Y-115885000D01*
X117923768Y-115871254D01*
X117834230Y-115844093D01*
X117744691Y-115816932D01*
X117579653Y-115728717D01*
X117434999Y-115610001D01*
X117316283Y-115465347D01*
X117228068Y-115300309D01*
X117173746Y-115121231D01*
X117163650Y-115018719D01*
X117155404Y-114935000D01*
X117173746Y-114748768D01*
X117228068Y-114569692D01*
X117228068Y-114569691D01*
X117316283Y-114404653D01*
X117434999Y-114259999D01*
X117579653Y-114141283D01*
X117744691Y-114053068D01*
X117834230Y-114025907D01*
X117923768Y-113998746D01*
X117993552Y-113991873D01*
X118063334Y-113985000D01*
X118156666Y-113985000D01*
X118226448Y-113991873D01*
X118226448Y-113991873D01*
G37*
G36*
X115686448Y-113991873D02*
X115756232Y-113998746D01*
X115845770Y-114025907D01*
X115935309Y-114053068D01*
X116100347Y-114141283D01*
X116245001Y-114259999D01*
X116363717Y-114404653D01*
X116451932Y-114569691D01*
X116451932Y-114569692D01*
X116506254Y-114748768D01*
X116524596Y-114935000D01*
X116516351Y-115018719D01*
X116506254Y-115121231D01*
X116451932Y-115300309D01*
X116363717Y-115465347D01*
X116245001Y-115610001D01*
X116100347Y-115728717D01*
X115935309Y-115816932D01*
X115845770Y-115844093D01*
X115756232Y-115871254D01*
X115616666Y-115885000D01*
X115523334Y-115885000D01*
X115383768Y-115871254D01*
X115294230Y-115844093D01*
X115204691Y-115816932D01*
X115039653Y-115728717D01*
X114894999Y-115610001D01*
X114776283Y-115465347D01*
X114688068Y-115300309D01*
X114633746Y-115121231D01*
X114623650Y-115018719D01*
X114615404Y-114935000D01*
X114633746Y-114748768D01*
X114688068Y-114569692D01*
X114688068Y-114569691D01*
X114776283Y-114404653D01*
X114894999Y-114259999D01*
X115039653Y-114141283D01*
X115204691Y-114053068D01*
X115294230Y-114025907D01*
X115383768Y-113998746D01*
X115453552Y-113991873D01*
X115523334Y-113985000D01*
X115616666Y-113985000D01*
X115686448Y-113991873D01*
X115686448Y-113991873D01*
G37*
G36*
X130926448Y-113991873D02*
X130996232Y-113998746D01*
X131085770Y-114025907D01*
X131175309Y-114053068D01*
X131340347Y-114141283D01*
X131485001Y-114259999D01*
X131603717Y-114404653D01*
X131691932Y-114569691D01*
X131691932Y-114569692D01*
X131746254Y-114748768D01*
X131764596Y-114935000D01*
X131756351Y-115018719D01*
X131746254Y-115121231D01*
X131691932Y-115300309D01*
X131603717Y-115465347D01*
X131485001Y-115610001D01*
X131340347Y-115728717D01*
X131175309Y-115816932D01*
X131085770Y-115844093D01*
X130996232Y-115871254D01*
X130856666Y-115885000D01*
X130763334Y-115885000D01*
X130623768Y-115871254D01*
X130534230Y-115844093D01*
X130444691Y-115816932D01*
X130279653Y-115728717D01*
X130134999Y-115610001D01*
X130016283Y-115465347D01*
X129928068Y-115300309D01*
X129873746Y-115121231D01*
X129863650Y-115018719D01*
X129855404Y-114935000D01*
X129873746Y-114748768D01*
X129928068Y-114569692D01*
X129928068Y-114569691D01*
X130016283Y-114404653D01*
X130134999Y-114259999D01*
X130279653Y-114141283D01*
X130444691Y-114053068D01*
X130534230Y-114025907D01*
X130623768Y-113998746D01*
X130693552Y-113991873D01*
X130763334Y-113985000D01*
X130856666Y-113985000D01*
X130926448Y-113991873D01*
X130926448Y-113991873D01*
G37*
G36*
X113980000Y-115885000D02*
X112080000Y-115885000D01*
X112080000Y-113985000D01*
X113980000Y-113985000D01*
X113980000Y-115885000D01*
X113980000Y-115885000D01*
G37*
G36*
X128386448Y-113991873D02*
X128456232Y-113998746D01*
X128545770Y-114025907D01*
X128635309Y-114053068D01*
X128800347Y-114141283D01*
X128945001Y-114259999D01*
X129063717Y-114404653D01*
X129151932Y-114569691D01*
X129151932Y-114569692D01*
X129206254Y-114748768D01*
X129224596Y-114935000D01*
X129216351Y-115018719D01*
X129206254Y-115121231D01*
X129151932Y-115300309D01*
X129063717Y-115465347D01*
X128945001Y-115610001D01*
X128800347Y-115728717D01*
X128635309Y-115816932D01*
X128545770Y-115844093D01*
X128456232Y-115871254D01*
X128316666Y-115885000D01*
X128223334Y-115885000D01*
X128083768Y-115871254D01*
X127994230Y-115844093D01*
X127904691Y-115816932D01*
X127739653Y-115728717D01*
X127594999Y-115610001D01*
X127476283Y-115465347D01*
X127388068Y-115300309D01*
X127333746Y-115121231D01*
X127323650Y-115018719D01*
X127315404Y-114935000D01*
X127333746Y-114748768D01*
X127388068Y-114569692D01*
X127388068Y-114569691D01*
X127476283Y-114404653D01*
X127594999Y-114259999D01*
X127739653Y-114141283D01*
X127904691Y-114053068D01*
X127994230Y-114025907D01*
X128083768Y-113998746D01*
X128153552Y-113991873D01*
X128223334Y-113985000D01*
X128316666Y-113985000D01*
X128386448Y-113991873D01*
X128386448Y-113991873D01*
G37*
G36*
X134232934Y-114117664D02*
X134387627Y-114181740D01*
X134526847Y-114274764D01*
X134645236Y-114393153D01*
X134738260Y-114532373D01*
X134802336Y-114687066D01*
X134835000Y-114851281D01*
X134835000Y-115018719D01*
X134802336Y-115182934D01*
X134738260Y-115337627D01*
X134645236Y-115476847D01*
X134526847Y-115595236D01*
X134387627Y-115688260D01*
X134232934Y-115752336D01*
X134068719Y-115785000D01*
X133901281Y-115785000D01*
X133737066Y-115752336D01*
X133582373Y-115688260D01*
X133443153Y-115595236D01*
X133324764Y-115476847D01*
X133231740Y-115337627D01*
X133167664Y-115182934D01*
X133135000Y-115018719D01*
X133135000Y-114851281D01*
X133167664Y-114687066D01*
X133231740Y-114532373D01*
X133324764Y-114393153D01*
X133443153Y-114274764D01*
X133582373Y-114181740D01*
X133737066Y-114117664D01*
X133901281Y-114085000D01*
X134068719Y-114085000D01*
X134232934Y-114117664D01*
X134232934Y-114117664D01*
G37*
G36*
X82506703Y-111781486D02*
X82797883Y-111902097D01*
X83059944Y-112077201D01*
X83282799Y-112300056D01*
X83457903Y-112562117D01*
X83578514Y-112853297D01*
X83640000Y-113162412D01*
X83640000Y-113477588D01*
X83578514Y-113786703D01*
X83457903Y-114077883D01*
X83282799Y-114339944D01*
X83059944Y-114562799D01*
X82797883Y-114737903D01*
X82506703Y-114858514D01*
X82197588Y-114920000D01*
X81882412Y-114920000D01*
X81573297Y-114858514D01*
X81282117Y-114737903D01*
X81020056Y-114562799D01*
X80797201Y-114339944D01*
X80622097Y-114077883D01*
X80501486Y-113786703D01*
X80440000Y-113477588D01*
X80440000Y-113162412D01*
X80501486Y-112853297D01*
X80622097Y-112562117D01*
X80797201Y-112300056D01*
X81020056Y-112077201D01*
X81282117Y-111902097D01*
X81573297Y-111781486D01*
X81882412Y-111720000D01*
X82197588Y-111720000D01*
X82506703Y-111781486D01*
X82506703Y-111781486D01*
G37*
G36*
X140496703Y-111771486D02*
X140787883Y-111892097D01*
X141049944Y-112067201D01*
X141272799Y-112290056D01*
X141447903Y-112552117D01*
X141568514Y-112843297D01*
X141630000Y-113152412D01*
X141630000Y-113467588D01*
X141568514Y-113776703D01*
X141447903Y-114067883D01*
X141272799Y-114329944D01*
X141049944Y-114552799D01*
X140787883Y-114727903D01*
X140496703Y-114848514D01*
X140187588Y-114910000D01*
X139872412Y-114910000D01*
X139563297Y-114848514D01*
X139272117Y-114727903D01*
X139010056Y-114552799D01*
X138787201Y-114329944D01*
X138612097Y-114067883D01*
X138491486Y-113776703D01*
X138430000Y-113467588D01*
X138430000Y-113152412D01*
X138491486Y-112843297D01*
X138612097Y-112552117D01*
X138787201Y-112290056D01*
X139010056Y-112067201D01*
X139272117Y-111892097D01*
X139563297Y-111771486D01*
X139872412Y-111710000D01*
X140187588Y-111710000D01*
X140496703Y-111771486D01*
X140496703Y-111771486D01*
G37*
G36*
X113980000Y-113345000D02*
X112080000Y-113345000D01*
X112080000Y-111445000D01*
X113980000Y-111445000D01*
X113980000Y-113345000D01*
X113980000Y-113345000D01*
G37*
G36*
X115686448Y-111451873D02*
X115756232Y-111458746D01*
X115845770Y-111485907D01*
X115935309Y-111513068D01*
X116100347Y-111601283D01*
X116245001Y-111719999D01*
X116363717Y-111864653D01*
X116451932Y-112029691D01*
X116451932Y-112029692D01*
X116506254Y-112208768D01*
X116524596Y-112395000D01*
X116509122Y-112552117D01*
X116506254Y-112581231D01*
X116451932Y-112760309D01*
X116363717Y-112925347D01*
X116245001Y-113070001D01*
X116100347Y-113188717D01*
X115935309Y-113276932D01*
X115845770Y-113304093D01*
X115756232Y-113331254D01*
X115686448Y-113338127D01*
X115616666Y-113345000D01*
X115523334Y-113345000D01*
X115453552Y-113338127D01*
X115383768Y-113331254D01*
X115294230Y-113304093D01*
X115204691Y-113276932D01*
X115039653Y-113188717D01*
X114894999Y-113070001D01*
X114776283Y-112925347D01*
X114688068Y-112760309D01*
X114633746Y-112581231D01*
X114630879Y-112552117D01*
X114615404Y-112395000D01*
X114633746Y-112208768D01*
X114688068Y-112029692D01*
X114688068Y-112029691D01*
X114776283Y-111864653D01*
X114894999Y-111719999D01*
X115039653Y-111601283D01*
X115204691Y-111513068D01*
X115294230Y-111485907D01*
X115383768Y-111458746D01*
X115453552Y-111451873D01*
X115523334Y-111445000D01*
X115616666Y-111445000D01*
X115686448Y-111451873D01*
X115686448Y-111451873D01*
G37*
G36*
X130926448Y-111451873D02*
X130996232Y-111458746D01*
X131085770Y-111485907D01*
X131175309Y-111513068D01*
X131340347Y-111601283D01*
X131485001Y-111719999D01*
X131603717Y-111864653D01*
X131691932Y-112029691D01*
X131691932Y-112029692D01*
X131746254Y-112208768D01*
X131764596Y-112395000D01*
X131749122Y-112552117D01*
X131746254Y-112581231D01*
X131691932Y-112760309D01*
X131603717Y-112925347D01*
X131485001Y-113070001D01*
X131340347Y-113188717D01*
X131175309Y-113276932D01*
X131085770Y-113304093D01*
X130996232Y-113331254D01*
X130926448Y-113338127D01*
X130856666Y-113345000D01*
X130763334Y-113345000D01*
X130693552Y-113338127D01*
X130623768Y-113331254D01*
X130534230Y-113304093D01*
X130444691Y-113276932D01*
X130279653Y-113188717D01*
X130134999Y-113070001D01*
X130016283Y-112925347D01*
X129928068Y-112760309D01*
X129873746Y-112581231D01*
X129870879Y-112552117D01*
X129855404Y-112395000D01*
X129873746Y-112208768D01*
X129928068Y-112029692D01*
X129928068Y-112029691D01*
X130016283Y-111864653D01*
X130134999Y-111719999D01*
X130279653Y-111601283D01*
X130444691Y-111513068D01*
X130534230Y-111485907D01*
X130623768Y-111458746D01*
X130693552Y-111451873D01*
X130763334Y-111445000D01*
X130856666Y-111445000D01*
X130926448Y-111451873D01*
X130926448Y-111451873D01*
G37*
G36*
X118226448Y-111451873D02*
X118296232Y-111458746D01*
X118385770Y-111485907D01*
X118475309Y-111513068D01*
X118640347Y-111601283D01*
X118785001Y-111719999D01*
X118903717Y-111864653D01*
X118991932Y-112029691D01*
X118991932Y-112029692D01*
X119046254Y-112208768D01*
X119064596Y-112395000D01*
X119049122Y-112552117D01*
X119046254Y-112581231D01*
X118991932Y-112760309D01*
X118903717Y-112925347D01*
X118785001Y-113070001D01*
X118640347Y-113188717D01*
X118475309Y-113276932D01*
X118385770Y-113304093D01*
X118296232Y-113331254D01*
X118226448Y-113338127D01*
X118156666Y-113345000D01*
X118063334Y-113345000D01*
X117993552Y-113338127D01*
X117923768Y-113331254D01*
X117834230Y-113304093D01*
X117744691Y-113276932D01*
X117579653Y-113188717D01*
X117434999Y-113070001D01*
X117316283Y-112925347D01*
X117228068Y-112760309D01*
X117173746Y-112581231D01*
X117170879Y-112552117D01*
X117155404Y-112395000D01*
X117173746Y-112208768D01*
X117228068Y-112029692D01*
X117228068Y-112029691D01*
X117316283Y-111864653D01*
X117434999Y-111719999D01*
X117579653Y-111601283D01*
X117744691Y-111513068D01*
X117834230Y-111485907D01*
X117923768Y-111458746D01*
X117993552Y-111451873D01*
X118063334Y-111445000D01*
X118156666Y-111445000D01*
X118226448Y-111451873D01*
X118226448Y-111451873D01*
G37*
G36*
X128386448Y-111451873D02*
X128456232Y-111458746D01*
X128545770Y-111485907D01*
X128635309Y-111513068D01*
X128800347Y-111601283D01*
X128945001Y-111719999D01*
X129063717Y-111864653D01*
X129151932Y-112029691D01*
X129151932Y-112029692D01*
X129206254Y-112208768D01*
X129224596Y-112395000D01*
X129209122Y-112552117D01*
X129206254Y-112581231D01*
X129151932Y-112760309D01*
X129063717Y-112925347D01*
X128945001Y-113070001D01*
X128800347Y-113188717D01*
X128635309Y-113276932D01*
X128545770Y-113304093D01*
X128456232Y-113331254D01*
X128386448Y-113338127D01*
X128316666Y-113345000D01*
X128223334Y-113345000D01*
X128153552Y-113338127D01*
X128083768Y-113331254D01*
X127994230Y-113304093D01*
X127904691Y-113276932D01*
X127739653Y-113188717D01*
X127594999Y-113070001D01*
X127476283Y-112925347D01*
X127388068Y-112760309D01*
X127333746Y-112581231D01*
X127330879Y-112552117D01*
X127315404Y-112395000D01*
X127333746Y-112208768D01*
X127388068Y-112029692D01*
X127388068Y-112029691D01*
X127476283Y-111864653D01*
X127594999Y-111719999D01*
X127739653Y-111601283D01*
X127904691Y-111513068D01*
X127994230Y-111485907D01*
X128083768Y-111458746D01*
X128153552Y-111451873D01*
X128223334Y-111445000D01*
X128316666Y-111445000D01*
X128386448Y-111451873D01*
X128386448Y-111451873D01*
G37*
G36*
X120766448Y-111451873D02*
X120836232Y-111458746D01*
X120925770Y-111485907D01*
X121015309Y-111513068D01*
X121180347Y-111601283D01*
X121325001Y-111719999D01*
X121443717Y-111864653D01*
X121531932Y-112029691D01*
X121531932Y-112029692D01*
X121586254Y-112208768D01*
X121604596Y-112395000D01*
X121589122Y-112552117D01*
X121586254Y-112581231D01*
X121531932Y-112760309D01*
X121443717Y-112925347D01*
X121325001Y-113070001D01*
X121180347Y-113188717D01*
X121015309Y-113276932D01*
X120925770Y-113304093D01*
X120836232Y-113331254D01*
X120766448Y-113338127D01*
X120696666Y-113345000D01*
X120603334Y-113345000D01*
X120533552Y-113338127D01*
X120463768Y-113331254D01*
X120374230Y-113304093D01*
X120284691Y-113276932D01*
X120119653Y-113188717D01*
X119974999Y-113070001D01*
X119856283Y-112925347D01*
X119768068Y-112760309D01*
X119713746Y-112581231D01*
X119710879Y-112552117D01*
X119695404Y-112395000D01*
X119713746Y-112208768D01*
X119768068Y-112029692D01*
X119768068Y-112029691D01*
X119856283Y-111864653D01*
X119974999Y-111719999D01*
X120119653Y-111601283D01*
X120284691Y-111513068D01*
X120374230Y-111485907D01*
X120463768Y-111458746D01*
X120533552Y-111451873D01*
X120603334Y-111445000D01*
X120696666Y-111445000D01*
X120766448Y-111451873D01*
X120766448Y-111451873D01*
G37*
G36*
X125846448Y-111451873D02*
X125916232Y-111458746D01*
X126005770Y-111485907D01*
X126095309Y-111513068D01*
X126260347Y-111601283D01*
X126405001Y-111719999D01*
X126523717Y-111864653D01*
X126611932Y-112029691D01*
X126611932Y-112029692D01*
X126666254Y-112208768D01*
X126684596Y-112395000D01*
X126669122Y-112552117D01*
X126666254Y-112581231D01*
X126611932Y-112760309D01*
X126523717Y-112925347D01*
X126405001Y-113070001D01*
X126260347Y-113188717D01*
X126095309Y-113276932D01*
X126005770Y-113304093D01*
X125916232Y-113331254D01*
X125846448Y-113338127D01*
X125776666Y-113345000D01*
X125683334Y-113345000D01*
X125613552Y-113338127D01*
X125543768Y-113331254D01*
X125454230Y-113304093D01*
X125364691Y-113276932D01*
X125199653Y-113188717D01*
X125054999Y-113070001D01*
X124936283Y-112925347D01*
X124848068Y-112760309D01*
X124793746Y-112581231D01*
X124790879Y-112552117D01*
X124775404Y-112395000D01*
X124793746Y-112208768D01*
X124848068Y-112029692D01*
X124848068Y-112029691D01*
X124936283Y-111864653D01*
X125054999Y-111719999D01*
X125199653Y-111601283D01*
X125364691Y-111513068D01*
X125454230Y-111485907D01*
X125543768Y-111458746D01*
X125613552Y-111451873D01*
X125683334Y-111445000D01*
X125776666Y-111445000D01*
X125846448Y-111451873D01*
X125846448Y-111451873D01*
G37*
G36*
X134232934Y-111577664D02*
X134387627Y-111641740D01*
X134526847Y-111734764D01*
X134645236Y-111853153D01*
X134738260Y-111992373D01*
X134802336Y-112147066D01*
X134835000Y-112311281D01*
X134835000Y-112478719D01*
X134802336Y-112642934D01*
X134738260Y-112797627D01*
X134645236Y-112936847D01*
X134526847Y-113055236D01*
X134387627Y-113148260D01*
X134232934Y-113212336D01*
X134068719Y-113245000D01*
X133901281Y-113245000D01*
X133737066Y-113212336D01*
X133582373Y-113148260D01*
X133443153Y-113055236D01*
X133324764Y-112936847D01*
X133231740Y-112797627D01*
X133167664Y-112642934D01*
X133135000Y-112478719D01*
X133135000Y-112311281D01*
X133167664Y-112147066D01*
X133231740Y-111992373D01*
X133324764Y-111853153D01*
X133443153Y-111734764D01*
X133582373Y-111641740D01*
X133737066Y-111577664D01*
X133901281Y-111545000D01*
X134068719Y-111545000D01*
X134232934Y-111577664D01*
X134232934Y-111577664D01*
G37*
G36*
X90612000Y-110170000D02*
X88712000Y-110170000D01*
X88712000Y-108270000D01*
X90612000Y-108270000D01*
X90612000Y-110170000D01*
X90612000Y-110170000D01*
G37*
G36*
X110170000Y-110170000D02*
X108270000Y-110170000D01*
X108270000Y-108270000D01*
X110170000Y-108270000D01*
X110170000Y-110170000D01*
X110170000Y-110170000D01*
G37*
G36*
X84199196Y-106389958D02*
X84435780Y-106487954D01*
X84648705Y-106630226D01*
X84829774Y-106811295D01*
X84972046Y-107024220D01*
X85070042Y-107260804D01*
X85120000Y-107511960D01*
X85120000Y-107768040D01*
X85070042Y-108019196D01*
X84972046Y-108255780D01*
X84829774Y-108468705D01*
X84648705Y-108649774D01*
X84435780Y-108792046D01*
X84199196Y-108890042D01*
X83948040Y-108940000D01*
X83691960Y-108940000D01*
X83440804Y-108890042D01*
X83204220Y-108792046D01*
X82991295Y-108649774D01*
X82810226Y-108468705D01*
X82667954Y-108255780D01*
X82569958Y-108019196D01*
X82520000Y-107768040D01*
X82520000Y-107511960D01*
X82569958Y-107260804D01*
X82667954Y-107024220D01*
X82810226Y-106811295D01*
X82991295Y-106630226D01*
X83204220Y-106487954D01*
X83440804Y-106389958D01*
X83691960Y-106340000D01*
X83948040Y-106340000D01*
X84199196Y-106389958D01*
X84199196Y-106389958D01*
G37*
G36*
X129162000Y-108446000D02*
X128262000Y-108446000D01*
X128262000Y-106946000D01*
X129162000Y-106946000D01*
X129162000Y-108446000D01*
X129162000Y-108446000D01*
G37*
G36*
X127262000Y-108446000D02*
X126362000Y-108446000D01*
X126362000Y-106946000D01*
X127262000Y-106946000D01*
X127262000Y-108446000D01*
X127262000Y-108446000D01*
G37*
G36*
X139251232Y-105743746D02*
X139340770Y-105770907D01*
X139430309Y-105798068D01*
X139595347Y-105886283D01*
X139740001Y-106004999D01*
X139858717Y-106149653D01*
X139946932Y-106314691D01*
X139946932Y-106314692D01*
X139999491Y-106487955D01*
X140001254Y-106493769D01*
X140019596Y-106680000D01*
X140001254Y-106866231D01*
X139946932Y-107045309D01*
X139858717Y-107210347D01*
X139740001Y-107355001D01*
X139595347Y-107473717D01*
X139430309Y-107561932D01*
X139340770Y-107589093D01*
X139251232Y-107616254D01*
X139111666Y-107630000D01*
X139018334Y-107630000D01*
X138878768Y-107616254D01*
X138789230Y-107589093D01*
X138699691Y-107561932D01*
X138534653Y-107473717D01*
X138389999Y-107355001D01*
X138271283Y-107210347D01*
X138183068Y-107045309D01*
X138128746Y-106866231D01*
X138110404Y-106680000D01*
X138128746Y-106493769D01*
X138130510Y-106487955D01*
X138183068Y-106314692D01*
X138183068Y-106314691D01*
X138271283Y-106149653D01*
X138389999Y-106004999D01*
X138534653Y-105886283D01*
X138699691Y-105798068D01*
X138789230Y-105770907D01*
X138878768Y-105743746D01*
X138948552Y-105736873D01*
X139018334Y-105730000D01*
X139111666Y-105730000D01*
X139251232Y-105743746D01*
X139251232Y-105743746D01*
G37*
G36*
X141791232Y-105743746D02*
X141880770Y-105770907D01*
X141970309Y-105798068D01*
X142135347Y-105886283D01*
X142280001Y-106004999D01*
X142398717Y-106149653D01*
X142486932Y-106314691D01*
X142486932Y-106314692D01*
X142539491Y-106487955D01*
X142541254Y-106493769D01*
X142559596Y-106680000D01*
X142541254Y-106866231D01*
X142486932Y-107045309D01*
X142398717Y-107210347D01*
X142280001Y-107355001D01*
X142135347Y-107473717D01*
X141970309Y-107561932D01*
X141880770Y-107589093D01*
X141791232Y-107616254D01*
X141651666Y-107630000D01*
X141558334Y-107630000D01*
X141418768Y-107616254D01*
X141329230Y-107589093D01*
X141239691Y-107561932D01*
X141074653Y-107473717D01*
X140929999Y-107355001D01*
X140811283Y-107210347D01*
X140723068Y-107045309D01*
X140668746Y-106866231D01*
X140650404Y-106680000D01*
X140668746Y-106493769D01*
X140670510Y-106487955D01*
X140723068Y-106314692D01*
X140723068Y-106314691D01*
X140811283Y-106149653D01*
X140929999Y-106004999D01*
X141074653Y-105886283D01*
X141239691Y-105798068D01*
X141329230Y-105770907D01*
X141418768Y-105743746D01*
X141488552Y-105736873D01*
X141558334Y-105730000D01*
X141651666Y-105730000D01*
X141791232Y-105743746D01*
X141791232Y-105743746D01*
G37*
G36*
X133240000Y-106540000D02*
X120760000Y-106540000D01*
X120760000Y-104840000D01*
X133240000Y-104840000D01*
X133240000Y-106540000D01*
X133240000Y-106540000D01*
G37*
G36*
X84199196Y-102889958D02*
X84435780Y-102987954D01*
X84648705Y-103130226D01*
X84829774Y-103311295D01*
X84972046Y-103524220D01*
X85070042Y-103760804D01*
X85120000Y-104011960D01*
X85120000Y-104268040D01*
X85070042Y-104519196D01*
X84972046Y-104755780D01*
X84829774Y-104968705D01*
X84648705Y-105149774D01*
X84435780Y-105292046D01*
X84199196Y-105390042D01*
X83948040Y-105440000D01*
X83691960Y-105440000D01*
X83440804Y-105390042D01*
X83204220Y-105292046D01*
X82991295Y-105149774D01*
X82810226Y-104968705D01*
X82667954Y-104755780D01*
X82569958Y-104519196D01*
X82520000Y-104268040D01*
X82520000Y-104011960D01*
X82569958Y-103760804D01*
X82667954Y-103524220D01*
X82810226Y-103311295D01*
X82991295Y-103130226D01*
X83204220Y-102987954D01*
X83440804Y-102889958D01*
X83691960Y-102840000D01*
X83948040Y-102840000D01*
X84199196Y-102889958D01*
X84199196Y-102889958D01*
G37*
G36*
X139181448Y-103196873D02*
X139251232Y-103203746D01*
X139340770Y-103230907D01*
X139430309Y-103258068D01*
X139595347Y-103346283D01*
X139740001Y-103464999D01*
X139858717Y-103609653D01*
X139946932Y-103774691D01*
X140001254Y-103953769D01*
X140019596Y-104140000D01*
X140001254Y-104326231D01*
X139946932Y-104505309D01*
X139858717Y-104670347D01*
X139740001Y-104815001D01*
X139595347Y-104933717D01*
X139430309Y-105021932D01*
X139340770Y-105049093D01*
X139251232Y-105076254D01*
X139181448Y-105083127D01*
X139111666Y-105090000D01*
X139018334Y-105090000D01*
X138948552Y-105083127D01*
X138878768Y-105076254D01*
X138789230Y-105049093D01*
X138699691Y-105021932D01*
X138534653Y-104933717D01*
X138389999Y-104815001D01*
X138271283Y-104670347D01*
X138183068Y-104505309D01*
X138128746Y-104326231D01*
X138110404Y-104140000D01*
X138128746Y-103953769D01*
X138183068Y-103774691D01*
X138271283Y-103609653D01*
X138389999Y-103464999D01*
X138534653Y-103346283D01*
X138699691Y-103258068D01*
X138789230Y-103230907D01*
X138878768Y-103203746D01*
X138948552Y-103196873D01*
X139018334Y-103190000D01*
X139111666Y-103190000D01*
X139181448Y-103196873D01*
X139181448Y-103196873D01*
G37*
G36*
X141721448Y-103196873D02*
X141791232Y-103203746D01*
X141880770Y-103230907D01*
X141970309Y-103258068D01*
X142135347Y-103346283D01*
X142280001Y-103464999D01*
X142398717Y-103609653D01*
X142486932Y-103774691D01*
X142541254Y-103953769D01*
X142559596Y-104140000D01*
X142541254Y-104326231D01*
X142486932Y-104505309D01*
X142398717Y-104670347D01*
X142280001Y-104815001D01*
X142135347Y-104933717D01*
X141970309Y-105021932D01*
X141880770Y-105049093D01*
X141791232Y-105076254D01*
X141721448Y-105083127D01*
X141651666Y-105090000D01*
X141558334Y-105090000D01*
X141488552Y-105083127D01*
X141418768Y-105076254D01*
X141329230Y-105049093D01*
X141239691Y-105021932D01*
X141074653Y-104933717D01*
X140929999Y-104815001D01*
X140811283Y-104670347D01*
X140723068Y-104505309D01*
X140668746Y-104326231D01*
X140650404Y-104140000D01*
X140668746Y-103953769D01*
X140723068Y-103774691D01*
X140811283Y-103609653D01*
X140929999Y-103464999D01*
X141074653Y-103346283D01*
X141239691Y-103258068D01*
X141329230Y-103230907D01*
X141418768Y-103203746D01*
X141488552Y-103196873D01*
X141558334Y-103190000D01*
X141651666Y-103190000D01*
X141721448Y-103196873D01*
X141721448Y-103196873D01*
G37*
G36*
X135750000Y-104030000D02*
X134050000Y-104030000D01*
X134050000Y-91550000D01*
X135750000Y-91550000D01*
X135750000Y-104030000D01*
X135750000Y-104030000D01*
G37*
G36*
X119950000Y-104030000D02*
X118250000Y-104030000D01*
X118250000Y-91550000D01*
X119950000Y-91550000D01*
X119950000Y-104030000D01*
X119950000Y-104030000D01*
G37*
G36*
X141721448Y-100656873D02*
X141791232Y-100663746D01*
X141880770Y-100690907D01*
X141970309Y-100718068D01*
X142135347Y-100806283D01*
X142280001Y-100924999D01*
X142398717Y-101069653D01*
X142486932Y-101234691D01*
X142541254Y-101413769D01*
X142559596Y-101600000D01*
X142541254Y-101786231D01*
X142486932Y-101965309D01*
X142398717Y-102130347D01*
X142280001Y-102275001D01*
X142135347Y-102393717D01*
X141970309Y-102481932D01*
X141880770Y-102509093D01*
X141791232Y-102536254D01*
X141721448Y-102543127D01*
X141651666Y-102550000D01*
X141558334Y-102550000D01*
X141488552Y-102543127D01*
X141418768Y-102536254D01*
X141329230Y-102509093D01*
X141239691Y-102481932D01*
X141074653Y-102393717D01*
X140929999Y-102275001D01*
X140811283Y-102130347D01*
X140723068Y-101965309D01*
X140668746Y-101786231D01*
X140650404Y-101600000D01*
X140668746Y-101413769D01*
X140723068Y-101234691D01*
X140811283Y-101069653D01*
X140929999Y-100924999D01*
X141074653Y-100806283D01*
X141239691Y-100718068D01*
X141329230Y-100690907D01*
X141418768Y-100663746D01*
X141558334Y-100650000D01*
X141651666Y-100650000D01*
X141721448Y-100656873D01*
X141721448Y-100656873D01*
G37*
G36*
X139181448Y-100656873D02*
X139251232Y-100663746D01*
X139340770Y-100690907D01*
X139430309Y-100718068D01*
X139595347Y-100806283D01*
X139740001Y-100924999D01*
X139858717Y-101069653D01*
X139946932Y-101234691D01*
X140001254Y-101413769D01*
X140019596Y-101600000D01*
X140001254Y-101786231D01*
X139946932Y-101965309D01*
X139858717Y-102130347D01*
X139740001Y-102275001D01*
X139595347Y-102393717D01*
X139430309Y-102481932D01*
X139340770Y-102509093D01*
X139251232Y-102536254D01*
X139181448Y-102543127D01*
X139111666Y-102550000D01*
X139018334Y-102550000D01*
X138948552Y-102543127D01*
X138878768Y-102536254D01*
X138789230Y-102509093D01*
X138699691Y-102481932D01*
X138534653Y-102393717D01*
X138389999Y-102275001D01*
X138271283Y-102130347D01*
X138183068Y-101965309D01*
X138128746Y-101786231D01*
X138110404Y-101600000D01*
X138128746Y-101413769D01*
X138183068Y-101234691D01*
X138271283Y-101069653D01*
X138389999Y-100924999D01*
X138534653Y-100806283D01*
X138699691Y-100718068D01*
X138789230Y-100690907D01*
X138878768Y-100663746D01*
X139018334Y-100650000D01*
X139111666Y-100650000D01*
X139181448Y-100656873D01*
X139181448Y-100656873D01*
G37*
G36*
X85120000Y-101940000D02*
X82520000Y-101940000D01*
X82520000Y-99340000D01*
X85120000Y-99340000D01*
X85120000Y-101940000D01*
X85120000Y-101940000D01*
G37*
G36*
X112653000Y-101440000D02*
X111653000Y-101440000D01*
X111653000Y-100490000D01*
X112653000Y-100490000D01*
X112653000Y-101440000D01*
X112653000Y-101440000D01*
G37*
G36*
X114153000Y-101440000D02*
X113153000Y-101440000D01*
X113153000Y-100490000D01*
X114153000Y-100490000D01*
X114153000Y-101440000D01*
X114153000Y-101440000D01*
G37*
G36*
X114503000Y-100039000D02*
X113303000Y-100039000D01*
X113303000Y-98589000D01*
X114503000Y-98589000D01*
X114503000Y-100039000D01*
X114503000Y-100039000D01*
G37*
G36*
X112503000Y-100039000D02*
X111303000Y-100039000D01*
X111303000Y-98589000D01*
X112503000Y-98589000D01*
X112503000Y-100039000D01*
X112503000Y-100039000D01*
G37*
G36*
X141721448Y-98116873D02*
X141791232Y-98123746D01*
X141880770Y-98150907D01*
X141970309Y-98178068D01*
X142135347Y-98266283D01*
X142280001Y-98384999D01*
X142398717Y-98529653D01*
X142486932Y-98694691D01*
X142541254Y-98873769D01*
X142559596Y-99060000D01*
X142541254Y-99246231D01*
X142486932Y-99425309D01*
X142398717Y-99590347D01*
X142280001Y-99735001D01*
X142135347Y-99853717D01*
X141970309Y-99941932D01*
X141880770Y-99969093D01*
X141791232Y-99996254D01*
X141651666Y-100010000D01*
X141558334Y-100010000D01*
X141418768Y-99996254D01*
X141329230Y-99969093D01*
X141239691Y-99941932D01*
X141074653Y-99853717D01*
X140929999Y-99735001D01*
X140811283Y-99590347D01*
X140723068Y-99425309D01*
X140668746Y-99246231D01*
X140650404Y-99060000D01*
X140668746Y-98873769D01*
X140723068Y-98694691D01*
X140811283Y-98529653D01*
X140929999Y-98384999D01*
X141074653Y-98266283D01*
X141239691Y-98178068D01*
X141329230Y-98150907D01*
X141418768Y-98123746D01*
X141488552Y-98116873D01*
X141558334Y-98110000D01*
X141651666Y-98110000D01*
X141721448Y-98116873D01*
X141721448Y-98116873D01*
G37*
G36*
X139181448Y-98116873D02*
X139251232Y-98123746D01*
X139340770Y-98150907D01*
X139430309Y-98178068D01*
X139595347Y-98266283D01*
X139740001Y-98384999D01*
X139858717Y-98529653D01*
X139946932Y-98694691D01*
X140001254Y-98873769D01*
X140019596Y-99060000D01*
X140001254Y-99246231D01*
X139946932Y-99425309D01*
X139858717Y-99590347D01*
X139740001Y-99735001D01*
X139595347Y-99853717D01*
X139430309Y-99941932D01*
X139340770Y-99969093D01*
X139251232Y-99996254D01*
X139111666Y-100010000D01*
X139018334Y-100010000D01*
X138878768Y-99996254D01*
X138789230Y-99969093D01*
X138699691Y-99941932D01*
X138534653Y-99853717D01*
X138389999Y-99735001D01*
X138271283Y-99590347D01*
X138183068Y-99425309D01*
X138128746Y-99246231D01*
X138110404Y-99060000D01*
X138128746Y-98873769D01*
X138183068Y-98694691D01*
X138271283Y-98529653D01*
X138389999Y-98384999D01*
X138534653Y-98266283D01*
X138699691Y-98178068D01*
X138789230Y-98150907D01*
X138878768Y-98123746D01*
X138948552Y-98116873D01*
X139018334Y-98110000D01*
X139111666Y-98110000D01*
X139181448Y-98116873D01*
X139181448Y-98116873D01*
G37*
G36*
X87369934Y-96972664D02*
X87524627Y-97036740D01*
X87663847Y-97129764D01*
X87782236Y-97248153D01*
X87875260Y-97387373D01*
X87939336Y-97542066D01*
X87972000Y-97706281D01*
X87972000Y-97873719D01*
X87939336Y-98037934D01*
X87875260Y-98192627D01*
X87782236Y-98331847D01*
X87663847Y-98450236D01*
X87524627Y-98543260D01*
X87369934Y-98607336D01*
X87205719Y-98640000D01*
X87038281Y-98640000D01*
X86874066Y-98607336D01*
X86719373Y-98543260D01*
X86580153Y-98450236D01*
X86461764Y-98331847D01*
X86368740Y-98192627D01*
X86304664Y-98037934D01*
X86272000Y-97873719D01*
X86272000Y-97706281D01*
X86304664Y-97542066D01*
X86368740Y-97387373D01*
X86461764Y-97248153D01*
X86580153Y-97129764D01*
X86719373Y-97036740D01*
X86874066Y-96972664D01*
X87038281Y-96940000D01*
X87205719Y-96940000D01*
X87369934Y-96972664D01*
X87369934Y-96972664D01*
G37*
G36*
X116549000Y-98374000D02*
X115099000Y-98374000D01*
X115099000Y-97174000D01*
X116549000Y-97174000D01*
X116549000Y-98374000D01*
X116549000Y-98374000D01*
G37*
G36*
X112503000Y-98007000D02*
X111303000Y-98007000D01*
X111303000Y-96557000D01*
X112503000Y-96557000D01*
X112503000Y-98007000D01*
X112503000Y-98007000D01*
G37*
G36*
X114503000Y-98007000D02*
X113303000Y-98007000D01*
X113303000Y-96557000D01*
X114503000Y-96557000D01*
X114503000Y-98007000D01*
X114503000Y-98007000D01*
G37*
G36*
X139251232Y-95583746D02*
X139340770Y-95610907D01*
X139430309Y-95638068D01*
X139595347Y-95726283D01*
X139740001Y-95844999D01*
X139858717Y-95989653D01*
X139946932Y-96154691D01*
X140001254Y-96333769D01*
X140019596Y-96520000D01*
X140001254Y-96706231D01*
X139946932Y-96885309D01*
X139858717Y-97050347D01*
X139740001Y-97195001D01*
X139595347Y-97313717D01*
X139430309Y-97401932D01*
X139340770Y-97429093D01*
X139251232Y-97456254D01*
X139181448Y-97463127D01*
X139111666Y-97470000D01*
X139018334Y-97470000D01*
X138878768Y-97456254D01*
X138789230Y-97429093D01*
X138699691Y-97401932D01*
X138534653Y-97313717D01*
X138389999Y-97195001D01*
X138271283Y-97050347D01*
X138183068Y-96885309D01*
X138128746Y-96706231D01*
X138110404Y-96520000D01*
X138128746Y-96333769D01*
X138183068Y-96154691D01*
X138271283Y-95989653D01*
X138389999Y-95844999D01*
X138534653Y-95726283D01*
X138699691Y-95638068D01*
X138789230Y-95610907D01*
X138878768Y-95583746D01*
X138948552Y-95576873D01*
X139018334Y-95570000D01*
X139111666Y-95570000D01*
X139251232Y-95583746D01*
X139251232Y-95583746D01*
G37*
G36*
X141791232Y-95583746D02*
X141880770Y-95610907D01*
X141970309Y-95638068D01*
X142135347Y-95726283D01*
X142280001Y-95844999D01*
X142398717Y-95989653D01*
X142486932Y-96154691D01*
X142541254Y-96333769D01*
X142559596Y-96520000D01*
X142541254Y-96706231D01*
X142486932Y-96885309D01*
X142398717Y-97050347D01*
X142280001Y-97195001D01*
X142135347Y-97313717D01*
X141970309Y-97401932D01*
X141880770Y-97429093D01*
X141791232Y-97456254D01*
X141721448Y-97463127D01*
X141651666Y-97470000D01*
X141558334Y-97470000D01*
X141418768Y-97456254D01*
X141329230Y-97429093D01*
X141239691Y-97401932D01*
X141074653Y-97313717D01*
X140929999Y-97195001D01*
X140811283Y-97050347D01*
X140723068Y-96885309D01*
X140668746Y-96706231D01*
X140650404Y-96520000D01*
X140668746Y-96333769D01*
X140723068Y-96154691D01*
X140811283Y-95989653D01*
X140929999Y-95844999D01*
X141074653Y-95726283D01*
X141239691Y-95638068D01*
X141329230Y-95610907D01*
X141418768Y-95583746D01*
X141488552Y-95576873D01*
X141558334Y-95570000D01*
X141651666Y-95570000D01*
X141791232Y-95583746D01*
X141791232Y-95583746D01*
G37*
G36*
X116549000Y-96374000D02*
X115099000Y-96374000D01*
X115099000Y-95174000D01*
X116549000Y-95174000D01*
X116549000Y-96374000D01*
X116549000Y-96374000D01*
G37*
G36*
X112503000Y-95975000D02*
X111303000Y-95975000D01*
X111303000Y-94525000D01*
X112503000Y-94525000D01*
X112503000Y-95975000D01*
X112503000Y-95975000D01*
G37*
G36*
X114503000Y-95975000D02*
X113303000Y-95975000D01*
X113303000Y-94525000D01*
X114503000Y-94525000D01*
X114503000Y-95975000D01*
X114503000Y-95975000D01*
G37*
G36*
X109336448Y-93544873D02*
X109406232Y-93551746D01*
X109495770Y-93578907D01*
X109585309Y-93606068D01*
X109750347Y-93694283D01*
X109895001Y-93812999D01*
X110013717Y-93957653D01*
X110101932Y-94122691D01*
X110156254Y-94301769D01*
X110174596Y-94488000D01*
X110156254Y-94674231D01*
X110101932Y-94853309D01*
X110013717Y-95018347D01*
X109895001Y-95163001D01*
X109750347Y-95281717D01*
X109585309Y-95369932D01*
X109495770Y-95397093D01*
X109406232Y-95424254D01*
X109266666Y-95438000D01*
X109173334Y-95438000D01*
X109103552Y-95431127D01*
X109033768Y-95424254D01*
X108944230Y-95397093D01*
X108854691Y-95369932D01*
X108689653Y-95281717D01*
X108544999Y-95163001D01*
X108426283Y-95018347D01*
X108338068Y-94853309D01*
X108283746Y-94674231D01*
X108265404Y-94488000D01*
X108283746Y-94301769D01*
X108338068Y-94122691D01*
X108426283Y-93957653D01*
X108544999Y-93812999D01*
X108689653Y-93694283D01*
X108854691Y-93606068D01*
X108944230Y-93578907D01*
X109033768Y-93551746D01*
X109103552Y-93544873D01*
X109173334Y-93538000D01*
X109266666Y-93538000D01*
X109336448Y-93544873D01*
X109336448Y-93544873D01*
G37*
G36*
X89778448Y-93544873D02*
X89848232Y-93551746D01*
X89937770Y-93578907D01*
X90027309Y-93606068D01*
X90192347Y-93694283D01*
X90337001Y-93812999D01*
X90455717Y-93957653D01*
X90543932Y-94122691D01*
X90598254Y-94301769D01*
X90616596Y-94488000D01*
X90598254Y-94674231D01*
X90543932Y-94853309D01*
X90455717Y-95018347D01*
X90337001Y-95163001D01*
X90192347Y-95281717D01*
X90027309Y-95369932D01*
X89937770Y-95397093D01*
X89848232Y-95424254D01*
X89778448Y-95431127D01*
X89708666Y-95438000D01*
X89615334Y-95438000D01*
X89545552Y-95431127D01*
X89475768Y-95424254D01*
X89386230Y-95397093D01*
X89296691Y-95369932D01*
X89131653Y-95281717D01*
X88986999Y-95163001D01*
X88868283Y-95018347D01*
X88780068Y-94853309D01*
X88725746Y-94674231D01*
X88707404Y-94488000D01*
X88725746Y-94301769D01*
X88780068Y-94122691D01*
X88868283Y-93957653D01*
X88986999Y-93812999D01*
X89131653Y-93694283D01*
X89296691Y-93606068D01*
X89386230Y-93578907D01*
X89475768Y-93551746D01*
X89545552Y-93544873D01*
X89615334Y-93538000D01*
X89708666Y-93538000D01*
X89778448Y-93544873D01*
X89778448Y-93544873D01*
G37*
G36*
X142555000Y-94930000D02*
X140655000Y-94930000D01*
X140655000Y-93030000D01*
X142555000Y-93030000D01*
X142555000Y-94930000D01*
X142555000Y-94930000D01*
G37*
G36*
X140015000Y-94930000D02*
X138115000Y-94930000D01*
X138115000Y-93030000D01*
X140015000Y-93030000D01*
X140015000Y-94930000D01*
X140015000Y-94930000D01*
G37*
G36*
X112564000Y-94064000D02*
X111464000Y-94064000D01*
X111464000Y-93364000D01*
X112564000Y-93364000D01*
X112564000Y-94064000D01*
X112564000Y-94064000D01*
G37*
G36*
X81658000Y-93352000D02*
X80058000Y-93352000D01*
X80058000Y-91052000D01*
X81658000Y-91052000D01*
X81658000Y-93352000D01*
X81658000Y-93352000D01*
G37*
G36*
X86058000Y-93352000D02*
X84458000Y-93352000D01*
X84458000Y-91052000D01*
X86058000Y-91052000D01*
X86058000Y-93352000D01*
X86058000Y-93352000D01*
G37*
G36*
X90612000Y-93152000D02*
X88712000Y-93152000D01*
X88712000Y-91252000D01*
X90612000Y-91252000D01*
X90612000Y-93152000D01*
X90612000Y-93152000D01*
G37*
G36*
X110170000Y-93152000D02*
X108270000Y-93152000D01*
X108270000Y-91252000D01*
X110170000Y-91252000D01*
X110170000Y-93152000D01*
X110170000Y-93152000D01*
G37*
G36*
X112564000Y-92564000D02*
X111464000Y-92564000D01*
X111464000Y-91864000D01*
X112564000Y-91864000D01*
X112564000Y-92564000D01*
X112564000Y-92564000D01*
G37*
G36*
X114630000Y-91403000D02*
X113430000Y-91403000D01*
X113430000Y-89953000D01*
X114630000Y-89953000D01*
X114630000Y-91403000D01*
X114630000Y-91403000D01*
G37*
G36*
X112630000Y-91403000D02*
X111430000Y-91403000D01*
X111430000Y-89953000D01*
X112630000Y-89953000D01*
X112630000Y-91403000D01*
X112630000Y-91403000D01*
G37*
G36*
X133240000Y-90740000D02*
X120760000Y-90740000D01*
X120760000Y-89040000D01*
X133240000Y-89040000D01*
X133240000Y-90740000D01*
X133240000Y-90740000D01*
G37*
G36*
X141791232Y-87963746D02*
X141880770Y-87990907D01*
X141970309Y-88018068D01*
X142135347Y-88106283D01*
X142280001Y-88224999D01*
X142398717Y-88369653D01*
X142486932Y-88534691D01*
X142500140Y-88578232D01*
X142541254Y-88713768D01*
X142559596Y-88900000D01*
X142551351Y-88983719D01*
X142541254Y-89086231D01*
X142486932Y-89265309D01*
X142398717Y-89430347D01*
X142280001Y-89575001D01*
X142135347Y-89693717D01*
X141970309Y-89781932D01*
X141880770Y-89809093D01*
X141791232Y-89836254D01*
X141651666Y-89850000D01*
X141558334Y-89850000D01*
X141418768Y-89836254D01*
X141329230Y-89809093D01*
X141239691Y-89781932D01*
X141074653Y-89693717D01*
X140929999Y-89575001D01*
X140811283Y-89430347D01*
X140723068Y-89265309D01*
X140668746Y-89086231D01*
X140658650Y-88983719D01*
X140650404Y-88900000D01*
X140668746Y-88713768D01*
X140709860Y-88578232D01*
X140723068Y-88534691D01*
X140811283Y-88369653D01*
X140929999Y-88224999D01*
X141074653Y-88106283D01*
X141239691Y-88018068D01*
X141329230Y-87990907D01*
X141418768Y-87963746D01*
X141558334Y-87950000D01*
X141651666Y-87950000D01*
X141791232Y-87963746D01*
X141791232Y-87963746D01*
G37*
G36*
X139312934Y-88082664D02*
X139467627Y-88146740D01*
X139606847Y-88239764D01*
X139725236Y-88358153D01*
X139818260Y-88497373D01*
X139882336Y-88652066D01*
X139915000Y-88816281D01*
X139915000Y-88983719D01*
X139882336Y-89147934D01*
X139818260Y-89302627D01*
X139725236Y-89441847D01*
X139606847Y-89560236D01*
X139467627Y-89653260D01*
X139312934Y-89717336D01*
X139148719Y-89750000D01*
X138981281Y-89750000D01*
X138817066Y-89717336D01*
X138662373Y-89653260D01*
X138523153Y-89560236D01*
X138404764Y-89441847D01*
X138311740Y-89302627D01*
X138247664Y-89147934D01*
X138215000Y-88983719D01*
X138215000Y-88816281D01*
X138247664Y-88652066D01*
X138311740Y-88497373D01*
X138404764Y-88358153D01*
X138523153Y-88239764D01*
X138662373Y-88146740D01*
X138817066Y-88082664D01*
X138981281Y-88050000D01*
X139148719Y-88050000D01*
X139312934Y-88082664D01*
X139312934Y-88082664D01*
G37*
G36*
X112630000Y-89371000D02*
X111430000Y-89371000D01*
X111430000Y-87921000D01*
X112630000Y-87921000D01*
X112630000Y-89371000D01*
X112630000Y-89371000D01*
G37*
G36*
X114630000Y-89371000D02*
X113430000Y-89371000D01*
X113430000Y-87921000D01*
X114630000Y-87921000D01*
X114630000Y-89371000D01*
X114630000Y-89371000D01*
G37*
G36*
X81396448Y-87448873D02*
X81466232Y-87455746D01*
X81550713Y-87481373D01*
X81645309Y-87510068D01*
X81810347Y-87598283D01*
X81955001Y-87716999D01*
X82073717Y-87861653D01*
X82161932Y-88026691D01*
X82216254Y-88205769D01*
X82234596Y-88392000D01*
X82216254Y-88578231D01*
X82161932Y-88757309D01*
X82073717Y-88922347D01*
X81955001Y-89067001D01*
X81810347Y-89185717D01*
X81645309Y-89273932D01*
X81555770Y-89301093D01*
X81466232Y-89328254D01*
X81396448Y-89335127D01*
X81326666Y-89342000D01*
X81233334Y-89342000D01*
X81163552Y-89335127D01*
X81093768Y-89328254D01*
X81004230Y-89301093D01*
X80914691Y-89273932D01*
X80749653Y-89185717D01*
X80604999Y-89067001D01*
X80486283Y-88922347D01*
X80398068Y-88757309D01*
X80343746Y-88578231D01*
X80325404Y-88392000D01*
X80343746Y-88205769D01*
X80398068Y-88026691D01*
X80486283Y-87861653D01*
X80604999Y-87716999D01*
X80749653Y-87598283D01*
X80914691Y-87510068D01*
X81009287Y-87481373D01*
X81093768Y-87455746D01*
X81163552Y-87448873D01*
X81233334Y-87442000D01*
X81326666Y-87442000D01*
X81396448Y-87448873D01*
X81396448Y-87448873D01*
G37*
G36*
X87115934Y-87066664D02*
X87270627Y-87130740D01*
X87409847Y-87223764D01*
X87528236Y-87342153D01*
X87621260Y-87481373D01*
X87685336Y-87636066D01*
X87718000Y-87800281D01*
X87718000Y-87967719D01*
X87685336Y-88131934D01*
X87621260Y-88286627D01*
X87528236Y-88425847D01*
X87409847Y-88544236D01*
X87270627Y-88637260D01*
X87115934Y-88701336D01*
X86951719Y-88734000D01*
X86784281Y-88734000D01*
X86620066Y-88701336D01*
X86465373Y-88637260D01*
X86326153Y-88544236D01*
X86207764Y-88425847D01*
X86114740Y-88286627D01*
X86050664Y-88131934D01*
X86018000Y-87967719D01*
X86018000Y-87800281D01*
X86050664Y-87636066D01*
X86114740Y-87481373D01*
X86207764Y-87342153D01*
X86326153Y-87223764D01*
X86465373Y-87130740D01*
X86620066Y-87066664D01*
X86784281Y-87034000D01*
X86951719Y-87034000D01*
X87115934Y-87066664D01*
X87115934Y-87066664D01*
G37*
G36*
X123955000Y-88380000D02*
X123055000Y-88380000D01*
X123055000Y-86880000D01*
X123955000Y-86880000D01*
X123955000Y-88380000D01*
X123955000Y-88380000D01*
G37*
G36*
X122055000Y-88380000D02*
X121155000Y-88380000D01*
X121155000Y-86880000D01*
X122055000Y-86880000D01*
X122055000Y-88380000D01*
X122055000Y-88380000D01*
G37*
G36*
X141791232Y-85423746D02*
X141880770Y-85450907D01*
X141970309Y-85478068D01*
X142135347Y-85566283D01*
X142280001Y-85684999D01*
X142398717Y-85829653D01*
X142486932Y-85994691D01*
X142486932Y-85994692D01*
X142541254Y-86173768D01*
X142559596Y-86360000D01*
X142551351Y-86443719D01*
X142541254Y-86546231D01*
X142486932Y-86725309D01*
X142398717Y-86890347D01*
X142280001Y-87035001D01*
X142135347Y-87153717D01*
X141970309Y-87241932D01*
X141880770Y-87269093D01*
X141791232Y-87296254D01*
X141721448Y-87303127D01*
X141651666Y-87310000D01*
X141558334Y-87310000D01*
X141488552Y-87303127D01*
X141418768Y-87296254D01*
X141329230Y-87269093D01*
X141239691Y-87241932D01*
X141074653Y-87153717D01*
X140929999Y-87035001D01*
X140811283Y-86890347D01*
X140723068Y-86725309D01*
X140668746Y-86546231D01*
X140658650Y-86443719D01*
X140650404Y-86360000D01*
X140668746Y-86173768D01*
X140723068Y-85994692D01*
X140723068Y-85994691D01*
X140811283Y-85829653D01*
X140929999Y-85684999D01*
X141074653Y-85566283D01*
X141239691Y-85478068D01*
X141329230Y-85450907D01*
X141418768Y-85423746D01*
X141558334Y-85410000D01*
X141651666Y-85410000D01*
X141791232Y-85423746D01*
X141791232Y-85423746D01*
G37*
G36*
X139312934Y-85542664D02*
X139467627Y-85606740D01*
X139606847Y-85699764D01*
X139725236Y-85818153D01*
X139818260Y-85957373D01*
X139882336Y-86112066D01*
X139915000Y-86276281D01*
X139915000Y-86443719D01*
X139882336Y-86607934D01*
X139818260Y-86762627D01*
X139725236Y-86901847D01*
X139606847Y-87020236D01*
X139467627Y-87113260D01*
X139312934Y-87177336D01*
X139148719Y-87210000D01*
X138981281Y-87210000D01*
X138817066Y-87177336D01*
X138662373Y-87113260D01*
X138523153Y-87020236D01*
X138404764Y-86901847D01*
X138311740Y-86762627D01*
X138247664Y-86607934D01*
X138215000Y-86443719D01*
X138215000Y-86276281D01*
X138247664Y-86112066D01*
X138311740Y-85957373D01*
X138404764Y-85818153D01*
X138523153Y-85699764D01*
X138662373Y-85606740D01*
X138817066Y-85542664D01*
X138981281Y-85510000D01*
X139148719Y-85510000D01*
X139312934Y-85542664D01*
X139312934Y-85542664D01*
G37*
G36*
X82230000Y-86802000D02*
X80330000Y-86802000D01*
X80330000Y-84902000D01*
X82230000Y-84902000D01*
X82230000Y-86802000D01*
X82230000Y-86802000D01*
G37*
G36*
X134735000Y-86490000D02*
X133235000Y-86490000D01*
X133235000Y-85590000D01*
X134735000Y-85590000D01*
X134735000Y-86490000D01*
X134735000Y-86490000D01*
G37*
G36*
X132210000Y-86475000D02*
X131310000Y-86475000D01*
X131310000Y-84975000D01*
X132210000Y-84975000D01*
X132210000Y-86475000D01*
X132210000Y-86475000D01*
G37*
G36*
X130310000Y-86475000D02*
X129410000Y-86475000D01*
X129410000Y-84975000D01*
X130310000Y-84975000D01*
X130310000Y-86475000D01*
X130310000Y-86475000D01*
G37*
G36*
X113023934Y-83256664D02*
X113178627Y-83320740D01*
X113317847Y-83413764D01*
X113436236Y-83532153D01*
X113529260Y-83671373D01*
X113593336Y-83826066D01*
X113626000Y-83990281D01*
X113626000Y-84157719D01*
X113593336Y-84321934D01*
X113529260Y-84476627D01*
X113436236Y-84615847D01*
X113317847Y-84734236D01*
X113178627Y-84827260D01*
X113023934Y-84891336D01*
X112859719Y-84924000D01*
X112692281Y-84924000D01*
X112528066Y-84891336D01*
X112373373Y-84827260D01*
X112234153Y-84734236D01*
X112115764Y-84615847D01*
X112022740Y-84476627D01*
X111958664Y-84321934D01*
X111926000Y-84157719D01*
X111926000Y-83990281D01*
X111958664Y-83826066D01*
X112022740Y-83671373D01*
X112115764Y-83532153D01*
X112234153Y-83413764D01*
X112373373Y-83320740D01*
X112528066Y-83256664D01*
X112692281Y-83224000D01*
X112859719Y-83224000D01*
X113023934Y-83256664D01*
X113023934Y-83256664D01*
G37*
G36*
X141791232Y-82883746D02*
X141880770Y-82910907D01*
X141970309Y-82938068D01*
X142135347Y-83026283D01*
X142280001Y-83144999D01*
X142398717Y-83289653D01*
X142486932Y-83454691D01*
X142541254Y-83633769D01*
X142559596Y-83820000D01*
X142541254Y-84006231D01*
X142486932Y-84185309D01*
X142398717Y-84350347D01*
X142280001Y-84495001D01*
X142135347Y-84613717D01*
X141970309Y-84701932D01*
X141880770Y-84729093D01*
X141791232Y-84756254D01*
X141721448Y-84763127D01*
X141651666Y-84770000D01*
X141558334Y-84770000D01*
X141488552Y-84763127D01*
X141418768Y-84756254D01*
X141329230Y-84729093D01*
X141239691Y-84701932D01*
X141074653Y-84613717D01*
X140929999Y-84495001D01*
X140811283Y-84350347D01*
X140723068Y-84185309D01*
X140668746Y-84006231D01*
X140650404Y-83820000D01*
X140668746Y-83633769D01*
X140723068Y-83454691D01*
X140811283Y-83289653D01*
X140929999Y-83144999D01*
X141074653Y-83026283D01*
X141239691Y-82938068D01*
X141329230Y-82910907D01*
X141418768Y-82883746D01*
X141558334Y-82870000D01*
X141651666Y-82870000D01*
X141791232Y-82883746D01*
X141791232Y-82883746D01*
G37*
G36*
X134735000Y-84590000D02*
X133235000Y-84590000D01*
X133235000Y-83690000D01*
X134735000Y-83690000D01*
X134735000Y-84590000D01*
X134735000Y-84590000D01*
G37*
G36*
X120135934Y-81986664D02*
X120290627Y-82050740D01*
X120429847Y-82143764D01*
X120548236Y-82262153D01*
X120641260Y-82401373D01*
X120705336Y-82556066D01*
X120738000Y-82720281D01*
X120738000Y-82887719D01*
X120705336Y-83051934D01*
X120641260Y-83206627D01*
X120548236Y-83345847D01*
X120429847Y-83464236D01*
X120290627Y-83557260D01*
X120135934Y-83621336D01*
X119971719Y-83654000D01*
X119804281Y-83654000D01*
X119640066Y-83621336D01*
X119485373Y-83557260D01*
X119346153Y-83464236D01*
X119227764Y-83345847D01*
X119134740Y-83206627D01*
X119070664Y-83051934D01*
X119038000Y-82887719D01*
X119038000Y-82720281D01*
X119070664Y-82556066D01*
X119134740Y-82401373D01*
X119227764Y-82262153D01*
X119346153Y-82143764D01*
X119485373Y-82050740D01*
X119640066Y-81986664D01*
X119804281Y-81954000D01*
X119971719Y-81954000D01*
X120135934Y-81986664D01*
X120135934Y-81986664D01*
G37*
G36*
X134735000Y-82680000D02*
X133235000Y-82680000D01*
X133235000Y-81780000D01*
X134735000Y-81780000D01*
X134735000Y-82680000D01*
X134735000Y-82680000D01*
G37*
G36*
X130310000Y-82665000D02*
X129410000Y-82665000D01*
X129410000Y-81165000D01*
X130310000Y-81165000D01*
X130310000Y-82665000D01*
X130310000Y-82665000D01*
G37*
G36*
X132210000Y-82665000D02*
X131310000Y-82665000D01*
X131310000Y-81165000D01*
X132210000Y-81165000D01*
X132210000Y-82665000D01*
X132210000Y-82665000D01*
G37*
G36*
X81781934Y-80970664D02*
X81936627Y-81034740D01*
X82075847Y-81127764D01*
X82194236Y-81246153D01*
X82287260Y-81385373D01*
X82351336Y-81540066D01*
X82384000Y-81704281D01*
X82384000Y-81871719D01*
X82351336Y-82035934D01*
X82287260Y-82190627D01*
X82194236Y-82329847D01*
X82075847Y-82448236D01*
X81936627Y-82541260D01*
X81781934Y-82605336D01*
X81617719Y-82638000D01*
X81450281Y-82638000D01*
X81286066Y-82605336D01*
X81131373Y-82541260D01*
X80992153Y-82448236D01*
X80873764Y-82329847D01*
X80780740Y-82190627D01*
X80716664Y-82035934D01*
X80684000Y-81871719D01*
X80684000Y-81704281D01*
X80716664Y-81540066D01*
X80780740Y-81385373D01*
X80873764Y-81246153D01*
X80992153Y-81127764D01*
X81131373Y-81034740D01*
X81286066Y-80970664D01*
X81450281Y-80938000D01*
X81617719Y-80938000D01*
X81781934Y-80970664D01*
X81781934Y-80970664D01*
G37*
G36*
X142555000Y-82230000D02*
X140655000Y-82230000D01*
X140655000Y-80330000D01*
X142555000Y-80330000D01*
X142555000Y-82230000D01*
X142555000Y-82230000D01*
G37*
G36*
X120135934Y-79954664D02*
X120290627Y-80018740D01*
X120429847Y-80111764D01*
X120548236Y-80230153D01*
X120641260Y-80369373D01*
X120705336Y-80524066D01*
X120738000Y-80688281D01*
X120738000Y-80855719D01*
X120705336Y-81019934D01*
X120641260Y-81174627D01*
X120548236Y-81313847D01*
X120429847Y-81432236D01*
X120290627Y-81525260D01*
X120135934Y-81589336D01*
X119971719Y-81622000D01*
X119804281Y-81622000D01*
X119640066Y-81589336D01*
X119485373Y-81525260D01*
X119346153Y-81432236D01*
X119227764Y-81313847D01*
X119134740Y-81174627D01*
X119070664Y-81019934D01*
X119038000Y-80855719D01*
X119038000Y-80688281D01*
X119070664Y-80524066D01*
X119134740Y-80369373D01*
X119227764Y-80230153D01*
X119346153Y-80111764D01*
X119485373Y-80018740D01*
X119640066Y-79954664D01*
X119804281Y-79922000D01*
X119971719Y-79922000D01*
X120135934Y-79954664D01*
X120135934Y-79954664D01*
G37*
G36*
X134735000Y-80780000D02*
X133235000Y-80780000D01*
X133235000Y-79880000D01*
X134735000Y-79880000D01*
X134735000Y-80780000D01*
X134735000Y-80780000D01*
G37*
G36*
X113145000Y-80140000D02*
X111645000Y-80140000D01*
X111645000Y-79240000D01*
X113145000Y-79240000D01*
X113145000Y-80140000D01*
X113145000Y-80140000D01*
G37*
G36*
X116955000Y-80140000D02*
X115455000Y-80140000D01*
X115455000Y-79240000D01*
X116955000Y-79240000D01*
X116955000Y-80140000D01*
X116955000Y-80140000D01*
G37*
G36*
X81466232Y-77803746D02*
X81555770Y-77830907D01*
X81645309Y-77858068D01*
X81810347Y-77946283D01*
X81955001Y-78064999D01*
X82073717Y-78209653D01*
X82161932Y-78374691D01*
X82216254Y-78553769D01*
X82234596Y-78740000D01*
X82216254Y-78926231D01*
X82161932Y-79105309D01*
X82073717Y-79270347D01*
X81955001Y-79415001D01*
X81810347Y-79533717D01*
X81645309Y-79621932D01*
X81555770Y-79649093D01*
X81466232Y-79676254D01*
X81396448Y-79683127D01*
X81326666Y-79690000D01*
X81233334Y-79690000D01*
X81163552Y-79683127D01*
X81093768Y-79676254D01*
X81004230Y-79649093D01*
X80914691Y-79621932D01*
X80749653Y-79533717D01*
X80604999Y-79415001D01*
X80486283Y-79270347D01*
X80398068Y-79105309D01*
X80343746Y-78926231D01*
X80325404Y-78740000D01*
X80343746Y-78553769D01*
X80398068Y-78374691D01*
X80486283Y-78209653D01*
X80604999Y-78064999D01*
X80749653Y-77946283D01*
X80914691Y-77858068D01*
X81004230Y-77830907D01*
X81093768Y-77803746D01*
X81233334Y-77790000D01*
X81326666Y-77790000D01*
X81466232Y-77803746D01*
X81466232Y-77803746D01*
G37*
G36*
X131600000Y-78725000D02*
X130400000Y-78725000D01*
X130400000Y-77275000D01*
X131600000Y-77275000D01*
X131600000Y-78725000D01*
X131600000Y-78725000D01*
G37*
G36*
X133600000Y-78725000D02*
X132400000Y-78725000D01*
X132400000Y-77275000D01*
X133600000Y-77275000D01*
X133600000Y-78725000D01*
X133600000Y-78725000D01*
G37*
G36*
X89848232Y-76533746D02*
X89937770Y-76560907D01*
X90027309Y-76588068D01*
X90192347Y-76676283D01*
X90337001Y-76794999D01*
X90455717Y-76939653D01*
X90543932Y-77104691D01*
X90598254Y-77283769D01*
X90616596Y-77470000D01*
X90598254Y-77656231D01*
X90543932Y-77835309D01*
X90455717Y-78000347D01*
X90337001Y-78145001D01*
X90192347Y-78263717D01*
X90027309Y-78351932D01*
X89952278Y-78374692D01*
X89848232Y-78406254D01*
X89708666Y-78420000D01*
X89615334Y-78420000D01*
X89475768Y-78406254D01*
X89371722Y-78374692D01*
X89296691Y-78351932D01*
X89131653Y-78263717D01*
X88986999Y-78145001D01*
X88868283Y-78000347D01*
X88780068Y-77835309D01*
X88725746Y-77656231D01*
X88707404Y-77470000D01*
X88725746Y-77283769D01*
X88780068Y-77104691D01*
X88868283Y-76939653D01*
X88986999Y-76794999D01*
X89131653Y-76676283D01*
X89296691Y-76588068D01*
X89386230Y-76560907D01*
X89475768Y-76533746D01*
X89615334Y-76520000D01*
X89708666Y-76520000D01*
X89848232Y-76533746D01*
X89848232Y-76533746D01*
G37*
G36*
X109406232Y-76533746D02*
X109495770Y-76560907D01*
X109585309Y-76588068D01*
X109750347Y-76676283D01*
X109895001Y-76794999D01*
X110013717Y-76939653D01*
X110101932Y-77104691D01*
X110156254Y-77283769D01*
X110174596Y-77470000D01*
X110156254Y-77656231D01*
X110101932Y-77835309D01*
X110013717Y-78000347D01*
X109895001Y-78145001D01*
X109750347Y-78263717D01*
X109585309Y-78351932D01*
X109510278Y-78374692D01*
X109406232Y-78406254D01*
X109266666Y-78420000D01*
X109173334Y-78420000D01*
X109033768Y-78406254D01*
X108929722Y-78374692D01*
X108854691Y-78351932D01*
X108689653Y-78263717D01*
X108544999Y-78145001D01*
X108426283Y-78000347D01*
X108338068Y-77835309D01*
X108283746Y-77656231D01*
X108265404Y-77470000D01*
X108283746Y-77283769D01*
X108338068Y-77104691D01*
X108426283Y-76939653D01*
X108544999Y-76794999D01*
X108689653Y-76676283D01*
X108854691Y-76588068D01*
X108944230Y-76560907D01*
X109033768Y-76533746D01*
X109173334Y-76520000D01*
X109266666Y-76520000D01*
X109406232Y-76533746D01*
X109406232Y-76533746D01*
G37*
G36*
X113145000Y-78240000D02*
X111645000Y-78240000D01*
X111645000Y-77340000D01*
X113145000Y-77340000D01*
X113145000Y-78240000D01*
X113145000Y-78240000D01*
G37*
G36*
X116955000Y-78240000D02*
X115455000Y-78240000D01*
X115455000Y-77340000D01*
X116955000Y-77340000D01*
X116955000Y-78240000D01*
X116955000Y-78240000D01*
G37*
G36*
X129249000Y-77600000D02*
X127799000Y-77600000D01*
X127799000Y-76400000D01*
X129249000Y-76400000D01*
X129249000Y-77600000D01*
X129249000Y-77600000D01*
G37*
G36*
X81466232Y-75263746D02*
X81552780Y-75290000D01*
X81645309Y-75318068D01*
X81810347Y-75406283D01*
X81955001Y-75524999D01*
X82073717Y-75669653D01*
X82161932Y-75834691D01*
X82161932Y-75834692D01*
X82216254Y-76013768D01*
X82234596Y-76200000D01*
X82216254Y-76386232D01*
X82207527Y-76415000D01*
X82161932Y-76565309D01*
X82073717Y-76730347D01*
X81955001Y-76875001D01*
X81810347Y-76993717D01*
X81645309Y-77081932D01*
X81570278Y-77104692D01*
X81466232Y-77136254D01*
X81326666Y-77150000D01*
X81233334Y-77150000D01*
X81093768Y-77136254D01*
X80989722Y-77104692D01*
X80914691Y-77081932D01*
X80749653Y-76993717D01*
X80604999Y-76875001D01*
X80486283Y-76730347D01*
X80398068Y-76565309D01*
X80352473Y-76415000D01*
X80343746Y-76386232D01*
X80325404Y-76200000D01*
X80343746Y-76013768D01*
X80398068Y-75834692D01*
X80398068Y-75834691D01*
X80486283Y-75669653D01*
X80604999Y-75524999D01*
X80749653Y-75406283D01*
X80914691Y-75318068D01*
X81007220Y-75290000D01*
X81093768Y-75263746D01*
X81233334Y-75250000D01*
X81326666Y-75250000D01*
X81466232Y-75263746D01*
X81466232Y-75263746D01*
G37*
G36*
X141791232Y-75263746D02*
X141877780Y-75290000D01*
X141970309Y-75318068D01*
X142135347Y-75406283D01*
X142280001Y-75524999D01*
X142398717Y-75669653D01*
X142486932Y-75834691D01*
X142486932Y-75834692D01*
X142541254Y-76013768D01*
X142559596Y-76200000D01*
X142541254Y-76386232D01*
X142532527Y-76415000D01*
X142486932Y-76565309D01*
X142398717Y-76730347D01*
X142280001Y-76875001D01*
X142135347Y-76993717D01*
X141970309Y-77081932D01*
X141895278Y-77104692D01*
X141791232Y-77136254D01*
X141651666Y-77150000D01*
X141558334Y-77150000D01*
X141418768Y-77136254D01*
X141314722Y-77104692D01*
X141239691Y-77081932D01*
X141074653Y-76993717D01*
X140929999Y-76875001D01*
X140811283Y-76730347D01*
X140723068Y-76565309D01*
X140677473Y-76415000D01*
X140668746Y-76386232D01*
X140650404Y-76200000D01*
X140668746Y-76013768D01*
X140723068Y-75834692D01*
X140723068Y-75834691D01*
X140811283Y-75669653D01*
X140929999Y-75524999D01*
X141074653Y-75406283D01*
X141239691Y-75318068D01*
X141332220Y-75290000D01*
X141418768Y-75263746D01*
X141558334Y-75250000D01*
X141651666Y-75250000D01*
X141791232Y-75263746D01*
X141791232Y-75263746D01*
G37*
G36*
X118335000Y-76895000D02*
X117085000Y-76895000D01*
X117085000Y-71695000D01*
X118335000Y-71695000D01*
X118335000Y-76895000D01*
X118335000Y-76895000D01*
G37*
G36*
X112785000Y-76895000D02*
X111535000Y-76895000D01*
X111535000Y-71695000D01*
X112785000Y-71695000D01*
X112785000Y-76895000D01*
X112785000Y-76895000D01*
G37*
G36*
X121375000Y-76530000D02*
X119925000Y-76530000D01*
X119925000Y-75330000D01*
X121375000Y-75330000D01*
X121375000Y-76530000D01*
X121375000Y-76530000D01*
G37*
G36*
X124707934Y-74747664D02*
X124862627Y-74811740D01*
X125001847Y-74904764D01*
X125120236Y-75023153D01*
X125213260Y-75162373D01*
X125277336Y-75317066D01*
X125310000Y-75481281D01*
X125310000Y-75648719D01*
X125277336Y-75812934D01*
X125213260Y-75967627D01*
X125120236Y-76106847D01*
X125001847Y-76225236D01*
X124862627Y-76318260D01*
X124707934Y-76382336D01*
X124543719Y-76415000D01*
X124376281Y-76415000D01*
X124212066Y-76382336D01*
X124057373Y-76318260D01*
X123918153Y-76225236D01*
X123799764Y-76106847D01*
X123706740Y-75967627D01*
X123642664Y-75812934D01*
X123610000Y-75648719D01*
X123610000Y-75481281D01*
X123642664Y-75317066D01*
X123706740Y-75162373D01*
X123799764Y-75023153D01*
X123918153Y-74904764D01*
X124057373Y-74811740D01*
X124212066Y-74747664D01*
X124376281Y-74715000D01*
X124543719Y-74715000D01*
X124707934Y-74747664D01*
X124707934Y-74747664D01*
G37*
G36*
X132355000Y-76275000D02*
X131905000Y-76275000D01*
X131905000Y-75400000D01*
X132355000Y-75400000D01*
X132355000Y-76275000D01*
X132355000Y-76275000D01*
G37*
G36*
X116505000Y-76185000D02*
X113365000Y-76185000D01*
X113365000Y-72405000D01*
X116505000Y-72405000D01*
X116505000Y-76185000D01*
X116505000Y-76185000D01*
G37*
G36*
X86856000Y-76076000D02*
X85356000Y-76076000D01*
X85356000Y-75176000D01*
X86856000Y-75176000D01*
X86856000Y-76076000D01*
X86856000Y-76076000D01*
G37*
G36*
X101271597Y-76005000D02*
X99571597Y-76005000D01*
X99571597Y-73805000D01*
X101271597Y-73805000D01*
X101271597Y-76005000D01*
X101271597Y-76005000D01*
G37*
G36*
X105871597Y-76005000D02*
X104171597Y-76005000D01*
X104171597Y-73805000D01*
X105871597Y-73805000D01*
X105871597Y-76005000D01*
X105871597Y-76005000D01*
G37*
G36*
X103571597Y-76005000D02*
X101871597Y-76005000D01*
X101871597Y-73805000D01*
X103571597Y-73805000D01*
X103571597Y-76005000D01*
X103571597Y-76005000D01*
G37*
G36*
X95435000Y-75845000D02*
X94435000Y-75845000D01*
X94435000Y-74745000D01*
X95435000Y-74745000D01*
X95435000Y-75845000D01*
X95435000Y-75845000D01*
G37*
G36*
X97335000Y-75845000D02*
X96335000Y-75845000D01*
X96335000Y-74745000D01*
X97335000Y-74745000D01*
X97335000Y-75845000D01*
X97335000Y-75845000D01*
G37*
G36*
X133830000Y-75800000D02*
X132955000Y-75800000D01*
X132955000Y-73350000D01*
X133830000Y-73350000D01*
X133830000Y-75800000D01*
X133830000Y-75800000D01*
G37*
G36*
X131305000Y-75800000D02*
X130430000Y-75800000D01*
X130430000Y-73350000D01*
X131305000Y-73350000D01*
X131305000Y-75800000D01*
X131305000Y-75800000D01*
G37*
G36*
X129249000Y-75600000D02*
X127799000Y-75600000D01*
X127799000Y-74400000D01*
X129249000Y-74400000D01*
X129249000Y-75600000D01*
X129249000Y-75600000D01*
G37*
G36*
X92698000Y-75568000D02*
X91198000Y-75568000D01*
X91198000Y-74668000D01*
X92698000Y-74668000D01*
X92698000Y-75568000D01*
X92698000Y-75568000D01*
G37*
G36*
X136899934Y-73096664D02*
X137054627Y-73160740D01*
X137193847Y-73253764D01*
X137312236Y-73372153D01*
X137405260Y-73511373D01*
X137469336Y-73666066D01*
X137502000Y-73830281D01*
X137502000Y-73997719D01*
X137469336Y-74161934D01*
X137405260Y-74316627D01*
X137312236Y-74455847D01*
X137193847Y-74574236D01*
X137054627Y-74667260D01*
X136899934Y-74731336D01*
X136735719Y-74764000D01*
X136568281Y-74764000D01*
X136404066Y-74731336D01*
X136249373Y-74667260D01*
X136110153Y-74574236D01*
X135991764Y-74455847D01*
X135898740Y-74316627D01*
X135834664Y-74161934D01*
X135802000Y-73997719D01*
X135802000Y-73830281D01*
X135834664Y-73666066D01*
X135898740Y-73511373D01*
X135991764Y-73372153D01*
X136110153Y-73253764D01*
X136249373Y-73160740D01*
X136404066Y-73096664D01*
X136568281Y-73064000D01*
X136735719Y-73064000D01*
X136899934Y-73096664D01*
X136899934Y-73096664D01*
G37*
G36*
X141721448Y-72716873D02*
X141791232Y-72723746D01*
X141861297Y-72745000D01*
X141970309Y-72778068D01*
X142135347Y-72866283D01*
X142280001Y-72984999D01*
X142398717Y-73129653D01*
X142486932Y-73294691D01*
X142510430Y-73372156D01*
X142541254Y-73473768D01*
X142559596Y-73660000D01*
X142551351Y-73743719D01*
X142541254Y-73846231D01*
X142486932Y-74025309D01*
X142398717Y-74190347D01*
X142280001Y-74335001D01*
X142135347Y-74453717D01*
X141970309Y-74541932D01*
X141880770Y-74569093D01*
X141791232Y-74596254D01*
X141651666Y-74610000D01*
X141558334Y-74610000D01*
X141418768Y-74596254D01*
X141329230Y-74569093D01*
X141239691Y-74541932D01*
X141074653Y-74453717D01*
X140929999Y-74335001D01*
X140811283Y-74190347D01*
X140723068Y-74025309D01*
X140668746Y-73846231D01*
X140658650Y-73743719D01*
X140650404Y-73660000D01*
X140668746Y-73473768D01*
X140699570Y-73372156D01*
X140723068Y-73294691D01*
X140811283Y-73129653D01*
X140929999Y-72984999D01*
X141074653Y-72866283D01*
X141239691Y-72778068D01*
X141348703Y-72745000D01*
X141418768Y-72723746D01*
X141488552Y-72716873D01*
X141558334Y-72710000D01*
X141651666Y-72710000D01*
X141721448Y-72716873D01*
X141721448Y-72716873D01*
G37*
G36*
X82230000Y-74610000D02*
X80330000Y-74610000D01*
X80330000Y-72710000D01*
X82230000Y-72710000D01*
X82230000Y-74610000D01*
X82230000Y-74610000D01*
G37*
G36*
X121375000Y-74530000D02*
X119925000Y-74530000D01*
X119925000Y-73330000D01*
X121375000Y-73330000D01*
X121375000Y-74530000D01*
X121375000Y-74530000D01*
G37*
G36*
X139439934Y-72842664D02*
X139594627Y-72906740D01*
X139733847Y-72999764D01*
X139852236Y-73118153D01*
X139945260Y-73257373D01*
X140009336Y-73412066D01*
X140042000Y-73576281D01*
X140042000Y-73743719D01*
X140009336Y-73907934D01*
X139945260Y-74062627D01*
X139852236Y-74201847D01*
X139733847Y-74320236D01*
X139594627Y-74413260D01*
X139439934Y-74477336D01*
X139275719Y-74510000D01*
X139108281Y-74510000D01*
X138944066Y-74477336D01*
X138789373Y-74413260D01*
X138650153Y-74320236D01*
X138531764Y-74201847D01*
X138438740Y-74062627D01*
X138374664Y-73907934D01*
X138342000Y-73743719D01*
X138342000Y-73576281D01*
X138374664Y-73412066D01*
X138438740Y-73257373D01*
X138531764Y-73118153D01*
X138650153Y-72999764D01*
X138789373Y-72906740D01*
X138944066Y-72842664D01*
X139108281Y-72810000D01*
X139275719Y-72810000D01*
X139439934Y-72842664D01*
X139439934Y-72842664D01*
G37*
G36*
X86856000Y-74176000D02*
X85356000Y-74176000D01*
X85356000Y-73276000D01*
X86856000Y-73276000D01*
X86856000Y-74176000D01*
X86856000Y-74176000D01*
G37*
G36*
X110355000Y-73990000D02*
X108905000Y-73990000D01*
X108905000Y-72790000D01*
X110355000Y-72790000D01*
X110355000Y-73990000D01*
X110355000Y-73990000D01*
G37*
G36*
X96385000Y-73845000D02*
X95385000Y-73845000D01*
X95385000Y-72745000D01*
X96385000Y-72745000D01*
X96385000Y-73845000D01*
X96385000Y-73845000D01*
G37*
G36*
X132355000Y-73750000D02*
X131905000Y-73750000D01*
X131905000Y-72875000D01*
X132355000Y-72875000D01*
X132355000Y-73750000D01*
X132355000Y-73750000D01*
G37*
G36*
X92698000Y-73668000D02*
X91198000Y-73668000D01*
X91198000Y-72768000D01*
X92698000Y-72768000D01*
X92698000Y-73668000D01*
X92698000Y-73668000D01*
G37*
G36*
X107435934Y-70810664D02*
X107590627Y-70874740D01*
X107729847Y-70967764D01*
X107848236Y-71086153D01*
X107941260Y-71225373D01*
X108005336Y-71380066D01*
X108038000Y-71544281D01*
X108038000Y-71711719D01*
X108005336Y-71875934D01*
X107941260Y-72030627D01*
X107848236Y-72169847D01*
X107729847Y-72288236D01*
X107590627Y-72381260D01*
X107435934Y-72445336D01*
X107271719Y-72478000D01*
X107104281Y-72478000D01*
X106940066Y-72445336D01*
X106785373Y-72381260D01*
X106646153Y-72288236D01*
X106527764Y-72169847D01*
X106434740Y-72030627D01*
X106370664Y-71875934D01*
X106338000Y-71711719D01*
X106338000Y-71544281D01*
X106370664Y-71380066D01*
X106434740Y-71225373D01*
X106527764Y-71086153D01*
X106646153Y-70967764D01*
X106785373Y-70874740D01*
X106940066Y-70810664D01*
X107104281Y-70778000D01*
X107271719Y-70778000D01*
X107435934Y-70810664D01*
X107435934Y-70810664D01*
G37*
G36*
X142555000Y-72070000D02*
X140655000Y-72070000D01*
X140655000Y-70170000D01*
X142555000Y-70170000D01*
X142555000Y-72070000D01*
X142555000Y-72070000D01*
G37*
G36*
X110355000Y-71990000D02*
X108905000Y-71990000D01*
X108905000Y-70790000D01*
X110355000Y-70790000D01*
X110355000Y-71990000D01*
X110355000Y-71990000D01*
G37*
G36*
X93592934Y-70302664D02*
X93747627Y-70366740D01*
X93886847Y-70459764D01*
X94005236Y-70578153D01*
X94098260Y-70717373D01*
X94162336Y-70872066D01*
X94195000Y-71036281D01*
X94195000Y-71203719D01*
X94162336Y-71367934D01*
X94098260Y-71522627D01*
X94005236Y-71661847D01*
X93886847Y-71780236D01*
X93747627Y-71873260D01*
X93592934Y-71937336D01*
X93428719Y-71970000D01*
X93261281Y-71970000D01*
X93097066Y-71937336D01*
X92942373Y-71873260D01*
X92803153Y-71780236D01*
X92684764Y-71661847D01*
X92591740Y-71522627D01*
X92527664Y-71367934D01*
X92495000Y-71203719D01*
X92495000Y-71036281D01*
X92527664Y-70872066D01*
X92591740Y-70717373D01*
X92684764Y-70578153D01*
X92803153Y-70459764D01*
X92942373Y-70366740D01*
X93097066Y-70302664D01*
X93261281Y-70270000D01*
X93428719Y-70270000D01*
X93592934Y-70302664D01*
X93592934Y-70302664D01*
G37*
G36*
X139439934Y-70302664D02*
X139594627Y-70366740D01*
X139733847Y-70459764D01*
X139852236Y-70578153D01*
X139945260Y-70717373D01*
X140009336Y-70872066D01*
X140042000Y-71036281D01*
X140042000Y-71203719D01*
X140009336Y-71367934D01*
X139945260Y-71522627D01*
X139852236Y-71661847D01*
X139733847Y-71780236D01*
X139594627Y-71873260D01*
X139439934Y-71937336D01*
X139275719Y-71970000D01*
X139108281Y-71970000D01*
X138944066Y-71937336D01*
X138789373Y-71873260D01*
X138650153Y-71780236D01*
X138531764Y-71661847D01*
X138438740Y-71522627D01*
X138374664Y-71367934D01*
X138342000Y-71203719D01*
X138342000Y-71036281D01*
X138374664Y-70872066D01*
X138438740Y-70717373D01*
X138531764Y-70578153D01*
X138650153Y-70459764D01*
X138789373Y-70366740D01*
X138944066Y-70302664D01*
X139108281Y-70270000D01*
X139275719Y-70270000D01*
X139439934Y-70302664D01*
X139439934Y-70302664D01*
G37*
G36*
X132500000Y-71750000D02*
X131600000Y-71750000D01*
X131600000Y-70250000D01*
X132500000Y-70250000D01*
X132500000Y-71750000D01*
X132500000Y-71750000D01*
G37*
G36*
X134400000Y-71750000D02*
X133500000Y-71750000D01*
X133500000Y-70250000D01*
X134400000Y-70250000D01*
X134400000Y-71750000D01*
X134400000Y-71750000D01*
G37*
G36*
X124707934Y-69867664D02*
X124862627Y-69931740D01*
X125001847Y-70024764D01*
X125120236Y-70143153D01*
X125213260Y-70282373D01*
X125277336Y-70437066D01*
X125310000Y-70601281D01*
X125310000Y-70768719D01*
X125277336Y-70932934D01*
X125213260Y-71087627D01*
X125120236Y-71226847D01*
X125001847Y-71345236D01*
X124862627Y-71438260D01*
X124707934Y-71502336D01*
X124543719Y-71535000D01*
X124376281Y-71535000D01*
X124212066Y-71502336D01*
X124057373Y-71438260D01*
X123918153Y-71345236D01*
X123799764Y-71226847D01*
X123706740Y-71087627D01*
X123642664Y-70932934D01*
X123610000Y-70768719D01*
X123610000Y-70601281D01*
X123642664Y-70437066D01*
X123706740Y-70282373D01*
X123799764Y-70143153D01*
X123918153Y-70024764D01*
X124057373Y-69931740D01*
X124212066Y-69867664D01*
X124376281Y-69835000D01*
X124543719Y-69835000D01*
X124707934Y-69867664D01*
X124707934Y-69867664D01*
G37*
G36*
X121375000Y-71450000D02*
X119925000Y-71450000D01*
X119925000Y-70250000D01*
X121375000Y-70250000D01*
X121375000Y-71450000D01*
X121375000Y-71450000D01*
G37*
G36*
X96528000Y-71362000D02*
X95628000Y-71362000D01*
X95628000Y-69862000D01*
X96528000Y-69862000D01*
X96528000Y-71362000D01*
X96528000Y-71362000D01*
G37*
G36*
X98428000Y-71362000D02*
X97528000Y-71362000D01*
X97528000Y-69862000D01*
X98428000Y-69862000D01*
X98428000Y-71362000D01*
X98428000Y-71362000D01*
G37*
G36*
X88512934Y-69667664D02*
X88667627Y-69731740D01*
X88806847Y-69824764D01*
X88925236Y-69943153D01*
X89018260Y-70082373D01*
X89082336Y-70237066D01*
X89115000Y-70401281D01*
X89115000Y-70568719D01*
X89082336Y-70732934D01*
X89018260Y-70887627D01*
X88925236Y-71026847D01*
X88806847Y-71145236D01*
X88667627Y-71238260D01*
X88512934Y-71302336D01*
X88348719Y-71335000D01*
X88181281Y-71335000D01*
X88017066Y-71302336D01*
X87862373Y-71238260D01*
X87723153Y-71145236D01*
X87604764Y-71026847D01*
X87511740Y-70887627D01*
X87447664Y-70732934D01*
X87415000Y-70568719D01*
X87415000Y-70401281D01*
X87447664Y-70237066D01*
X87511740Y-70082373D01*
X87604764Y-69943153D01*
X87723153Y-69824764D01*
X87862373Y-69731740D01*
X88017066Y-69667664D01*
X88181281Y-69635000D01*
X88348719Y-69635000D01*
X88512934Y-69667664D01*
X88512934Y-69667664D01*
G37*
G36*
X128771934Y-69286664D02*
X128926627Y-69350740D01*
X129065847Y-69443764D01*
X129184236Y-69562153D01*
X129277260Y-69701373D01*
X129341336Y-69856066D01*
X129374000Y-70020281D01*
X129374000Y-70187719D01*
X129341336Y-70351934D01*
X129277260Y-70506627D01*
X129184236Y-70645847D01*
X129065847Y-70764236D01*
X128926627Y-70857260D01*
X128771934Y-70921336D01*
X128607719Y-70954000D01*
X128440281Y-70954000D01*
X128276066Y-70921336D01*
X128121373Y-70857260D01*
X127982153Y-70764236D01*
X127863764Y-70645847D01*
X127770740Y-70506627D01*
X127706664Y-70351934D01*
X127674000Y-70187719D01*
X127674000Y-70020281D01*
X127706664Y-69856066D01*
X127770740Y-69701373D01*
X127863764Y-69562153D01*
X127982153Y-69443764D01*
X128121373Y-69350740D01*
X128276066Y-69286664D01*
X128440281Y-69254000D01*
X128607719Y-69254000D01*
X128771934Y-69286664D01*
X128771934Y-69286664D01*
G37*
G36*
X107943934Y-68778664D02*
X108098627Y-68842740D01*
X108237847Y-68935764D01*
X108356236Y-69054153D01*
X108449260Y-69193373D01*
X108513336Y-69348066D01*
X108546000Y-69512281D01*
X108546000Y-69679719D01*
X108513336Y-69843934D01*
X108449260Y-69998627D01*
X108356236Y-70137847D01*
X108237847Y-70256236D01*
X108098627Y-70349260D01*
X107943934Y-70413336D01*
X107779719Y-70446000D01*
X107612281Y-70446000D01*
X107448066Y-70413336D01*
X107293373Y-70349260D01*
X107154153Y-70256236D01*
X107035764Y-70137847D01*
X106942740Y-69998627D01*
X106878664Y-69843934D01*
X106846000Y-69679719D01*
X106846000Y-69512281D01*
X106878664Y-69348066D01*
X106942740Y-69193373D01*
X107035764Y-69054153D01*
X107154153Y-68935764D01*
X107293373Y-68842740D01*
X107448066Y-68778664D01*
X107612281Y-68746000D01*
X107779719Y-68746000D01*
X107943934Y-68778664D01*
X107943934Y-68778664D01*
G37*
G36*
X114435000Y-69965000D02*
X113535000Y-69965000D01*
X113535000Y-68465000D01*
X114435000Y-68465000D01*
X114435000Y-69965000D01*
X114435000Y-69965000D01*
G37*
G36*
X116335000Y-69965000D02*
X115435000Y-69965000D01*
X115435000Y-68465000D01*
X116335000Y-68465000D01*
X116335000Y-69965000D01*
X116335000Y-69965000D01*
G37*
G36*
X104721597Y-69705000D02*
X100721597Y-69705000D01*
X100721597Y-67505000D01*
X104721597Y-67505000D01*
X104721597Y-69705000D01*
X104721597Y-69705000D01*
G37*
G36*
X121375000Y-69450000D02*
X119925000Y-69450000D01*
X119925000Y-68250000D01*
X121375000Y-68250000D01*
X121375000Y-69450000D01*
X121375000Y-69450000D01*
G37*
G36*
X134369000Y-69330000D02*
X133469000Y-69330000D01*
X133469000Y-67830000D01*
X134369000Y-67830000D01*
X134369000Y-69330000D01*
X134369000Y-69330000D01*
G37*
G36*
X132469000Y-69330000D02*
X131569000Y-69330000D01*
X131569000Y-67830000D01*
X132469000Y-67830000D01*
X132469000Y-69330000D01*
X132469000Y-69330000D01*
G37*
G36*
X122666232Y-64653746D02*
X122755770Y-64680907D01*
X122845309Y-64708068D01*
X123010347Y-64796283D01*
X123155001Y-64914999D01*
X123273717Y-65059653D01*
X123361932Y-65224691D01*
X123361932Y-65224692D01*
X123416254Y-65403768D01*
X123434596Y-65590000D01*
X123416254Y-65776232D01*
X123389093Y-65865770D01*
X123361932Y-65955309D01*
X123273717Y-66120347D01*
X123155001Y-66265001D01*
X123010347Y-66383717D01*
X122845309Y-66471932D01*
X122755770Y-66499093D01*
X122666232Y-66526254D01*
X122526666Y-66540000D01*
X122433334Y-66540000D01*
X122293768Y-66526254D01*
X122204230Y-66499093D01*
X122114691Y-66471932D01*
X121949653Y-66383717D01*
X121804999Y-66265001D01*
X121686283Y-66120347D01*
X121598068Y-65955309D01*
X121570907Y-65865770D01*
X121543746Y-65776232D01*
X121525404Y-65590000D01*
X121543746Y-65403768D01*
X121598068Y-65224692D01*
X121598068Y-65224691D01*
X121686283Y-65059653D01*
X121804999Y-64914999D01*
X121949653Y-64796283D01*
X122114691Y-64708068D01*
X122204230Y-64680907D01*
X122293768Y-64653746D01*
X122433334Y-64640000D01*
X122526666Y-64640000D01*
X122666232Y-64653746D01*
X122666232Y-64653746D01*
G37*
G36*
X117586232Y-64653746D02*
X117675770Y-64680907D01*
X117765309Y-64708068D01*
X117930347Y-64796283D01*
X118075001Y-64914999D01*
X118193717Y-65059653D01*
X118281932Y-65224691D01*
X118281932Y-65224692D01*
X118336254Y-65403768D01*
X118354596Y-65590000D01*
X118336254Y-65776232D01*
X118309093Y-65865770D01*
X118281932Y-65955309D01*
X118193717Y-66120347D01*
X118075001Y-66265001D01*
X117930347Y-66383717D01*
X117765309Y-66471932D01*
X117675770Y-66499093D01*
X117586232Y-66526254D01*
X117446666Y-66540000D01*
X117353334Y-66540000D01*
X117213768Y-66526254D01*
X117124230Y-66499093D01*
X117034691Y-66471932D01*
X116869653Y-66383717D01*
X116724999Y-66265001D01*
X116606283Y-66120347D01*
X116518068Y-65955309D01*
X116490907Y-65865770D01*
X116463746Y-65776232D01*
X116445404Y-65590000D01*
X116463746Y-65403768D01*
X116518068Y-65224692D01*
X116518068Y-65224691D01*
X116606283Y-65059653D01*
X116724999Y-64914999D01*
X116869653Y-64796283D01*
X117034691Y-64708068D01*
X117124230Y-64680907D01*
X117213768Y-64653746D01*
X117353334Y-64640000D01*
X117446666Y-64640000D01*
X117586232Y-64653746D01*
X117586232Y-64653746D01*
G37*
G36*
X125206232Y-64653746D02*
X125295770Y-64680907D01*
X125385309Y-64708068D01*
X125550347Y-64796283D01*
X125695001Y-64914999D01*
X125813717Y-65059653D01*
X125901932Y-65224691D01*
X125901932Y-65224692D01*
X125956254Y-65403768D01*
X125974596Y-65590000D01*
X125956254Y-65776232D01*
X125929093Y-65865770D01*
X125901932Y-65955309D01*
X125813717Y-66120347D01*
X125695001Y-66265001D01*
X125550347Y-66383717D01*
X125385309Y-66471932D01*
X125295770Y-66499093D01*
X125206232Y-66526254D01*
X125066666Y-66540000D01*
X124973334Y-66540000D01*
X124833768Y-66526254D01*
X124744230Y-66499093D01*
X124654691Y-66471932D01*
X124489653Y-66383717D01*
X124344999Y-66265001D01*
X124226283Y-66120347D01*
X124138068Y-65955309D01*
X124110907Y-65865770D01*
X124083746Y-65776232D01*
X124065404Y-65590000D01*
X124083746Y-65403768D01*
X124138068Y-65224692D01*
X124138068Y-65224691D01*
X124226283Y-65059653D01*
X124344999Y-64914999D01*
X124489653Y-64796283D01*
X124654691Y-64708068D01*
X124744230Y-64680907D01*
X124833768Y-64653746D01*
X124973334Y-64640000D01*
X125066666Y-64640000D01*
X125206232Y-64653746D01*
X125206232Y-64653746D01*
G37*
G36*
X127746232Y-64653746D02*
X127835770Y-64680907D01*
X127925309Y-64708068D01*
X128090347Y-64796283D01*
X128235001Y-64914999D01*
X128353717Y-65059653D01*
X128441932Y-65224691D01*
X128441932Y-65224692D01*
X128496254Y-65403768D01*
X128514596Y-65590000D01*
X128496254Y-65776232D01*
X128469093Y-65865770D01*
X128441932Y-65955309D01*
X128353717Y-66120347D01*
X128235001Y-66265001D01*
X128090347Y-66383717D01*
X127925309Y-66471932D01*
X127835770Y-66499093D01*
X127746232Y-66526254D01*
X127606666Y-66540000D01*
X127513334Y-66540000D01*
X127373768Y-66526254D01*
X127284230Y-66499093D01*
X127194691Y-66471932D01*
X127029653Y-66383717D01*
X126884999Y-66265001D01*
X126766283Y-66120347D01*
X126678068Y-65955309D01*
X126650907Y-65865770D01*
X126623746Y-65776232D01*
X126605404Y-65590000D01*
X126623746Y-65403768D01*
X126678068Y-65224692D01*
X126678068Y-65224691D01*
X126766283Y-65059653D01*
X126884999Y-64914999D01*
X127029653Y-64796283D01*
X127194691Y-64708068D01*
X127284230Y-64680907D01*
X127373768Y-64653746D01*
X127513334Y-64640000D01*
X127606666Y-64640000D01*
X127746232Y-64653746D01*
X127746232Y-64653746D01*
G37*
G36*
X130286232Y-64653746D02*
X130375770Y-64680907D01*
X130465309Y-64708068D01*
X130630347Y-64796283D01*
X130775001Y-64914999D01*
X130893717Y-65059653D01*
X130981932Y-65224691D01*
X130981932Y-65224692D01*
X131036254Y-65403768D01*
X131054596Y-65590000D01*
X131036254Y-65776232D01*
X131009093Y-65865770D01*
X130981932Y-65955309D01*
X130893717Y-66120347D01*
X130775001Y-66265001D01*
X130630347Y-66383717D01*
X130465309Y-66471932D01*
X130375770Y-66499093D01*
X130286232Y-66526254D01*
X130146666Y-66540000D01*
X130053334Y-66540000D01*
X129913768Y-66526254D01*
X129824230Y-66499093D01*
X129734691Y-66471932D01*
X129569653Y-66383717D01*
X129424999Y-66265001D01*
X129306283Y-66120347D01*
X129218068Y-65955309D01*
X129190907Y-65865770D01*
X129163746Y-65776232D01*
X129145404Y-65590000D01*
X129163746Y-65403768D01*
X129218068Y-65224692D01*
X129218068Y-65224691D01*
X129306283Y-65059653D01*
X129424999Y-64914999D01*
X129569653Y-64796283D01*
X129734691Y-64708068D01*
X129824230Y-64680907D01*
X129913768Y-64653746D01*
X130053334Y-64640000D01*
X130146666Y-64640000D01*
X130286232Y-64653746D01*
X130286232Y-64653746D01*
G37*
G36*
X132826232Y-64653746D02*
X132915770Y-64680907D01*
X133005309Y-64708068D01*
X133170347Y-64796283D01*
X133315001Y-64914999D01*
X133433717Y-65059653D01*
X133521932Y-65224691D01*
X133521932Y-65224692D01*
X133576254Y-65403768D01*
X133594596Y-65590000D01*
X133576254Y-65776232D01*
X133549093Y-65865770D01*
X133521932Y-65955309D01*
X133433717Y-66120347D01*
X133315001Y-66265001D01*
X133170347Y-66383717D01*
X133005309Y-66471932D01*
X132915770Y-66499093D01*
X132826232Y-66526254D01*
X132686666Y-66540000D01*
X132593334Y-66540000D01*
X132453768Y-66526254D01*
X132364230Y-66499093D01*
X132274691Y-66471932D01*
X132109653Y-66383717D01*
X131964999Y-66265001D01*
X131846283Y-66120347D01*
X131758068Y-65955309D01*
X131730907Y-65865770D01*
X131703746Y-65776232D01*
X131685404Y-65590000D01*
X131703746Y-65403768D01*
X131758068Y-65224692D01*
X131758068Y-65224691D01*
X131846283Y-65059653D01*
X131964999Y-64914999D01*
X132109653Y-64796283D01*
X132274691Y-64708068D01*
X132364230Y-64680907D01*
X132453768Y-64653746D01*
X132593334Y-64640000D01*
X132686666Y-64640000D01*
X132826232Y-64653746D01*
X132826232Y-64653746D01*
G37*
G36*
X135366232Y-64653746D02*
X135455770Y-64680907D01*
X135545309Y-64708068D01*
X135710347Y-64796283D01*
X135855001Y-64914999D01*
X135973717Y-65059653D01*
X136061932Y-65224691D01*
X136061932Y-65224692D01*
X136116254Y-65403768D01*
X136134596Y-65590000D01*
X136116254Y-65776232D01*
X136089093Y-65865770D01*
X136061932Y-65955309D01*
X135973717Y-66120347D01*
X135855001Y-66265001D01*
X135710347Y-66383717D01*
X135545309Y-66471932D01*
X135455770Y-66499093D01*
X135366232Y-66526254D01*
X135226666Y-66540000D01*
X135133334Y-66540000D01*
X134993768Y-66526254D01*
X134904230Y-66499093D01*
X134814691Y-66471932D01*
X134649653Y-66383717D01*
X134504999Y-66265001D01*
X134386283Y-66120347D01*
X134298068Y-65955309D01*
X134270907Y-65865770D01*
X134243746Y-65776232D01*
X134225404Y-65590000D01*
X134243746Y-65403768D01*
X134298068Y-65224692D01*
X134298068Y-65224691D01*
X134386283Y-65059653D01*
X134504999Y-64914999D01*
X134649653Y-64796283D01*
X134814691Y-64708068D01*
X134904230Y-64680907D01*
X134993768Y-64653746D01*
X135133334Y-64640000D01*
X135226666Y-64640000D01*
X135366232Y-64653746D01*
X135366232Y-64653746D01*
G37*
G36*
X115046232Y-64653746D02*
X115135770Y-64680907D01*
X115225309Y-64708068D01*
X115390347Y-64796283D01*
X115535001Y-64914999D01*
X115653717Y-65059653D01*
X115741932Y-65224691D01*
X115741932Y-65224692D01*
X115796254Y-65403768D01*
X115814596Y-65590000D01*
X115796254Y-65776232D01*
X115769093Y-65865770D01*
X115741932Y-65955309D01*
X115653717Y-66120347D01*
X115535001Y-66265001D01*
X115390347Y-66383717D01*
X115225309Y-66471932D01*
X115135770Y-66499093D01*
X115046232Y-66526254D01*
X114906666Y-66540000D01*
X114813334Y-66540000D01*
X114673768Y-66526254D01*
X114584230Y-66499093D01*
X114494691Y-66471932D01*
X114329653Y-66383717D01*
X114184999Y-66265001D01*
X114066283Y-66120347D01*
X113978068Y-65955309D01*
X113950907Y-65865770D01*
X113923746Y-65776232D01*
X113905404Y-65590000D01*
X113923746Y-65403768D01*
X113978068Y-65224692D01*
X113978068Y-65224691D01*
X114066283Y-65059653D01*
X114184999Y-64914999D01*
X114329653Y-64796283D01*
X114494691Y-64708068D01*
X114584230Y-64680907D01*
X114673768Y-64653746D01*
X114813334Y-64640000D01*
X114906666Y-64640000D01*
X115046232Y-64653746D01*
X115046232Y-64653746D01*
G37*
G36*
X112506232Y-64653746D02*
X112595770Y-64680907D01*
X112685309Y-64708068D01*
X112850347Y-64796283D01*
X112995001Y-64914999D01*
X113113717Y-65059653D01*
X113201932Y-65224691D01*
X113201932Y-65224692D01*
X113256254Y-65403768D01*
X113274596Y-65590000D01*
X113256254Y-65776232D01*
X113229093Y-65865770D01*
X113201932Y-65955309D01*
X113113717Y-66120347D01*
X112995001Y-66265001D01*
X112850347Y-66383717D01*
X112685309Y-66471932D01*
X112595770Y-66499093D01*
X112506232Y-66526254D01*
X112366666Y-66540000D01*
X112273334Y-66540000D01*
X112133768Y-66526254D01*
X112044230Y-66499093D01*
X111954691Y-66471932D01*
X111789653Y-66383717D01*
X111644999Y-66265001D01*
X111526283Y-66120347D01*
X111438068Y-65955309D01*
X111410907Y-65865770D01*
X111383746Y-65776232D01*
X111365404Y-65590000D01*
X111383746Y-65403768D01*
X111438068Y-65224692D01*
X111438068Y-65224691D01*
X111526283Y-65059653D01*
X111644999Y-64914999D01*
X111789653Y-64796283D01*
X111954691Y-64708068D01*
X112044230Y-64680907D01*
X112133768Y-64653746D01*
X112273334Y-64640000D01*
X112366666Y-64640000D01*
X112506232Y-64653746D01*
X112506232Y-64653746D01*
G37*
G36*
X109966232Y-64653746D02*
X110055770Y-64680907D01*
X110145309Y-64708068D01*
X110310347Y-64796283D01*
X110455001Y-64914999D01*
X110573717Y-65059653D01*
X110661932Y-65224691D01*
X110661932Y-65224692D01*
X110716254Y-65403768D01*
X110734596Y-65590000D01*
X110716254Y-65776232D01*
X110689093Y-65865770D01*
X110661932Y-65955309D01*
X110573717Y-66120347D01*
X110455001Y-66265001D01*
X110310347Y-66383717D01*
X110145309Y-66471932D01*
X110055770Y-66499093D01*
X109966232Y-66526254D01*
X109826666Y-66540000D01*
X109733334Y-66540000D01*
X109593768Y-66526254D01*
X109504230Y-66499093D01*
X109414691Y-66471932D01*
X109249653Y-66383717D01*
X109104999Y-66265001D01*
X108986283Y-66120347D01*
X108898068Y-65955309D01*
X108870907Y-65865770D01*
X108843746Y-65776232D01*
X108825404Y-65590000D01*
X108843746Y-65403768D01*
X108898068Y-65224692D01*
X108898068Y-65224691D01*
X108986283Y-65059653D01*
X109104999Y-64914999D01*
X109249653Y-64796283D01*
X109414691Y-64708068D01*
X109504230Y-64680907D01*
X109593768Y-64653746D01*
X109733334Y-64640000D01*
X109826666Y-64640000D01*
X109966232Y-64653746D01*
X109966232Y-64653746D01*
G37*
G36*
X102346232Y-64653746D02*
X102435770Y-64680907D01*
X102525309Y-64708068D01*
X102690347Y-64796283D01*
X102835001Y-64914999D01*
X102953717Y-65059653D01*
X103041932Y-65224691D01*
X103041932Y-65224692D01*
X103096254Y-65403768D01*
X103114596Y-65590000D01*
X103096254Y-65776232D01*
X103069093Y-65865770D01*
X103041932Y-65955309D01*
X102953717Y-66120347D01*
X102835001Y-66265001D01*
X102690347Y-66383717D01*
X102525309Y-66471932D01*
X102435770Y-66499093D01*
X102346232Y-66526254D01*
X102206666Y-66540000D01*
X102113334Y-66540000D01*
X101973768Y-66526254D01*
X101884230Y-66499093D01*
X101794691Y-66471932D01*
X101629653Y-66383717D01*
X101484999Y-66265001D01*
X101366283Y-66120347D01*
X101278068Y-65955309D01*
X101250907Y-65865770D01*
X101223746Y-65776232D01*
X101205404Y-65590000D01*
X101223746Y-65403768D01*
X101278068Y-65224692D01*
X101278068Y-65224691D01*
X101366283Y-65059653D01*
X101484999Y-64914999D01*
X101629653Y-64796283D01*
X101794691Y-64708068D01*
X101884230Y-64680907D01*
X101973768Y-64653746D01*
X102113334Y-64640000D01*
X102206666Y-64640000D01*
X102346232Y-64653746D01*
X102346232Y-64653746D01*
G37*
G36*
X99806232Y-64653746D02*
X99895770Y-64680907D01*
X99985309Y-64708068D01*
X100150347Y-64796283D01*
X100295001Y-64914999D01*
X100413717Y-65059653D01*
X100501932Y-65224691D01*
X100501932Y-65224692D01*
X100556254Y-65403768D01*
X100574596Y-65590000D01*
X100556254Y-65776232D01*
X100529093Y-65865770D01*
X100501932Y-65955309D01*
X100413717Y-66120347D01*
X100295001Y-66265001D01*
X100150347Y-66383717D01*
X99985309Y-66471932D01*
X99895770Y-66499093D01*
X99806232Y-66526254D01*
X99666666Y-66540000D01*
X99573334Y-66540000D01*
X99433768Y-66526254D01*
X99344230Y-66499093D01*
X99254691Y-66471932D01*
X99089653Y-66383717D01*
X98944999Y-66265001D01*
X98826283Y-66120347D01*
X98738068Y-65955309D01*
X98710907Y-65865770D01*
X98683746Y-65776232D01*
X98665404Y-65590000D01*
X98683746Y-65403768D01*
X98738068Y-65224692D01*
X98738068Y-65224691D01*
X98826283Y-65059653D01*
X98944999Y-64914999D01*
X99089653Y-64796283D01*
X99254691Y-64708068D01*
X99344230Y-64680907D01*
X99433768Y-64653746D01*
X99573334Y-64640000D01*
X99666666Y-64640000D01*
X99806232Y-64653746D01*
X99806232Y-64653746D01*
G37*
G36*
X87870000Y-66540000D02*
X85970000Y-66540000D01*
X85970000Y-64640000D01*
X87870000Y-64640000D01*
X87870000Y-66540000D01*
X87870000Y-66540000D01*
G37*
G36*
X89646232Y-64653746D02*
X89735770Y-64680907D01*
X89825309Y-64708068D01*
X89990347Y-64796283D01*
X90135001Y-64914999D01*
X90253717Y-65059653D01*
X90341932Y-65224691D01*
X90341932Y-65224692D01*
X90396254Y-65403768D01*
X90414596Y-65590000D01*
X90396254Y-65776232D01*
X90369093Y-65865770D01*
X90341932Y-65955309D01*
X90253717Y-66120347D01*
X90135001Y-66265001D01*
X89990347Y-66383717D01*
X89825309Y-66471932D01*
X89735770Y-66499093D01*
X89646232Y-66526254D01*
X89506666Y-66540000D01*
X89413334Y-66540000D01*
X89273768Y-66526254D01*
X89184230Y-66499093D01*
X89094691Y-66471932D01*
X88929653Y-66383717D01*
X88784999Y-66265001D01*
X88666283Y-66120347D01*
X88578068Y-65955309D01*
X88550907Y-65865770D01*
X88523746Y-65776232D01*
X88505404Y-65590000D01*
X88523746Y-65403768D01*
X88578068Y-65224692D01*
X88578068Y-65224691D01*
X88666283Y-65059653D01*
X88784999Y-64914999D01*
X88929653Y-64796283D01*
X89094691Y-64708068D01*
X89184230Y-64680907D01*
X89273768Y-64653746D01*
X89413334Y-64640000D01*
X89506666Y-64640000D01*
X89646232Y-64653746D01*
X89646232Y-64653746D01*
G37*
G36*
X92186232Y-64653746D02*
X92275770Y-64680907D01*
X92365309Y-64708068D01*
X92530347Y-64796283D01*
X92675001Y-64914999D01*
X92793717Y-65059653D01*
X92881932Y-65224691D01*
X92881932Y-65224692D01*
X92936254Y-65403768D01*
X92954596Y-65590000D01*
X92936254Y-65776232D01*
X92909093Y-65865770D01*
X92881932Y-65955309D01*
X92793717Y-66120347D01*
X92675001Y-66265001D01*
X92530347Y-66383717D01*
X92365309Y-66471932D01*
X92275770Y-66499093D01*
X92186232Y-66526254D01*
X92046666Y-66540000D01*
X91953334Y-66540000D01*
X91813768Y-66526254D01*
X91724230Y-66499093D01*
X91634691Y-66471932D01*
X91469653Y-66383717D01*
X91324999Y-66265001D01*
X91206283Y-66120347D01*
X91118068Y-65955309D01*
X91090907Y-65865770D01*
X91063746Y-65776232D01*
X91045404Y-65590000D01*
X91063746Y-65403768D01*
X91118068Y-65224692D01*
X91118068Y-65224691D01*
X91206283Y-65059653D01*
X91324999Y-64914999D01*
X91469653Y-64796283D01*
X91634691Y-64708068D01*
X91724230Y-64680907D01*
X91813768Y-64653746D01*
X91953334Y-64640000D01*
X92046666Y-64640000D01*
X92186232Y-64653746D01*
X92186232Y-64653746D01*
G37*
G36*
X94726232Y-64653746D02*
X94815770Y-64680907D01*
X94905309Y-64708068D01*
X95070347Y-64796283D01*
X95215001Y-64914999D01*
X95333717Y-65059653D01*
X95421932Y-65224691D01*
X95421932Y-65224692D01*
X95476254Y-65403768D01*
X95494596Y-65590000D01*
X95476254Y-65776232D01*
X95449093Y-65865770D01*
X95421932Y-65955309D01*
X95333717Y-66120347D01*
X95215001Y-66265001D01*
X95070347Y-66383717D01*
X94905309Y-66471932D01*
X94815770Y-66499093D01*
X94726232Y-66526254D01*
X94586666Y-66540000D01*
X94493334Y-66540000D01*
X94353768Y-66526254D01*
X94264230Y-66499093D01*
X94174691Y-66471932D01*
X94009653Y-66383717D01*
X93864999Y-66265001D01*
X93746283Y-66120347D01*
X93658068Y-65955309D01*
X93630907Y-65865770D01*
X93603746Y-65776232D01*
X93585404Y-65590000D01*
X93603746Y-65403768D01*
X93658068Y-65224692D01*
X93658068Y-65224691D01*
X93746283Y-65059653D01*
X93864999Y-64914999D01*
X94009653Y-64796283D01*
X94174691Y-64708068D01*
X94264230Y-64680907D01*
X94353768Y-64653746D01*
X94493334Y-64640000D01*
X94586666Y-64640000D01*
X94726232Y-64653746D01*
X94726232Y-64653746D01*
G37*
G36*
X97266232Y-64653746D02*
X97355770Y-64680907D01*
X97445309Y-64708068D01*
X97610347Y-64796283D01*
X97755001Y-64914999D01*
X97873717Y-65059653D01*
X97961932Y-65224691D01*
X97961932Y-65224692D01*
X98016254Y-65403768D01*
X98034596Y-65590000D01*
X98016254Y-65776232D01*
X97989093Y-65865770D01*
X97961932Y-65955309D01*
X97873717Y-66120347D01*
X97755001Y-66265001D01*
X97610347Y-66383717D01*
X97445309Y-66471932D01*
X97355770Y-66499093D01*
X97266232Y-66526254D01*
X97126666Y-66540000D01*
X97033334Y-66540000D01*
X96893768Y-66526254D01*
X96804230Y-66499093D01*
X96714691Y-66471932D01*
X96549653Y-66383717D01*
X96404999Y-66265001D01*
X96286283Y-66120347D01*
X96198068Y-65955309D01*
X96170907Y-65865770D01*
X96143746Y-65776232D01*
X96125404Y-65590000D01*
X96143746Y-65403768D01*
X96198068Y-65224692D01*
X96198068Y-65224691D01*
X96286283Y-65059653D01*
X96404999Y-64914999D01*
X96549653Y-64796283D01*
X96714691Y-64708068D01*
X96804230Y-64680907D01*
X96893768Y-64653746D01*
X97033334Y-64640000D01*
X97126666Y-64640000D01*
X97266232Y-64653746D01*
X97266232Y-64653746D01*
G37*
G36*
X107426232Y-64653746D02*
X107515770Y-64680907D01*
X107605309Y-64708068D01*
X107770347Y-64796283D01*
X107915001Y-64914999D01*
X108033717Y-65059653D01*
X108121932Y-65224691D01*
X108121932Y-65224692D01*
X108176254Y-65403768D01*
X108194596Y-65590000D01*
X108176254Y-65776232D01*
X108149093Y-65865770D01*
X108121932Y-65955309D01*
X108033717Y-66120347D01*
X107915001Y-66265001D01*
X107770347Y-66383717D01*
X107605309Y-66471932D01*
X107515770Y-66499093D01*
X107426232Y-66526254D01*
X107286666Y-66540000D01*
X107193334Y-66540000D01*
X107053768Y-66526254D01*
X106964230Y-66499093D01*
X106874691Y-66471932D01*
X106709653Y-66383717D01*
X106564999Y-66265001D01*
X106446283Y-66120347D01*
X106358068Y-65955309D01*
X106330907Y-65865770D01*
X106303746Y-65776232D01*
X106285404Y-65590000D01*
X106303746Y-65403768D01*
X106358068Y-65224692D01*
X106358068Y-65224691D01*
X106446283Y-65059653D01*
X106564999Y-64914999D01*
X106709653Y-64796283D01*
X106874691Y-64708068D01*
X106964230Y-64680907D01*
X107053768Y-64653746D01*
X107193334Y-64640000D01*
X107286666Y-64640000D01*
X107426232Y-64653746D01*
X107426232Y-64653746D01*
G37*
G36*
X120126232Y-64653746D02*
X120215770Y-64680907D01*
X120305309Y-64708068D01*
X120470347Y-64796283D01*
X120615001Y-64914999D01*
X120733717Y-65059653D01*
X120821932Y-65224691D01*
X120821932Y-65224692D01*
X120876254Y-65403768D01*
X120894596Y-65590000D01*
X120876254Y-65776232D01*
X120849093Y-65865770D01*
X120821932Y-65955309D01*
X120733717Y-66120347D01*
X120615001Y-66265001D01*
X120470347Y-66383717D01*
X120305309Y-66471932D01*
X120215770Y-66499093D01*
X120126232Y-66526254D01*
X119986666Y-66540000D01*
X119893334Y-66540000D01*
X119753768Y-66526254D01*
X119664230Y-66499093D01*
X119574691Y-66471932D01*
X119409653Y-66383717D01*
X119264999Y-66265001D01*
X119146283Y-66120347D01*
X119058068Y-65955309D01*
X119030907Y-65865770D01*
X119003746Y-65776232D01*
X118985404Y-65590000D01*
X119003746Y-65403768D01*
X119058068Y-65224692D01*
X119058068Y-65224691D01*
X119146283Y-65059653D01*
X119264999Y-64914999D01*
X119409653Y-64796283D01*
X119574691Y-64708068D01*
X119664230Y-64680907D01*
X119753768Y-64653746D01*
X119893334Y-64640000D01*
X119986666Y-64640000D01*
X120126232Y-64653746D01*
X120126232Y-64653746D01*
G37*
G36*
X104886232Y-64653746D02*
X104975770Y-64680907D01*
X105065309Y-64708068D01*
X105230347Y-64796283D01*
X105375001Y-64914999D01*
X105493717Y-65059653D01*
X105581932Y-65224691D01*
X105581932Y-65224692D01*
X105636254Y-65403768D01*
X105654596Y-65590000D01*
X105636254Y-65776232D01*
X105609093Y-65865770D01*
X105581932Y-65955309D01*
X105493717Y-66120347D01*
X105375001Y-66265001D01*
X105230347Y-66383717D01*
X105065309Y-66471932D01*
X104975770Y-66499093D01*
X104886232Y-66526254D01*
X104746666Y-66540000D01*
X104653334Y-66540000D01*
X104513768Y-66526254D01*
X104424230Y-66499093D01*
X104334691Y-66471932D01*
X104169653Y-66383717D01*
X104024999Y-66265001D01*
X103906283Y-66120347D01*
X103818068Y-65955309D01*
X103790907Y-65865770D01*
X103763746Y-65776232D01*
X103745404Y-65590000D01*
X103763746Y-65403768D01*
X103818068Y-65224692D01*
X103818068Y-65224691D01*
X103906283Y-65059653D01*
X104024999Y-64914999D01*
X104169653Y-64796283D01*
X104334691Y-64708068D01*
X104424230Y-64680907D01*
X104513768Y-64653746D01*
X104653334Y-64640000D01*
X104746666Y-64640000D01*
X104886232Y-64653746D01*
X104886232Y-64653746D01*
G37*
G36*
X140506703Y-62791486D02*
X140797883Y-62912097D01*
X141059944Y-63087201D01*
X141282799Y-63310056D01*
X141457903Y-63572117D01*
X141578514Y-63863297D01*
X141640000Y-64172412D01*
X141640000Y-64487588D01*
X141578514Y-64796703D01*
X141457903Y-65087883D01*
X141282799Y-65349944D01*
X141059944Y-65572799D01*
X140797883Y-65747903D01*
X140506703Y-65868514D01*
X140197588Y-65930000D01*
X139882412Y-65930000D01*
X139573297Y-65868514D01*
X139282117Y-65747903D01*
X139020056Y-65572799D01*
X138797201Y-65349944D01*
X138622097Y-65087883D01*
X138501486Y-64796703D01*
X138440000Y-64487588D01*
X138440000Y-64172412D01*
X138501486Y-63863297D01*
X138622097Y-63572117D01*
X138797201Y-63310056D01*
X139020056Y-63087201D01*
X139282117Y-62912097D01*
X139573297Y-62791486D01*
X139882412Y-62730000D01*
X140197588Y-62730000D01*
X140506703Y-62791486D01*
X140506703Y-62791486D01*
G37*
G36*
X82506703Y-62771486D02*
X82797883Y-62892097D01*
X83059944Y-63067201D01*
X83282799Y-63290056D01*
X83457903Y-63552117D01*
X83578514Y-63843297D01*
X83640000Y-64152412D01*
X83640000Y-64467588D01*
X83578514Y-64776703D01*
X83457903Y-65067883D01*
X83282799Y-65329944D01*
X83059944Y-65552799D01*
X82797883Y-65727903D01*
X82506703Y-65848514D01*
X82197588Y-65910000D01*
X81882412Y-65910000D01*
X81573297Y-65848514D01*
X81282117Y-65727903D01*
X81020056Y-65552799D01*
X80797201Y-65329944D01*
X80622097Y-65067883D01*
X80501486Y-64776703D01*
X80440000Y-64467588D01*
X80440000Y-64152412D01*
X80501486Y-63843297D01*
X80622097Y-63552117D01*
X80797201Y-63290056D01*
X81020056Y-63067201D01*
X81282117Y-62892097D01*
X81573297Y-62771486D01*
X81882412Y-62710000D01*
X82197588Y-62710000D01*
X82506703Y-62771486D01*
X82506703Y-62771486D01*
G37*
G36*
X89646232Y-62113746D02*
X89735770Y-62140907D01*
X89825309Y-62168068D01*
X89990347Y-62256283D01*
X90135001Y-62374999D01*
X90253717Y-62519653D01*
X90341932Y-62684691D01*
X90341932Y-62684692D01*
X90374328Y-62791486D01*
X90396254Y-62863769D01*
X90414596Y-63050000D01*
X90396254Y-63236231D01*
X90341932Y-63415309D01*
X90253717Y-63580347D01*
X90135001Y-63725001D01*
X89990347Y-63843717D01*
X89825309Y-63931932D01*
X89735770Y-63959093D01*
X89646232Y-63986254D01*
X89506666Y-64000000D01*
X89413334Y-64000000D01*
X89273768Y-63986254D01*
X89184230Y-63959093D01*
X89094691Y-63931932D01*
X88929653Y-63843717D01*
X88784999Y-63725001D01*
X88666283Y-63580347D01*
X88578068Y-63415309D01*
X88523746Y-63236231D01*
X88505404Y-63050000D01*
X88523746Y-62863769D01*
X88545673Y-62791486D01*
X88578068Y-62684692D01*
X88578068Y-62684691D01*
X88666283Y-62519653D01*
X88784999Y-62374999D01*
X88929653Y-62256283D01*
X89094691Y-62168068D01*
X89184230Y-62140907D01*
X89273768Y-62113746D01*
X89413334Y-62100000D01*
X89506666Y-62100000D01*
X89646232Y-62113746D01*
X89646232Y-62113746D01*
G37*
G36*
X92186232Y-62113746D02*
X92275770Y-62140907D01*
X92365309Y-62168068D01*
X92530347Y-62256283D01*
X92675001Y-62374999D01*
X92793717Y-62519653D01*
X92881932Y-62684691D01*
X92881932Y-62684692D01*
X92914328Y-62791486D01*
X92936254Y-62863769D01*
X92954596Y-63050000D01*
X92936254Y-63236231D01*
X92881932Y-63415309D01*
X92793717Y-63580347D01*
X92675001Y-63725001D01*
X92530347Y-63843717D01*
X92365309Y-63931932D01*
X92275770Y-63959093D01*
X92186232Y-63986254D01*
X92046666Y-64000000D01*
X91953334Y-64000000D01*
X91813768Y-63986254D01*
X91724230Y-63959093D01*
X91634691Y-63931932D01*
X91469653Y-63843717D01*
X91324999Y-63725001D01*
X91206283Y-63580347D01*
X91118068Y-63415309D01*
X91063746Y-63236231D01*
X91045404Y-63050000D01*
X91063746Y-62863769D01*
X91085673Y-62791486D01*
X91118068Y-62684692D01*
X91118068Y-62684691D01*
X91206283Y-62519653D01*
X91324999Y-62374999D01*
X91469653Y-62256283D01*
X91634691Y-62168068D01*
X91724230Y-62140907D01*
X91813768Y-62113746D01*
X91953334Y-62100000D01*
X92046666Y-62100000D01*
X92186232Y-62113746D01*
X92186232Y-62113746D01*
G37*
G36*
X94726232Y-62113746D02*
X94815770Y-62140907D01*
X94905309Y-62168068D01*
X95070347Y-62256283D01*
X95215001Y-62374999D01*
X95333717Y-62519653D01*
X95421932Y-62684691D01*
X95421932Y-62684692D01*
X95454328Y-62791486D01*
X95476254Y-62863769D01*
X95494596Y-63050000D01*
X95476254Y-63236231D01*
X95421932Y-63415309D01*
X95333717Y-63580347D01*
X95215001Y-63725001D01*
X95070347Y-63843717D01*
X94905309Y-63931932D01*
X94815770Y-63959093D01*
X94726232Y-63986254D01*
X94586666Y-64000000D01*
X94493334Y-64000000D01*
X94353768Y-63986254D01*
X94264230Y-63959093D01*
X94174691Y-63931932D01*
X94009653Y-63843717D01*
X93864999Y-63725001D01*
X93746283Y-63580347D01*
X93658068Y-63415309D01*
X93603746Y-63236231D01*
X93585404Y-63050000D01*
X93603746Y-62863769D01*
X93625673Y-62791486D01*
X93658068Y-62684692D01*
X93658068Y-62684691D01*
X93746283Y-62519653D01*
X93864999Y-62374999D01*
X94009653Y-62256283D01*
X94174691Y-62168068D01*
X94264230Y-62140907D01*
X94353768Y-62113746D01*
X94493334Y-62100000D01*
X94586666Y-62100000D01*
X94726232Y-62113746D01*
X94726232Y-62113746D01*
G37*
G36*
X97266232Y-62113746D02*
X97355770Y-62140907D01*
X97445309Y-62168068D01*
X97610347Y-62256283D01*
X97755001Y-62374999D01*
X97873717Y-62519653D01*
X97961932Y-62684691D01*
X97961932Y-62684692D01*
X97994328Y-62791486D01*
X98016254Y-62863769D01*
X98034596Y-63050000D01*
X98016254Y-63236231D01*
X97961932Y-63415309D01*
X97873717Y-63580347D01*
X97755001Y-63725001D01*
X97610347Y-63843717D01*
X97445309Y-63931932D01*
X97355770Y-63959093D01*
X97266232Y-63986254D01*
X97126666Y-64000000D01*
X97033334Y-64000000D01*
X96893768Y-63986254D01*
X96804230Y-63959093D01*
X96714691Y-63931932D01*
X96549653Y-63843717D01*
X96404999Y-63725001D01*
X96286283Y-63580347D01*
X96198068Y-63415309D01*
X96143746Y-63236231D01*
X96125404Y-63050000D01*
X96143746Y-62863769D01*
X96165673Y-62791486D01*
X96198068Y-62684692D01*
X96198068Y-62684691D01*
X96286283Y-62519653D01*
X96404999Y-62374999D01*
X96549653Y-62256283D01*
X96714691Y-62168068D01*
X96804230Y-62140907D01*
X96893768Y-62113746D01*
X97033334Y-62100000D01*
X97126666Y-62100000D01*
X97266232Y-62113746D01*
X97266232Y-62113746D01*
G37*
G36*
X99806232Y-62113746D02*
X99895770Y-62140907D01*
X99985309Y-62168068D01*
X100150347Y-62256283D01*
X100295001Y-62374999D01*
X100413717Y-62519653D01*
X100501932Y-62684691D01*
X100501932Y-62684692D01*
X100534328Y-62791486D01*
X100556254Y-62863769D01*
X100574596Y-63050000D01*
X100556254Y-63236231D01*
X100501932Y-63415309D01*
X100413717Y-63580347D01*
X100295001Y-63725001D01*
X100150347Y-63843717D01*
X99985309Y-63931932D01*
X99895770Y-63959093D01*
X99806232Y-63986254D01*
X99666666Y-64000000D01*
X99573334Y-64000000D01*
X99433768Y-63986254D01*
X99344230Y-63959093D01*
X99254691Y-63931932D01*
X99089653Y-63843717D01*
X98944999Y-63725001D01*
X98826283Y-63580347D01*
X98738068Y-63415309D01*
X98683746Y-63236231D01*
X98665404Y-63050000D01*
X98683746Y-62863769D01*
X98705673Y-62791486D01*
X98738068Y-62684692D01*
X98738068Y-62684691D01*
X98826283Y-62519653D01*
X98944999Y-62374999D01*
X99089653Y-62256283D01*
X99254691Y-62168068D01*
X99344230Y-62140907D01*
X99433768Y-62113746D01*
X99573334Y-62100000D01*
X99666666Y-62100000D01*
X99806232Y-62113746D01*
X99806232Y-62113746D01*
G37*
G36*
X102346232Y-62113746D02*
X102435770Y-62140907D01*
X102525309Y-62168068D01*
X102690347Y-62256283D01*
X102835001Y-62374999D01*
X102953717Y-62519653D01*
X103041932Y-62684691D01*
X103041932Y-62684692D01*
X103074328Y-62791486D01*
X103096254Y-62863769D01*
X103114596Y-63050000D01*
X103096254Y-63236231D01*
X103041932Y-63415309D01*
X102953717Y-63580347D01*
X102835001Y-63725001D01*
X102690347Y-63843717D01*
X102525309Y-63931932D01*
X102435770Y-63959093D01*
X102346232Y-63986254D01*
X102206666Y-64000000D01*
X102113334Y-64000000D01*
X101973768Y-63986254D01*
X101884230Y-63959093D01*
X101794691Y-63931932D01*
X101629653Y-63843717D01*
X101484999Y-63725001D01*
X101366283Y-63580347D01*
X101278068Y-63415309D01*
X101223746Y-63236231D01*
X101205404Y-63050000D01*
X101223746Y-62863769D01*
X101245673Y-62791486D01*
X101278068Y-62684692D01*
X101278068Y-62684691D01*
X101366283Y-62519653D01*
X101484999Y-62374999D01*
X101629653Y-62256283D01*
X101794691Y-62168068D01*
X101884230Y-62140907D01*
X101973768Y-62113746D01*
X102113334Y-62100000D01*
X102206666Y-62100000D01*
X102346232Y-62113746D01*
X102346232Y-62113746D01*
G37*
G36*
X104886232Y-62113746D02*
X104975770Y-62140907D01*
X105065309Y-62168068D01*
X105230347Y-62256283D01*
X105375001Y-62374999D01*
X105493717Y-62519653D01*
X105581932Y-62684691D01*
X105581932Y-62684692D01*
X105614328Y-62791486D01*
X105636254Y-62863769D01*
X105654596Y-63050000D01*
X105636254Y-63236231D01*
X105581932Y-63415309D01*
X105493717Y-63580347D01*
X105375001Y-63725001D01*
X105230347Y-63843717D01*
X105065309Y-63931932D01*
X104975770Y-63959093D01*
X104886232Y-63986254D01*
X104746666Y-64000000D01*
X104653334Y-64000000D01*
X104513768Y-63986254D01*
X104424230Y-63959093D01*
X104334691Y-63931932D01*
X104169653Y-63843717D01*
X104024999Y-63725001D01*
X103906283Y-63580347D01*
X103818068Y-63415309D01*
X103763746Y-63236231D01*
X103745404Y-63050000D01*
X103763746Y-62863769D01*
X103785673Y-62791486D01*
X103818068Y-62684692D01*
X103818068Y-62684691D01*
X103906283Y-62519653D01*
X104024999Y-62374999D01*
X104169653Y-62256283D01*
X104334691Y-62168068D01*
X104424230Y-62140907D01*
X104513768Y-62113746D01*
X104653334Y-62100000D01*
X104746666Y-62100000D01*
X104886232Y-62113746D01*
X104886232Y-62113746D01*
G37*
G36*
X107426232Y-62113746D02*
X107515770Y-62140907D01*
X107605309Y-62168068D01*
X107770347Y-62256283D01*
X107915001Y-62374999D01*
X108033717Y-62519653D01*
X108121932Y-62684691D01*
X108121932Y-62684692D01*
X108154328Y-62791486D01*
X108176254Y-62863769D01*
X108194596Y-63050000D01*
X108176254Y-63236231D01*
X108121932Y-63415309D01*
X108033717Y-63580347D01*
X107915001Y-63725001D01*
X107770347Y-63843717D01*
X107605309Y-63931932D01*
X107515770Y-63959093D01*
X107426232Y-63986254D01*
X107286666Y-64000000D01*
X107193334Y-64000000D01*
X107053768Y-63986254D01*
X106964230Y-63959093D01*
X106874691Y-63931932D01*
X106709653Y-63843717D01*
X106564999Y-63725001D01*
X106446283Y-63580347D01*
X106358068Y-63415309D01*
X106303746Y-63236231D01*
X106285404Y-63050000D01*
X106303746Y-62863769D01*
X106325673Y-62791486D01*
X106358068Y-62684692D01*
X106358068Y-62684691D01*
X106446283Y-62519653D01*
X106564999Y-62374999D01*
X106709653Y-62256283D01*
X106874691Y-62168068D01*
X106964230Y-62140907D01*
X107053768Y-62113746D01*
X107193334Y-62100000D01*
X107286666Y-62100000D01*
X107426232Y-62113746D01*
X107426232Y-62113746D01*
G37*
G36*
X109966232Y-62113746D02*
X110055770Y-62140907D01*
X110145309Y-62168068D01*
X110310347Y-62256283D01*
X110455001Y-62374999D01*
X110573717Y-62519653D01*
X110661932Y-62684691D01*
X110661932Y-62684692D01*
X110694328Y-62791486D01*
X110716254Y-62863769D01*
X110734596Y-63050000D01*
X110716254Y-63236231D01*
X110661932Y-63415309D01*
X110573717Y-63580347D01*
X110455001Y-63725001D01*
X110310347Y-63843717D01*
X110145309Y-63931932D01*
X110055770Y-63959093D01*
X109966232Y-63986254D01*
X109826666Y-64000000D01*
X109733334Y-64000000D01*
X109593768Y-63986254D01*
X109504230Y-63959093D01*
X109414691Y-63931932D01*
X109249653Y-63843717D01*
X109104999Y-63725001D01*
X108986283Y-63580347D01*
X108898068Y-63415309D01*
X108843746Y-63236231D01*
X108825404Y-63050000D01*
X108843746Y-62863769D01*
X108865673Y-62791486D01*
X108898068Y-62684692D01*
X108898068Y-62684691D01*
X108986283Y-62519653D01*
X109104999Y-62374999D01*
X109249653Y-62256283D01*
X109414691Y-62168068D01*
X109504230Y-62140907D01*
X109593768Y-62113746D01*
X109733334Y-62100000D01*
X109826666Y-62100000D01*
X109966232Y-62113746D01*
X109966232Y-62113746D01*
G37*
G36*
X87106232Y-62113746D02*
X87195770Y-62140907D01*
X87285309Y-62168068D01*
X87450347Y-62256283D01*
X87595001Y-62374999D01*
X87713717Y-62519653D01*
X87801932Y-62684691D01*
X87801932Y-62684692D01*
X87834328Y-62791486D01*
X87856254Y-62863769D01*
X87874596Y-63050000D01*
X87856254Y-63236231D01*
X87801932Y-63415309D01*
X87713717Y-63580347D01*
X87595001Y-63725001D01*
X87450347Y-63843717D01*
X87285309Y-63931932D01*
X87195770Y-63959093D01*
X87106232Y-63986254D01*
X86966666Y-64000000D01*
X86873334Y-64000000D01*
X86733768Y-63986254D01*
X86644230Y-63959093D01*
X86554691Y-63931932D01*
X86389653Y-63843717D01*
X86244999Y-63725001D01*
X86126283Y-63580347D01*
X86038068Y-63415309D01*
X85983746Y-63236231D01*
X85965404Y-63050000D01*
X85983746Y-62863769D01*
X86005673Y-62791486D01*
X86038068Y-62684692D01*
X86038068Y-62684691D01*
X86126283Y-62519653D01*
X86244999Y-62374999D01*
X86389653Y-62256283D01*
X86554691Y-62168068D01*
X86644230Y-62140907D01*
X86733768Y-62113746D01*
X86873334Y-62100000D01*
X86966666Y-62100000D01*
X87106232Y-62113746D01*
X87106232Y-62113746D01*
G37*
G36*
X115046232Y-62113746D02*
X115135770Y-62140907D01*
X115225309Y-62168068D01*
X115390347Y-62256283D01*
X115535001Y-62374999D01*
X115653717Y-62519653D01*
X115741932Y-62684691D01*
X115741932Y-62684692D01*
X115774328Y-62791486D01*
X115796254Y-62863769D01*
X115814596Y-63050000D01*
X115796254Y-63236231D01*
X115741932Y-63415309D01*
X115653717Y-63580347D01*
X115535001Y-63725001D01*
X115390347Y-63843717D01*
X115225309Y-63931932D01*
X115135770Y-63959093D01*
X115046232Y-63986254D01*
X114906666Y-64000000D01*
X114813334Y-64000000D01*
X114673768Y-63986254D01*
X114584230Y-63959093D01*
X114494691Y-63931932D01*
X114329653Y-63843717D01*
X114184999Y-63725001D01*
X114066283Y-63580347D01*
X113978068Y-63415309D01*
X113923746Y-63236231D01*
X113905404Y-63050000D01*
X113923746Y-62863769D01*
X113945673Y-62791486D01*
X113978068Y-62684692D01*
X113978068Y-62684691D01*
X114066283Y-62519653D01*
X114184999Y-62374999D01*
X114329653Y-62256283D01*
X114494691Y-62168068D01*
X114584230Y-62140907D01*
X114673768Y-62113746D01*
X114813334Y-62100000D01*
X114906666Y-62100000D01*
X115046232Y-62113746D01*
X115046232Y-62113746D01*
G37*
G36*
X117586232Y-62113746D02*
X117675770Y-62140907D01*
X117765309Y-62168068D01*
X117930347Y-62256283D01*
X118075001Y-62374999D01*
X118193717Y-62519653D01*
X118281932Y-62684691D01*
X118281932Y-62684692D01*
X118314328Y-62791486D01*
X118336254Y-62863769D01*
X118354596Y-63050000D01*
X118336254Y-63236231D01*
X118281932Y-63415309D01*
X118193717Y-63580347D01*
X118075001Y-63725001D01*
X117930347Y-63843717D01*
X117765309Y-63931932D01*
X117675770Y-63959093D01*
X117586232Y-63986254D01*
X117446666Y-64000000D01*
X117353334Y-64000000D01*
X117213768Y-63986254D01*
X117124230Y-63959093D01*
X117034691Y-63931932D01*
X116869653Y-63843717D01*
X116724999Y-63725001D01*
X116606283Y-63580347D01*
X116518068Y-63415309D01*
X116463746Y-63236231D01*
X116445404Y-63050000D01*
X116463746Y-62863769D01*
X116485673Y-62791486D01*
X116518068Y-62684692D01*
X116518068Y-62684691D01*
X116606283Y-62519653D01*
X116724999Y-62374999D01*
X116869653Y-62256283D01*
X117034691Y-62168068D01*
X117124230Y-62140907D01*
X117213768Y-62113746D01*
X117353334Y-62100000D01*
X117446666Y-62100000D01*
X117586232Y-62113746D01*
X117586232Y-62113746D01*
G37*
G36*
X120126232Y-62113746D02*
X120215770Y-62140907D01*
X120305309Y-62168068D01*
X120470347Y-62256283D01*
X120615001Y-62374999D01*
X120733717Y-62519653D01*
X120821932Y-62684691D01*
X120821932Y-62684692D01*
X120854328Y-62791486D01*
X120876254Y-62863769D01*
X120894596Y-63050000D01*
X120876254Y-63236231D01*
X120821932Y-63415309D01*
X120733717Y-63580347D01*
X120615001Y-63725001D01*
X120470347Y-63843717D01*
X120305309Y-63931932D01*
X120215770Y-63959093D01*
X120126232Y-63986254D01*
X119986666Y-64000000D01*
X119893334Y-64000000D01*
X119753768Y-63986254D01*
X119664230Y-63959093D01*
X119574691Y-63931932D01*
X119409653Y-63843717D01*
X119264999Y-63725001D01*
X119146283Y-63580347D01*
X119058068Y-63415309D01*
X119003746Y-63236231D01*
X118985404Y-63050000D01*
X119003746Y-62863769D01*
X119025673Y-62791486D01*
X119058068Y-62684692D01*
X119058068Y-62684691D01*
X119146283Y-62519653D01*
X119264999Y-62374999D01*
X119409653Y-62256283D01*
X119574691Y-62168068D01*
X119664230Y-62140907D01*
X119753768Y-62113746D01*
X119893334Y-62100000D01*
X119986666Y-62100000D01*
X120126232Y-62113746D01*
X120126232Y-62113746D01*
G37*
G36*
X122666232Y-62113746D02*
X122755770Y-62140907D01*
X122845309Y-62168068D01*
X123010347Y-62256283D01*
X123155001Y-62374999D01*
X123273717Y-62519653D01*
X123361932Y-62684691D01*
X123361932Y-62684692D01*
X123394328Y-62791486D01*
X123416254Y-62863769D01*
X123434596Y-63050000D01*
X123416254Y-63236231D01*
X123361932Y-63415309D01*
X123273717Y-63580347D01*
X123155001Y-63725001D01*
X123010347Y-63843717D01*
X122845309Y-63931932D01*
X122755770Y-63959093D01*
X122666232Y-63986254D01*
X122526666Y-64000000D01*
X122433334Y-64000000D01*
X122293768Y-63986254D01*
X122204230Y-63959093D01*
X122114691Y-63931932D01*
X121949653Y-63843717D01*
X121804999Y-63725001D01*
X121686283Y-63580347D01*
X121598068Y-63415309D01*
X121543746Y-63236231D01*
X121525404Y-63050000D01*
X121543746Y-62863769D01*
X121565673Y-62791486D01*
X121598068Y-62684692D01*
X121598068Y-62684691D01*
X121686283Y-62519653D01*
X121804999Y-62374999D01*
X121949653Y-62256283D01*
X122114691Y-62168068D01*
X122204230Y-62140907D01*
X122293768Y-62113746D01*
X122433334Y-62100000D01*
X122526666Y-62100000D01*
X122666232Y-62113746D01*
X122666232Y-62113746D01*
G37*
G36*
X125206232Y-62113746D02*
X125295770Y-62140907D01*
X125385309Y-62168068D01*
X125550347Y-62256283D01*
X125695001Y-62374999D01*
X125813717Y-62519653D01*
X125901932Y-62684691D01*
X125901932Y-62684692D01*
X125934328Y-62791486D01*
X125956254Y-62863769D01*
X125974596Y-63050000D01*
X125956254Y-63236231D01*
X125901932Y-63415309D01*
X125813717Y-63580347D01*
X125695001Y-63725001D01*
X125550347Y-63843717D01*
X125385309Y-63931932D01*
X125295770Y-63959093D01*
X125206232Y-63986254D01*
X125066666Y-64000000D01*
X124973334Y-64000000D01*
X124833768Y-63986254D01*
X124744230Y-63959093D01*
X124654691Y-63931932D01*
X124489653Y-63843717D01*
X124344999Y-63725001D01*
X124226283Y-63580347D01*
X124138068Y-63415309D01*
X124083746Y-63236231D01*
X124065404Y-63050000D01*
X124083746Y-62863769D01*
X124105673Y-62791486D01*
X124138068Y-62684692D01*
X124138068Y-62684691D01*
X124226283Y-62519653D01*
X124344999Y-62374999D01*
X124489653Y-62256283D01*
X124654691Y-62168068D01*
X124744230Y-62140907D01*
X124833768Y-62113746D01*
X124973334Y-62100000D01*
X125066666Y-62100000D01*
X125206232Y-62113746D01*
X125206232Y-62113746D01*
G37*
G36*
X127746232Y-62113746D02*
X127835770Y-62140907D01*
X127925309Y-62168068D01*
X128090347Y-62256283D01*
X128235001Y-62374999D01*
X128353717Y-62519653D01*
X128441932Y-62684691D01*
X128441932Y-62684692D01*
X128474328Y-62791486D01*
X128496254Y-62863769D01*
X128514596Y-63050000D01*
X128496254Y-63236231D01*
X128441932Y-63415309D01*
X128353717Y-63580347D01*
X128235001Y-63725001D01*
X128090347Y-63843717D01*
X127925309Y-63931932D01*
X127835770Y-63959093D01*
X127746232Y-63986254D01*
X127606666Y-64000000D01*
X127513334Y-64000000D01*
X127373768Y-63986254D01*
X127284230Y-63959093D01*
X127194691Y-63931932D01*
X127029653Y-63843717D01*
X126884999Y-63725001D01*
X126766283Y-63580347D01*
X126678068Y-63415309D01*
X126623746Y-63236231D01*
X126605404Y-63050000D01*
X126623746Y-62863769D01*
X126645673Y-62791486D01*
X126678068Y-62684692D01*
X126678068Y-62684691D01*
X126766283Y-62519653D01*
X126884999Y-62374999D01*
X127029653Y-62256283D01*
X127194691Y-62168068D01*
X127284230Y-62140907D01*
X127373768Y-62113746D01*
X127513334Y-62100000D01*
X127606666Y-62100000D01*
X127746232Y-62113746D01*
X127746232Y-62113746D01*
G37*
G36*
X130286232Y-62113746D02*
X130375770Y-62140907D01*
X130465309Y-62168068D01*
X130630347Y-62256283D01*
X130775001Y-62374999D01*
X130893717Y-62519653D01*
X130981932Y-62684691D01*
X130981932Y-62684692D01*
X131014328Y-62791486D01*
X131036254Y-62863769D01*
X131054596Y-63050000D01*
X131036254Y-63236231D01*
X130981932Y-63415309D01*
X130893717Y-63580347D01*
X130775001Y-63725001D01*
X130630347Y-63843717D01*
X130465309Y-63931932D01*
X130375770Y-63959093D01*
X130286232Y-63986254D01*
X130146666Y-64000000D01*
X130053334Y-64000000D01*
X129913768Y-63986254D01*
X129824230Y-63959093D01*
X129734691Y-63931932D01*
X129569653Y-63843717D01*
X129424999Y-63725001D01*
X129306283Y-63580347D01*
X129218068Y-63415309D01*
X129163746Y-63236231D01*
X129145404Y-63050000D01*
X129163746Y-62863769D01*
X129185673Y-62791486D01*
X129218068Y-62684692D01*
X129218068Y-62684691D01*
X129306283Y-62519653D01*
X129424999Y-62374999D01*
X129569653Y-62256283D01*
X129734691Y-62168068D01*
X129824230Y-62140907D01*
X129913768Y-62113746D01*
X130053334Y-62100000D01*
X130146666Y-62100000D01*
X130286232Y-62113746D01*
X130286232Y-62113746D01*
G37*
G36*
X132826232Y-62113746D02*
X132915770Y-62140907D01*
X133005309Y-62168068D01*
X133170347Y-62256283D01*
X133315001Y-62374999D01*
X133433717Y-62519653D01*
X133521932Y-62684691D01*
X133521932Y-62684692D01*
X133554328Y-62791486D01*
X133576254Y-62863769D01*
X133594596Y-63050000D01*
X133576254Y-63236231D01*
X133521932Y-63415309D01*
X133433717Y-63580347D01*
X133315001Y-63725001D01*
X133170347Y-63843717D01*
X133005309Y-63931932D01*
X132915770Y-63959093D01*
X132826232Y-63986254D01*
X132686666Y-64000000D01*
X132593334Y-64000000D01*
X132453768Y-63986254D01*
X132364230Y-63959093D01*
X132274691Y-63931932D01*
X132109653Y-63843717D01*
X131964999Y-63725001D01*
X131846283Y-63580347D01*
X131758068Y-63415309D01*
X131703746Y-63236231D01*
X131685404Y-63050000D01*
X131703746Y-62863769D01*
X131725673Y-62791486D01*
X131758068Y-62684692D01*
X131758068Y-62684691D01*
X131846283Y-62519653D01*
X131964999Y-62374999D01*
X132109653Y-62256283D01*
X132274691Y-62168068D01*
X132364230Y-62140907D01*
X132453768Y-62113746D01*
X132593334Y-62100000D01*
X132686666Y-62100000D01*
X132826232Y-62113746D01*
X132826232Y-62113746D01*
G37*
G36*
X135366232Y-62113746D02*
X135455770Y-62140907D01*
X135545309Y-62168068D01*
X135710347Y-62256283D01*
X135855001Y-62374999D01*
X135973717Y-62519653D01*
X136061932Y-62684691D01*
X136061932Y-62684692D01*
X136094328Y-62791486D01*
X136116254Y-62863769D01*
X136134596Y-63050000D01*
X136116254Y-63236231D01*
X136061932Y-63415309D01*
X135973717Y-63580347D01*
X135855001Y-63725001D01*
X135710347Y-63843717D01*
X135545309Y-63931932D01*
X135455770Y-63959093D01*
X135366232Y-63986254D01*
X135226666Y-64000000D01*
X135133334Y-64000000D01*
X134993768Y-63986254D01*
X134904230Y-63959093D01*
X134814691Y-63931932D01*
X134649653Y-63843717D01*
X134504999Y-63725001D01*
X134386283Y-63580347D01*
X134298068Y-63415309D01*
X134243746Y-63236231D01*
X134225404Y-63050000D01*
X134243746Y-62863769D01*
X134265673Y-62791486D01*
X134298068Y-62684692D01*
X134298068Y-62684691D01*
X134386283Y-62519653D01*
X134504999Y-62374999D01*
X134649653Y-62256283D01*
X134814691Y-62168068D01*
X134904230Y-62140907D01*
X134993768Y-62113746D01*
X135133334Y-62100000D01*
X135226666Y-62100000D01*
X135366232Y-62113746D01*
X135366232Y-62113746D01*
G37*
G36*
X112506232Y-62113746D02*
X112595770Y-62140907D01*
X112685309Y-62168068D01*
X112850347Y-62256283D01*
X112995001Y-62374999D01*
X113113717Y-62519653D01*
X113201932Y-62684691D01*
X113201932Y-62684692D01*
X113234328Y-62791486D01*
X113256254Y-62863769D01*
X113274596Y-63050000D01*
X113256254Y-63236231D01*
X113201932Y-63415309D01*
X113113717Y-63580347D01*
X112995001Y-63725001D01*
X112850347Y-63843717D01*
X112685309Y-63931932D01*
X112595770Y-63959093D01*
X112506232Y-63986254D01*
X112366666Y-64000000D01*
X112273334Y-64000000D01*
X112133768Y-63986254D01*
X112044230Y-63959093D01*
X111954691Y-63931932D01*
X111789653Y-63843717D01*
X111644999Y-63725001D01*
X111526283Y-63580347D01*
X111438068Y-63415309D01*
X111383746Y-63236231D01*
X111365404Y-63050000D01*
X111383746Y-62863769D01*
X111405673Y-62791486D01*
X111438068Y-62684692D01*
X111438068Y-62684691D01*
X111526283Y-62519653D01*
X111644999Y-62374999D01*
X111789653Y-62256283D01*
X111954691Y-62168068D01*
X112044230Y-62140907D01*
X112133768Y-62113746D01*
X112273334Y-62100000D01*
X112366666Y-62100000D01*
X112506232Y-62113746D01*
X112506232Y-62113746D01*
G37*
M02*
