M48
;DRILL file {KiCad (5.0.2)-1} date 4/29/2019 5:38:53 PM
;FORMAT={-:-/ absolute / metric / decimal}
FMAT,2
METRIC,TZ
T1C0.200
T2C0.800
T3C1.000
T4C1.200
%
G90
G05
T1
X85.344Y-68.326
X90.17Y-73.152
X90.525Y-75.793
X91.44Y-70.866
X92.075Y-86.106
X97.79Y-72.39
X98.425Y-98.044
X101.806Y-81.026
X102.235Y-89.281
X102.235Y-89.281
X104.14Y-71.628
X104.394Y-72.898
X105.664Y-67.564
X105.664Y-69.088
X105.791Y-105.283
X107.188Y-73.66
X107.442Y-78.994
X107.696Y-80.264
X107.696Y-80.264
X108.204Y-83.329
X108.248Y-73.214
X110.236Y-74.676
X110.236Y-75.438
X110.49Y-69.85
X110.49Y-69.85
X110.49Y-69.85
X113.615Y-102.29
X114.046Y-77.724
X115.824Y-70.612
X115.824Y-86.36
X115.824Y-86.36
X115.824Y-98.806
X116.078Y-94.234
X116.84Y-69.088
X117.71Y-76.57
X117.946Y-98.298
X117.968Y-102.291
X118.364Y-77.724
X119.126Y-73.195
X119.38Y-107.442
X120.142Y-84.582
X120.636Y-101.73
X120.904Y-84.074
X120.994Y-104.55
X121.285Y-95.25
X121.44Y-106.705
X121.529Y-103.749
X121.666Y-91.694
X121.92Y-77.724
X121.92Y-77.724
X121.92Y-77.724
X121.92Y-82.296
X122.174Y-100.838
X122.682Y-82.296
X123.444Y-103.886
X123.952Y-100.076
X123.952Y-100.076
X125.613Y-95.367
X125.73Y-80.01
X125.984Y-82.55
X126.492Y-96.52
X126.738Y-91.194
X128.016Y-84.074
X128.27Y-78.232
X128.524Y-71.628
X128.712Y-107.696
X128.778Y-72.39
X128.795Y-78.994
X129.032Y-78.232
X129.54Y-104.14
X129.86Y-85.725
X130.048Y-72.39
X130.048Y-73.66
X130.229Y-104.194
X130.81Y-76.2
X130.81Y-84.328
X131.064Y-69.325
X131.064Y-71.628
X131.66Y-93.399
X132.08Y-97.155
X132.08Y-72.661
X132.08Y-94.742
X132.13Y-73.312
X132.715Y-97.79
X132.842Y-94.765
X132.842Y-76.454
X132.928Y-88.32
X133.208Y-98.938
X133.604Y-93.218
X133.604Y-100.33
X133.875Y-98.298
X135.128Y-90.678
X135.382Y-75.692
X135.382Y-77.978
X136.17Y-110.21
X136.906Y-104.14
X138.084Y-90.424
X138.43Y-78.105
X138.684Y-76.2
X138.684Y-90.424
X139.065Y-81.28
T2
X124.46Y-70.685
X124.46Y-75.565
T3
X81.28Y-85.852
X81.28Y-88.392
X89.662Y-77.47
X89.662Y-92.202
X89.662Y-94.488
X89.662Y-109.22
X109.22Y-77.47
X109.22Y-92.202
X113.03Y-114.935
X115.57Y-114.935
X118.11Y-114.935
X120.65Y-114.935
X109.22Y-94.488
X109.22Y-109.22
X86.92Y-63.05
X86.92Y-65.59
X89.46Y-63.05
X89.46Y-65.59
X92.Y-63.05
X92.Y-65.59
X94.54Y-63.05
X94.54Y-65.59
X97.08Y-63.05
X97.08Y-65.59
X99.62Y-63.05
X99.62Y-65.59
X102.16Y-63.05
X102.16Y-65.59
X104.7Y-63.05
X104.7Y-65.59
X107.24Y-63.05
X107.24Y-65.59
X109.78Y-63.05
X109.78Y-65.59
X112.32Y-63.05
X112.32Y-65.59
X114.86Y-63.05
X114.86Y-65.59
X117.4Y-63.05
X117.4Y-65.59
X119.94Y-63.05
X119.94Y-65.59
X122.48Y-63.05
X122.48Y-65.59
X125.02Y-63.05
X125.02Y-65.59
X127.56Y-63.05
X127.56Y-65.59
X130.1Y-63.05
X130.1Y-65.59
X132.64Y-63.05
X132.64Y-65.59
X135.18Y-63.05
X135.18Y-65.59
X113.03Y-112.395
X115.57Y-112.395
X118.11Y-112.395
X120.65Y-112.395
X139.065Y-93.98
X139.065Y-96.52
X139.065Y-99.06
X139.065Y-101.6
X139.065Y-104.14
X139.065Y-106.68
X125.73Y-112.395
X125.73Y-114.935
X128.27Y-112.395
X128.27Y-114.935
X130.81Y-112.395
X130.81Y-114.935
X141.605Y-93.98
X141.605Y-96.52
X141.605Y-99.06
X141.605Y-101.6
X141.605Y-104.14
X141.605Y-106.68
X141.605Y-81.28
X141.605Y-83.82
X141.605Y-86.36
X141.605Y-88.9
X141.605Y-71.12
X141.605Y-73.66
X141.605Y-76.2
X81.28Y-73.66
X81.28Y-76.2
X81.28Y-78.74
T4
X83.82Y-100.64
X83.82Y-104.14
X83.82Y-107.64
T0
M30
